<svg width="284" height="268" viewBox="0 0 284 268" fill="none" xmlns="http://www.w3.org/2000/svg">
<path d="M47.5959 261.314C51.0167 257.845 54.2377 254.205 57.245 250.409L57.245 267.407L61.5104 263.375L61.5104 244.763C64.3623 240.763 66.9776 236.617 69.3443 232.344C69.4832 232.305 69.6121 232.239 69.7233 232.151C69.8344 232.063 69.9254 231.955 69.9906 231.833C70.0558 231.71 70.0939 231.577 70.1026 231.44C70.1113 231.303 70.0904 231.166 70.0412 231.037C72.574 226.345 74.8071 221.513 76.7286 216.568C79.1191 216.011 81.4529 215.256 83.7027 214.311C94.5882 218.544 104.372 210.964 106.985 200.984C107.023 200.847 107.019 200.704 106.974 200.569C108.12 200.346 107.654 198.694 106.496 198.896C100.961 199.974 96.156 198.503 91.0758 201.595C86.7542 204.213 84.2253 208.367 82.6349 212.855C80.9312 213.562 79.1773 214.154 77.3861 214.629C79.5527 208.763 81.2748 202.758 82.5394 196.66C82.7795 196.631 83.0067 196.541 83.1969 196.4L93.7901 188.161C94.7295 189.03 95.9732 189.543 97.2859 189.604C98.5986 189.664 99.8892 189.268 100.914 188.49C101.938 187.711 102.625 186.605 102.845 185.38C103.064 184.156 102.801 182.897 102.106 181.843C101.41 180.789 100.329 180.013 99.0689 179.661C97.8084 179.31 96.4553 179.407 95.2655 179.935C94.0757 180.462 93.1318 181.384 92.6124 182.525C92.093 183.666 92.0342 184.947 92.447 186.127L83.1913 193.314C84.0082 188.77 84.571 184.188 84.8773 179.588C86.0737 179.462 87.1892 178.955 88.0407 178.15C88.8923 177.346 89.4293 176.292 89.5637 175.161C89.6981 174.03 89.4218 172.89 88.7803 171.927C88.1387 170.964 87.17 170.236 86.033 169.862C84.896 169.488 83.6583 169.49 82.5229 169.869C81.3875 170.247 80.4218 170.979 79.7843 171.944C79.1468 172.909 78.8754 174.051 79.0146 175.181C79.1537 176.311 79.6951 177.363 80.5501 178.165C81.0687 178.65 81.6861 179.032 82.3652 179.285C82.1629 182.472 81.8426 185.654 81.393 188.799C79.014 186.677 76.5619 184.632 74.0368 182.664C74.6425 181.579 74.8067 180.321 74.4983 179.13C74.19 177.938 73.4304 176.894 72.3632 176.196C71.296 175.498 69.9953 175.193 68.7066 175.34C67.418 175.486 66.2308 176.074 65.3696 176.992C64.5083 177.91 64.0326 179.094 64.0325 180.321C64.0323 181.548 64.5076 182.732 65.3686 183.65C66.2296 184.568 67.4165 185.157 68.7051 185.304C69.9937 185.451 71.2947 185.146 72.3621 184.448C75.3124 186.748 78.1785 189.139 80.9266 191.651C78.8211 204.239 74.7491 216.462 68.8441 227.919C66.7097 222.163 64.2504 216.519 61.4767 211.012L61.471 172.508C67.4974 162.451 72.5712 151.91 76.6331 141.009C76.7506 140.97 76.8593 140.911 76.9534 140.834L83.0396 135.74C83.089 135.77 83.1417 135.795 83.1969 135.814C93.3237 138.066 100.517 129.876 100.539 120.867C100.539 120.867 100.539 120.867 100.5 120.83C100.59 120.689 100.632 120.527 100.622 120.363C100.611 120.199 100.549 120.043 100.442 119.913C100.336 119.784 100.19 119.688 100.025 119.638C99.8599 119.589 99.6826 119.587 99.5166 119.635C94.8635 121.228 89.0639 122.429 85.2144 125.525C82.1741 127.964 81.6459 131.236 81.393 134.778L81.4323 134.816L77.7964 137.859C79.2762 133.592 80.565 129.29 81.6627 124.952C81.7194 124.824 81.75 124.687 81.7527 124.548C82.2472 122.593 82.6931 120.632 83.0902 118.663C83.1817 118.598 83.263 118.521 83.3318 118.434C85.9706 115.169 88.9387 112.154 92.1941 109.431C92.3065 109.537 92.4133 109.638 92.5313 109.75C93.4739 110.537 94.6846 110.978 95.9427 110.993C97.2007 111.007 98.4222 110.593 99.3845 109.827C100.347 109.061 100.986 107.993 101.185 106.819C101.384 105.645 101.129 104.442 100.469 103.43C99.8076 102.419 98.7839 101.665 97.5841 101.307C96.3843 100.949 95.0884 101.011 93.9327 101.481C92.7769 101.95 91.8384 102.797 91.2881 103.867C90.7379 104.936 90.6127 106.157 90.9353 107.306C88.4618 109.359 86.1411 111.57 83.9893 113.925C84.6487 109.973 85.1245 106.014 85.4167 102.048C85.4142 101.972 85.4029 101.897 85.383 101.825C86.6343 101.654 87.7757 101.055 88.5906 100.142C89.4055 99.2282 89.8371 98.0637 89.8034 96.8692C89.7697 95.6747 89.2731 94.5335 88.4079 93.6624C87.5426 92.7912 86.3691 92.2507 85.11 92.1435C83.8509 92.0364 82.5939 92.37 81.578 93.0811C80.562 93.7921 79.8577 94.8311 79.5988 96.0006C79.3399 97.1702 79.5443 98.3889 80.1735 99.4254C80.8026 100.462 81.8126 101.244 83.0115 101.623C82.9434 101.756 82.9015 101.9 82.8878 102.048C82.4506 107.98 81.5944 113.879 80.3252 119.704C79.2854 116.816 77.9706 114.023 76.397 111.359L76.4813 111.279C77.3471 110.376 77.8348 109.205 77.8529 107.986C77.8711 106.767 77.4185 105.584 76.5798 104.658C75.7412 103.732 74.5742 103.126 73.2973 102.955C72.0203 102.784 70.7212 103.058 69.6431 103.727C68.565 104.396 67.7819 105.414 67.4406 106.59C67.0992 107.765 67.2229 109.018 67.7886 110.113C68.3543 111.209 69.3231 112.072 70.5136 112.541C71.7041 113.01 73.0346 113.052 74.2559 112.66C76.4252 116.378 78.0816 120.342 79.1844 124.458C77.6577 130.485 75.7644 136.425 73.5141 142.247C70.9255 137.565 67.9647 133.077 64.6574 128.819C64.624 128.684 64.5626 128.557 64.4768 128.445C64.3909 128.332 64.2823 128.237 64.1573 128.165C63.2694 127.007 62.3739 125.857 61.471 124.713L61.471 57.2858L114.752 57.2911C121.704 59.8609 128.855 61.9244 136.14 63.4633C132.117 65.418 128.059 67.3196 123.968 69.1681L111.61 66.2201C111.812 65.0489 111.559 63.8483 110.898 62.8395C110.237 61.8306 109.213 61.0815 108.014 60.7301C106.815 60.3787 105.522 60.4488 104.373 60.9273C103.224 61.4059 102.297 62.2606 101.762 63.3342C101.228 64.4078 101.122 65.6278 101.463 66.7696C101.805 67.9113 102.572 68.8978 103.623 69.5474C104.673 70.1969 105.937 70.4657 107.181 70.3043C108.424 70.1428 109.564 69.562 110.391 68.6688C110.464 68.5997 110.503 68.5094 110.571 68.4351L120.321 70.7669C119.051 71.3193 117.786 71.8877 116.488 72.4561C115.382 71.8458 114.079 71.6371 112.822 71.8689C111.566 72.1007 110.441 72.7573 109.659 73.7157C108.877 74.6742 108.491 75.869 108.573 77.0768C108.655 78.2847 109.2 79.423 110.106 80.2788C111.011 81.1347 112.215 81.6495 113.493 81.7272C114.771 81.8049 116.035 81.4401 117.049 80.701C118.063 79.9619 118.758 78.8989 119.003 77.711C119.249 76.523 119.028 75.2914 118.382 74.2461C120.353 73.3891 122.32 72.5251 124.283 71.654C124.484 71.6728 124.687 71.6403 124.871 71.56C125.055 71.4796 125.213 71.3544 125.328 71.1971C126.244 70.7881 127.143 70.3633 128.054 69.9383C127.423 72.2947 126.538 74.5836 125.412 76.7692C124.17 77.0014 123.06 77.6523 122.288 78.6006C121.516 79.5488 121.134 80.73 121.215 81.9241C121.295 83.1183 121.832 84.2442 122.725 85.0923C123.618 85.9404 124.807 86.4529 126.07 86.5345C127.333 86.6161 128.584 86.2611 129.591 85.5357C130.598 84.8103 131.292 83.7638 131.543 82.5911C131.795 81.4183 131.587 80.1992 130.959 79.1604C130.33 78.1217 129.324 77.3342 128.127 76.9444C129.373 74.357 130.313 71.6476 130.931 68.8653C130.942 68.7843 130.942 68.7021 130.931 68.621C137.993 65.3313 144.958 61.868 151.825 58.2312C151.686 59.6676 151.44 61.093 151.089 62.4966C147.47 62.8897 143.615 63.9308 141.901 67.2931C141.222 68.8998 140.929 70.6285 141.041 72.3552C140.979 76.5461 140.928 79.8128 138.99 83.6425C138.931 83.7524 138.899 83.8731 138.895 83.996C138.891 84.119 138.916 84.2413 138.967 84.3543C138.983 84.4684 139.025 84.5779 139.091 84.675C139.157 84.772 139.244 84.8543 139.347 84.9161C139.45 84.9778 139.566 85.0176 139.686 85.0325C139.807 85.0474 139.93 85.0371 140.046 85.0023C147.616 82.9361 164.919 69.6196 152.893 62.7568C153.348 60.9726 153.639 59.1546 153.764 57.323H193.675C197.805 60.6288 202.301 63.5031 207.084 65.8961C200.568 69.4461 193.82 72.6024 186.881 75.3457C181.787 73.8783 176.601 72.7128 171.354 71.8559C171.553 70.6828 171.297 69.4811 170.633 68.4722C169.969 67.4634 168.942 66.7152 167.74 66.3656C166.539 66.0159 165.244 66.0884 164.095 66.5695C162.945 67.0506 162.019 67.908 161.485 68.9839C160.952 70.0597 160.847 71.2816 161.192 72.4243C161.536 73.5671 162.305 74.5538 163.358 75.2029C164.411 75.8519 165.677 76.1195 166.922 75.9563C168.167 75.7932 169.308 75.2104 170.134 74.3152C170.19 74.2469 170.243 74.1759 170.292 74.1027C174.606 74.7909 178.879 75.6917 183.093 76.8011C179.727 78.0493 176.327 79.2125 172.865 80.2749C172.865 80.2749 172.826 80.3121 172.809 80.3281C172.513 79.6213 172.045 78.99 171.444 78.4849C170.56 77.7397 169.437 77.2979 168.255 77.231C167.073 77.1641 165.902 77.476 164.931 78.1162C163.959 78.7564 163.245 79.6874 162.903 80.7589C162.561 81.8303 162.612 82.9795 163.046 84.0205C163.481 85.0615 164.274 85.9335 165.298 86.4954C166.322 87.0574 167.517 87.2765 168.689 87.1173C169.861 86.9581 170.942 86.4299 171.757 85.6181C172.572 84.8063 173.073 83.7584 173.18 82.6439C173.296 82.6438 173.41 82.6314 173.523 82.6068C175.081 82.1252 176.627 81.6276 178.159 81.1142C177.077 83.4052 175.811 85.6144 174.371 87.722C173.381 87.534 172.352 87.6874 171.471 88.1546C170.589 88.6217 169.914 89.3717 169.568 90.2687C169.221 91.1656 169.226 92.1503 169.581 93.0444C169.936 93.9385 170.618 94.6829 171.503 95.1427C172.389 95.6025 173.419 95.7474 174.408 95.5511C175.397 95.3549 176.278 94.8304 176.893 94.0727C177.508 93.3151 177.816 92.3742 177.761 91.4207C177.705 90.4672 177.29 89.564 176.591 88.8746C178.474 86.1003 180.075 83.164 181.374 80.1049C181.374 80.1049 181.379 80.0466 181.39 80.0147C183.327 79.3313 185.253 78.6159 187.168 77.8687C187.314 77.8684 187.459 77.839 187.593 77.7822C187.726 77.7255 187.846 77.6427 187.943 77.5393C192.611 75.6838 197.184 73.653 201.661 71.4468C200.654 73.0544 199.748 74.7164 198.947 76.424C198.795 76.4166 198.644 76.4401 198.503 76.493C193.203 78.7186 188.207 82.134 186.847 87.7857C185.218 94.5741 191.613 99.2696 192.225 105.681C192.31 106.663 193.821 106.754 194.001 105.925C203.431 98.6163 212.26 85.1935 201.363 75.5953C202.392 73.6057 203.562 71.6838 204.864 69.8426C206.584 68.9503 208.281 68.0367 209.967 67.0912C210.235 67.1019 210.5 67.0387 210.73 66.9095C210.961 66.7803 211.147 66.5906 211.265 66.3635C216.173 63.5731 220.938 60.5631 225.562 57.3336L228.411 57.3283C228.315 58.1091 228.259 58.8847 228.203 59.6496L228.192 59.7238L228.158 59.7557C224.072 62.4063 220.442 66.3795 221.206 71.3938C222.027 76.8223 227.759 79.9456 229.709 84.9014C229.769 85.0406 229.864 85.1639 229.985 85.261C230.107 85.358 230.251 85.426 230.406 85.4588C230.561 85.4917 230.722 85.4887 230.876 85.4499C231.03 85.4111 231.171 85.3376 231.288 85.236C231.462 85.2679 231.641 85.249 231.803 85.1815C231.965 85.1141 232.101 85.0015 232.193 84.8589C235.166 80.5086 237.818 75.7387 237.116 70.3898C236.806 68.1912 236.012 66.0783 234.786 64.1873C233.56 62.2963 231.928 60.6691 229.996 59.4105C230.029 58.7093 230.102 58.0029 230.203 57.3124L249.991 57.307C252.94 59.6124 256.062 61.7142 259.331 63.5962C260.735 64.3929 261.977 62.3054 260.584 61.5086C258.329 60.2226 256.151 58.82 254.059 57.3071L279.579 57.3123L283.833 53.2914L248.822 53.302C244.77 49.9184 241.01 46.2481 237.301 42.4874C237.362 42.3789 237.396 42.2591 237.402 42.1367C237.459 41.0213 237.588 39.9218 237.74 38.8223C247.939 36.2886 252.098 22.2975 246.237 14.5159C246.163 14.4036 246.063 14.309 245.944 14.2397C245.889 14.0837 245.788 13.9459 245.652 13.8425C245.517 13.7391 245.353 13.6745 245.18 13.6561C245.007 13.6377 244.832 13.6662 244.676 13.7385C244.52 13.8109 244.388 13.924 244.298 14.0644C241.516 18.7228 235.177 20.8368 233.278 25.851C231.8 29.7658 233.519 33.7921 235.643 37.1385C235.694 37.226 235.764 37.3031 235.846 37.3652C235.929 37.4272 236.025 37.4728 236.127 37.4996C235.941 38.5991 235.795 39.7146 235.705 40.8407C233.547 38.631 231.395 36.416 229.214 34.2276C225.078 30.0682 220.631 26.1948 215.907 22.6374C215.874 22.4691 215.799 22.3106 215.688 22.1753C212.061 17.331 208.273 12.6036 204.325 7.99304C204.424 7.90987 204.518 7.8212 204.606 7.72744C205.33 6.96211 205.743 5.97856 205.772 4.95202C205.801 3.92548 205.443 2.92279 204.762 2.12236C204.082 1.32194 203.123 0.775802 202.056 0.581461C200.989 0.387114 199.884 0.55706 198.937 1.06107C197.991 1.56506 197.264 2.37042 196.887 3.33352C196.51 4.29659 196.507 5.3549 196.879 6.31985C197.25 7.28482 197.972 8.09378 198.916 8.60256C199.86 9.11132 200.964 9.28687 202.032 9.09791C204.579 12.0796 207.062 15.1019 209.478 18.165C204.153 14.7419 198.497 11.8037 192.585 9.39002C192.862 8.22424 192.679 7.00305 192.071 5.95558C191.463 4.90812 190.471 4.10647 189.282 3.70107C188.093 3.29566 186.788 3.31434 185.613 3.75372C184.437 4.19309 183.472 5.02288 182.898 6.08732C182.324 7.15178 182.18 8.37782 182.495 9.53508C182.809 10.6924 183.559 11.7014 184.605 12.3728C185.651 13.0442 186.92 13.3319 188.174 13.1817C189.428 13.0316 190.581 12.4539 191.416 11.5572L191.455 11.52C196.523 13.591 201.396 16.0645 206.022 18.9139C203.098 19.5979 200.108 20.0001 197.098 20.1144C196.333 19.1307 195.216 18.444 193.954 18.1829C192.693 17.9219 191.374 18.1044 190.245 18.6962C189.115 19.288 188.253 20.2485 187.819 21.398C187.385 22.5476 187.409 23.8072 187.887 24.9411C188.364 26.0751 189.263 27.0057 190.414 27.5585C191.565 28.1114 192.89 28.2486 194.141 27.9447C195.392 27.6407 196.482 26.9163 197.208 25.9072C197.935 24.898 198.247 23.6733 198.087 22.4622C201.662 22.2743 205.203 21.7004 208.641 20.7518C208.685 20.732 208.729 20.7089 208.77 20.6827C215.248 25.017 221.279 29.9203 226.781 35.3271C225.421 35.4333 224.055 35.5237 222.69 35.5822C222.634 35.5083 222.566 35.4437 222.488 35.3909C222.472 35.2582 222.42 35.1317 222.336 35.0244C219.796 31.7949 215.283 28.1775 210.697 28.5918C208.788 28.8734 206.997 29.6473 205.522 30.8282C202.431 32.9635 199.93 34.7747 196.052 35.4652C194.957 35.6618 195.361 37.1809 196.384 37.1172C200.458 40.915 205.527 44.0808 211.467 43.9374C213.764 43.9247 216.01 43.2921 217.939 42.1139C219.869 40.9358 221.402 39.2612 222.358 37.2872C224.382 37.2022 226.405 37.0853 228.428 36.9153C229.051 37.5049 229.647 38.1318 230.243 38.7479C232.457 41.0213 234.649 43.2948 236.874 45.5151C233.665 48.2187 230.383 50.8002 227.006 53.2702L192.383 53.2648C185.077 47.4219 178.103 40.9789 170.218 35.9699C170.249 35.8344 170.243 35.6938 170.202 35.5609C169.134 32.3115 167.759 29.1595 166.094 26.1432C166.17 26.0926 166.237 26.0297 166.29 25.9572C169.066 21.6441 169.763 17.9897 166.459 13.7085C162.39 8.43925 155.551 4.66261 149.381 2.08113C149.201 2.00454 149 1.98291 148.807 2.01925C148.614 2.05562 148.437 2.14809 148.303 2.28383C148.168 2.41955 148.081 2.59177 148.054 2.77637C148.028 2.96096 148.063 3.14874 148.155 3.31344C148.785 9.02885 147.621 14.7178 150.931 19.8861C152.39 22.1414 154.374 24.0526 156.731 25.4746C159.089 26.8967 161.758 27.792 164.537 28.0926C164.723 28.1114 164.91 28.0781 165.076 27.997C166.182 30.13 167.142 32.3284 167.948 34.5782C159.859 29.835 151.278 25.8855 142.339 22.7915C142.303 22.6324 142.232 22.4822 142.131 22.3506C138.323 17.4264 133.938 12.9253 129.06 8.93324C128.974 8.87189 128.882 8.82025 128.784 8.77927C129.465 7.74444 129.72 6.50902 129.499 5.30824C129.279 4.10746 128.599 3.02511 127.59 2.26741C126.58 1.50973 125.31 1.12952 124.023 1.19923C122.736 1.26894 121.521 1.78378 120.609 2.64553C119.697 3.50728 119.153 4.65582 119.079 5.87254C119.005 7.08923 119.407 8.28905 120.209 9.24358C121.011 10.1981 122.156 10.8406 123.426 11.0488C124.696 11.257 126.003 11.0165 127.098 10.3728C127.148 10.4542 127.208 10.5291 127.278 10.5958C131.26 13.8661 134.903 17.4873 138.158 21.4104C133.748 20.0117 129.273 18.813 124.732 17.8144C124.898 16.6396 124.612 15.4477 123.925 14.4559C123.239 13.464 122.198 12.7382 120.993 12.4108C119.788 12.0835 118.499 12.1762 117.36 12.6723C116.221 13.1683 115.309 14.0345 114.789 15.1131C114.27 16.1918 114.178 17.411 114.529 18.5486C114.881 19.6861 115.654 20.6663 116.707 21.3104C117.759 21.9546 119.021 22.2197 120.264 22.0577C121.506 21.8957 122.645 21.3173 123.473 20.4278C123.577 20.3108 123.671 20.1864 123.755 20.0559C126.682 20.6987 129.588 21.4158 132.454 22.2232C127.783 23.9671 122.972 25.356 118.067 26.3769C117.731 25.3309 117.038 24.4198 116.095 23.7868C115.152 23.1537 114.013 22.8345 112.858 22.8791C111.702 22.9237 110.595 23.3296 109.71 24.0333C108.825 24.7369 108.212 25.6984 107.967 26.7669C107.723 27.8353 107.861 28.9502 108.359 29.9367C108.857 30.9232 109.688 31.7253 110.721 32.2174C111.754 32.7094 112.93 32.8634 114.065 32.6552C115.201 32.4471 116.231 31.8885 116.994 31.0672C117.588 30.4248 117.993 29.6463 118.169 28.8096C124.328 27.5518 130.344 25.7357 136.135 23.3864C136.159 23.3674 136.182 23.346 136.202 23.3226C143.674 25.6217 150.928 28.5091 157.889 31.9542C155.925 33.4889 153.814 34.8474 151.583 36.0123C151.521 35.8285 151.386 35.6744 151.207 35.5821C147.301 33.4202 142.946 31.1309 138.242 31.9861C132.499 33.0378 129.329 38.4346 124.862 41.4463C124.684 41.487 124.523 41.5752 124.398 41.7004C124.272 41.8257 124.188 41.9824 124.155 42.152C124.121 42.3215 124.141 42.4965 124.21 42.6559C124.28 42.8154 124.397 42.9523 124.547 43.0503C129.908 46.4817 134.988 49.1163 141.569 47.6981C147.262 46.4923 152.202 43.6931 151.803 37.8449C154.582 36.4467 157.193 34.7691 159.591 32.8413C162.896 34.5305 166.15 36.3311 169.314 38.2805C171.309 39.5181 173.231 40.8566 175.125 42.2536C168.823 46.0851 162.448 49.7698 156.001 53.3074L111.043 53.3074C105.884 51.2287 100.845 48.9092 95.9256 46.349C95.4199 45.0635 94.9085 43.7834 94.369 42.5086C94.5504 42.5485 94.7402 42.5366 94.9144 42.4741C95.0885 42.4117 95.239 42.3016 95.3468 42.158C103.49 31.6461 90.5082 24.4222 81.6571 20.8686C80.7074 20.4915 79.8925 21.6229 80.4939 22.1806C80.078 26.175 79.7352 30.4616 81.8032 34.1267C83.8713 37.7918 88.1423 40.352 92.0367 42.2058C92.1304 42.2423 92.2287 42.2672 92.329 42.2802C92.7168 43.1885 93.1213 44.0915 93.4641 45.0317C85.9973 40.9876 78.8135 36.4934 71.9575 31.5771C72.0274 31.3718 72.0293 31.1513 71.9631 30.945C71.0002 27.8543 69.7807 24.8403 68.3158 21.931C69.413 21.5967 70.3623 20.9285 71.0157 20.0308C71.669 19.1331 71.9897 18.0563 71.9276 16.9683C71.8656 15.8803 71.4245 14.8422 70.6729 14.016C69.9213 13.1899 68.9016 12.622 67.7728 12.401C66.6439 12.18 65.4694 12.3183 64.4325 12.7944C63.3956 13.2704 62.5545 14.0573 62.0403 15.0326C61.5262 16.0078 61.3679 17.1164 61.5902 18.1856C61.8126 19.2547 62.403 20.2243 63.2694 20.943C63.9535 21.5143 64.7885 21.8997 65.6858 22.0585C65.698 22.1959 65.7341 22.3305 65.7926 22.4569C66.9268 24.653 67.9123 26.915 68.743 29.2293C65.8806 27.1117 63.082 24.9303 60.3471 22.6853C60.8602 21.5956 60.9343 20.3664 60.5555 19.2287C60.1767 18.0911 59.3712 17.1234 58.2903 16.5079C57.2095 15.8924 55.928 15.6715 54.6869 15.8867C53.4458 16.1019 52.3306 16.7384 51.5512 17.6764C50.7719 18.6144 50.3821 19.7892 50.4552 20.9799C50.5283 22.1706 51.0592 23.2949 51.948 24.1415C52.8369 24.988 54.0224 25.4984 55.2815 25.5765C56.5406 25.6546 57.7865 25.2951 58.7848 24.5656C63.7414 28.6025 68.8891 32.4695 74.2166 36.1133C68.063 40.0918 60.7798 39.4119 53.8057 38.1955C53.9865 37.0219 53.7143 35.826 53.0386 34.8266C52.3629 33.8273 51.3291 33.0913 50.1264 32.7534C48.9236 32.4155 47.6324 32.4983 46.4889 32.9866C45.3455 33.4749 44.4262 34.3361 43.8995 35.4125C43.3728 36.4889 43.2738 37.7086 43.6206 38.8484C43.9674 39.9882 44.7369 40.9718 45.7882 41.6192C46.8394 42.2667 48.1022 42.5347 49.3454 42.3741C50.5886 42.2136 51.7291 41.6353 52.5581 40.7451C52.6412 40.6486 52.7182 40.5475 52.7885 40.4423C60.5719 41.8181 68.8104 42.6254 75.6553 38.0786C75.8781 37.9237 76.0402 37.7033 76.1161 37.4518C85.1775 43.5415 94.7887 48.865 104.839 53.3604L57.2506 53.3604L57.2506 119.417C54.1766 115.523 51.1925 111.566 48.4894 107.439C44.5632 101.25 41.7365 94.4939 40.1217 87.4404C40.8336 83.4293 42.1548 79.5363 44.0442 75.8821C45.2875 76.0447 46.5513 75.7792 47.6046 75.134C48.658 74.4889 49.4307 73.5072 49.7817 72.3682C50.1327 71.2292 50.0386 70.0089 49.5165 68.93C48.9945 67.8512 48.0793 66.9857 46.9382 66.4918C45.797 65.9979 44.5058 65.9084 43.3006 66.2397C42.0954 66.571 41.0565 67.3009 40.3735 68.2963C39.6905 69.2916 39.409 70.4859 39.5805 71.6611C39.752 72.8364 40.3649 73.9141 41.3074 74.6976C41.4198 74.8038 41.5716 74.8729 41.7008 74.9632C40.5869 77.1383 39.664 79.3963 38.9416 81.7143C37.9154 75.4615 37.2382 69.162 36.9128 62.8418C37.9899 62.2187 38.7896 61.2458 39.1622 60.1053C39.5348 58.9649 39.4547 57.7352 38.9369 56.6466C38.419 55.5579 37.499 54.6851 36.3492 54.1917C35.1994 53.6982 33.8987 53.6179 32.6907 53.9658C31.4827 54.3138 30.4504 55.0661 29.7872 56.0818C29.124 57.0975 28.8753 58.3069 29.0878 59.4835C29.3003 60.66 29.9594 61.723 30.9415 62.4732C31.9237 63.2235 33.1616 63.6095 34.4232 63.5589C34.6986 67.8561 35.019 72.1639 35.5303 76.4292C32.3013 73.1523 28.7839 70.1404 25.0158 67.4259C25.6811 66.3807 25.9188 65.1417 25.6842 63.9423C25.4496 62.743 24.7589 61.6662 23.7423 60.915C22.7257 60.1638 21.4533 59.7901 20.1653 59.8644C18.8773 59.9387 17.6626 60.4558 16.7501 61.3182C15.8376 62.1807 15.2906 63.3288 15.212 64.5463C15.1334 65.7637 15.5287 66.9663 16.3234 67.9272C17.1182 68.8881 18.2575 69.5409 19.5264 69.7627C20.7953 69.9844 22.1062 69.7597 23.2119 69.1309C27.885 72.4549 32.1557 76.2563 35.9462 80.4661C35.9968 80.5139 36.0362 80.5511 36.0867 80.5989C37.3624 88.8905 39.5653 96.9962 43.8194 104.565C44.1679 105.182 44.5388 105.798 44.9041 106.409C43.0008 105.601 41.1575 104.712 39.3742 103.742C39.3169 103.704 39.2545 103.674 39.1888 103.652C39.1045 103.572 38.9809 103.53 38.8797 103.476C38.9379 101.358 38.4707 99.2554 37.5153 97.3378C36.56 95.4203 35.1431 93.7407 33.378 92.4334C27.8538 88.2743 21.3012 88.9755 14.816 87.8176C14.6233 87.7819 14.4237 87.8048 14.2456 87.883C14.0676 87.9612 13.9203 88.0906 13.8249 88.2528C13.7294 88.4149 13.6907 88.6015 13.7143 88.7857C13.7379 88.9699 13.8225 89.1423 13.9562 89.2783C13.9634 89.415 14.0101 89.5472 14.091 89.6607C18.5419 96.0773 28.5619 114.227 39.0146 105.484C41.4155 106.746 43.8924 107.874 46.4327 108.863C49.7033 113.919 53.4461 118.679 57.2225 123.406L57.2225 126.901C55.8963 123.81 53.3393 121.797 49.7202 120.692C44.0217 118.95 39.4585 121.616 33.8219 120.899C33.6336 120.873 33.4413 120.902 33.2707 120.981C33.1001 121.061 32.9591 121.188 32.8666 121.345C32.7227 121.392 32.5936 121.473 32.4911 121.58C32.3885 121.686 32.3158 121.815 32.2795 121.955C32.2432 122.095 32.2445 122.241 32.2832 122.381C32.322 122.52 32.397 122.648 32.5013 122.753C35.89 126.147 39.1382 129.801 42.7629 132.972C44.8928 134.826 47.3037 136.202 50.299 135.942C52.9629 135.582 55.413 134.362 57.2338 132.489L57.2281 174.797C54.2534 179.585 51.1214 184.206 47.832 188.66C45.1907 184.995 42.4033 181.433 39.4698 177.973C39.8744 175.466 40.442 172.932 40.8635 170.42C45.0502 167.631 48.6581 163.106 48.1916 158.097C47.9949 155.914 46.8091 154.326 45.2862 152.748C42.3302 149.667 38.9135 146.894 35.7439 144.005C35.6014 143.879 35.4198 143.799 35.2258 143.777C35.0318 143.755 34.8356 143.793 34.6659 143.885C34.4962 143.976 34.3619 144.117 34.2828 144.285C34.2038 144.454 34.184 144.643 34.2265 144.823C34.7829 148.249 32.3215 150.459 31.1582 153.353C30.3743 155.255 30.1302 157.317 30.4501 159.334C31.147 163.897 33.6743 168.032 37.5085 170.882C37.6256 170.974 37.7651 171.036 37.9142 171.064C38.0634 171.092 38.2175 171.084 38.3627 171.042C38.4263 171.127 38.5073 171.2 38.6008 171.255C38.6944 171.311 38.7988 171.348 38.9078 171.366C38.5987 172.975 38.2559 174.584 37.9581 176.173C30.561 167.683 22.3142 159.888 13.3324 152.897C13.4637 152.652 13.4899 152.368 13.4055 152.105C12.2304 148.656 11.3527 145.123 10.7811 141.54C11.6898 141.322 12.5203 140.878 13.1863 140.255C14.0331 139.464 14.5772 138.43 14.7328 137.315C14.8884 136.199 14.6466 135.067 14.0456 134.096C13.4446 133.125 12.5187 132.371 11.4139 131.953C10.309 131.534 9.08829 131.476 7.94434 131.786C6.80039 132.096 5.79839 132.758 5.09643 133.666C4.39448 134.575 4.03257 135.678 4.06786 136.803C4.10315 137.927 4.53361 139.008 5.29129 139.876C6.04898 140.743 7.09077 141.348 8.25217 141.593C8.67851 144.631 9.36448 147.632 10.3034 150.565C6.59997 147.808 2.7954 145.168 -1.15528 142.677C-0.802774 141.506 -0.914756 140.254 -1.4702 139.155C-2.02565 138.057 -2.98634 137.188 -4.17173 136.712C-5.35712 136.236 -6.6856 136.186 -7.90765 136.57C-9.1297 136.954 -10.1612 137.747 -10.8082 138.8C-11.4553 139.853 -11.6734 141.092 -11.4217 142.286C-11.1699 143.48 -10.4655 144.546 -9.44095 145.284C-8.41635 146.021 -7.14205 146.38 -5.85744 146.292C-4.57283 146.204 -3.36631 145.676 -2.46463 144.807L-2.40845 144.754C3.65188 148.59 9.45849 152.773 14.979 157.279C10.708 156.833 6.42011 156.445 2.12663 156.169C1.86274 155.59 1.48523 155.064 1.01399 154.618C0.152786 153.787 -0.98309 153.261 -2.20484 153.125C-3.42659 152.989 -4.66067 153.253 -5.70207 153.872C-6.74345 154.491 -7.52943 155.428 -7.92939 156.527C-8.32936 157.627 -8.31927 158.823 -7.90073 159.916C-7.4822 161.009 -6.68042 161.934 -5.62868 162.538C-4.57694 163.141 -3.33856 163.385 -2.11926 163.231C-0.899963 163.077 0.226848 162.533 1.07388 161.69C1.9209 160.847 2.43717 159.755 2.53691 158.596C7.76701 158.936 12.9802 159.405 18.1766 160.004C26.6626 167.276 34.3862 175.306 41.24 183.981C39.9474 183.907 38.6662 183.8 37.3793 183.699C37.3528 183.601 37.3132 183.506 37.2613 183.418C34.7549 179.795 31.0739 176.72 26.4263 175.95C20.6942 174.993 15.2263 178.515 9.74139 179.503C8.70737 179.694 8.96588 181.171 9.97181 181.187C17.4573 181.314 19.1432 188.453 25.6453 189.967C30.1411 191.029 34.0524 188.554 37.1432 185.771C37.2436 185.679 37.3205 185.566 37.368 185.442C39.0539 185.576 40.7454 185.688 42.4426 185.776C42.4981 185.776 42.5531 185.767 42.6056 185.75C48.1039 192.899 52.997 200.448 57.2394 208.324L57.2394 211.586C56.52 211.203 55.7782 210.842 54.9915 210.524C55.1171 210.43 55.2101 210.303 55.2582 210.159C55.3063 210.015 55.3073 209.861 55.2612 209.716C51.6758 195.268 36.9634 203.045 26.2915 202.115C26.1225 202.101 25.9532 202.138 25.8082 202.221C25.6621 202.189 25.5216 202.152 25.3699 202.126C24.2347 201.934 23.7626 203.581 24.8922 203.799C31.9843 205.031 34.0805 213.047 40.8635 215.198C43.2028 215.937 45.6946 216.138 48.1327 215.786C50.5709 215.434 52.8853 214.539 54.8847 213.174C54.9927 213.107 55.0842 213.018 55.153 212.915C55.2218 212.811 55.2664 212.695 55.2837 212.574C55.9412 212.887 56.5763 213.232 57.2057 213.594L57.2057 246.526C53.7007 251.156 49.8786 255.563 45.7639 259.721C44.6906 260.746 46.4776 262.445 47.5959 261.314ZM96.2178 201.271C99.1682 200.511 102.158 200.968 105.159 200.776C102.883 209.036 95.0883 215.904 85.9337 213.264C89.272 211.597 92.3523 209.504 95.0883 207.044C95.2322 206.88 95.3061 206.671 95.2956 206.458C95.285 206.245 95.1907 206.043 95.0312 205.893C94.8716 205.742 94.6583 205.653 94.433 205.643C94.2076 205.633 93.9864 205.703 93.8126 205.839C91.1915 208.195 88.2373 210.198 85.0346 211.788C87.1082 206.959 90.6712 202.71 96.2178 201.271ZM90.2159 124.697C92.9528 123.523 95.8919 122.625 98.7299 121.696C98.3365 128.898 92.8741 135.506 84.7592 134.338L90.7162 129.345C91.5928 128.612 90.3059 127.406 89.4348 128.133L83.4779 133.126C83.6917 131.277 84.431 129.518 85.6172 128.033C86.8035 126.549 88.3926 125.396 90.2159 124.697ZM193.681 103.912C192.675 99.9548 189.831 96.8634 188.719 92.8477C186.825 86.139 192.225 81.3532 197.935 78.6124C196.522 82.07 195.52 85.665 194.945 89.3314C194.777 90.4044 196.541 90.8399 196.716 89.7828C197.388 85.4541 198.679 81.2317 200.554 77.2313C209.523 85.7619 201.79 97.2245 193.681 103.912ZM235.362 71.6965C235.52 76.0309 233.334 79.8712 230.928 83.4407C229.67 80.8804 227.736 78.8727 225.871 76.6205C221.437 71.2504 222.667 65.8377 228.04 61.907C227.875 64.8423 227.873 67.7837 228.034 70.7192C228.085 71.8293 229.906 71.8187 229.844 70.7191C229.686 67.9677 229.647 65.2215 229.782 62.4594L229.816 61.514C231.45 62.7439 232.789 64.2874 233.745 66.0426C234.701 67.7979 235.252 69.725 235.362 71.6965ZM238.38 22.3878C240.937 20.2472 243.264 18.6218 245.124 16.0137C249.423 22.7437 246.338 34.1586 238.088 36.8782C238.691 33.5865 239.713 30.3761 241.134 27.3171C241.595 26.3186 240.027 25.4633 239.555 26.4725C238.25 29.2725 237.252 32.1915 236.576 35.1838C234.002 30.6582 233.755 26.2706 238.38 22.3878ZM208.995 42.0784C204.853 41.4994 201.414 39.3109 198.418 36.671C200.989 35.8639 203.381 34.618 205.477 32.9953C208.011 31.1415 210.158 29.7286 213.507 30.7165C216.307 31.6779 218.746 33.3958 220.521 35.6565C216.3 35.7893 212.069 35.7733 207.843 35.5502C206.662 35.4971 206.679 37.2022 207.843 37.2607C211.996 37.4785 216.149 37.4944 220.313 37.3616C218.104 41.1276 213.552 42.7424 208.995 42.0784ZM151.437 17.0495C149.673 12.9702 150.313 8.5508 149.999 4.29082C158.428 8.00902 170.398 15.0736 165.076 24.4913C162.714 20.5616 159.855 16.9176 156.563 13.6394C156.393 13.4788 156.162 13.3886 155.922 13.3886C155.682 13.3886 155.451 13.4789 155.281 13.6395C155.111 13.8001 155.016 14.0178 155.016 14.2449C155.016 14.472 155.111 14.6899 155.281 14.8505C158.749 18.3037 161.714 22.1782 164.099 26.3716C158.462 25.4102 153.68 22.2072 151.437 17.0495ZM146.071 44.2508C143.573 45.6051 140.761 46.3585 137.883 46.4446C133.617 46.4817 130.032 44.4739 126.604 42.3173C129.402 40.2033 131.577 37.4571 134.516 35.5183C139.805 32.0179 144.941 34.1639 149.903 36.8569C146.928 38.2453 143.789 39.2938 140.552 39.9802C139.417 40.2246 139.878 41.8818 141.03 41.6534C144.133 40.9833 147.15 39.9948 150.027 38.7053C149.982 41.2656 148.779 42.8274 146.082 44.2403L146.071 44.2508ZM83.152 32.7881C81.6234 29.7073 81.8539 26.2494 82.191 22.9349C90.0137 26.2175 100.792 32.0817 93.7845 41.2232C92.284 37.744 90.6825 34.3073 88.946 30.9237C88.4346 29.9304 86.8553 30.7751 87.3723 31.7737C88.7492 34.4455 90.0361 37.1491 91.2612 39.8899C87.9849 38.1742 84.7648 36.0124 83.1632 32.7776L83.152 32.7881ZM150.263 77.4066C147.714 79.7582 144.685 81.5944 141.361 82.8033C142.256 80.7572 142.787 78.5856 142.935 76.3761C143.042 74.5117 142.648 72.5888 142.895 70.7297C143.469 66.4591 146.61 64.839 150.617 64.3026C150.129 65.8348 149.514 67.3284 148.779 68.7697C148.268 69.7524 149.83 70.6022 150.347 69.6143C151.188 67.9752 151.883 66.2733 152.426 64.5257C157.158 67.9358 153.854 74.1718 150.263 77.4066ZM245.034 53.3127L231.429 53.3073C231.432 53.2216 231.414 53.1363 231.378 53.0577C233.828 51.195 236.234 49.2757 238.594 47.2997C240.662 49.3288 242.82 51.3686 245.04 53.3074L245.034 53.3127ZM221.201 57.3443C217.45 59.855 213.601 62.2364 209.652 64.4885C205.385 62.515 201.349 60.1241 197.609 57.3549L221.201 57.3443ZM177.007 43.9481C177.057 43.9064 177.103 43.8621 177.148 43.8153C181.07 46.8536 184.847 50.1256 188.679 53.3126L160.991 53.3072C166.405 50.2867 171.749 47.1617 177.024 43.9322L177.007 43.9481ZM148.459 57.3336C145.559 58.8422 142.639 60.3312 139.698 61.8008C133.759 60.6695 127.905 59.1773 122.17 57.3336L148.459 57.3336ZM16.3558 89.7722C25.3418 91.1374 36.6094 91.6951 37.1095 102.419C33.3955 100.213 29.9223 97.6629 26.7411 94.8078C26.5673 94.6717 26.3461 94.6019 26.1207 94.6119C25.8954 94.6219 25.6821 94.711 25.5225 94.8618C25.363 95.0125 25.2687 95.2142 25.2582 95.4272C25.2476 95.6402 25.3215 95.8493 25.4654 96.0135C29.0955 99.2746 33.099 102.143 37.4017 104.565C28.9272 110.812 20.4863 96.0454 16.339 89.7457L16.3558 89.7722ZM38.8179 169.645C34.0468 165.932 30.5569 159.712 32.9903 153.906C34.0917 151.25 35.7382 149.184 36.053 146.549C39.082 149.136 42.5662 151.781 44.8141 154.83C48.2253 159.446 45.3312 164.667 41.2512 167.993C41.6727 164.248 41.5154 160.54 39.6665 156.934C39.1551 155.94 37.5815 156.78 38.0929 157.773C40.0092 161.507 39.9194 165.438 39.3012 169.379L38.8179 169.645ZM26.0723 188.066C22.7511 187.306 21.0876 184.756 18.6936 182.706C17.3557 181.519 15.7629 180.619 14.0237 180.066C17.3168 178.929 20.5875 177.516 23.875 177.437C28.5507 177.32 32.5013 180.056 35.1313 183.497C32.2259 183.227 29.3262 182.897 26.4376 182.472C25.3024 182.302 24.8472 183.976 25.9599 184.146C28.9796 184.585 32.0068 184.946 35.0415 185.229C32.4732 187.38 29.6353 188.873 26.078 188.06L26.0723 188.066ZM35.328 209.318C33.4061 207.257 31.8045 205.212 29.6409 203.772C38.8853 203.161 50.4283 198.455 53.4573 209.828C50.1544 208.583 46.7199 207.677 43.2125 207.124C42.0717 206.938 41.5997 208.585 42.7349 208.797C46.5105 209.375 50.1978 210.385 53.7158 211.804C47.5959 215.644 40.2172 214.555 35.3337 209.312L35.328 209.318ZM47.9949 134.061C45.8088 133.376 44.0218 131.719 42.4651 130.205C39.9025 127.709 37.4073 125.148 34.8953 122.615C37.1763 122.535 39.444 122.248 41.6671 121.759C47.1857 120.867 53.4629 122.7 55.6153 127.698C52.2745 126.975 48.9978 126.009 45.8144 124.808C44.7298 124.431 44.2746 126.083 45.3368 126.482C48.8745 127.819 52.538 128.838 56.2784 129.525C56.3934 129.656 56.5519 129.746 56.728 129.78C56.6324 132.792 49.8719 134.646 48.0005 134.056L47.9949 134.061ZM61.5047 129.918C61.7801 129.913 62.0499 129.881 62.3253 129.865C65.9254 134.437 69.1082 139.29 71.8394 144.371C71.9017 144.501 71.9918 144.617 72.104 144.712C72.2162 144.807 72.3482 144.879 72.4913 144.924C69.3432 152.682 65.6735 160.242 61.5048 167.557L61.5047 129.918ZM49.3549 190.748C52.0786 187.076 54.7086 183.283 57.245 179.37L57.2506 203.172C54.8042 198.919 52.1742 194.776 49.3606 190.743L49.3549 190.748ZM61.516 216.765C63.6627 221.365 65.5978 226.062 67.3212 230.857C65.5266 234.118 63.5916 237.296 61.516 240.391L61.516 216.765Z" fill="#B6A756"/>
<path d="M38.5756 154.374C38.7455 154.213 38.841 153.996 38.841 153.768C38.841 153.541 38.7455 153.324 38.5756 153.163C38.4057 153.002 38.1753 152.912 37.935 152.912C37.6947 152.912 37.4642 153.002 37.2943 153.163C37.1244 153.324 37.029 153.541 37.029 153.768C37.029 153.996 37.1245 154.213 37.2944 154.374C37.4643 154.535 37.6947 154.625 37.935 154.625C38.1753 154.625 38.4057 154.535 38.5756 154.374Z" fill="#B6A756"/>
<path d="M22.3459 181.942C22.202 182.106 22.1281 182.315 22.1386 182.528C22.1492 182.741 22.2434 182.943 22.403 183.093C22.5625 183.244 22.7759 183.333 23.0012 183.343C23.2266 183.353 23.4478 183.283 23.6216 183.147C23.7655 182.983 23.8393 182.774 23.8288 182.561C23.8182 182.348 23.724 182.146 23.5644 181.996C23.4049 181.845 23.1915 181.756 22.9662 181.746C22.7408 181.736 22.5197 181.806 22.3459 181.942Z" fill="#B6A756"/>
<path d="M38.6321 206.216C37.5363 205.849 37.0867 207.507 38.1545 207.889L39.6156 208.378C40.7115 208.744 41.1667 207.092 40.099 206.71L38.6321 206.216Z" fill="#B6A756"/>
<path d="M97.4936 205.461L98.8592 204.489C99.0613 204.372 99.209 204.187 99.2726 203.971C99.3362 203.756 99.311 203.525 99.202 203.326C99.143 203.228 99.0642 203.143 98.9701 203.074C98.876 203.005 98.7685 202.954 98.6537 202.925C98.5389 202.895 98.419 202.887 98.301 202.901C98.1829 202.915 98.069 202.952 97.9657 203.007L96.6001 203.969C96.399 204.088 96.2526 204.274 96.1901 204.491C96.1277 204.707 96.1536 204.938 96.2629 205.137C96.3826 205.333 96.5784 205.476 96.8084 205.536C97.0384 205.597 97.2843 205.57 97.4936 205.461Z" fill="#B6A756"/>
<path d="M23.1333 93.2143L22.8017 92.9009C22.628 92.7649 22.4068 92.695 22.1814 92.705C21.956 92.715 21.7427 92.8041 21.5832 92.9549C21.4237 93.1057 21.3294 93.3073 21.3188 93.5203C21.3083 93.7333 21.3822 93.9424 21.5261 94.1067L21.8576 94.42C22.0314 94.5561 22.2526 94.6259 22.478 94.6159C22.7033 94.6059 22.9167 94.5168 23.0762 94.366C23.2357 94.2153 23.33 94.0136 23.3406 93.8006C23.3511 93.5876 23.2772 93.3785 23.1333 93.2143Z" fill="#B6A756"/>
<path d="M43.0265 124.363C42.6565 124.358 42.2934 124.267 41.97 124.097C41.8667 124.041 41.7527 124.005 41.6347 123.991C41.5166 123.977 41.3968 123.985 41.282 124.014C41.1672 124.044 41.0597 124.095 40.9656 124.164C40.8715 124.232 40.7926 124.318 40.7336 124.416C40.6746 124.513 40.6365 124.621 40.6215 124.733C40.6065 124.844 40.6148 124.958 40.6462 125.066C40.6775 125.175 40.7311 125.276 40.804 125.365C40.8768 125.454 40.9675 125.529 41.0708 125.584C41.671 125.899 42.3457 126.066 43.0321 126.068C44.2235 126.057 44.1954 124.373 43.0265 124.363Z" fill="#B6A756"/>
<path d="M92.5706 128.123L93.526 127.517C94.4926 126.912 93.5822 125.446 92.6324 126.035L91.6715 126.636C90.7105 127.246 91.5984 128.734 92.5706 128.123Z" fill="#B6A756"/>
<path d="M87.4897 28.7944C87.2649 28.4332 87.0345 28.0774 86.8097 27.7162C86.7506 27.6186 86.6718 27.5329 86.5777 27.464C86.4836 27.3951 86.3761 27.3445 86.2613 27.3149C86.1465 27.2853 86.0267 27.2773 85.9087 27.2915C85.7906 27.3057 85.6766 27.3417 85.5733 27.3975C85.47 27.4533 85.3794 27.5277 85.3066 27.6167C85.2337 27.7056 85.1801 27.8072 85.1488 27.9157C85.1175 28.0242 85.109 28.1376 85.124 28.2492C85.139 28.3607 85.1772 28.4684 85.2362 28.5661C85.4666 28.9219 85.6914 29.2831 85.9218 29.639C86.0511 29.8144 86.245 29.9378 86.4656 29.9849C86.6862 30.032 86.9174 29.9995 87.1139 29.8937C87.3103 29.7878 87.4578 29.6164 87.5273 29.413C87.5969 29.2096 87.5835 28.9889 87.4897 28.7944Z" fill="#B6A756"/>
<path d="M155.207 11.3509C154.983 10.9897 154.752 10.6338 154.522 10.2673C154.393 10.0919 154.199 9.96854 153.978 9.92142C153.757 9.87431 153.526 9.90679 153.33 10.0126C153.133 10.1185 152.986 10.2899 152.916 10.4933C152.847 10.6967 152.86 10.9174 152.954 11.1119C153.179 11.4731 153.404 11.8342 153.634 12.1901C153.761 12.3694 153.955 12.4968 154.177 12.5468C154.399 12.5967 154.633 12.5655 154.832 12.4594C155.031 12.3533 155.18 12.1803 155.25 11.9748C155.319 11.7692 155.304 11.5464 155.207 11.3509Z" fill="#B6A756"/>
<path d="M138.472 40.3633L136.044 40.9156C134.909 41.1706 135.37 42.8279 136.522 42.5889L138.95 42.0364C140.062 41.7602 139.602 40.103 138.472 40.3633Z" fill="#B6A756"/>
<path d="M147.531 71.4897L146.182 73.2213C145.491 74.1084 147.076 74.9476 147.756 74.0712L149.11 72.3343C149.768 71.426 148.189 70.5814 147.531 71.4897Z" fill="#B6A756"/>
<path d="M204.223 35.8586C203.992 35.8701 203.773 35.9652 203.613 36.1243C203.454 36.2835 203.365 36.4945 203.365 36.7139C203.365 36.9332 203.454 37.1442 203.613 37.3033C203.773 37.4625 203.991 37.5576 204.223 37.569L204.785 37.5691C205.01 37.5483 205.218 37.4491 205.369 37.291C205.52 37.1329 205.604 36.9271 205.603 36.714C205.602 36.5009 205.518 36.2956 205.365 36.1384C205.213 35.9812 205.004 35.8834 204.78 35.8639L204.223 35.8586Z" fill="#B6A756"/>
<path d="M243.37 24.4595L244.326 23.2378C245.011 22.3561 243.438 21.5169 242.752 22.388L241.803 23.615C241.094 24.4861 242.674 25.3306 243.37 24.4595Z" fill="#B6A756"/>
<path d="M194.237 93.6236L194.102 95.7271C194.051 96.8372 195.844 96.8212 195.911 95.727L196.041 93.6182C196.08 92.5293 194.282 92.54 194.237 93.6236Z" fill="#B6A756"/>
<path d="M228.973 73.4015L229.119 75.6643C229.175 76.7798 231.002 76.7638 230.928 75.6643L230.782 73.4015C230.704 72.3073 228.9 72.302 228.973 73.4015Z" fill="#B6A756"/>
</svg>
