<svg width="344" height="105" viewBox="0 0 344 105" fill="none" xmlns="http://www.w3.org/2000/svg">
<path d="M54.62 84.005C54.2533 84.005 53.6667 83.95 52.86 83.84C52.09 83.73 51.375 83.4917 50.715 83.125C50.055 82.7583 49.725 82.19 49.725 81.42C49.725 80.9433 49.835 80.5767 50.055 80.32C50.2017 80.1367 50.3483 80.045 50.495 80.045C50.6417 80.045 50.6783 80.1367 50.605 80.32C50.495 80.87 50.6967 81.3833 51.21 81.86C51.7233 82.3733 52.2367 82.7033 52.75 82.85C53.4833 83.0333 54.125 83.125 54.675 83.125C56.2883 83.125 57.7367 82.6667 59.02 81.75C60.34 80.8333 61.5133 79.77 62.54 78.56C61.1467 77.7167 59.9183 76.7083 58.855 75.535C57.8283 74.325 57.315 72.9867 57.315 71.52C57.315 70.9333 57.3883 70.4017 57.535 69.925C57.9017 68.6783 58.69 67.6883 59.9 66.955C60.2667 66.735 60.6517 66.5883 61.055 66.515C61.495 66.405 61.935 66.35 62.375 66.35C63.805 66.35 64.8133 66.68 65.4 67.34V67.395C65.4 67.4683 65.3267 67.56 65.18 67.67C65.07 67.78 64.9783 67.7983 64.905 67.725C64.6483 67.3583 64.19 67.175 63.53 67.175C62.7233 67.175 61.935 67.45 61.165 68C60.4317 68.55 59.955 69.2283 59.735 70.035C59.515 70.7317 59.405 71.4283 59.405 72.125C59.405 73.3717 59.7533 74.4717 60.45 75.425C61.1833 76.3417 62.0633 77.1483 63.09 77.845C63.3833 77.4783 63.64 77.1117 63.86 76.745C64.1167 76.3783 64.3733 76.0117 64.63 75.645C65.73 73.9583 66.8117 72.0333 67.875 69.87C68.9383 67.7067 70.0383 65.4883 71.175 63.215C72.3117 60.905 73.5033 58.6683 74.75 56.505C76.0333 54.3417 77.4267 52.4167 78.93 50.73C80.4333 49.0067 82.0833 47.6867 83.88 46.77C85.0533 46.1467 86.1717 45.835 87.235 45.835C87.8217 45.835 88.3533 45.9083 88.83 46.055C88.9767 46.0917 89.0133 46.1833 88.94 46.33C88.9033 46.4767 88.8117 46.5317 88.665 46.495C88.5183 46.4217 88.3533 46.385 88.17 46.385C88.0233 46.385 87.8583 46.385 87.675 46.385C85.7683 46.385 83.77 47.6133 81.68 50.07C80.0667 51.9767 78.6733 54.0117 77.5 56.175C76.3267 58.3017 75.245 60.5017 74.255 62.775C73.265 65.0117 72.2383 67.23 71.175 69.43C70.1483 71.63 68.92 73.7383 67.49 75.755C67.1233 76.305 66.72 76.8367 66.28 77.35C65.8767 77.8633 65.455 78.3583 65.015 78.835C65.5283 79.055 66.06 79.2383 66.61 79.385C67.1967 79.5317 67.7283 79.66 68.205 79.77C69.855 80.1 71.5417 80.265 73.265 80.265C75.6483 80.265 77.9583 79.99 80.195 79.44C82.4683 78.9267 84.4667 78.2117 86.19 77.295C88.5367 76.0483 90.6267 74.325 92.46 72.125C94.2933 69.925 95.7417 67.4867 96.805 64.81C97.905 62.1333 98.455 59.475 98.455 56.835C98.455 54.195 97.8317 51.72 96.585 49.41C95.3383 47.0633 93.2667 45.1567 90.37 43.69C88.5733 42.7733 86.575 42.1133 84.375 41.71C82.2117 41.27 80.03 41.05 77.83 41.05C74.7133 41.05 71.6883 41.5633 68.755 42.59C65.8583 43.58 63.4933 44.9367 61.66 46.66C60.7067 47.5767 59.845 48.805 59.075 50.345C58.3417 51.885 57.975 53.4067 57.975 54.91C57.975 55.24 57.9933 55.57 58.03 55.9C58.0667 56.23 58.14 56.56 58.25 56.89C58.58 57.9167 59.2033 58.705 60.12 59.255C61.0733 59.7683 62.155 60.025 63.365 60.025C64.2817 60.025 65.235 59.86 66.225 59.53C66.2617 59.53 66.28 59.53 66.28 59.53C66.3167 59.4933 66.3533 59.475 66.39 59.475C66.4633 59.475 66.5 59.5117 66.5 59.585C66.5 59.7683 66.39 59.8967 66.17 59.97C65.6567 60.1167 65.1067 60.245 64.52 60.355C63.97 60.465 63.42 60.52 62.87 60.52C61.6967 60.52 60.56 60.3183 59.46 59.915C58.36 59.475 57.4617 58.7967 56.765 57.88C56.105 56.9633 55.775 55.79 55.775 54.36C55.775 53.2233 55.94 52.16 56.27 51.17C56.6 50.18 57.0583 49.245 57.645 48.365C58.855 46.5683 60.56 45.0833 62.76 43.91C64.9967 42.7 67.4533 41.8017 70.13 41.215C72.8433 40.5917 75.52 40.28 78.16 40.28C80.3967 40.28 82.6333 40.5 84.87 40.94C87.1067 41.3433 89.2333 41.9667 91.25 42.81C94.9167 44.3867 97.5567 46.5133 99.17 49.19C100.82 51.83 101.645 54.6533 101.645 57.66C101.645 60.4467 101.022 63.2333 99.775 66.02C98.565 68.77 96.86 71.2817 94.66 73.555C92.4967 75.7917 89.9667 77.57 87.07 78.89C85.2733 79.6967 83.3117 80.3017 81.185 80.705C79.095 81.1083 76.9683 81.31 74.805 81.31C73.5583 81.31 72.33 81.2367 71.12 81.09C69.91 80.98 68.7183 80.7967 67.545 80.54C67.0683 80.43 66.555 80.2833 66.005 80.1C65.455 79.9533 64.905 79.7517 64.355 79.495C63.695 80.0817 62.9983 80.65 62.265 81.2C61.5683 81.7867 60.8167 82.2817 60.01 82.685C59.1667 83.0883 58.2867 83.4 57.37 83.62C56.49 83.8767 55.5733 84.005 54.62 84.005ZM104.38 79.33C103.353 79.33 102.601 79 102.125 78.34C101.648 77.6433 101.41 76.8 101.41 75.81C101.41 75.5167 101.428 75.2233 101.465 74.93C101.538 74.6 101.611 74.27 101.685 73.94C102.088 72.4733 102.711 70.8417 103.555 69.045C104.435 67.2117 105.278 65.58 106.085 64.15C106.561 63.3433 107.001 62.775 107.405 62.445C107.808 62.0783 108.248 61.8217 108.725 61.675C109.201 61.4917 109.77 61.29 110.43 61.07C110.613 60.9967 110.796 60.9417 110.98 60.905C111.163 60.8683 111.365 60.8317 111.585 60.795C110.851 61.5283 110.1 62.4083 109.33 63.435C108.596 64.4617 107.79 65.8733 106.91 67.67C106.433 68.6233 105.956 69.6867 105.48 70.86C105.04 72.0333 104.655 73.1333 104.325 74.16C103.995 75.1867 103.811 75.9933 103.775 76.58C103.738 77.2767 103.83 77.7717 104.05 78.065C104.27 78.3583 104.563 78.505 104.93 78.505C105.553 78.505 106.14 78.285 106.69 77.845C107.276 77.405 107.79 76.9467 108.23 76.47C109.036 75.5533 109.788 74.545 110.485 73.445C111.218 72.345 111.933 71.1717 112.63 69.925C112.74 69.7783 112.831 69.705 112.905 69.705C113.051 69.705 113.125 69.815 113.125 70.035C113.125 70.2183 113.088 70.365 113.015 70.475C112.355 71.685 111.658 72.895 110.925 74.105C110.191 75.315 109.293 76.4517 108.23 77.515C107.753 77.9917 107.185 78.4133 106.525 78.78C105.901 79.1467 105.186 79.33 104.38 79.33ZM111.09 57.715C110.686 57.715 110.338 57.5683 110.045 57.275C109.788 56.9817 109.66 56.6333 109.66 56.23C109.66 55.7167 109.861 55.2583 110.265 54.855C110.705 54.4517 111.181 54.2133 111.695 54.14C112.098 54.14 112.428 54.2867 112.685 54.58C112.978 54.8367 113.125 55.185 113.125 55.625C113.125 56.1017 112.923 56.5783 112.52 57.055C112.116 57.495 111.64 57.715 111.09 57.715ZM122.413 79.33C121.349 79.33 120.506 79 119.883 78.34C119.296 77.68 119.003 76.855 119.003 75.865C119.003 75.3883 119.094 74.8383 119.278 74.215C119.791 72.6017 120.598 71.0067 121.698 69.43C122.834 67.8167 123.769 66.2217 124.503 64.645C124.759 64.1317 124.888 63.6733 124.888 63.27C124.888 62.8667 124.759 62.5733 124.503 62.39C124.283 62.17 124.008 62.06 123.678 62.06C123.201 62.06 122.596 62.2617 121.863 62.665C121.166 63.0317 120.359 63.7467 119.443 64.81C118.893 65.47 118.269 66.2767 117.573 67.23C116.876 68.1833 116.308 69.045 115.868 69.815C115.134 71.0617 114.474 72.3267 113.888 73.61C113.301 74.8567 112.788 76.0117 112.348 77.075C111.981 77.9183 111.541 78.4683 111.028 78.725C110.514 78.945 110.019 79.0367 109.543 79C109.066 78.9633 108.699 78.9633 108.443 79C109.469 76.9833 110.478 74.8567 111.468 72.62C112.458 70.3833 113.301 68.1467 113.998 65.91C114.328 64.8833 114.603 63.8933 114.823 62.94C115.043 61.95 115.134 61.3083 115.098 61.015V60.905C115.098 60.6117 115.244 60.5383 115.538 60.685C116.014 60.9417 116.344 61.3267 116.528 61.84C116.711 62.3167 116.803 62.8667 116.803 63.49C116.803 64.1867 116.711 64.9383 116.528 65.745C116.344 66.515 116.124 67.2117 115.868 67.835C116.344 67.175 116.858 66.515 117.408 65.855C117.958 65.1583 118.563 64.4983 119.223 63.875C119.993 63.105 120.818 62.445 121.698 61.895C122.578 61.3083 123.531 61.015 124.558 61.015C125.548 61.015 126.263 61.235 126.703 61.675C127.179 62.115 127.418 62.7017 127.418 63.435C127.418 64.205 127.198 65.085 126.758 66.075C126.281 67.2117 125.694 68.3483 124.998 69.485C124.338 70.6217 123.733 71.7217 123.183 72.785C123.073 73.005 122.889 73.3533 122.633 73.83C122.413 74.27 122.211 74.765 122.028 75.315C121.954 75.5717 121.881 75.8467 121.808 76.14C121.734 76.3967 121.698 76.6717 121.698 76.965C121.698 77.3317 121.771 77.68 121.918 78.01C122.101 78.3033 122.431 78.45 122.908 78.45C123.531 78.45 124.118 78.2483 124.668 77.845C125.254 77.405 125.749 76.9467 126.153 76.47C126.996 75.5533 127.766 74.545 128.463 73.445C129.196 72.3083 129.911 71.1167 130.608 69.87C130.718 69.7233 130.791 69.65 130.828 69.65C130.974 69.65 131.048 69.815 131.048 70.145C131.048 70.365 131.011 70.53 130.938 70.64C130.278 71.85 129.581 73.0417 128.848 74.215C128.114 75.3517 127.216 76.4517 126.153 77.515C125.676 77.9917 125.126 78.4133 124.503 78.78C123.879 79.1467 123.183 79.33 122.413 79.33ZM140.352 79.33C139.289 79.33 138.445 79 137.822 78.34C137.235 77.68 136.942 76.855 136.942 75.865C136.942 75.3883 137.034 74.8383 137.217 74.215C137.73 72.6017 138.537 71.0067 139.637 69.43C140.774 67.8167 141.709 66.2217 142.442 64.645C142.699 64.1317 142.827 63.6733 142.827 63.27C142.827 62.8667 142.699 62.5733 142.442 62.39C142.222 62.17 141.947 62.06 141.617 62.06C141.14 62.06 140.535 62.2617 139.802 62.665C139.105 63.0317 138.299 63.7467 137.382 64.81C136.832 65.47 136.209 66.2767 135.512 67.23C134.815 68.1833 134.247 69.045 133.807 69.815C133.074 71.0617 132.414 72.3267 131.827 73.61C131.24 74.8567 130.727 76.0117 130.287 77.075C129.92 77.9183 129.48 78.4683 128.967 78.725C128.454 78.945 127.959 79.0367 127.482 79C127.005 78.9633 126.639 78.9633 126.382 79C127.409 76.9833 128.417 74.8567 129.407 72.62C130.397 70.3833 131.24 68.1467 131.937 65.91C132.267 64.8833 132.542 63.8933 132.762 62.94C132.982 61.95 133.074 61.3083 133.037 61.015V60.905C133.037 60.6117 133.184 60.5383 133.477 60.685C133.954 60.9417 134.284 61.3267 134.467 61.84C134.65 62.3167 134.742 62.8667 134.742 63.49C134.742 64.1867 134.65 64.9383 134.467 65.745C134.284 66.515 134.064 67.2117 133.807 67.835C134.284 67.175 134.797 66.515 135.347 65.855C135.897 65.1583 136.502 64.4983 137.162 63.875C137.932 63.105 138.757 62.445 139.637 61.895C140.517 61.3083 141.47 61.015 142.497 61.015C143.487 61.015 144.202 61.235 144.642 61.675C145.119 62.115 145.357 62.7017 145.357 63.435C145.357 64.205 145.137 65.085 144.697 66.075C144.22 67.2117 143.634 68.3483 142.937 69.485C142.277 70.6217 141.672 71.7217 141.122 72.785C141.012 73.005 140.829 73.3533 140.572 73.83C140.352 74.27 140.15 74.765 139.967 75.315C139.894 75.5717 139.82 75.8467 139.747 76.14C139.674 76.3967 139.637 76.6717 139.637 76.965C139.637 77.3317 139.71 77.68 139.857 78.01C140.04 78.3033 140.37 78.45 140.847 78.45C141.47 78.45 142.057 78.2483 142.607 77.845C143.194 77.405 143.689 76.9467 144.092 76.47C144.935 75.5533 145.705 74.545 146.402 73.445C147.135 72.3083 147.85 71.1167 148.547 69.87C148.657 69.7233 148.73 69.65 148.767 69.65C148.914 69.65 148.987 69.815 148.987 70.145C148.987 70.365 148.95 70.53 148.877 70.64C148.217 71.85 147.52 73.0417 146.787 74.215C146.054 75.3517 145.155 76.4517 144.092 77.515C143.615 77.9917 143.065 78.4133 142.442 78.78C141.819 79.1467 141.122 79.33 140.352 79.33ZM149.877 94.51C149.29 94.6567 148.703 94.73 148.117 94.73C147.053 94.73 146.247 94.4733 145.697 93.96C145.147 93.4467 144.872 92.805 144.872 92.035C144.872 91.375 145.092 90.66 145.532 89.89C145.972 89.1567 146.632 88.4967 147.512 87.91C148.648 87.14 149.675 86.5167 150.592 86.04C151.545 85.5633 152.572 85.0867 153.672 84.61C154.772 84.17 156.147 83.565 157.797 82.795C157.98 82.3917 158.182 81.915 158.402 81.365C158.622 80.815 158.988 79.8983 159.502 78.615C160.015 77.3317 160.767 75.425 161.757 72.895C160.95 73.885 160.143 74.8017 159.337 75.645C158.53 76.4883 157.87 77.1483 157.357 77.625C156.623 78.175 155.908 78.615 155.212 78.945C154.552 79.2383 153.892 79.385 153.232 79.385C152.352 79.385 151.728 79.1283 151.362 78.615C151.032 78.1017 150.867 77.4967 150.867 76.8C150.867 76.2133 150.94 75.6083 151.087 74.985C151.27 74.3617 151.472 73.775 151.692 73.225C152.205 71.9417 152.755 70.7317 153.342 69.595C153.965 68.4217 154.57 67.2117 155.157 65.965C155.303 65.6717 155.505 65.195 155.762 64.535C156.055 63.875 156.202 63.27 156.202 62.72C156.202 62.0967 155.927 61.785 155.377 61.785C154.863 61.785 154.332 62.0417 153.782 62.555C153.268 63.0317 152.81 63.5817 152.407 64.205C152.003 64.8283 151.692 65.3233 151.472 65.69C151.472 65.69 151.288 66.0383 150.922 66.735C150.592 67.4317 150.152 68.2933 149.602 69.32C149.088 70.31 148.557 71.245 148.007 72.125C147.897 72.3083 147.75 72.4 147.567 72.4C147.42 72.4 147.347 72.3267 147.347 72.18C147.347 72.1067 147.438 71.8867 147.622 71.52C148.428 70.09 149.052 68.8983 149.492 67.945C149.968 66.9917 150.5 66.0017 151.087 64.975C151.673 63.9117 152.352 62.9033 153.122 61.95C153.635 61.4 154.185 60.9967 154.772 60.74C155.395 60.4467 156 60.3 156.587 60.3C157.613 60.3 158.31 60.5383 158.677 61.015C159.08 61.455 159.282 62.005 159.282 62.665C159.282 63.3617 159.135 64.0767 158.842 64.81C158.548 65.5433 158.255 66.185 157.962 66.735C157.045 68.3483 156.293 69.76 155.707 70.97C155.12 72.1433 154.607 73.28 154.167 74.38C153.837 75.1867 153.672 75.8467 153.672 76.36C153.672 77.3133 154.075 77.79 154.882 77.79C155.542 77.79 156.22 77.4967 156.917 76.91C158.86 75.3333 160.437 73.4817 161.647 71.355C162.857 69.2283 164.012 67.01 165.112 64.7C165.478 63.9667 165.937 63.1783 166.487 62.335C167.037 61.455 167.715 60.7217 168.522 60.135C169.328 59.5117 170.263 59.2367 171.327 59.31C170.813 59.7867 170.19 60.6667 169.457 61.95C168.76 63.2333 168.008 64.7367 167.202 66.46C166.432 68.1833 165.662 69.98 164.892 71.85C164.122 73.72 163.388 75.5167 162.692 77.24C162.032 78.9267 161.463 80.3567 160.987 81.53C161.977 81.1267 163.132 80.5033 164.452 79.66C165.808 78.8533 167.073 77.79 168.247 76.47C169.09 75.59 169.842 74.6 170.502 73.5C171.198 72.3633 171.895 71.1717 172.592 69.925C172.702 69.7783 172.812 69.705 172.922 69.705C173.068 69.705 173.142 69.815 173.142 70.035C173.142 70.2183 173.105 70.365 173.032 70.475C172.372 71.685 171.675 72.895 170.942 74.105C170.208 75.315 169.31 76.4517 168.247 77.515C166.927 78.7617 165.588 79.825 164.232 80.705C162.912 81.6217 161.665 82.2817 160.492 82.685C159.612 84.665 158.677 86.48 157.687 88.13C156.733 89.78 155.633 91.155 154.387 92.255C153.14 93.355 151.637 94.1067 149.877 94.51ZM149.547 93.41C150.867 93.0067 152.003 92.2917 152.957 91.265C153.91 90.275 154.735 89.12 155.432 87.8C156.165 86.48 156.788 85.16 157.302 83.84C156.128 84.4633 154.662 85.105 152.902 85.765C151.142 86.4617 149.473 87.3967 147.897 88.57C147.2 89.12 146.668 89.6883 146.302 90.275C145.935 90.8617 145.752 91.4117 145.752 91.925C145.752 92.4383 145.935 92.86 146.302 93.19C146.668 93.52 147.2 93.685 147.897 93.685C148.117 93.685 148.355 93.6667 148.612 93.63C148.905 93.5933 149.217 93.52 149.547 93.41ZM177.621 79.44C175.495 79.44 173.991 78.89 173.111 77.79C172.671 77.3133 172.36 76.745 172.176 76.085C171.993 75.425 171.901 74.7467 171.901 74.05C171.901 73.17 172.011 72.29 172.231 71.41C172.451 70.4933 172.726 69.65 173.056 68.88C173.57 67.67 174.248 66.46 175.091 65.25C175.935 64.0033 176.943 62.9583 178.116 62.115C179.326 61.2717 180.646 60.85 182.076 60.85C183.03 60.85 183.781 61.0883 184.331 61.565C184.881 62.0417 185.156 62.775 185.156 63.765C185.156 64.9017 184.808 66.0567 184.111 67.23C183.415 68.3667 182.535 69.32 181.471 70.09C180.408 70.86 179.308 71.245 178.171 71.245C177.145 71.245 176.246 70.8783 175.476 70.145C175.256 70.7317 175.073 71.3917 174.926 72.125C174.78 72.8217 174.706 73.5367 174.706 74.27C174.706 75.4067 174.926 76.3967 175.366 77.24C175.843 78.0833 176.686 78.505 177.896 78.505C178.776 78.505 179.62 78.285 180.426 77.845C181.27 77.3683 182.021 76.8 182.681 76.14C183.415 75.37 184.111 74.545 184.771 73.665C185.431 72.785 186.073 71.7583 186.696 70.585C186.77 70.475 186.825 70.42 186.861 70.42C187.008 70.42 187.081 70.585 187.081 70.915C187.081 71.135 187.008 71.3733 186.861 71.63C186.311 72.62 185.67 73.6283 184.936 74.655C184.203 75.645 183.451 76.5067 182.681 77.24C181.985 77.9 181.233 78.4317 180.426 78.835C179.62 79.2383 178.685 79.44 177.621 79.44ZM175.751 69.32C176.008 69.6867 176.301 69.9617 176.631 70.145C176.998 70.2917 177.365 70.365 177.731 70.365C178.611 70.365 179.528 70.035 180.481 69.375C181.435 68.6783 182.205 67.8717 182.791 66.955C183.048 66.5517 183.268 66.02 183.451 65.36C183.671 64.7 183.781 64.0767 183.781 63.49C183.781 62.9767 183.671 62.5367 183.451 62.17C183.268 61.7667 182.883 61.565 182.296 61.565C181.636 61.565 180.848 61.9683 179.931 62.775C179.051 63.5817 178.208 64.6267 177.401 65.91C177.145 66.35 176.851 66.8633 176.521 67.45C176.228 68.0367 175.971 68.66 175.751 69.32ZM188.221 79.44C187.451 79.44 186.736 79.2933 186.076 79C185.453 78.67 184.939 78.12 184.536 77.35C184.243 76.69 184.096 75.975 184.096 75.205C184.096 74.3983 184.243 73.6467 184.536 72.95C184.829 72.3267 185.159 71.7767 185.526 71.3C185.893 70.8233 186.296 70.5483 186.736 70.475C187.066 69.7417 187.561 68.77 188.221 67.56C188.918 66.35 189.688 65.14 190.531 63.93C191.411 62.72 192.236 61.7483 193.006 61.015C193.189 60.8317 193.501 60.5383 193.941 60.135C194.418 59.695 194.949 59.2733 195.536 58.87C196.159 58.4667 196.728 58.2283 197.241 58.155C197.351 58.1183 197.498 58.1 197.681 58.1C198.121 58.1 198.451 58.21 198.671 58.43C198.891 58.65 199.001 58.9067 199.001 59.2C199.001 59.4933 198.891 59.7867 198.671 60.08C198.451 60.3733 198.103 60.6117 197.626 60.795C197.443 60.8317 197.168 60.8867 196.801 60.96C196.471 61.0333 195.976 61.07 195.316 61.07C195.059 61.4367 194.931 61.95 194.931 62.61C194.931 63.3433 195.041 64.1683 195.261 65.085C195.518 66.0017 195.756 66.9 195.976 67.78C196.233 68.6233 196.361 69.3383 196.361 69.925C196.434 71.2817 196.214 72.6567 195.701 74.05C195.224 75.4067 194.454 76.5617 193.391 77.515L192.621 78.065C192.731 78.1017 192.841 78.1383 192.951 78.175C193.061 78.175 193.171 78.175 193.281 78.175C193.904 78.175 194.601 77.9917 195.371 77.625C196.141 77.2217 196.819 76.7267 197.406 76.14C198.286 75.2967 199.038 74.3983 199.661 73.445C200.321 72.4917 200.926 71.5017 201.476 70.475C201.513 70.3283 201.604 70.255 201.751 70.255C201.934 70.255 202.026 70.4017 202.026 70.695C202.026 70.8417 201.971 71.0067 201.861 71.19C201.311 72.2167 200.633 73.2983 199.826 74.435C199.056 75.535 198.249 76.47 197.406 77.24C196.746 77.8267 196.031 78.2667 195.261 78.56C194.528 78.8167 193.904 78.945 193.391 78.945C193.024 78.945 192.731 78.9083 192.511 78.835C192.291 78.7617 192.089 78.6517 191.906 78.505C191.393 78.7617 190.806 78.9817 190.146 79.165C189.523 79.3483 188.881 79.44 188.221 79.44ZM190.311 78.01C191.044 77.4967 191.613 76.8367 192.016 76.03C192.456 75.2233 192.786 74.3617 193.006 73.445C193.299 72.345 193.464 71.2083 193.501 70.035C193.574 68.8617 193.611 67.7983 193.611 66.845V64.92C193.611 64.15 193.703 63.3617 193.886 62.555C194.106 61.7483 194.326 61.2533 194.546 61.07C193.996 61.29 193.391 61.785 192.731 62.555C192.071 63.2883 191.411 64.1683 190.751 65.195C190.091 66.185 189.486 67.1567 188.936 68.11C188.423 69.0633 188.019 69.8517 187.726 70.475C188.423 70.4383 188.899 70.64 189.156 71.08C189.413 71.4833 189.486 71.7767 189.376 71.96C189.083 71.8867 188.881 71.85 188.771 71.85C188.221 71.85 187.708 72.0517 187.231 72.455C186.754 72.8217 186.351 73.3717 186.021 74.105C185.691 74.8017 185.526 75.48 185.526 76.14C185.526 77.02 185.783 77.6617 186.296 78.065C186.809 78.4683 187.414 78.67 188.111 78.67C188.918 78.67 189.651 78.45 190.311 78.01ZM212.233 79.495C210.913 79.495 209.904 79.11 209.208 78.34C208.511 77.57 208.016 76.635 207.723 75.535C207.466 74.3983 207.338 73.3167 207.338 72.29C207.338 71.3367 207.429 70.365 207.613 69.375C207.833 68.385 208.218 67.5417 208.768 66.845C209.098 66.4417 209.483 66.13 209.923 65.91C210.399 65.69 210.601 65.7083 210.528 65.965C210.454 66.1117 210.418 66.2583 210.418 66.405C210.454 66.6983 210.619 66.9367 210.913 67.12C211.206 67.2667 211.573 67.34 212.013 67.34C212.453 67.34 212.911 67.2667 213.388 67.12C213.901 66.9733 214.359 66.7533 214.763 66.46C215.239 66.13 215.661 65.7083 216.028 65.195C216.394 64.645 216.578 64.0767 216.578 63.49C216.578 62.9033 216.413 62.5 216.083 62.28C215.789 62.06 215.441 61.95 215.038 61.95C214.854 61.95 214.653 61.9683 214.433 62.005C214.213 62.0417 214.011 62.0967 213.828 62.17C212.654 62.5367 211.481 63.2333 210.308 64.26C209.171 65.25 208.089 66.405 207.063 67.725C206.073 69.045 205.174 70.365 204.368 71.685C203.854 72.565 203.304 73.5917 202.718 74.765C202.131 75.9017 201.746 76.8183 201.563 77.515C201.379 78.175 201.068 78.5967 200.628 78.78C200.224 78.9633 199.803 79.0367 199.363 79C198.923 79 198.574 79 198.318 79C198.501 78.4867 198.739 77.79 199.033 76.91C199.363 76.03 199.693 75.15 200.023 74.27C200.353 73.3533 200.628 72.6383 200.848 72.125C201.801 69.7783 202.828 67.2667 203.928 64.59C205.064 61.9133 206.274 59.255 207.558 56.615C208.878 53.9383 210.308 51.4267 211.848 49.08C213.424 46.7333 215.111 44.7167 216.908 43.03C218.741 41.3067 220.721 40.06 222.848 39.29C223.031 39.2533 223.233 39.2167 223.453 39.18C223.673 39.1433 223.893 39.125 224.113 39.125C224.699 39.125 225.194 39.2533 225.598 39.51C226.111 39.84 226.368 40.4083 226.368 41.215C226.368 41.8383 226.203 42.5717 225.873 43.415C225.286 44.8817 224.333 46.4583 223.013 48.145C221.693 49.8317 220.134 51.555 218.338 53.315C216.211 55.3317 214.176 57.1467 212.233 58.76C210.289 60.3367 208.676 61.6017 207.393 62.555C206.623 64.2417 205.981 65.745 205.468 67.065C204.954 68.3483 204.606 69.2467 204.423 69.76C205.229 68.5867 206.128 67.4317 207.118 66.295C208.108 65.1217 209.116 64.15 210.143 63.38C212.343 61.73 214.414 60.905 216.358 60.905C217.458 60.905 218.209 61.235 218.613 61.895C218.723 62.0417 218.796 62.225 218.833 62.445C218.869 62.665 218.888 62.8667 218.888 63.05C218.888 63.7467 218.704 64.4433 218.338 65.14C217.971 65.8 217.531 66.3133 217.018 66.68C216.431 67.12 215.734 67.4867 214.928 67.78C214.158 68.0367 213.406 68.165 212.673 68.165C211.903 68.165 211.243 68 210.693 67.67L210.253 67.395C210.179 67.945 210.106 68.5867 210.033 69.32C209.959 70.0167 209.923 70.75 209.923 71.52C209.923 71.8867 209.923 72.2533 209.923 72.62C209.959 72.95 209.996 73.2983 210.033 73.665C210.106 74.2517 210.216 74.93 210.363 75.7C210.546 76.4333 210.839 77.075 211.243 77.625C211.646 78.175 212.178 78.4683 212.838 78.505C213.461 78.505 214.066 78.285 214.653 77.845C215.239 77.405 215.734 76.9467 216.138 76.47C216.981 75.5533 217.696 74.6367 218.283 73.72C218.906 72.7667 219.676 71.4467 220.593 69.76C220.666 69.65 220.721 69.595 220.758 69.595C220.904 69.595 220.978 69.76 220.978 70.09C220.978 70.31 220.923 70.53 220.813 70.75C220.226 71.85 219.566 73.005 218.833 74.215C218.099 75.425 217.201 76.5617 216.138 77.625C215.661 78.1017 215.074 78.5417 214.378 78.945C213.718 79.3117 213.003 79.495 212.233 79.495ZM207.888 61.455C209.978 59.8783 211.866 58.3017 213.553 56.725C215.239 55.1483 216.963 53.4433 218.723 51.61C219.236 51.06 219.896 50.3267 220.703 49.41C221.546 48.4933 222.353 47.5033 223.123 46.44C223.929 45.3767 224.534 44.35 224.938 43.36C225.304 42.48 225.488 41.765 225.488 41.215C225.488 40.225 225.048 39.73 224.168 39.73C223.691 39.73 223.159 39.8767 222.573 40.17C221.986 40.4633 221.436 40.8667 220.923 41.38C219.199 42.9933 217.531 44.955 215.918 47.265C214.304 49.575 212.819 51.9767 211.463 54.47C210.106 56.9267 208.914 59.255 207.888 61.455ZM221.903 79.33C220.766 79.33 219.941 79 219.428 78.34C218.951 77.68 218.713 76.8733 218.713 75.92C218.713 74.71 218.951 73.39 219.428 71.96C219.941 70.53 220.528 69.1733 221.188 67.89C221.848 66.57 222.38 65.5433 222.783 64.81C223.59 63.4533 224.396 62.61 225.203 62.28C226.046 61.95 227.073 61.785 228.283 61.785C227.916 61.895 227.44 62.335 226.853 63.105C226.266 63.8383 225.643 64.755 224.983 65.855C224.36 66.955 223.755 68.1467 223.168 69.43C222.618 70.6767 222.16 71.905 221.793 73.115C221.463 74.2883 221.298 75.2967 221.298 76.14C221.298 76.7633 221.408 77.2767 221.628 77.68C221.885 78.0833 222.27 78.285 222.783 78.285C223.223 78.285 223.736 78.12 224.323 77.79C224.91 77.4233 225.441 76.9833 225.918 76.47C227.531 74.6733 228.833 72.7117 229.823 70.585C230.85 68.4217 231.986 66.2767 233.233 64.15C234.04 62.7933 234.846 61.95 235.653 61.62C236.496 61.29 237.523 61.125 238.733 61.125C238.366 61.235 237.871 61.6933 237.248 62.5C236.625 63.27 235.965 64.2417 235.268 65.415C234.608 66.5883 233.985 67.8533 233.398 69.21C232.811 70.53 232.316 71.8133 231.913 73.06C231.546 74.3067 231.363 75.37 231.363 76.25C231.363 76.8367 231.473 77.3317 231.693 77.735C231.95 78.1017 232.316 78.285 232.793 78.285C233.233 78.285 233.746 78.1017 234.333 77.735C234.92 77.3683 235.451 76.9467 235.928 76.47C236.771 75.5533 237.541 74.545 238.238 73.445C238.935 72.345 239.631 71.1717 240.328 69.925C240.438 69.7783 240.53 69.705 240.603 69.705C240.75 69.705 240.823 69.815 240.823 70.035C240.823 70.2183 240.786 70.365 240.713 70.475C240.053 71.685 239.356 72.895 238.623 74.105C237.89 75.315 236.991 76.4517 235.928 77.515C235.341 78.1017 234.645 78.5967 233.838 79C233.068 79.3667 232.298 79.4767 231.528 79.33C230.501 79.1467 229.768 78.7433 229.328 78.12C228.888 77.46 228.668 76.6717 228.668 75.755C228.668 75.0217 228.778 74.2517 228.998 73.445C228.558 74.1417 228.081 74.8383 227.568 75.535C227.091 76.2317 226.541 76.8917 225.918 77.515C225.405 78.0283 224.781 78.4683 224.048 78.835C223.351 79.165 222.636 79.33 221.903 79.33ZM229.328 57.55C228.961 57.55 228.65 57.4217 228.393 57.165C228.136 56.8717 228.008 56.5417 228.008 56.175C228.008 55.6617 228.21 55.2217 228.613 54.855C229.016 54.4883 229.456 54.2867 229.933 54.25C230.336 54.25 230.666 54.3783 230.923 54.635C231.216 54.8917 231.363 55.2217 231.363 55.625C231.363 56.1383 231.143 56.5967 230.703 57C230.3 57.3667 229.841 57.55 229.328 57.55ZM235.598 57.55C235.231 57.55 234.92 57.4217 234.663 57.165C234.443 56.8717 234.333 56.5417 234.333 56.175C234.333 55.6617 234.535 55.2217 234.938 54.855C235.341 54.4883 235.781 54.2867 236.258 54.25C237.175 54.25 237.633 54.69 237.633 55.57C237.633 56.12 237.413 56.5967 236.973 57C236.57 57.3667 236.111 57.55 235.598 57.55ZM242.052 79.385C240.769 79.385 239.852 78.9267 239.302 78.01C238.752 77.0933 238.477 76.0667 238.477 74.93C238.477 74.1233 238.587 73.335 238.807 72.565C239.174 71.2817 239.632 69.9983 240.182 68.715C240.769 67.395 241.319 66.1483 241.832 64.975C241.906 64.7917 242.034 64.48 242.217 64.04C242.401 63.5633 242.511 63.105 242.547 62.665V62.5C242.547 62.2067 242.456 61.9867 242.272 61.84C242.126 61.6933 241.961 61.62 241.777 61.62C241.484 61.62 241.246 61.6933 241.062 61.84C240.989 61.9133 240.897 61.95 240.787 61.95C240.677 61.95 240.622 61.895 240.622 61.785C240.622 61.455 240.806 61.2167 241.172 61.07C241.686 60.8133 242.217 60.685 242.767 60.685C243.427 60.685 243.996 60.905 244.472 61.345C244.986 61.7483 245.242 62.3717 245.242 63.215C245.242 64.2783 245.004 65.3417 244.527 66.405C244.051 67.4317 243.574 68.4583 243.097 69.485C242.694 70.3283 242.291 71.2083 241.887 72.125C241.484 73.005 241.191 73.8483 241.007 74.655C240.897 75.1317 240.842 75.6083 240.842 76.085C240.842 76.6717 240.989 77.185 241.282 77.625C241.576 78.0283 242.089 78.23 242.822 78.23C243.776 78.23 244.674 77.9183 245.517 77.295C246.361 76.6717 247.131 75.8833 247.827 74.93C248.561 73.9767 249.184 73.005 249.697 72.015C250.211 70.9883 250.596 70.1083 250.852 69.375C250.816 69.0817 250.761 68.6417 250.687 68.055C250.614 67.4317 250.577 66.735 250.577 65.965C250.577 65.3783 250.614 64.7733 250.687 64.15C250.761 63.49 250.871 62.83 251.017 62.17C251.127 61.7667 251.347 61.2533 251.677 60.63C252.007 60.0067 252.429 59.695 252.942 59.695C253.346 59.6217 253.657 59.7683 253.877 60.135C254.097 60.465 254.207 60.9233 254.207 61.51C254.207 62.6467 253.987 63.985 253.547 65.525C253.107 67.065 252.521 68.5867 251.787 70.09C251.751 71.1533 251.897 71.9783 252.227 72.565C252.594 73.1517 253.071 73.445 253.657 73.445C254.537 73.445 255.344 72.9683 256.077 72.015C256.847 71.0617 257.489 70.0533 258.002 68.99C258.259 68.5133 258.479 68.275 258.662 68.275C258.772 68.275 258.827 68.3483 258.827 68.495C258.827 68.7517 258.736 69.045 258.552 69.375C258.186 70.1083 257.782 70.86 257.342 71.63C256.939 72.3633 256.426 72.9683 255.802 73.445C255.216 73.9217 254.482 74.16 253.602 74.16C252.832 74.16 252.246 73.9033 251.842 73.39C251.439 72.8767 251.182 72.2717 251.072 71.575C250.596 72.4183 250.101 73.225 249.587 73.995C249.111 74.765 248.634 75.425 248.157 75.975C247.351 76.965 246.434 77.79 245.407 78.45C244.417 79.0733 243.299 79.385 242.052 79.385ZM261.713 80.1C260.32 80.1 259.11 79.66 258.083 78.78C257.093 77.8633 256.598 76.47 256.598 74.6C256.598 73.4267 256.8 72.2167 257.203 70.97C257.643 69.6867 258.12 68.55 258.633 67.56C259.587 65.7633 260.778 64.205 262.208 62.885C263.675 61.5283 265.417 60.85 267.433 60.85C269.377 60.85 270.733 61.3817 271.503 62.445C272.273 63.5083 272.658 64.81 272.658 66.35C272.658 66.9733 272.603 67.615 272.493 68.275C272.2 70.0717 271.595 71.8133 270.678 73.5C270.935 73.8667 271.265 74.1783 271.668 74.435C272.108 74.655 272.585 74.765 273.098 74.765C273.978 74.765 274.73 74.5267 275.353 74.05C275.977 73.5733 276.508 72.9867 276.948 72.29C277.425 71.5567 277.828 70.8783 278.158 70.255C278.378 69.8517 278.58 69.65 278.763 69.65C278.873 69.65 278.928 69.7233 278.928 69.87C278.928 70.0167 278.818 70.3467 278.598 70.86C277.975 72.1067 277.242 73.1883 276.398 74.105C275.555 75.0217 274.455 75.48 273.098 75.48C271.852 75.48 270.898 75.04 270.238 74.16C269.212 75.8467 267.965 77.2583 266.498 78.395C265.032 79.5317 263.437 80.1 261.713 80.1ZM261.823 79.44C263.62 79.44 265.398 78.56 267.158 76.8C267.672 76.2867 268.13 75.755 268.533 75.205C268.973 74.6183 269.358 74.0317 269.688 73.445C269.212 72.895 268.863 72.3083 268.643 71.685C268.46 71.025 268.368 70.4017 268.368 69.815C268.368 68.8983 268.533 68.0917 268.863 67.395C269.193 66.6617 269.652 66.295 270.238 66.295C270.532 66.295 270.807 66.4417 271.063 66.735C271.357 67.0283 271.54 67.4867 271.613 68.11C271.723 67.5967 271.778 67.0467 271.778 66.46C271.778 65.0667 271.522 63.9667 271.008 63.16C270.495 62.3167 269.633 61.895 268.423 61.895C267.69 61.895 266.938 62.1883 266.168 62.775C265.398 63.325 264.665 64.0033 263.968 64.81C263.308 65.6167 262.722 66.4417 262.208 67.285C261.695 68.1283 261.31 68.825 261.053 69.375C260.43 70.7317 259.972 71.9417 259.678 73.005C259.422 74.0683 259.293 75.0033 259.293 75.81C259.293 76.9833 259.532 77.8817 260.008 78.505C260.522 79.1283 261.127 79.44 261.823 79.44ZM265.948 58.1C266.095 57.0733 266.205 56.0833 266.278 55.13C266.352 54.14 266.462 53.26 266.608 52.49C266.645 52.2333 266.755 52.05 266.938 51.94C267.158 51.83 267.397 51.775 267.653 51.775C267.983 51.775 268.258 51.8667 268.478 52.05C268.735 52.1967 268.827 52.4167 268.753 52.71C268.387 53.81 268.057 54.745 267.763 55.515C267.507 56.285 267.195 57.1467 266.828 58.1C266.718 58.3567 266.572 58.485 266.388 58.485C266.022 58.485 265.875 58.3567 265.948 58.1ZM271.008 58.1C271.155 57.0733 271.265 56.0833 271.338 55.13C271.412 54.14 271.522 53.26 271.668 52.49C271.705 52.2333 271.815 52.05 271.998 51.94C272.218 51.83 272.457 51.775 272.713 51.775C273.007 51.775 273.263 51.8667 273.483 52.05C273.74 52.1967 273.832 52.4167 273.758 52.71C273.428 53.81 273.098 54.7817 272.768 55.625C272.475 56.4683 272.182 57.2933 271.888 58.1C271.778 58.3567 271.632 58.485 271.448 58.485C271.082 58.485 270.935 58.3567 271.008 58.1Z" fill="#1B4F3B"/>
<path d="M171.812 105C126.965 105 84.79 100.829 53.0529 93.2718C21.0122 85.6374 3.36289 75.3974 3.36289 64.4397C3.36289 53.4819 21.0122 43.242 53.0529 35.6053C84.79 28.0434 126.965 23.8793 171.812 23.8793C216.66 23.8793 258.835 28.0499 290.569 35.6053C322.612 43.242 340.259 53.4819 340.259 64.4397C340.259 75.3974 322.612 85.6374 290.569 93.2718C258.835 100.836 216.657 105 171.812 105ZM171.812 25.159C127.164 25.159 85.2012 29.2989 53.6539 36.817C22.4134 44.2605 5.20689 54.0702 5.20689 64.4397C5.20689 74.8091 22.4134 84.6189 53.6539 92.0623C85.2012 99.5804 127.164 103.72 171.812 103.72C216.461 103.72 258.423 99.5804 289.971 92.0623C321.208 84.6189 338.415 74.8069 338.415 64.4397C338.415 54.0724 321.208 44.2605 289.971 36.817C258.423 29.2989 216.461 25.159 171.812 25.159Z" fill="#306648"/>
<path d="M39.177 38.3426C29.1599 39.9691 21.3981 44.6841 15.2619 50.2332C11.7542 53.4073 8.73991 56.8338 5.91539 60.3173C3.18892 63.6802 -0.00566053 67.5303 0.794567 71.5473C2.40135 79.5966 16.1697 81.0936 25.4656 81.976C32.8037 82.6718 39.2466 84.1491 45.6294 86.792C51.2057 89.1034 56.4278 91.7989 62.0325 94.0796C73.1471 98.6014 85.3466 101.982 98.0649 103.532C110.837 105.088 123.074 104.278 135.657 102.39C143.067 101.277 150.424 100.331 158.022 100.123C165.423 99.9184 172.834 100.199 180.226 100.474C195.073 101.024 209.919 101.578 224.763 102.135C246.929 102.961 272.654 104.899 292.232 95.9893C302.126 91.4828 307.582 83.8769 317.043 79.0873C324.504 75.3096 336.276 74.6204 341.255 68.72C346.784 62.159 339.382 54.9416 331.45 51.4317C325.782 48.925 319.367 47.2216 313.253 45.3251L292.852 38.9923C286.178 36.9202 279.524 34.8217 272.821 32.7847C266.701 30.9299 260.454 29.288 253.802 28.6668C239.885 27.3651 225.706 29.3253 211.713 28.8094C197.125 28.2782 182.725 26.4761 168.286 25.0383C161.605 24.3798 154.903 23.7806 148.169 23.425C141.261 23.0606 133.996 22.6984 127.107 23.3701C121.034 23.9627 117.011 26.34 112.219 28.7502C106.077 31.8408 99.3712 32.1898 92.0363 31.6323C85.4637 31.134 79.0492 30.4645 72.426 30.7257C60.1043 31.2031 48.1695 33.8821 37.779 38.5028C37.3551 38.6894 37.7474 39.1613 38.1744 38.9726C49.0747 34.1494 61.6547 31.4663 74.5768 31.2086C85.6471 31.0089 98.3401 34.5144 108.775 30.8969C114.152 29.0355 118.01 25.6003 123.894 24.3886C130.365 23.054 137.988 23.5413 144.646 23.8047C158.439 24.3535 172.069 25.9998 185.723 27.387C198.444 28.6755 211.273 29.7379 224.156 29.4592C237.924 29.1585 251.399 27.8348 264.715 31.0989C277.863 34.3234 290.515 38.854 303.239 42.803C309.388 44.7127 315.546 46.6048 321.686 48.5299C327.338 50.3035 333.202 52.2615 337.39 55.5321C341.679 58.8884 344.083 64.0314 340.799 68.2064C338.342 71.33 333.493 72.9609 328.989 74.3174C324.485 75.674 319.851 76.9032 315.898 79.0192C311.748 81.2385 308.398 84.0679 305.033 86.8205C297.533 92.9667 289.303 97.5566 278.027 99.8943C267.387 102.1 256.118 102.412 245.085 102.25C218.314 101.85 191.597 99.688 164.819 99.5255C158.455 99.486 152.091 99.7077 145.807 100.432C139.253 101.187 132.838 102.39 126.278 103.15C113.386 104.64 100.263 103.843 87.7505 101.297C75.6902 98.8429 64.6356 94.8149 54.2232 89.9946C49.3048 87.7205 44.3832 85.3849 38.9271 83.7628C33.1421 82.0441 27.0914 81.6643 20.9426 81.0102C14.933 80.3692 8.60707 79.1971 4.47625 75.8518C-1.02096 71.387 2.38554 65.8972 5.93753 61.4346C11.0141 55.0558 16.7801 48.5738 24.988 43.8983C29.1696 41.4746 34.1029 39.7556 39.4016 38.876C39.8918 38.797 39.6831 38.2723 39.1928 38.3514L39.177 38.3426Z" fill="#306648"/>
<path d="M125.56 24.4259C158.512 15.4701 194.281 12.6917 229.271 16.3701C229.96 16.4425 230.257 15.7115 229.562 15.6347C194.386 11.9216 158.422 14.7008 125.285 23.6928C124.634 23.8706 124.918 24.6059 125.576 24.4259H125.56Z" fill="#306648"/>
<path d="M152.367 18.6244C165.651 11.6748 182.228 9.45782 198.229 7.42958C198.925 7.34178 198.631 6.60863 197.938 6.69643C181.836 8.73345 165.167 10.979 151.8 17.9681C151.244 18.26 151.8 18.9207 152.354 18.6266L152.367 18.6244Z" fill="#306648"/>
<path d="M162.124 14.5394C175.725 5.95227 195.186 2.70139 212.943 6.0269C213.083 6.05368 213.233 6.04074 213.359 5.99093C213.486 5.94112 213.578 5.85853 213.617 5.7613C213.656 5.66408 213.637 5.5602 213.565 5.47252C213.493 5.38484 213.374 5.32053 213.234 5.29376C195.092 1.89361 175.25 5.2301 161.362 14.0016C160.84 14.3308 161.615 14.8796 162.137 14.5394H162.124Z" fill="#306648"/>
<path d="M164.481 13.9445C181.475 13.6789 198.957 13.1236 213.449 6.21131C214.025 5.93473 213.478 5.27402 212.896 5.55279C198.561 12.397 181.298 12.9194 164.481 13.1828C163.775 13.1828 163.775 13.9555 164.481 13.9445Z" fill="#306648"/>
<path d="M171.951 11.4663C175.211 9.6404 178.651 7.97399 182.244 6.47911C182.851 6.22887 182.297 5.57035 181.69 5.82059C178.019 7.35054 174.505 9.05659 171.176 10.9263C170.626 11.2336 171.407 11.7692 171.951 11.4641V11.4663Z" fill="#306648"/>
<path d="M179.729 10.1009C184.274 7.81587 189.455 6.31884 194.731 5.05229C195.395 4.89425 195.107 4.1589 194.44 4.31914C189.063 5.60984 183.793 7.12662 179.176 9.4468C178.609 9.73216 179.153 10.3929 179.729 10.1053V10.1009Z" fill="#306648"/>
<path d="M189.553 8.61268C194.897 6.94119 200.597 5.88684 206.431 5.49131C207.127 5.44302 207.133 4.68133 206.431 4.72962C200.406 5.13962 194.519 6.22877 189 7.95417C188.367 8.15392 188.911 8.81024 189.553 8.61268Z" fill="#306648"/>
<path d="M177.284 11.1634C181.354 12.2596 185.73 12.6995 190.082 12.4497C190.781 12.4102 190.787 11.6485 190.082 11.6902C185.83 11.9376 181.553 11.5066 177.578 10.4302C176.924 10.248 176.629 10.9834 177.284 11.1634Z" fill="#306648"/>
<path d="M186.083 9.60049C191.552 10.4785 197.397 10.8451 202.917 9.97804C203.603 9.87048 203.312 9.13514 202.623 9.2427C197.309 10.079 191.638 9.72122 186.378 8.86734C185.691 8.75539 185.397 9.48854 186.083 9.60049Z" fill="#306648"/>
<path d="M194.083 7.92787C199.403 8.01787 204.795 8.05738 210.084 7.61178C210.777 7.55251 210.786 6.79083 210.084 6.8501C204.795 7.28911 199.403 7.25838 194.083 7.16838C193.377 7.15521 193.377 7.91689 194.083 7.92787Z" fill="#306648"/>
<path d="M209.312 14.6799C223.37 10.9001 238.325 8.98792 253.401 9.04295C253.539 9.03566 253.668 8.99237 253.763 8.92175C253.857 8.85113 253.909 8.7584 253.909 8.66211C253.909 8.56582 253.857 8.47308 253.763 8.40246C253.668 8.33185 253.539 8.28856 253.401 8.28126C238.229 8.22423 223.177 10.1461 209.028 13.9467C208.376 14.1223 208.661 14.8577 209.319 14.6799H209.312Z" fill="#306648"/>
<path d="M216.555 12.6911C230.156 4.80208 250.007 3.72651 265.663 9.49732C266.296 9.71683 265.98 8.7949 265.347 8.56442C257.514 5.65793 248.605 4.44624 239.77 5.08552C230.935 5.72479 222.579 8.18573 215.777 12.1511C215.233 12.4672 216.015 13.0028 216.552 12.6911H216.555Z" fill="#306648"/>
<path d="M217.118 12.6231C225.943 13.3734 234.85 13.5366 243.719 13.1104C250.893 12.757 259.967 12.6472 266.125 9.79145C266.71 9.52145 266.163 8.86294 265.572 9.13293C262.229 10.6826 258.297 11.1085 254.41 11.5212C250.064 11.9792 245.695 12.2894 241.302 12.4519C233.232 12.7409 225.14 12.5426 217.118 11.8592C216.419 11.7999 216.423 12.5616 217.118 12.6209V12.6231Z" fill="#306648"/>
<path d="M224.7 11.058C229.4 8.51611 234.847 6.83251 240.607 5.82058C241.29 5.69986 240.999 4.96451 240.316 5.08524C234.363 6.13448 228.777 7.89492 223.925 10.5202C223.368 10.8209 224.15 11.3565 224.7 11.058Z" fill="#306648"/>
<path d="M239.487 9.56095C244.176 7.5595 249.63 6.59419 255.128 6.79298C255.833 6.81712 255.83 6.05544 255.128 6.03349C249.436 5.8359 243.791 6.83669 238.933 8.90462C238.329 9.15925 238.879 9.81777 239.487 9.56314V9.56095Z" fill="#306648"/>
<path d="M231.016 10.3512C234.394 11.0097 237.611 11.9163 241.097 12.3158C244.496 12.6898 247.95 12.754 251.373 12.5068C252.069 12.4607 252.075 11.699 251.373 11.7451C247.673 12.0152 243.936 11.9139 240.278 11.4443C237.194 11.0317 234.315 10.2063 231.307 9.61587C231.17 9.59561 231.027 9.61253 230.907 9.66318C230.787 9.71383 230.699 9.79436 230.662 9.88831C230.625 9.98226 230.641 10.0825 230.707 10.1686C230.773 10.2546 230.883 10.32 231.016 10.3512Z" fill="#306648"/>
<path d="M241.948 9.2888C248.346 10.7705 255.197 11.6331 261.953 11.2446C262.652 11.2029 262.659 10.4412 261.953 10.4829C255.283 10.8671 248.558 10.0176 242.239 8.55565C241.568 8.3998 241.29 9.13515 241.948 9.2888Z" fill="#306648"/>
<path d="M144.484 5.52864C147.793 8.65001 148.384 12.7262 145.367 16.0825C142.52 19.2368 136.994 20.6724 132.272 22.0552C131.64 22.2418 131.912 22.9794 132.563 22.7884C137.893 21.2299 143.95 19.6363 146.796 15.8893C149.466 12.3882 148.773 8.29441 145.433 5.1445C145.019 4.75597 144.067 5.13352 144.484 5.52864Z" fill="#306648"/>
<path d="M145.136 5.79645C144.162 5.78328 143.181 5.77889 142.207 5.75255C141.679 5.75522 141.15 5.73469 140.626 5.69109C140.4 5.0911 140.611 4.84525 141.258 4.95354C141.342 4.95275 141.425 4.93874 141.5 4.91255C141.574 4.88636 141.64 4.84868 141.691 4.80237C141.742 4.75606 141.777 4.70234 141.793 4.64525C141.81 4.58815 141.807 4.52919 141.786 4.47283C141.685 4.1743 141.046 2.99556 141.28 2.78483C141.954 2.18119 142.656 3.02189 142.897 3.36871C143.137 3.71553 143.741 3.55091 143.899 3.27872C144.215 2.72556 145.515 1.92656 145.905 2.75629C145.857 2.65971 145.86 3.63432 145.838 3.38847C145.841 3.48903 145.899 3.58496 146.002 3.65587C146.105 3.72679 146.244 3.76708 146.388 3.76821C146.572 3.76821 148.138 3.60797 148.21 3.70017C148.77 4.42893 145.857 5.05233 145.345 5.06769C144.642 5.08964 144.636 5.85133 145.345 5.82938C146.926 5.78109 148.928 5.1094 149.267 3.90211C149.618 2.64435 147.562 2.95165 146.388 3.00653L146.936 3.38847C146.866 2.49289 147.527 1.41291 145.553 1.31414C144.026 1.23292 143.317 2.24265 142.84 3.07019L143.842 2.97799C143.346 2.2602 142.324 1.29877 141.018 1.8212C139.493 2.43142 140.433 3.79675 140.73 4.67477L141.258 4.19186C140.085 4.19186 138.345 4.53868 138.927 5.62304C139.677 7.02569 143.637 6.53618 145.145 6.55813C145.854 6.56911 145.854 5.80743 145.145 5.79645H145.136Z" fill="#306648"/>
<path d="M146.085 4.66162C145.247 4.0448 143.833 3.65408 142.735 4.20285C141.85 4.64186 141.552 5.59671 142.39 6.15425C143.229 6.7118 145.133 6.78643 146.186 6.55156C147.239 6.31669 147.941 5.45403 147.312 4.74722C146.942 4.33016 145.993 4.7121 146.363 5.13135C147.176 6.04231 144.108 5.90183 143.516 5.74817C142.786 5.55501 142.865 4.92283 143.583 4.73844C144.215 4.57381 144.892 4.89868 145.304 5.19941C145.791 5.5572 146.569 5.01722 146.078 4.66162H146.085Z" fill="#306648"/>
<path d="M172.046 16.0979C183.979 18.5377 196.399 19.633 208.832 19.3422C209.534 19.3268 209.537 18.5651 208.832 18.5805C196.498 18.8726 184.176 17.7883 172.337 15.3691C171.657 15.2308 171.366 15.964 172.043 16.1022L172.046 16.0979Z" fill="#306648"/>
<path d="M183.091 17.8715C196.793 15.5663 211.216 16.5569 224.001 20.6812C224.634 20.8853 225.193 20.229 224.554 20.0226C211.511 15.805 196.79 14.7873 182.803 17.1361C182.117 17.2525 182.408 17.9856 183.094 17.8715H183.091Z" fill="#306648"/>
<path d="M183.006 18.1964C195.383 23.7082 210.337 23.2252 224.184 21.2212C224.874 21.1224 224.583 20.3892 223.893 20.488C210.328 22.4504 195.689 22.9421 183.559 17.54C182.965 17.2744 182.414 17.933 183.006 18.1986V18.1964Z" fill="#306648"/>
<path d="M191.758 18.5893C195.844 17.7661 200.105 17.1318 204.372 17.0527C205.074 17.0396 205.077 16.2801 204.372 16.2932C200.01 16.3745 195.642 17.0176 191.467 17.8561C190.79 17.9922 191.078 18.7342 191.758 18.5915V18.5893Z" fill="#306648"/>
<path d="M204.951 19.2039C210.9 18.8653 216.889 19.2766 222.628 20.4178C223.308 20.5517 223.599 19.8185 222.922 19.6846C217.088 18.5229 211 18.1021 204.951 18.4422C204.252 18.4817 204.245 19.2434 204.951 19.2039Z" fill="#306648"/>
<path d="M195.968 19.2214C198.36 20.8761 201.387 22.0189 204.688 22.514C205.377 22.6172 205.672 21.884 204.979 21.7787C201.865 21.3152 199.01 20.2383 196.755 18.6771C196.652 18.6057 196.513 18.5657 196.368 18.5657C196.222 18.5657 196.083 18.6057 195.98 18.6771C195.878 18.7484 195.82 18.8451 195.82 18.946C195.82 19.0468 195.878 19.1435 195.98 19.2148L195.968 19.2214Z" fill="#306648"/>
<path d="M205.163 19.217C208.509 20.7248 212.331 21.6488 216.302 21.9104C217.001 21.9587 216.998 21.197 216.302 21.1487C212.522 20.8915 208.887 20.0028 205.71 18.5585C205.115 18.2929 204.565 18.9514 205.156 19.217H205.163Z" fill="#306648"/>
<path d="M117.764 26.4037C123.083 20.5114 130.867 15.886 140.075 13.1455C140.708 12.9523 140.164 12.296 139.522 12.487C130.149 15.2924 122.229 20.0128 116.818 26.0195C116.442 26.4366 117.39 26.8185 117.767 26.4037H117.764Z" fill="#306648"/>
<path d="M121.233 22.7401C123.419 15.2396 133.455 10.3797 144.38 11.6485C145.069 11.7297 145.367 10.9899 144.671 10.9153C133.189 9.58072 122.489 14.5964 120.177 22.5491C120.038 23.0277 121.094 23.2318 121.233 22.7511V22.7401Z" fill="#306648"/>
<path d="M122.046 22.2045C126.686 21.7648 131.117 20.5904 134.998 18.7721C138.879 16.9539 142.105 14.5406 144.427 11.7187C144.779 11.2929 143.83 10.9088 143.479 11.3324C141.228 14.0686 138.097 16.4072 134.33 18.1659C130.563 19.9245 126.262 21.0558 121.762 21.4714C121.066 21.5372 121.36 22.2704 122.053 22.2045H122.046Z" fill="#306648"/>
<path d="M125.889 19.2192C127.404 17.1237 129.367 15.1995 131.712 13.5121C132.203 13.1609 131.428 12.6209 130.937 12.9743C128.517 14.7056 126.491 16.6826 124.928 18.8373C124.612 19.2763 125.56 19.6604 125.877 19.2214L125.889 19.2192Z" fill="#306648"/>
<path d="M133.657 15.2176C135.907 13.4902 138.803 12.2302 142.023 11.5782C142.697 11.44 142.409 10.7002 141.729 10.8429C138.324 11.5305 135.259 12.8585 132.873 14.6799C132.399 15.0398 133.189 15.5798 133.651 15.2176H133.657Z" fill="#306648"/>
<path d="M129.22 17.3447C132.195 17.5928 135.213 17.3776 138.054 16.7147C138.718 16.561 138.434 15.8257 137.76 15.9793C135.013 16.6192 132.096 16.8255 129.22 16.583C128.521 16.5259 128.527 17.2876 129.22 17.3447Z" fill="#306648"/>
<path d="M137.396 14.3111C138.73 14.429 140.084 14.3687 141.385 14.1333C142.068 14.0104 141.777 13.2772 141.09 13.3979C139.885 13.6137 138.63 13.6651 137.396 13.5494C136.697 13.4879 136.703 14.2496 137.396 14.3111Z" fill="#306648"/>
<path d="M225.981 16.0715C231.241 14.8994 236.542 15.6062 241.144 17.6564C241.742 17.922 242.292 17.2635 241.698 16.9979C236.874 14.8511 231.2 14.1113 225.69 15.3362C225.019 15.4855 225.307 16.2142 225.981 16.0715Z" fill="#306648"/>
<path d="M224.798 16.1593C229.255 18.6441 236.318 18.4224 241.647 17.8539C242.343 17.7793 242.046 17.0461 241.356 17.1208C236.495 17.6388 229.631 17.8846 225.573 15.6215C225.029 15.3186 224.248 15.8542 224.798 16.1593Z" fill="#306648"/>
<path d="M227.645 16.482C231.802 16.6713 235.941 17.0127 240.047 17.5049C240.736 17.5861 241.033 16.8464 240.338 16.7695C236.136 16.2663 231.899 15.9161 227.645 15.7203C226.939 15.6896 226.943 16.4513 227.645 16.482Z" fill="#306648"/>
<path d="M146.151 19.7592C154.503 19.3682 162.892 19.6747 171.139 20.6724C171.828 20.7558 172.125 20.0138 171.43 19.937C163.092 18.9233 154.609 18.6086 146.164 18.9997C145.462 19.0304 145.459 19.7921 146.164 19.7592H146.151Z" fill="#306648"/>
<path d="M170.961 20.2663C171.756 19.9746 172.609 19.7674 173.492 19.6517C173.628 19.6363 174.729 19.4651 174.846 19.5639C174.574 19.3334 173.761 19.7439 173.476 19.8031C173.071 19.8909 172.885 20.3607 173.343 20.499L174.551 20.8568L175.057 21.0082C174.942 21.1006 174.784 21.1614 174.61 21.1799C174.436 21.1984 174.258 21.1734 174.109 21.1092C174.015 21.0907 173.917 21.0901 173.823 21.1075C173.73 21.1249 173.645 21.1596 173.577 21.208C173.261 21.4626 173.4 21.5284 173.375 21.8226L173.485 22.007C173.374 22.0309 173.254 22.0276 173.146 21.9976C173.038 21.9677 172.948 21.9128 172.891 21.8423C172.611 21.6621 172.401 21.4355 172.28 21.1838C171.964 20.567 171.698 19.9436 170.557 20.0863C169.864 20.1785 170.155 20.9138 170.848 20.8216C170.863 20.8216 171.733 22.0926 171.917 22.2331C172.284 22.5432 172.793 22.7576 173.359 22.8411C173.59 22.8677 173.827 22.8458 174.039 22.7781C174.252 22.7104 174.43 22.6001 174.551 22.4613C174.652 22.3193 174.688 22.1591 174.653 22.0026C174.626 21.9209 174.587 21.8414 174.536 21.7655C174.472 21.5767 174.412 21.568 174.352 21.7414L173.818 21.8379C174.744 22.0575 176.152 22.0926 176.348 21.2145C176.544 20.3365 174.747 20.0929 173.906 19.8404C173.865 20.0731 173.821 20.3036 173.776 20.5363C174.425 20.398 175.273 20.1719 175.643 19.7439C175.712 19.6723 175.759 19.5913 175.779 19.5062C175.799 19.4211 175.793 19.334 175.761 19.2507C175.729 19.1674 175.671 19.0899 175.591 19.0235C175.512 18.9571 175.413 18.9033 175.301 18.8658C174.706 18.6814 173.83 18.8439 173.21 18.9229C172.231 19.0549 171.286 19.2872 170.405 19.6122C169.772 19.8317 170.332 20.4902 170.958 20.2707L170.961 20.2663Z" fill="#306648"/>
<path d="M62.4658 32.3567C65.3124 29.896 68.5608 27.78 72.6947 26.3883C79.1693 24.213 86.6434 23.6752 93.7189 23.3416C94.4211 23.3086 94.4274 22.547 93.7189 22.5799C86.6244 22.9135 79.2326 23.4579 72.6979 25.5498C68.2381 26.9722 64.7431 29.187 61.6908 31.8189C61.2512 32.1964 62.0229 32.7386 62.4658 32.3567Z" fill="#306648"/>
<path d="M65.6224 29.9311C70.1012 22.2616 83.0883 21.3967 93.273 22.9596C93.9625 23.065 94.2567 22.3318 93.5672 22.2265C82.7087 20.5604 69.2851 21.647 64.566 29.727C64.3003 30.1814 65.3631 30.3855 65.6224 29.9311Z" fill="#306648"/>
<path d="M66.2614 29.7006C72.5873 29.6875 79.0966 29.2616 85.2391 28.0895C89.3319 27.3036 93.0706 25.8351 94.516 22.9201C94.7469 22.4569 93.6873 22.2616 93.4596 22.7182C91.7358 26.1885 86.5011 27.1895 81.8294 27.8634C76.7098 28.5851 71.4982 28.9462 66.274 28.9411C66.1289 28.9411 65.9897 28.9812 65.8871 29.0524C65.7845 29.1236 65.7268 29.2202 65.7268 29.3209C65.7268 29.4216 65.7845 29.5182 65.8871 29.5894C65.9897 29.6606 66.1289 29.7006 66.274 29.7006H66.2614Z" fill="#306648"/>
<path d="M71.0753 26.8976C73.6358 25.247 76.5431 23.8763 79.6975 22.8323C80.3301 22.6128 79.7797 21.9653 79.144 22.1738C75.9012 23.2507 72.9146 24.6653 70.2877 26.3685C69.7721 26.7044 70.5471 27.2466 71.0626 26.9063L71.0753 26.8976Z" fill="#306648"/>
<path d="M82.2975 24.0177C84.6919 23.0206 87.4875 22.5893 90.265 22.7884C90.9672 22.8345 90.9609 22.0728 90.265 22.0267C87.2924 21.8262 84.3055 22.2932 81.744 23.3591C81.1367 23.6094 81.6871 24.2679 82.2975 24.0177Z" fill="#306648"/>
<path d="M72.6094 26.3993C77.2645 27.7686 82.4047 28.1364 87.3645 27.4551C88.0572 27.3585 87.7662 26.6254 87.0735 26.7219C82.3973 27.3603 77.5531 27.0195 73.1565 25.743C72.5239 25.5498 71.9546 26.2061 72.603 26.4015L72.6094 26.3993Z" fill="#306648"/>
<path d="M79.1789 24.8649C82.6898 25.71 88.6171 26.9085 92.2261 25.6551C92.8587 25.4356 92.302 24.7771 91.6726 24.9966C90.2081 25.5059 88.0636 25.3215 86.5011 25.2161C84.1057 25.0467 81.747 24.6835 79.4731 24.134C78.8025 23.9737 78.5241 24.7091 79.1789 24.8671V24.8649Z" fill="#306648"/>
<path d="M97.2361 32.8725C104.796 34.5662 112.731 35.3095 120.667 35.0676C121.373 35.0478 121.376 34.2862 120.667 34.3081C112.83 34.5472 104.994 33.8143 97.5271 32.1438C96.8534 31.9923 96.5782 32.7277 97.2361 32.8769V32.8725Z" fill="#306648"/>
<path d="M105.406 34.1786C113.512 32.6316 122.123 32.9637 129.932 35.1246C130.59 35.3046 130.881 34.5693 130.223 34.3915C122.223 32.1913 113.408 31.8622 105.115 33.4542C104.975 33.481 104.856 33.5453 104.784 33.633C104.712 33.7206 104.694 33.8245 104.732 33.9217C104.771 34.019 104.864 34.1016 104.99 34.1514C105.116 34.2012 105.266 34.2141 105.406 34.1874V34.1786Z" fill="#306648"/>
<path d="M105.523 34.8481C113.143 38.3382 122.467 38.0441 130.324 35.1466C130.956 34.9161 130.393 34.2686 129.77 34.4881C122.249 37.2627 113.37 37.5305 106.077 34.1918C105.485 33.9218 104.938 34.5803 105.523 34.8503V34.8481Z" fill="#306648"/>
<path d="M113.952 34.6549C116.166 33.8998 118.444 33.6078 120.911 33.5376C121.613 33.5178 121.616 32.7562 120.911 32.7759C118.264 32.8505 115.796 33.1842 113.405 33.9986C112.773 34.2181 113.326 34.8766 113.959 34.6571L113.952 34.6549Z" fill="#306648"/>
<path d="M120.297 34.8788C123.099 34.6889 125.921 34.6889 128.723 34.8788C129.426 34.9249 129.419 34.1632 128.723 34.1171C125.921 33.9294 123.099 33.9294 120.297 34.1171C119.601 34.1632 119.595 34.9249 120.297 34.8788Z" fill="#306648"/>
<path d="M109.584 34.8173C112.753 36.2067 116.329 37.0864 120.05 37.3921C120.746 37.4558 120.74 36.6941 120.05 36.6304C116.523 36.3298 113.137 35.4853 110.141 34.1588C109.543 33.8954 108.993 34.5539 109.584 34.8173Z" fill="#306648"/>
<path d="M117.02 35.3968C119.934 36.158 123.06 36.4456 126.158 36.2375C126.857 36.1936 126.864 35.4319 126.158 35.478C123.155 35.6798 120.126 35.4012 117.302 34.6637C116.638 34.4925 116.353 35.2278 117.008 35.3968H117.02Z" fill="#306648"/>
<path d="M278.961 33.6298C264.129 31.4896 247.847 32.293 233.224 34.9183C232.541 35.0412 232.832 35.7744 233.515 35.6514C247.929 33.0635 264.041 32.2535 278.67 34.3651C279.356 34.4639 279.65 33.7308 278.961 33.6298Z" fill="#306648"/>
<path d="M261.457 32.4401C252.847 30.6072 240.581 30.684 233.335 34.8195C232.788 35.129 233.569 35.6646 234.11 35.3573C240.986 31.4457 253.018 31.4391 261.166 33.1732C261.842 33.3181 262.13 32.5828 261.457 32.4401Z" fill="#306648"/>
<path d="M263.203 32.8506C259.277 35.2264 254.41 36.7259 249.238 37.1535C244.066 37.5811 238.828 36.9169 234.208 35.2476C233.575 35.0281 233.025 35.6866 233.654 35.9061C243.706 39.4731 255.431 38.5051 263.978 33.3906C264.512 33.0701 263.734 32.5345 263.203 32.8528V32.8506Z" fill="#306648"/>
<path d="M239.142 37.1551C242.878 36.31 246.838 35.2959 250.001 33.643C250.557 33.3511 250.001 32.6903 249.447 32.9845C246.347 34.6088 242.508 35.5988 238.851 36.4241C238.184 36.5756 238.468 37.3022 239.142 37.1595V37.1551Z" fill="#306648"/>
<path d="M249.403 37.739C253.429 36.3254 257.788 34.9732 261.336 33.013C261.887 32.7079 261.106 32.1723 260.558 32.473C257.098 34.3871 252.778 35.702 248.855 37.0827C248.223 37.3022 248.78 37.9607 249.409 37.7412L249.403 37.739Z" fill="#306648"/>
<path d="M238.683 33.5003C240.422 33.5002 242.155 33.6477 243.842 33.9393C244.532 34.0469 244.826 33.3137 244.136 33.2062C242.353 32.8986 240.521 32.7438 238.683 32.7452C237.978 32.7606 237.975 33.5223 238.683 33.5069V33.5003Z" fill="#306648"/>
<path d="M246.249 32.5059C248.767 32.6815 251.272 32.9201 253.764 33.2215C254.454 33.3049 254.751 32.563 254.055 32.4884C251.466 32.1752 248.864 31.9272 246.249 31.7443C245.547 31.696 245.553 32.4555 246.249 32.5059Z" fill="#306648"/>
<path d="M264.477 24.8693C276.065 30.1597 288.268 34.7714 300.959 38.6565C301.591 38.854 302.158 38.1977 301.512 37.998C288.822 34.1128 276.619 29.5012 265.031 24.2108C264.439 23.9408 263.889 24.5993 264.477 24.8693Z" fill="#306648"/>
<path d="M280.112 30.5019C270.911 29.1036 261.767 26.9327 256.855 20.9117C256.507 20.4836 255.558 20.8678 255.906 21.2958C260.966 27.4924 270.316 29.7929 279.818 31.235C280.507 31.3404 280.798 30.6072 280.109 30.5019H280.112Z" fill="#306648"/>
<path d="M256.595 21.4428C266.78 21.5592 276.566 24.821 280.732 31.5555C281.01 31.9945 281.953 31.6169 281.681 31.1714C277.369 24.202 267.131 20.8019 256.598 20.6812C255.89 20.6812 255.89 21.4341 256.598 21.4428H256.595Z" fill="#306648"/>
<path d="M260.239 21.8314C262.781 22.7884 265.057 24.052 266.96 25.563C267.425 25.9339 268.2 25.394 267.735 25.0252C265.769 23.4626 263.418 22.1552 260.793 21.1641C260.16 20.9292 259.619 21.5877 260.239 21.8226V21.8314Z" fill="#306648"/>
<path d="M268.807 23.4008C271.022 25.1569 273.176 27.0205 274.681 29.1256C274.997 29.5646 275.946 29.1804 275.63 28.7414C274.086 26.5815 271.872 24.6652 269.586 22.8609C269.117 22.4943 268.346 23.0343 268.811 23.4008H268.807Z" fill="#306648"/>
<path d="M259.243 23.9298C261.368 24.4479 263.355 25.0998 265.603 25.3478C266.252 25.4203 266.533 24.731 265.879 24.6586C263.633 24.4106 261.643 23.7586 259.518 23.2406C258.885 23.0869 258.62 23.7784 259.243 23.9298Z" fill="#306648"/>
<path d="M264.332 27.0666C266.596 27.5671 268.943 27.668 271.265 27.9666C271.955 28.0566 272.252 27.3234 271.556 27.2334C269.238 26.9327 266.887 26.8339 264.626 26.3312C263.952 26.182 263.677 26.9173 264.332 27.0666Z" fill="#306648"/>
<path d="M254.321 24.2766C254.403 23.4162 254.789 20.635 253.243 20.1565C251.696 19.678 250.924 21.5855 250.867 22.2813L251.642 21.9718C250.377 21.3835 247.492 20.1082 246.154 21.3528C245.016 22.4064 246.967 23.3503 248.273 23.504V22.8125C247.116 22.9333 244.07 22.863 243.953 24.0901C243.836 25.3171 246.664 25.1876 247.692 25.2205C247.571 25.0186 247.451 24.8144 247.328 24.6103C246.012 25.3676 245.92 26.5375 247.865 26.7658C250.203 27.038 252.733 26.0415 254.312 24.9417C254.398 24.8734 254.443 24.785 254.439 24.6943C254.434 24.6036 254.38 24.5174 254.288 24.4532C254.196 24.3891 254.071 24.3517 253.941 24.3486C253.81 24.3456 253.683 24.3771 253.584 24.4369C252.659 25.1069 251.501 25.6005 250.222 25.8702C249.4 26.0371 246.176 26.1995 248.058 25.1173C248.428 24.8978 248.1 24.5225 247.692 24.5049C247.059 24.4808 245.111 24.3074 246.426 23.7191C246.875 23.5215 248.008 23.5589 248.533 23.4996C249.058 23.4403 249.02 22.8652 248.533 22.8081C247.432 22.8359 247.233 22.6047 247.935 22.1145C248.03 21.6162 248.334 21.4889 248.84 21.7348C249.529 21.7545 250.557 22.334 251.104 22.5842C251.183 22.615 251.272 22.6311 251.362 22.6309C251.452 22.6308 251.54 22.6145 251.619 22.5835C251.697 22.5526 251.763 22.5081 251.809 22.4543C251.855 22.4006 251.88 22.3395 251.882 22.2769C251.775 21.6916 252.15 21.3133 253.008 21.1421C253.14 21.564 253.231 21.9915 253.28 22.4218C253.348 23.0377 253.348 23.6563 253.28 24.2722C253.236 24.731 254.267 24.7288 254.312 24.2722L254.321 24.2766Z" fill="#306648"/>
<path d="M252.36 23.0518C251.773 22.9926 251.175 23.0855 250.68 23.3128C250.185 23.54 249.827 23.8857 249.676 24.284C249.525 24.6822 249.59 25.1052 249.859 25.4722C250.129 25.8393 250.583 26.1247 251.136 26.2742C253.983 27.0885 255.289 23.4952 252.483 23.3174C251.822 23.2757 251.826 23.9913 252.483 24.033C253.322 24.0857 253.018 25.023 252.736 25.3501C252.294 25.8461 251.433 25.7276 250.962 25.3171C250.099 24.562 251.114 23.673 252.36 23.7806C253.018 23.8355 253.012 23.1221 252.36 23.065V23.0518Z" fill="#306648"/>
<path d="M219.668 3.89333C219.399 3.47188 218.899 2.78263 219.035 2.30849C218.795 1.89143 218.94 1.78826 219.475 2.00338C219.928 1.9785 220.139 2.12484 220.107 2.44239C220.132 2.50216 220.179 2.55643 220.243 2.59993C220.307 2.64342 220.386 2.67465 220.473 2.69057C220.56 2.70648 220.651 2.70655 220.738 2.69075C220.824 2.67496 220.904 2.64384 220.968 2.60043C221.679 2.09557 222.407 1.56217 223.299 1.21096C224.047 0.720734 224.64 0.801948 225.076 1.45461C224.752 1.80385 224.366 2.12385 223.928 2.40727C223.64 2.61142 223.827 3.05043 224.292 3.0175C225.962 2.90116 227.544 2.81556 229.055 3.45651V2.8397C227.587 3.35784 225.998 3.69222 224.362 3.82748C224.254 3.83302 224.152 3.86154 224.068 3.90912C223.985 3.95669 223.925 4.02099 223.897 4.09317C223.868 4.16536 223.873 4.24188 223.91 4.31222C223.946 4.38256 224.014 4.44327 224.102 4.486C224.705 4.59136 224.778 4.83062 224.32 5.20378C224.273 5.84035 223.789 5.96766 222.862 5.58353C221.865 5.37122 220.966 4.98148 220.253 4.45307C220.156 4.38714 220.026 4.35037 219.89 4.35072C219.754 4.35108 219.624 4.38853 219.528 4.45497C219.432 4.5214 219.377 4.61146 219.376 4.70561C219.375 4.79976 219.428 4.89043 219.522 4.95793C220.787 5.83596 223.837 7.11788 225.681 6.24863C227.262 5.49573 225.681 4.30819 224.621 3.86918L224.362 4.5277C226.178 4.37453 227.942 4.00315 229.574 3.43017C229.651 3.39815 229.714 3.35293 229.758 3.29889C229.802 3.24485 229.825 3.18383 229.825 3.12176C229.825 3.05969 229.802 2.99868 229.758 2.94464C229.714 2.8906 229.651 2.84537 229.574 2.81336C227.92 2.11752 226.171 2.15484 224.292 2.28215L224.656 2.89458C225.402 2.36776 227.449 0.943164 226.054 0.240744C224.207 -0.687767 221.309 1.31633 220.237 2.07362L221.101 2.23167C220.844 1.49852 219.75 0.196845 218.418 1.01121C217.254 1.72241 218.311 3.48724 218.792 4.23795C219.061 4.65941 219.949 4.29502 219.684 3.87796L219.668 3.89333Z" fill="#306648"/>
<path d="M220.996 3.0241C219.854 3.0241 218.58 3.28312 218.131 4.0887C217.681 4.89429 218.317 5.6011 219.453 5.83158C220.471 6.04011 221.815 5.87987 222.334 5.17306C222.445 5.02804 222.51 4.86862 222.527 4.70499C222.543 4.54136 222.511 4.37712 222.431 4.22279C222.35 4.06845 222.225 3.92742 222.062 3.8087C221.899 3.68998 221.702 3.5962 221.483 3.53335C220.851 3.35994 220.598 4.05359 221.208 4.2226C221.632 4.34114 221.524 4.79552 221.281 4.97771C220.873 5.27843 220.06 5.25868 219.551 5.10941C219.425 5.07504 219.312 5.01998 219.224 4.94894C219.135 4.87791 219.072 4.79302 219.041 4.70154C219.01 4.61005 219.012 4.5147 219.045 4.42364C219.079 4.33259 219.144 4.24854 219.234 4.1787C219.627 3.80335 220.392 3.73969 221.006 3.73969C221.142 3.73969 221.273 3.70199 221.37 3.63489C221.467 3.56779 221.521 3.47679 221.521 3.3819C221.521 3.28701 221.467 3.196 221.37 3.1289C221.273 3.0618 221.142 3.0241 221.006 3.0241H220.996Z" fill="#306648"/>
</svg>
