<svg width="297" height="268" viewBox="0 0 297 268" fill="none" xmlns="http://www.w3.org/2000/svg">
<path d="M59.8069 261.314C63.2276 257.845 66.4486 254.205 69.456 250.409L69.456 267.407L73.7213 263.375L73.7213 244.763C76.5732 240.763 79.1886 236.617 81.5553 232.344C81.6941 232.305 81.8231 232.239 81.9342 232.151C82.0453 232.063 82.1363 231.955 82.2015 231.833C82.2668 231.71 82.3049 231.577 82.3136 231.44C82.3223 231.303 82.3014 231.166 82.2521 231.037C84.7849 226.345 87.018 221.513 88.9395 216.568C91.33 216.011 93.6638 215.256 95.9137 214.311C106.799 218.544 116.583 210.964 119.196 200.984C119.234 200.847 119.23 200.704 119.185 200.569C120.331 200.346 119.865 198.694 118.707 198.896C113.172 199.974 108.367 198.503 103.287 201.595C98.9651 204.213 96.4363 208.367 94.8459 212.855C93.1421 213.562 91.3883 214.154 89.5971 214.629C91.7636 208.763 93.4857 202.758 94.7504 196.66C94.9904 196.631 95.2177 196.541 95.4078 196.4L106.001 188.161C106.94 189.03 108.184 189.543 109.497 189.604C110.809 189.664 112.1 189.268 113.125 188.49C114.149 187.711 114.836 186.605 115.055 185.38C115.275 184.156 115.012 182.897 114.316 181.843C113.621 180.789 112.54 180.013 111.28 179.661C110.019 179.31 108.666 179.407 107.476 179.935C106.287 180.462 105.343 181.384 104.823 182.525C104.304 183.666 104.245 184.947 104.658 186.127L95.4022 193.314C96.2191 188.77 96.7819 184.188 97.0882 179.588C98.2846 179.462 99.4001 178.955 100.252 178.15C101.103 177.346 101.64 176.292 101.775 175.161C101.909 174.03 101.633 172.89 100.991 171.927C100.35 170.964 99.381 170.236 98.244 169.862C97.107 169.488 95.8692 169.49 94.7338 169.869C93.5984 170.247 92.6327 170.979 91.9952 171.944C91.3577 172.909 91.0864 174.051 91.2255 175.181C91.3646 176.311 91.9061 177.363 92.761 178.165C93.2796 178.65 93.8971 179.032 94.5761 179.285C94.3738 182.472 94.0535 185.654 93.6039 188.799C91.2249 186.677 88.7728 184.632 86.2477 182.664C86.8534 181.579 87.0176 180.321 86.7093 179.13C86.4009 177.938 85.6413 176.894 84.5742 176.196C83.507 175.498 82.2062 175.193 80.9175 175.34C79.6289 175.486 78.4418 176.074 77.5805 176.992C76.7193 177.91 76.2436 179.094 76.2434 180.321C76.2432 181.548 76.7186 182.732 77.5795 183.65C78.4405 184.568 79.6275 185.157 80.9161 185.304C82.2047 185.451 83.5056 185.146 84.573 184.448C87.5234 186.748 90.3895 189.139 93.1375 191.651C91.032 204.239 86.9601 216.462 81.0551 227.919C78.9207 222.163 76.4613 216.519 73.6876 211.012L73.682 172.508C79.7084 162.451 84.7821 151.91 88.844 141.009C88.9615 140.97 89.0702 140.911 89.1643 140.834L95.2505 135.74C95.2999 135.77 95.3527 135.795 95.4079 135.814C105.535 138.066 112.728 129.876 112.75 120.867C112.75 120.867 112.75 120.867 112.711 120.83C112.8 120.689 112.843 120.527 112.833 120.363C112.822 120.199 112.76 120.043 112.653 119.913C112.547 119.784 112.401 119.688 112.236 119.638C112.071 119.589 111.894 119.587 111.728 119.635C107.074 121.228 101.275 122.429 97.4253 125.525C94.3851 127.964 93.8568 131.236 93.6039 134.778L93.6433 134.816L90.0073 137.859C91.4872 133.592 92.7759 129.29 93.8737 124.952C93.9304 124.824 93.961 124.687 93.9636 124.548C94.4582 122.593 94.904 120.632 95.3011 118.663C95.3926 118.598 95.474 118.521 95.5427 118.434C98.1816 115.169 101.15 112.154 104.405 109.431C104.517 109.537 104.624 109.638 104.742 109.75C105.685 110.537 106.896 110.978 108.154 110.993C109.412 111.007 110.633 110.593 111.595 109.827C112.558 109.061 113.197 107.993 113.396 106.819C113.595 105.645 113.34 104.442 112.679 103.43C112.019 102.419 110.995 101.665 109.795 101.307C108.595 100.949 107.299 101.011 106.144 101.481C104.988 101.95 104.049 102.797 103.499 103.867C102.949 104.936 102.824 106.157 103.146 107.306C100.673 109.359 98.352 111.57 96.2003 113.925C96.8597 109.973 97.3354 106.014 97.6277 102.048C97.6251 101.972 97.6138 101.897 97.594 101.825C98.8452 101.654 99.9867 101.055 100.802 100.142C101.616 99.2282 102.048 98.0637 102.014 96.8692C101.981 95.6747 101.484 94.5335 100.619 93.6624C99.7536 92.7912 98.58 92.2507 97.3209 92.1435C96.0618 92.0364 94.8049 92.37 93.7889 93.0811C92.7729 93.7921 92.0686 94.8311 91.8097 96.0006C91.5508 97.1702 91.7553 98.3889 92.3844 99.4254C93.0136 100.462 94.0235 101.244 95.2224 101.623C95.1543 101.756 95.1125 101.9 95.0988 102.048C94.6615 107.98 93.8054 113.879 92.5362 119.704C91.4964 116.816 90.1816 114.023 88.608 111.359L88.6923 111.279C89.5581 110.376 90.0457 109.205 90.0639 107.986C90.082 106.767 89.6294 105.584 88.7908 104.658C87.9522 103.732 86.7851 103.126 85.5082 102.955C84.2313 102.784 82.9321 103.058 81.854 103.727C80.7759 104.396 79.9929 105.414 79.6515 106.59C79.3101 107.765 79.4338 109.018 79.9995 110.113C80.5652 111.209 81.5341 112.072 82.7246 112.541C83.9151 113.01 85.2455 113.052 86.4668 112.66C88.6362 116.378 90.2925 120.342 91.3954 124.458C89.8686 130.485 87.9753 136.425 85.725 142.247C83.1364 137.565 80.1757 133.077 76.8683 128.819C76.835 128.684 76.7736 128.557 76.6877 128.445C76.6019 128.332 76.4932 128.237 76.3682 128.165C75.4803 127.007 74.5849 125.857 73.682 124.713L73.682 57.2858L126.963 57.2911C133.915 59.8609 141.066 61.9244 148.351 63.4633C144.328 65.418 140.27 67.3196 136.179 69.1681L123.821 66.2201C124.023 65.0489 123.77 63.8483 123.109 62.8395C122.448 61.8306 121.424 61.0815 120.225 60.7301C119.026 60.3787 117.733 60.4488 116.584 60.9273C115.435 61.4059 114.508 62.2606 113.973 63.3342C113.439 64.4078 113.332 65.6278 113.674 66.7696C114.016 67.9113 114.783 68.8978 115.834 69.5474C116.884 70.1969 118.148 70.4657 119.391 70.3043C120.635 70.1428 121.775 69.562 122.602 68.6688C122.675 68.5997 122.714 68.5094 122.782 68.4351L132.532 70.7669C131.262 71.3193 129.997 71.8877 128.699 72.4561C127.593 71.8458 126.29 71.6371 125.033 71.8689C123.777 72.1007 122.652 72.7573 121.87 73.7157C121.088 74.6742 120.702 75.869 120.784 77.0768C120.866 78.2847 121.411 79.423 122.317 80.2788C123.222 81.1347 124.426 81.6495 125.704 81.7272C126.982 81.8049 128.246 81.4401 129.26 80.701C130.274 79.9619 130.969 78.8989 131.214 77.711C131.459 76.523 131.239 75.2914 130.593 74.2461C132.564 73.3891 134.531 72.5251 136.494 71.654C136.695 71.6728 136.898 71.6403 137.082 71.56C137.266 71.4796 137.424 71.3544 137.539 71.1971C138.455 70.7881 139.354 70.3633 140.265 69.9383C139.634 72.2947 138.749 74.5836 137.623 76.7692C136.381 77.0014 135.271 77.6523 134.499 78.6006C133.727 79.5488 133.345 80.73 133.426 81.9241C133.506 83.1183 134.043 84.2442 134.936 85.0923C135.829 85.9404 137.018 86.4529 138.281 86.5345C139.544 86.6161 140.795 86.2611 141.802 85.5357C142.809 84.8103 143.503 83.7638 143.754 82.5911C144.006 81.4183 143.798 80.1992 143.169 79.1604C142.541 78.1217 141.535 77.3342 140.338 76.9444C141.584 74.357 142.524 71.6476 143.142 68.8653C143.153 68.7843 143.153 68.7021 143.142 68.621C150.204 65.3313 157.169 61.868 164.036 58.2312C163.897 59.6676 163.651 61.093 163.3 62.4966C159.681 62.8897 155.826 63.9308 154.112 67.2931C153.433 68.8998 153.14 70.6285 153.252 72.3552C153.19 76.5461 153.139 79.8128 151.201 83.6425C151.142 83.7524 151.11 83.8731 151.106 83.996C151.102 84.119 151.127 84.2413 151.178 84.3543C151.194 84.4684 151.236 84.5779 151.302 84.675C151.368 84.772 151.455 84.8543 151.558 84.9161C151.661 84.9778 151.776 85.0176 151.897 85.0325C152.018 85.0474 152.141 85.0371 152.257 85.0023C159.827 82.9361 177.13 69.6196 165.104 62.7568C165.559 60.9726 165.85 59.1546 165.975 57.323H205.886C210.016 60.6288 214.512 63.5031 219.295 65.8961C212.779 69.4461 206.031 72.6024 199.092 75.3457C193.998 73.8783 188.812 72.7128 183.565 71.8559C183.764 70.6828 183.508 69.4811 182.844 68.4722C182.18 67.4634 181.152 66.7152 179.951 66.3656C178.75 66.0159 177.455 66.0884 176.306 66.5695C175.156 67.0506 174.23 67.908 173.696 68.9839C173.163 70.0597 173.058 71.2816 173.403 72.4243C173.747 73.5671 174.516 74.5538 175.569 75.2029C176.622 75.8519 177.887 76.1195 179.133 75.9563C180.378 75.7932 181.519 75.2104 182.345 74.3152C182.401 74.2469 182.454 74.1759 182.503 74.1027C186.817 74.7909 191.09 75.6917 195.304 76.8011C191.938 78.0493 188.538 79.2125 185.076 80.2749C185.076 80.2749 185.037 80.3121 185.02 80.3281C184.723 79.6213 184.256 78.99 183.655 78.4849C182.771 77.7397 181.648 77.2979 180.466 77.231C179.284 77.1641 178.113 77.476 177.141 78.1162C176.17 78.7564 175.456 79.6874 175.114 80.7589C174.772 81.8303 174.823 82.9795 175.257 84.0205C175.692 85.0615 176.485 85.9335 177.509 86.4954C178.533 87.0574 179.728 87.2765 180.9 87.1173C182.072 86.9581 183.153 86.4299 183.968 85.6181C184.783 84.8063 185.284 83.7584 185.391 82.6439C185.506 82.6438 185.621 82.6314 185.734 82.6068C187.292 82.1252 188.838 81.6276 190.37 81.1142C189.288 83.4052 188.022 85.6144 186.582 87.722C185.592 87.534 184.563 87.6874 183.682 88.1546C182.8 88.6217 182.125 89.3717 181.779 90.2687C181.432 91.1656 181.437 92.1503 181.792 93.0444C182.147 93.9385 182.829 94.6829 183.714 95.1427C184.6 95.6025 185.63 95.7474 186.619 95.5511C187.608 95.3549 188.489 94.8304 189.104 94.0727C189.719 93.3151 190.027 92.3742 189.972 91.4207C189.916 90.4672 189.501 89.564 188.802 88.8746C190.685 86.1003 192.286 83.164 193.585 80.1049C193.585 80.1049 193.59 80.0466 193.601 80.0147C195.538 79.3313 197.464 78.6159 199.379 77.8687C199.525 77.8684 199.67 77.839 199.804 77.7822C199.937 77.7255 200.057 77.6427 200.154 77.5393C204.822 75.6838 209.395 73.653 213.872 71.4468C212.865 73.0544 211.959 74.7164 211.157 76.424C211.006 76.4166 210.855 76.4401 210.713 76.493C205.414 78.7186 200.418 82.134 199.058 87.7857C197.428 94.5741 203.824 99.2696 204.436 105.681C204.521 106.663 206.032 106.754 206.212 105.925C215.642 98.6163 224.471 85.1935 213.574 75.5953C214.603 73.6057 215.773 71.6838 217.075 69.8426C218.795 68.9503 220.492 68.0367 222.178 67.0912C222.445 67.1019 222.711 67.0387 222.941 66.9095C223.172 66.7803 223.357 66.5906 223.476 66.3635C228.384 63.5731 233.149 60.5631 237.773 57.3336L240.622 57.3283C240.526 58.1091 240.47 58.8847 240.414 59.6496L240.403 59.7238L240.369 59.7557C236.283 62.4063 232.653 66.3795 233.417 71.3938C234.238 76.8223 239.97 79.9456 241.92 84.9014C241.98 85.0406 242.075 85.1639 242.196 85.261C242.317 85.358 242.462 85.426 242.617 85.4588C242.772 85.4917 242.933 85.4887 243.087 85.4499C243.24 85.4111 243.382 85.3376 243.499 85.236C243.673 85.2679 243.852 85.249 244.014 85.1815C244.176 85.1141 244.312 85.0015 244.404 84.8589C247.377 80.5086 250.029 75.7387 249.327 70.3898C249.017 68.1912 248.223 66.0783 246.997 64.1873C245.771 62.2963 244.139 60.6691 242.207 59.4105C242.24 58.7093 242.313 58.0029 242.414 57.3124L262.202 57.307C265.151 59.6124 268.273 61.7142 271.541 63.5962C272.946 64.3929 274.188 62.3054 272.795 61.5086C270.54 60.2226 268.362 58.82 266.27 57.3071L291.789 57.3123L296.044 53.2914L261.033 53.302C256.981 49.9184 253.221 46.2481 249.512 42.4874C249.572 42.3789 249.607 42.2591 249.613 42.1367C249.67 41.0213 249.799 39.9218 249.951 38.8223C260.15 36.2886 264.309 22.2975 258.448 14.5159C258.374 14.4036 258.274 14.309 258.155 14.2397C258.1 14.0837 257.999 13.9459 257.863 13.8425C257.728 13.7391 257.564 13.6745 257.391 13.6561C257.218 13.6377 257.043 13.6662 256.887 13.7385C256.731 13.8109 256.599 13.924 256.509 14.0644C253.727 18.7228 247.388 20.8368 245.488 25.851C244.01 29.7658 245.73 33.7921 247.854 37.1385C247.905 37.226 247.974 37.3031 248.057 37.3652C248.14 37.4272 248.236 37.4728 248.338 37.4996C248.152 38.5991 248.006 39.7146 247.916 40.8407C245.758 38.631 243.606 36.416 241.425 34.2276C237.289 30.0682 232.841 26.1948 228.118 22.6374C228.085 22.4691 228.01 22.3106 227.899 22.1753C224.272 17.331 220.484 12.6036 216.536 7.99304C216.635 7.90987 216.729 7.8212 216.817 7.72744C217.541 6.96211 217.954 5.97856 217.983 4.95202C218.012 3.92548 217.654 2.92279 216.973 2.12236C216.293 1.32194 215.334 0.775802 214.267 0.581461C213.2 0.387114 212.095 0.55706 211.148 1.06107C210.202 1.56506 209.475 2.37042 209.098 3.33352C208.721 4.29659 208.718 5.3549 209.09 6.31985C209.461 7.28482 210.183 8.09378 211.127 8.60256C212.071 9.11132 213.175 9.28687 214.243 9.09791C216.79 12.0796 219.272 15.1019 221.689 18.165C216.364 14.7419 210.708 11.8037 204.796 9.39002C205.073 8.22424 204.89 7.00305 204.282 5.95558C203.674 4.90812 202.682 4.10647 201.493 3.70107C200.304 3.29566 198.999 3.31434 197.824 3.75372C196.648 4.19309 195.683 5.02288 195.109 6.08732C194.535 7.15178 194.391 8.37782 194.706 9.53508C195.02 10.6924 195.77 11.7014 196.816 12.3728C197.862 13.0442 199.13 13.3319 200.385 13.1817C201.639 13.0316 202.792 12.4539 203.627 11.5572L203.666 11.52C208.734 13.591 213.607 16.0645 218.233 18.9139C215.309 19.5979 212.319 20.0001 209.309 20.1144C208.544 19.1307 207.427 18.444 206.165 18.1829C204.904 17.9219 203.585 18.1044 202.456 18.6962C201.326 19.288 200.464 20.2485 200.03 21.398C199.596 22.5476 199.62 23.8072 200.098 24.9411C200.575 26.0751 201.474 27.0057 202.625 27.5585C203.776 28.1114 205.101 28.2486 206.352 27.9447C207.602 27.6407 208.693 26.9163 209.419 25.9072C210.146 24.898 210.458 23.6733 210.298 22.4622C213.873 22.2743 217.414 21.7004 220.851 20.7518C220.896 20.732 220.94 20.7089 220.981 20.6827C227.459 25.017 233.49 29.9203 238.992 35.3271C237.632 35.4333 236.266 35.5237 234.901 35.5822C234.845 35.5083 234.777 35.4437 234.699 35.3909C234.683 35.2582 234.631 35.1317 234.547 35.0244C232.007 31.7949 227.494 28.1775 222.908 28.5918C220.998 28.8734 219.208 29.6473 217.733 30.8282C214.642 32.9635 212.141 34.7747 208.263 35.4652C207.168 35.6618 207.572 37.1809 208.595 37.1172C212.669 40.915 217.738 44.0808 223.678 43.9374C225.975 43.9247 228.221 43.2921 230.15 42.1139C232.08 40.9358 233.613 39.2612 234.569 37.2872C236.592 37.2022 238.616 37.0853 240.639 36.9153C241.262 37.5049 241.858 38.1318 242.454 38.7479C244.668 41.0213 246.86 43.2948 249.085 45.5151C245.876 48.2187 242.594 50.8002 239.217 53.2702L204.594 53.2648C197.288 47.4219 190.314 40.9789 182.429 35.9699C182.46 35.8344 182.454 35.6938 182.413 35.5609C181.345 32.3115 179.97 29.1595 178.305 26.1432C178.381 26.0926 178.448 26.0297 178.501 25.9572C181.277 21.6441 181.974 17.9897 178.67 13.7085C174.601 8.43925 167.762 4.66261 161.591 2.08113C161.412 2.00454 161.211 1.98291 161.018 2.01925C160.825 2.05562 160.648 2.14809 160.513 2.28383C160.379 2.41955 160.292 2.59177 160.265 2.77637C160.239 2.96096 160.274 3.14874 160.366 3.31344C160.996 9.02885 159.832 14.7178 163.142 19.8861C164.601 22.1414 166.585 24.0526 168.942 25.4746C171.3 26.8967 173.969 27.792 176.748 28.0926C176.934 28.1114 177.121 28.0781 177.287 27.997C178.393 30.13 179.353 32.3284 180.159 34.5782C172.07 29.835 163.489 25.8855 154.55 22.7915C154.514 22.6324 154.443 22.4822 154.342 22.3506C150.534 17.4264 146.149 12.9253 141.27 8.93324C141.185 8.87189 141.093 8.82025 140.995 8.77927C141.676 7.74444 141.931 6.50902 141.71 5.30824C141.49 4.10746 140.81 3.02511 139.801 2.26741C138.791 1.50973 137.521 1.12952 136.234 1.19923C134.947 1.26894 133.731 1.78378 132.82 2.64553C131.908 3.50728 131.363 4.65582 131.29 5.87254C131.216 7.08923 131.618 8.28905 132.42 9.24358C133.221 10.1981 134.367 10.8406 135.637 11.0488C136.907 11.257 138.214 11.0165 139.309 10.3728C139.359 10.4542 139.419 10.5291 139.489 10.5958C143.471 13.8661 147.114 17.4873 150.369 21.4104C145.959 20.0117 141.484 18.813 136.943 17.8144C137.109 16.6396 136.823 15.4477 136.136 14.4559C135.45 13.464 134.409 12.7382 133.204 12.4108C131.999 12.0835 130.71 12.1762 129.571 12.6723C128.432 13.1683 127.52 14.0345 127 15.1131C126.481 16.1918 126.388 17.411 126.74 18.5486C127.092 19.6861 127.865 20.6663 128.917 21.3104C129.97 21.9546 131.232 22.2197 132.475 22.0577C133.717 21.8957 134.856 21.3173 135.684 20.4278C135.788 20.3108 135.882 20.1864 135.965 20.0559C138.893 20.6987 141.799 21.4158 144.665 22.2232C139.994 23.9671 135.183 25.356 130.278 26.3769C129.942 25.3309 129.249 24.4198 128.306 23.7868C127.363 23.1537 126.224 22.8345 125.069 22.8791C123.913 22.9237 122.806 23.3296 121.921 24.0333C121.036 24.7369 120.423 25.6984 120.178 26.7669C119.934 27.8353 120.072 28.9502 120.57 29.9367C121.068 30.9232 121.899 31.7253 122.932 32.2174C123.964 32.7094 125.141 32.8634 126.276 32.6552C127.412 32.4471 128.442 31.8885 129.205 31.0672C129.799 30.4248 130.204 29.6463 130.379 28.8096C136.539 27.5518 142.555 25.7357 148.346 23.3864C148.37 23.3674 148.393 23.346 148.413 23.3226C155.885 25.6217 163.139 28.5091 170.1 31.9542C168.136 33.4889 166.025 34.8474 163.794 36.0123C163.732 35.8285 163.597 35.6744 163.418 35.5821C159.512 33.4202 155.157 31.1309 150.453 31.9861C144.71 33.0378 141.54 38.4346 137.072 41.4463C136.895 41.487 136.734 41.5752 136.609 41.7004C136.483 41.8257 136.399 41.9824 136.366 42.152C136.332 42.3215 136.352 42.4965 136.421 42.6559C136.491 42.8154 136.608 42.9523 136.758 43.0503C142.119 46.4817 147.199 49.1163 153.78 47.6981C159.473 46.4923 164.413 43.6931 164.014 37.8449C166.793 36.4467 169.404 34.7691 171.802 32.8413C175.107 34.5305 178.361 36.3311 181.525 38.2805C183.52 39.5181 185.442 40.8566 187.335 42.2536C181.034 46.0851 174.659 49.7698 168.211 53.3074L123.254 53.3074C118.095 51.2287 113.056 48.9092 108.137 46.349C107.631 45.0635 107.119 43.7834 106.58 42.5086C106.761 42.5485 106.951 42.5366 107.125 42.4741C107.299 42.4117 107.45 42.3016 107.558 42.158C115.701 31.6461 102.719 24.4222 93.8681 20.8686C92.9183 20.4915 92.1035 21.6229 92.7048 22.1806C92.2889 26.175 91.9461 30.4616 94.0142 34.1267C96.0822 37.7918 100.353 40.352 104.248 42.2058C104.341 42.2423 104.44 42.2672 104.54 42.2802C104.928 43.1885 105.332 44.0915 105.675 45.0317C98.2082 40.9876 91.0245 36.4934 84.1684 31.5771C84.2383 31.3718 84.2402 31.1513 84.174 30.945C83.2111 27.8543 81.9916 24.8403 80.5268 21.931C81.624 21.5967 82.5733 20.9285 83.2266 20.0308C83.88 19.1331 84.2006 18.0563 84.1386 16.9683C84.0766 15.8803 83.6354 14.8422 82.8838 14.016C82.1322 13.1899 81.1125 12.622 79.9837 12.401C78.8549 12.18 77.6804 12.3183 76.6434 12.7944C75.6065 13.2704 74.7654 14.0573 74.2512 15.0326C73.7371 16.0078 73.5789 17.1164 73.8012 18.1856C74.0235 19.2547 74.6139 20.2243 75.4803 20.943C76.1644 21.5143 76.9995 21.8997 77.8968 22.0585C77.9089 22.1959 77.945 22.3305 78.0035 22.4569C79.1378 24.653 80.1232 26.915 80.9539 29.2293C78.0916 27.1117 75.293 24.9303 72.558 22.6853C73.0711 21.5956 73.1452 20.3664 72.7664 19.2287C72.3877 18.0911 71.5821 17.1234 70.5013 16.5079C69.4205 15.8924 68.1389 15.6715 66.8978 15.8867C65.6567 16.1019 64.5415 16.7384 63.7622 17.6764C62.9829 18.6144 62.5931 19.7892 62.6661 20.9799C62.7392 22.1706 63.2701 23.2949 64.159 24.1415C65.0478 24.988 66.2333 25.4984 67.4924 25.5765C68.7516 25.6546 69.9975 25.2951 70.9957 24.5656C75.9523 28.6025 81.1 32.4695 86.4275 36.1133C80.2739 40.0918 72.9907 39.4119 66.0167 38.1955C66.1975 37.0219 65.9252 35.826 65.2495 34.8266C64.5739 33.8273 63.5401 33.0913 62.3373 32.7534C61.1346 32.4155 59.8433 32.4983 58.6999 32.9866C57.5564 33.4749 56.6372 34.3361 56.1105 35.4125C55.5837 36.4889 55.4847 37.7086 55.8315 38.8484C56.1784 39.9882 56.9478 40.9718 57.9991 41.6192C59.0504 42.2667 60.3131 42.5347 61.5563 42.3741C62.7996 42.2136 63.94 41.6353 64.7691 40.7451C64.8522 40.6486 64.9291 40.5475 64.9995 40.4423C72.7828 41.8181 81.0214 42.6254 87.8662 38.0786C88.0891 37.9237 88.2512 37.7033 88.327 37.4518C97.3884 43.5415 107 48.865 117.049 53.3604L69.4616 53.3604L69.4615 119.417C66.3875 115.523 63.4035 111.566 60.7004 107.439C56.7741 101.25 53.9474 94.4939 52.3326 87.4404C53.0446 83.4293 54.3657 79.5363 56.2552 75.8821C57.4985 76.0447 58.7622 75.7792 59.8156 75.134C60.8689 74.4889 61.6416 73.5072 61.9927 72.3682C62.3437 71.2292 62.2495 70.0089 61.7275 68.93C61.2054 67.8512 60.2903 66.9857 59.1491 66.4918C58.0079 65.9979 56.7167 65.9084 55.5115 66.2397C54.3063 66.571 53.2674 67.3009 52.5844 68.2963C51.9014 69.2916 51.62 70.4859 51.7915 71.6611C51.9629 72.8364 52.5759 73.9141 53.5184 74.6976C53.6308 74.8038 53.7825 74.8729 53.9117 74.9632C52.7978 77.1383 51.875 79.3963 51.1525 81.7143C50.1263 75.4615 49.4491 69.162 49.1237 62.8418C50.2008 62.2187 51.0006 61.2458 51.3732 60.1053C51.7458 58.9649 51.6656 57.7352 51.1478 56.6466C50.63 55.5579 49.71 54.6851 48.5601 54.1917C47.4103 53.6982 46.1096 53.6179 44.9016 53.9658C43.6937 54.3138 42.6614 55.0661 41.9982 56.0818C41.3349 57.0975 41.0863 58.3069 41.2988 59.4835C41.5113 60.66 42.1703 61.723 43.1525 62.4732C44.1346 63.2235 45.3725 63.6095 46.6342 63.5589C46.9096 67.8561 47.2299 72.1639 47.7413 76.4292C44.5123 73.1523 40.9948 70.1404 37.2268 67.4259C37.892 66.3807 38.1298 65.1417 37.8952 63.9423C37.6606 62.743 36.9699 61.6662 35.9532 60.915C34.9366 60.1638 33.6643 59.7901 32.3763 59.8644C31.0882 59.9387 29.8735 60.4558 28.961 61.3182C28.0486 62.1807 27.5015 63.3288 27.4229 64.5463C27.3443 65.7637 27.7396 66.9663 28.5344 67.9272C29.3291 68.8881 30.4684 69.5409 31.7373 69.7627C33.0062 69.9844 34.3171 69.7597 35.4228 69.1309C40.0959 72.4549 44.3666 76.2563 48.1572 80.4661C48.2078 80.5139 48.2471 80.5511 48.2977 80.5989C49.5734 88.8905 51.7762 96.9962 56.0304 104.565C56.3788 105.182 56.7497 105.798 57.115 106.409C55.2118 105.601 53.3685 104.712 51.5852 103.742C51.5278 103.704 51.4655 103.674 51.3997 103.652C51.3154 103.572 51.1918 103.53 51.0906 103.476C51.1489 101.358 50.6816 99.2554 49.7263 97.3378C48.7709 95.4203 47.354 93.7407 45.5889 92.4334C40.0647 88.2743 33.5121 88.9755 27.0269 87.8176C26.8343 87.7819 26.6346 87.8048 26.4566 87.883C26.2785 87.9612 26.1313 88.0906 26.0358 88.2528C25.9404 88.4149 25.9017 88.6015 25.9253 88.7857C25.9489 88.9699 26.0335 89.1423 26.1671 89.2783C26.1744 89.415 26.221 89.5472 26.302 89.6607C30.7528 96.0773 40.7728 114.227 51.2255 105.484C53.6264 106.746 56.1033 107.874 58.6436 108.863C61.9143 113.919 65.657 118.679 69.4335 123.406L69.4335 126.901C68.1072 123.81 65.5502 121.797 61.9311 120.692C56.2327 118.95 51.6695 121.616 46.0329 120.899C45.8445 120.873 45.6523 120.902 45.4816 120.981C45.311 121.061 45.17 121.188 45.0775 121.345C44.9336 121.392 44.8045 121.473 44.702 121.58C44.5995 121.686 44.5267 121.815 44.4904 121.955C44.4541 122.095 44.4554 122.241 44.4942 122.381C44.5329 122.52 44.6079 122.648 44.7123 122.753C48.101 126.147 51.3491 129.801 54.9739 132.972C57.1037 134.826 59.5146 136.202 62.5099 135.942C65.1738 135.582 67.6239 134.362 69.4447 132.489L69.439 174.797C66.4643 179.585 63.3323 184.206 60.0429 188.66C57.4016 184.995 54.6142 181.433 51.6807 177.973C52.0854 175.466 52.6529 172.932 53.0744 170.42C57.2611 167.631 60.869 163.106 60.4026 158.097C60.2059 155.914 59.0201 154.326 57.4971 152.748C54.5411 149.667 51.1244 146.894 47.9549 144.005C47.8124 143.879 47.6308 143.799 47.4367 143.777C47.2427 143.755 47.0465 143.793 46.8768 143.885C46.7071 143.976 46.5728 144.117 46.4938 144.285C46.4147 144.454 46.395 144.643 46.4375 144.823C46.9938 148.249 44.5324 150.459 43.3692 153.353C42.5852 155.255 42.3411 157.317 42.6611 159.334C43.3579 163.897 45.8852 168.032 49.7194 170.882C49.8365 170.974 49.976 171.036 50.1252 171.064C50.2743 171.092 50.4284 171.084 50.5736 171.042C50.6372 171.127 50.7182 171.2 50.8118 171.255C50.9054 171.311 51.0097 171.348 51.1187 171.366C50.8097 172.975 50.4669 174.584 50.169 176.173C42.7719 167.683 34.5251 159.888 25.5433 152.897C25.6746 152.652 25.7008 152.368 25.6164 152.105C24.4413 148.656 23.5637 145.123 22.992 141.54C23.9007 141.322 24.7312 140.878 25.3972 140.255C26.244 139.464 26.7881 138.43 26.9438 137.315C27.0994 136.199 26.8575 135.067 26.2565 134.096C25.6556 133.125 24.7296 132.371 23.6248 131.953C22.52 131.534 21.2992 131.476 20.1553 131.786C19.0113 132.096 18.0093 132.758 17.3074 133.666C16.6054 134.575 16.2435 135.678 16.2788 136.803C16.3141 137.927 16.7445 139.008 17.5022 139.876C18.2599 140.743 19.3017 141.348 20.4631 141.593C20.8895 144.631 21.5754 147.632 22.5143 150.565C18.8109 147.808 15.0063 145.168 11.0557 142.677C11.4082 141.506 11.2962 140.254 10.7407 139.155C10.1853 138.057 9.2246 137.188 8.03921 136.712C6.85381 136.236 5.52534 136.186 4.30329 136.57C3.08124 136.954 2.04977 137.747 1.4027 138.8C0.755631 139.853 0.53749 141.092 0.789262 142.286C1.04103 143.48 1.74539 144.546 2.76999 145.284C3.79459 146.021 5.06888 146.38 6.35349 146.292C7.63811 146.204 8.84463 145.676 9.7463 144.807L9.80249 144.754C15.8628 148.59 21.6694 152.773 27.1899 157.279C22.9189 156.833 18.631 156.445 14.3376 156.169C14.0737 155.59 13.6962 155.064 13.2249 154.618C12.3637 153.787 11.2278 153.261 10.0061 153.125C8.78435 152.989 7.55026 153.253 6.50887 153.872C5.46748 154.491 4.68151 155.428 4.28154 156.527C3.88158 157.627 3.89166 158.823 4.3102 159.916C4.72874 161.009 5.53052 161.934 6.58226 162.538C7.634 163.141 8.87238 163.385 10.0917 163.231C11.311 163.077 12.4378 162.533 13.2848 161.69C14.1318 160.847 14.6481 159.755 14.7479 158.596C19.9779 158.936 25.1912 159.405 30.3876 160.004C38.8736 167.276 46.5971 175.306 53.4509 183.981C52.1584 183.907 50.8771 183.8 49.5902 183.699C49.5637 183.601 49.5241 183.506 49.4722 183.418C46.9658 179.795 43.2848 176.72 38.6373 175.95C32.9052 174.993 27.4372 178.515 21.9523 179.503C20.9183 179.694 21.1768 181.171 22.1827 181.187C29.6682 181.314 31.3542 188.453 37.8562 189.967C42.352 191.029 46.2633 188.554 49.3541 185.771C49.4546 185.679 49.5314 185.566 49.579 185.442C51.2649 185.576 52.9564 185.688 54.6535 185.776C54.709 185.776 54.764 185.767 54.8165 185.75C60.3149 192.899 65.208 200.448 69.4503 208.324L69.4503 211.586C68.731 211.203 67.9892 210.842 67.2024 210.524C67.328 210.43 67.421 210.303 67.4691 210.159C67.5172 210.015 67.5183 209.861 67.4721 209.716C63.8868 195.268 49.1743 203.045 38.5024 202.115C38.3335 202.101 38.1642 202.138 38.0192 202.221C37.8731 202.189 37.7326 202.152 37.5808 202.126C36.4456 201.934 35.9736 203.581 37.1031 203.799C44.1952 205.031 46.2914 213.047 53.0744 215.198C55.4137 215.937 57.9055 216.138 60.3436 215.786C62.7818 215.434 65.0962 214.539 67.0956 213.174C67.2036 213.107 67.2951 213.018 67.364 212.915C67.4328 212.811 67.4774 212.695 67.4947 212.574C68.1522 212.887 68.7872 213.232 69.4166 213.594L69.4166 246.526C65.9116 251.156 62.0896 255.563 57.9749 259.721C56.9015 260.746 58.6886 262.445 59.8069 261.314ZM108.429 201.271C111.379 200.511 114.369 200.968 117.37 200.776C115.094 209.036 107.299 215.904 98.1447 213.264C101.483 211.597 104.563 209.504 107.299 207.044C107.443 206.88 107.517 206.671 107.506 206.458C107.496 206.245 107.402 206.043 107.242 205.893C107.083 205.742 106.869 205.653 106.644 205.643C106.419 205.633 106.197 205.703 106.024 205.839C103.402 208.195 100.448 210.198 97.2455 211.788C99.3192 206.959 102.882 202.71 108.429 201.271ZM102.427 124.697C105.164 123.523 108.103 122.625 110.941 121.696C110.547 128.898 105.085 135.506 96.9702 134.338L102.927 129.345C103.804 128.612 102.517 127.406 101.646 128.133L95.6889 133.126C95.9027 131.277 96.6419 129.518 97.8282 128.033C99.0145 126.549 100.603 125.396 102.427 124.697ZM205.892 103.912C204.886 99.9548 202.042 96.8634 200.93 92.8477C199.036 86.139 204.436 81.3532 210.146 78.6124C208.733 82.07 207.731 85.665 207.156 89.3314C206.988 90.4044 208.752 90.8399 208.927 89.7828C209.599 85.4541 210.89 81.2317 212.765 77.2313C221.734 85.7619 214.001 97.2245 205.892 103.912ZM247.573 71.6965C247.731 76.0309 245.545 79.8712 243.139 83.4407C241.881 80.8804 239.947 78.8727 238.082 76.6205C233.648 71.2504 234.878 65.8377 240.251 61.907C240.086 64.8423 240.084 67.7837 240.245 70.7192C240.296 71.8293 242.117 71.8187 242.055 70.7191C241.897 67.9677 241.858 65.2215 241.993 62.4594L242.027 61.514C243.661 62.7439 245 64.2874 245.956 66.0426C246.912 67.7979 247.463 69.725 247.573 71.6965ZM250.591 22.3878C253.148 20.2472 255.475 18.6218 257.335 16.0137C261.634 22.7437 258.549 34.1586 250.299 36.8782C250.901 33.5865 251.924 30.3761 253.345 27.3171C253.806 26.3186 252.238 25.4633 251.766 26.4725C250.461 29.2725 249.463 32.1915 248.787 35.1838C246.213 30.6582 245.966 26.2706 250.591 22.3878ZM221.206 42.0784C217.064 41.4994 213.625 39.3109 210.629 36.671C213.2 35.8639 215.592 34.618 217.688 32.9953C220.222 31.1415 222.369 29.7286 225.718 30.7165C228.518 31.6779 230.957 33.3958 232.732 35.6565C228.511 35.7893 224.28 35.7733 220.054 35.5502C218.873 35.4971 218.89 37.2022 220.053 37.2607C224.206 37.4785 228.359 37.4944 232.524 37.3616C230.315 41.1276 225.763 42.7424 221.206 42.0784ZM163.648 17.0495C161.884 12.9702 162.524 8.5508 162.21 4.29082C170.639 8.00902 182.609 15.0736 177.287 24.4913C174.925 20.5616 172.066 16.9176 168.773 13.6394C168.604 13.4788 168.373 13.3886 168.133 13.3886C167.892 13.3886 167.662 13.4789 167.492 13.6395C167.322 13.8001 167.227 14.0178 167.227 14.2449C167.227 14.472 167.322 14.6899 167.492 14.8505C170.96 18.3037 173.925 22.1782 176.31 26.3716C170.673 25.4102 165.891 22.2072 163.648 17.0495ZM158.281 44.2508C155.784 45.6051 152.972 46.3585 150.093 46.4446C145.828 46.4817 142.243 44.4739 138.815 42.3173C141.613 40.2033 143.788 37.4571 146.727 35.5183C152.015 32.0179 157.152 34.1639 162.114 36.8569C159.139 38.2453 156 39.2938 152.763 39.9802C151.628 40.2246 152.089 41.8818 153.241 41.6534C156.344 40.9833 159.361 39.9948 162.238 38.7053C162.193 41.2656 160.99 42.8274 158.293 44.2403L158.281 44.2508ZM95.3629 32.7881C93.8344 29.7073 94.0648 26.2494 94.402 22.9349C102.225 26.2175 113.003 32.0817 105.995 41.2232C104.495 37.744 102.893 34.3073 101.157 30.9237C100.645 29.9304 99.0662 30.7751 99.5833 31.7737C100.96 34.4455 102.247 37.1491 103.472 39.8899C100.196 38.1742 96.9757 36.0124 95.3741 32.7776L95.3629 32.7881ZM162.474 77.4066C159.925 79.7582 156.896 81.5944 153.572 82.8033C154.466 80.7572 154.998 78.5856 155.146 76.3761C155.252 74.5117 154.859 72.5888 155.106 70.7297C155.68 66.4591 158.821 64.839 162.828 64.3026C162.34 65.8348 161.725 67.3284 160.99 68.7697C160.479 69.7524 162.041 70.6022 162.558 69.6143C163.399 67.9752 164.094 66.2733 164.637 64.5257C169.369 67.9358 166.065 74.1718 162.474 77.4066ZM257.245 53.3127L243.64 53.3073C243.643 53.2216 243.625 53.1363 243.589 53.0577C246.039 51.195 248.444 49.2757 250.805 47.2997C252.873 49.3288 255.031 51.3686 257.25 53.3074L257.245 53.3127ZM233.412 57.3443C229.661 59.855 225.812 62.2364 221.863 64.4885C217.596 62.515 213.559 60.1241 209.82 57.3549L233.412 57.3443ZM189.218 43.9481C189.267 43.9064 189.314 43.8621 189.358 43.8153C193.281 46.8536 197.058 50.1256 200.89 53.3126L173.202 53.3072C178.616 50.2867 183.96 47.1617 189.235 43.9322L189.218 43.9481ZM160.67 57.3336C157.77 58.8422 154.85 60.3312 151.909 61.8008C145.97 60.6695 140.116 59.1773 134.381 57.3336L160.67 57.3336ZM28.5668 89.7722C37.5527 91.1374 48.8203 91.6951 49.3205 102.419C45.6065 100.213 42.1333 97.6629 38.952 94.8078C38.7783 94.6717 38.557 94.6019 38.3317 94.6119C38.1063 94.6219 37.893 94.711 37.7335 94.8618C37.5739 95.0125 37.4797 95.2142 37.4691 95.4272C37.4585 95.6402 37.5324 95.8493 37.6763 96.0135C41.3064 99.2746 45.31 102.143 49.6127 104.565C41.1381 110.812 32.6973 96.0454 28.5499 89.7457L28.5668 89.7722ZM51.0289 169.645C46.2577 165.932 42.7679 159.712 45.2012 153.906C46.3027 151.25 47.9492 149.184 48.2639 146.549C51.2929 149.136 54.7772 151.781 57.025 154.83C60.4362 159.446 57.5421 164.667 53.4622 167.993C53.8837 164.248 53.7263 160.54 51.8774 156.934C51.366 155.94 49.7925 156.78 50.3039 157.773C52.2202 161.507 52.1303 165.438 51.5121 169.379L51.0289 169.645ZM38.2833 188.066C34.962 187.306 33.2986 184.756 30.9045 182.706C29.5666 181.519 27.9738 180.619 26.2346 180.066C29.5278 178.929 32.7984 177.516 36.086 177.437C40.7616 177.32 44.7122 180.056 47.3423 183.497C44.4369 183.227 41.5371 182.897 38.6485 182.472C37.5134 182.302 37.0582 183.976 38.1709 184.146C41.1905 184.585 44.2177 184.946 47.2524 185.229C44.6842 187.38 41.8462 188.873 38.2889 188.06L38.2833 188.066ZM47.539 209.318C45.617 207.257 44.0154 205.212 41.8518 203.772C51.0963 203.161 62.6392 198.455 65.6682 209.828C62.3654 208.583 58.9308 207.677 55.4235 207.124C54.2827 206.938 53.8106 208.585 54.9458 208.797C58.7214 209.375 62.4087 210.385 65.9267 211.804C59.8068 215.644 52.4281 214.555 47.5446 209.312L47.539 209.318ZM60.2058 134.061C58.0197 133.376 56.2327 131.719 54.6761 130.205C52.1135 127.709 49.6182 125.148 47.1062 122.615C49.3872 122.535 51.6549 122.248 53.878 121.759C59.3966 120.867 65.6738 122.7 67.8262 127.698C64.4854 126.975 61.2087 126.009 58.0254 124.808C56.9408 124.431 56.4856 126.083 57.5477 126.482C61.0854 127.819 64.7489 128.838 68.4893 129.525C68.6044 129.656 68.7629 129.746 68.9389 129.78C68.8434 132.792 62.0828 134.646 60.2114 134.056L60.2058 134.061ZM73.7157 129.918C73.9911 129.913 74.2608 129.881 74.5362 129.865C78.1364 134.437 81.3192 139.29 84.0504 144.371C84.1127 144.501 84.2027 144.617 84.315 144.712C84.4272 144.807 84.5591 144.879 84.7023 144.924C81.5541 152.682 77.8845 160.242 73.7157 167.557L73.7157 129.918ZM61.5659 190.748C64.2896 187.076 66.9196 183.283 69.456 179.37L69.4616 203.172C67.0151 198.919 64.3851 194.776 61.5715 190.743L61.5659 190.748ZM73.7269 216.765C75.8737 221.365 77.8087 226.062 79.5321 230.857C77.7376 234.118 75.8025 237.296 73.7269 240.391L73.7269 216.765Z" fill="#B6A756"/>
<path d="M50.7865 154.374C50.9565 154.213 51.0519 153.996 51.0519 153.768C51.0519 153.541 50.9565 153.324 50.7866 153.163C50.6166 153.002 50.3862 152.912 50.1459 152.912C49.9056 152.912 49.6752 153.002 49.5052 153.163C49.3353 153.324 49.2399 153.541 49.2399 153.768C49.2399 153.996 49.3354 154.213 49.5053 154.374C49.6752 154.535 49.9056 154.625 50.1459 154.625C50.3862 154.625 50.6166 154.535 50.7865 154.374Z" fill="#B6A756"/>
<path d="M34.5568 181.942C34.4129 182.106 34.339 182.315 34.3496 182.528C34.3601 182.741 34.4544 182.943 34.6139 183.093C34.7734 183.244 34.9868 183.333 35.2122 183.343C35.4375 183.353 35.6587 183.283 35.8325 183.147C35.9764 182.983 36.0503 182.774 36.0397 182.561C36.0291 182.348 35.9349 182.146 35.7754 181.996C35.6158 181.845 35.4025 181.756 35.1771 181.746C34.9517 181.736 34.7306 181.806 34.5568 181.942Z" fill="#B6A756"/>
<path d="M50.8431 206.216C49.7472 205.849 49.2977 207.507 50.3654 207.889L51.8266 208.378C52.9224 208.744 53.3776 207.092 52.3099 206.71L50.8431 206.216Z" fill="#B6A756"/>
<path d="M109.705 205.461L111.07 204.489C111.272 204.372 111.42 204.187 111.484 203.971C111.547 203.756 111.522 203.525 111.413 203.326C111.354 203.228 111.275 203.143 111.181 203.074C111.087 203.005 110.979 202.954 110.865 202.925C110.75 202.895 110.63 202.887 110.512 202.901C110.394 202.915 110.28 202.952 110.177 203.007L108.811 203.969C108.61 204.088 108.464 204.274 108.401 204.491C108.339 204.707 108.365 204.938 108.474 205.137C108.594 205.333 108.789 205.476 109.019 205.536C109.249 205.597 109.495 205.57 109.705 205.461Z" fill="#B6A756"/>
<path d="M35.3443 93.2143L35.0127 92.9009C34.8389 92.7649 34.6177 92.695 34.3923 92.705C34.167 92.715 33.9537 92.8041 33.7941 92.9549C33.6346 93.1057 33.5403 93.3073 33.5298 93.5203C33.5192 93.7333 33.5931 93.9424 33.737 94.1067L34.0686 94.42C34.2423 94.5561 34.4635 94.6259 34.6889 94.6159C34.9143 94.6059 35.1276 94.5168 35.2871 94.366C35.4467 94.2153 35.5409 94.0136 35.5515 93.8006C35.5621 93.5876 35.4882 93.3785 35.3443 93.2143Z" fill="#B6A756"/>
<path d="M55.2375 124.363C54.8674 124.358 54.5044 124.267 54.1809 124.097C54.0776 124.041 53.9637 124.005 53.8456 123.991C53.7276 123.977 53.6077 123.985 53.4929 124.014C53.3781 124.044 53.2706 124.095 53.1765 124.164C53.0824 124.232 53.0036 124.318 52.9445 124.416C52.8855 124.513 52.8474 124.621 52.8324 124.733C52.8174 124.844 52.8258 124.958 52.8571 125.066C52.8884 125.175 52.942 125.276 53.0149 125.365C53.0878 125.454 53.1785 125.529 53.2818 125.584C53.8819 125.899 54.5566 126.066 55.2431 126.068C56.4345 126.057 56.4064 124.373 55.2375 124.363Z" fill="#B6A756"/>
<path d="M104.782 128.123L105.737 127.517C106.704 126.912 105.793 125.446 104.843 126.035L103.882 126.636C102.921 127.246 103.809 128.734 104.782 128.123Z" fill="#B6A756"/>
<path d="M99.7007 28.7944C99.4759 28.4332 99.2454 28.0774 99.0206 27.7162C98.9616 27.6186 98.8827 27.5329 98.7887 27.464C98.6946 27.3951 98.5871 27.3445 98.4722 27.3149C98.3574 27.2853 98.2377 27.2773 98.1196 27.2915C98.0016 27.3057 97.8876 27.3417 97.7843 27.3975C97.6809 27.4533 97.5904 27.5277 97.5175 27.6167C97.4446 27.7056 97.391 27.8072 97.3597 27.9157C97.3284 28.0242 97.3199 28.1376 97.3349 28.2492C97.3499 28.3607 97.3881 28.4684 97.4471 28.5661C97.6775 28.9219 97.9024 29.2831 98.1328 29.639C98.262 29.8144 98.456 29.9378 98.6766 29.9849C98.8971 30.032 99.1283 29.9995 99.3248 29.8937C99.5213 29.7878 99.6687 29.6164 99.7383 29.413C99.8078 29.2096 99.7944 28.9889 99.7007 28.7944Z" fill="#B6A756"/>
<path d="M167.418 11.3509C167.194 10.9897 166.963 10.6338 166.733 10.2673C166.604 10.0919 166.41 9.96854 166.189 9.92142C165.968 9.87431 165.737 9.90679 165.541 10.0126C165.344 10.1185 165.197 10.2899 165.127 10.4933C165.058 10.6967 165.071 10.9174 165.165 11.1119C165.39 11.4731 165.615 11.8342 165.845 12.1901C165.972 12.3694 166.166 12.4968 166.388 12.5468C166.61 12.5967 166.844 12.5655 167.043 12.4594C167.242 12.3533 167.391 12.1803 167.461 11.9748C167.53 11.7692 167.515 11.5464 167.418 11.3509Z" fill="#B6A756"/>
<path d="M150.683 40.3633L148.255 40.9156C147.12 41.1706 147.581 42.8279 148.733 42.5889L151.161 42.0364C152.273 41.7602 151.812 40.103 150.683 40.3633Z" fill="#B6A756"/>
<path d="M159.742 71.4897L158.393 73.2213C157.702 74.1084 159.287 74.9476 159.967 74.0712L161.321 72.3343C161.979 71.426 160.4 70.5814 159.742 71.4897Z" fill="#B6A756"/>
<path d="M216.434 35.8586C216.202 35.8701 215.984 35.9652 215.824 36.1243C215.665 36.2835 215.576 36.4945 215.576 36.7139C215.576 36.9332 215.665 37.1442 215.824 37.3033C215.984 37.4625 216.202 37.5576 216.434 37.569L216.996 37.5691C217.221 37.5483 217.429 37.4491 217.58 37.291C217.731 37.1329 217.815 36.9271 217.814 36.714C217.813 36.5009 217.729 36.2956 217.576 36.1384C217.424 35.9812 217.215 35.8834 216.991 35.8639L216.434 35.8586Z" fill="#B6A756"/>
<path d="M255.581 24.4595L256.537 23.2378C257.222 22.3561 255.649 21.5169 254.963 22.388L254.013 23.615C253.305 24.4861 254.885 25.3306 255.581 24.4595Z" fill="#B6A756"/>
<path d="M206.448 93.6236L206.313 95.7271C206.262 96.8372 208.055 96.8212 208.122 95.727L208.252 93.6182C208.291 92.5293 206.493 92.54 206.448 93.6236Z" fill="#B6A756"/>
<path d="M241.184 73.4015L241.33 75.6643C241.386 76.7798 243.212 76.7638 243.139 75.6643L242.993 73.4015C242.915 72.3073 241.111 72.302 241.184 73.4015Z" fill="#B6A756"/>
</svg>