<svg width="283" height="165" viewBox="0 0 283 165" fill="none" xmlns="http://www.w3.org/2000/svg">
<path d="M3.21778 84.8213C3.80443 85.4077 3.94708 85.562 4.31549 85.9302C61.1797 142.77 156.5 145.168 216.799 91.275C238.423 72.0015 253.5 47.0939 260.108 19.7283C261.45 14.1686 265.777 0.660843 265.777 0.660843C262.52 35.8291 245.692 68.6716 218.499 92.9326C157.223 147.698 60.3463 145.264 2.55519 87.498C2.18776 87.1307 1.8228 86.7621 1.46027 86.3921C-0.135327 84.7637 2.66041 83.6534 3.21778 84.8213Z" fill="#B6A756"/>
<path d="M110.488 91.7077C113.441 93.0224 116.1 94.9615 116.63 98.1417C117.099 100.883 116.254 103.654 114.891 106.061C111.717 111.675 105.987 115.129 99.8885 117.442C91.2775 120.696 72.227 120.828 72.0787 120.639C70.5927 121.845 70.2187 123.567 68.6244 124.659C67.926 125.139 65.855 123.658 66.5534 123.178C71.6669 119.711 76.2236 115.564 80.0814 110.865C83.6654 106.467 86.1492 101.365 89.8303 97.0531C94.957 91.0827 102.84 88.2912 110.488 91.7077ZM101.709 91.6012C101.726 91.6247 101.737 91.6515 101.742 91.6797C101.746 91.7079 101.743 91.7366 101.734 91.7638C101.725 91.7909 101.709 91.8156 101.688 91.8361C101.667 91.8565 101.641 91.8722 101.613 91.8818C94.2707 94.0008 90.8183 100.202 87.3154 106.082C88.2809 104.986 89.2844 103.928 90.3503 102.908C95.2415 98.261 101.036 94.5497 107.413 91.9791C106.963 91.8649 106.5 91.7617 106.034 91.6843C104.611 91.4466 103.156 91.4148 101.722 91.5901L101.709 91.6012ZM84.4624 118.018C84.124 118.072 83.7817 118.122 83.4355 118.169C83.7135 118.176 83.9888 118.174 84.267 118.176C84.2706 118.15 84.2812 118.126 84.2978 118.105C84.3143 118.084 84.3362 118.068 84.3613 118.058L84.4624 118.018ZM77.3059 118.644C77.5529 118.501 77.7918 118.347 78.0218 118.181C77.571 118.384 77.1262 118.588 76.6757 118.779C76.871 118.721 77.093 118.684 77.3059 118.644ZM78.5986 118.21C78.5986 118.21 78.6141 118.196 78.6234 118.188L78.5986 118.21ZM79.002 118.366C79.1752 118.339 79.3543 118.318 79.5242 118.299L79.1594 118.264C79.1224 118.286 79.0639 118.322 79.0113 118.358L79.002 118.366ZM78.9868 117.88L79.0863 117.891C79.4166 117.673 79.7438 117.459 80.0683 117.235C79.7981 117.366 79.5278 117.502 79.2731 117.618C79.1765 117.71 79.0864 117.791 78.9962 117.871L78.9868 117.88ZM79.6498 117.954C80.2013 118.016 80.7354 118.055 81.2786 118.092L81.388 118.077C83.0634 117.889 84.7236 117.592 86.357 117.191C97.1637 112.275 106.661 105.116 114.137 96.2497C114.05 96.1161 113.96 95.9909 113.864 95.8599C107.515 100.731 100.87 105.246 93.9631 109.382C90.098 111.725 86.1708 114.125 82.0806 116.22C81.3123 116.812 80.499 117.389 79.6654 117.94L79.6498 117.954ZM81.325 118.45C80.2747 118.578 79.2459 118.692 78.2092 118.869C78.0057 118.996 77.8109 119.131 77.6045 119.254C77.573 119.27 77.5372 119.278 77.5015 119.275C77.4657 119.272 77.4316 119.26 77.4033 119.239C77.3751 119.218 77.3538 119.19 77.3423 119.158C77.3307 119.126 77.3294 119.092 77.3383 119.059C77.0935 119.193 76.8403 119.314 76.5802 119.42C83.19 119.066 89.9459 119.07 96.2754 117.317C91.3814 118.395 86.3461 118.773 81.3375 118.439L81.325 118.45ZM77.4335 118.041L77.3371 118.027C77.2842 118.074 77.2344 118.119 77.1816 118.166C77.2799 118.117 77.3688 118.076 77.4547 118.038L77.4335 118.041ZM78.0651 117.759C78.3934 117.61 78.7245 117.464 79.0499 117.307C80.0716 116.273 80.959 115.127 81.6931 113.895C80.4683 115.257 79.1421 116.536 77.7247 117.719L78.0651 117.759ZM107.901 92.1314C107.894 92.1475 107.884 92.1619 107.87 92.1739C107.857 92.1858 107.841 92.1951 107.824 92.2009C100.163 95.2434 93.3536 99.9313 87.9382 105.892C87.1334 106.783 86.4 107.711 85.6994 108.654C85.0704 109.627 84.415 110.574 83.7217 111.476C82.8656 112.753 82.0273 114.041 81.1468 115.322C80.7871 115.848 80.3978 116.355 79.9807 116.842C80.6316 116.526 81.2858 116.203 81.9407 115.856C86.622 112.35 90.7504 108.243 95.2604 104.507C100.322 100.333 106.099 97.0851 111.886 93.9294C110.684 93.1197 109.343 92.5108 107.923 92.1291L107.901 92.1314ZM112.198 94.2059C105.568 97.832 99.1612 101.598 93.495 106.535C90.2842 109.332 87.1763 112.226 83.8463 114.869C86.9213 113.232 89.9144 111.406 92.8607 109.628C100.083 105.348 107.022 100.656 113.64 95.577C113.222 95.0706 112.746 94.6099 112.219 94.2036L112.198 94.2059ZM114.344 96.5751C107.247 104.957 98.3427 111.815 88.2263 116.692C89.5655 116.317 90.8943 115.89 92.2547 115.418C100.828 112.493 109.35 108.897 115.123 101.971C115.581 100.143 115.311 98.2214 114.365 96.5728L114.344 96.5751ZM114.904 102.789C110.027 108.337 103.39 111.72 96.3485 114.375C93.0257 115.618 89.6115 116.881 86.1235 117.699C85.7349 117.876 85.3386 118.045 84.9344 118.207C90.4767 118.196 95.9807 117.31 101.219 115.587C107.268 113.035 113.09 108.842 114.926 102.786L114.904 102.789ZM75.7999 118.74C76.1344 118.485 76.466 118.228 76.7887 117.962C76.3343 117.89 75.8798 117.819 75.4226 117.739C74.7104 118.375 74.6275 118.51 73.885 119.146C74.5469 119.094 75.1983 118.957 75.8211 118.738L75.7999 118.74ZM89.7672 99.1866C86.2702 103.706 83.6617 108.731 79.9004 113.092C78.6003 114.599 77.2202 116.042 75.7653 117.416C76.2315 117.499 76.6978 117.576 77.1706 117.643C82.4254 113.196 85.6498 107.715 89.3831 101.818C92.2068 97.3616 95.6926 93.4021 101.008 91.6951C96.4652 92.4783 92.7121 95.405 89.7884 99.1843L89.7672 99.1866Z" fill="#B6A756"/>
<path d="M67.46 123.395C70.0966 125.848 72.6112 128.432 75.0636 131.072C75.1728 131.048 75.2871 131.053 75.3928 131.089C84.9975 134.211 95.4883 135.193 104.625 139.556C111.361 142.755 119.459 149.389 117.733 157.369C116.007 165.349 107.505 165.361 101.405 161.854C93.2019 157.135 88.722 148.588 82.8345 141.743C77.6711 135.734 69.2293 130.022 63.3769 124.578C62.7778 124.003 66.8545 122.831 67.46 123.395ZM91.3124 148.338C90.0112 147.588 88.766 146.755 87.5853 145.844C89.7103 148.704 91.8407 151.587 94.2242 154.205C93.2768 152.281 92.3252 150.299 91.3217 148.33L91.3124 148.338ZM82.2516 139.087C82.3689 139.204 82.4675 139.338 82.5726 139.461C84.627 141.48 86.9133 143.275 89.3894 144.814C88.6458 143.535 87.8618 142.292 87.0066 141.102C85.2061 140.454 83.4823 139.631 81.863 138.646L82.2516 139.087ZM84.31 141.557C85.1455 142.604 85.965 143.676 86.7753 144.757C87.8786 145.723 89.0665 146.599 90.3261 147.376C90.5576 147.519 90.7953 147.657 91.0329 147.794C90.6246 147.015 90.2042 146.235 89.7683 145.47C87.8589 144.281 86.0355 142.974 84.31 141.557ZM80.5425 137.149C80.5425 137.149 80.563 137.17 80.5747 137.181C80.6569 137.263 80.7361 137.343 80.7873 137.447L81.062 137.757C82.8164 138.976 84.7242 139.985 86.742 140.761C86.5679 140.522 86.3937 140.289 86.2134 140.056C83.693 138.89 81.3436 137.421 79.224 135.684L80.5425 137.149ZM87.3612 140.979C87.8788 141.161 88.4027 141.331 88.9362 141.488C89.2511 141.573 89.5693 141.649 89.8992 141.738C88.9058 141.298 87.9154 140.856 86.9377 140.397C87.0801 140.586 87.2281 140.787 87.373 140.991L87.3612 140.979ZM76.9881 132.89C79.3605 135.767 82.4529 137.763 85.7572 139.458C83.887 137.063 81.5636 135.016 78.9041 133.421C78.271 133.259 77.6293 133.083 76.9969 132.898L76.9881 132.89ZM76.7005 132.802L76.6316 132.781L76.6756 132.825C76.6851 132.817 76.6969 132.812 76.7093 132.811L76.7005 132.802ZM83.5442 134.561C86.443 135.968 89.2463 137.534 92.1955 138.88C96.925 141.034 102.563 141.782 107.767 142.773C107.322 142.487 106.884 142.208 106.447 141.948C99.5928 137.9 91.4622 136.392 83.553 134.57L83.5442 134.561ZM108.555 143.307C103.469 142.299 97.9878 141.578 93.1738 139.711C89.2633 138.157 85.6543 135.951 81.8234 134.172L80.0706 133.739C82.5705 135.418 84.7506 137.486 86.5191 139.855C88.098 140.626 89.7239 141.344 91.347 142.054C94.432 142.629 97.6221 142.838 100.67 143.718C106.805 145.515 111.813 149.514 116.506 153.54C115.716 149.375 112.197 145.834 108.549 143.301L108.555 143.307ZM116.602 156.197C116.676 155.504 116.67 154.805 116.585 154.113C109.929 148.461 103.563 144.248 94.4232 142.915C93.8151 142.825 93.2225 142.721 92.6301 142.612C94.5366 143.452 96.4272 144.311 98.2175 145.288C104.833 148.925 110.791 153.536 115.866 158.948C116.254 158.069 116.5 157.139 116.596 156.191L116.602 156.197ZM115.704 159.316C110.015 153.222 103.21 148.149 95.6129 144.339C94.1773 143.629 92.7006 142.971 91.2301 142.314C89.9998 142.043 88.7875 141.704 87.5993 141.3C88.4822 142.571 89.3002 143.889 90.0717 145.243C92.7081 146.924 95.4412 148.508 97.9953 150.307C102.966 153.845 107.447 157.958 111.333 162.55C112.276 162.367 113.162 161.979 113.919 161.416C114.677 160.854 115.286 160.133 115.698 159.31L115.704 159.316ZM110.901 162.636C106.156 157.093 100.553 152.259 94.2805 148.296C92.9932 147.48 91.7108 146.705 90.4236 145.889C90.8361 146.631 91.2392 147.382 91.633 148.141C93.1364 148.903 94.5839 149.76 95.9658 150.705C99.611 153.4 101.505 157.278 103.31 161.202C103.321 161.225 103.327 161.251 103.327 161.276C103.327 161.302 103.322 161.327 103.311 161.351C105.754 162.45 108.519 163.011 110.895 162.63L110.901 162.636ZM102.849 161.136C100.298 155.641 97.4671 151.834 91.9153 148.694C93.0245 150.862 94.0635 153.049 95.1172 155.151C96.8733 157.016 98.8535 158.681 101.018 160.113C101.603 160.487 102.213 160.827 102.843 161.13L102.849 161.136Z" fill="#B6A756"/>
<path d="M148.953 91.4178C154.222 90.4242 157.862 92.1964 158.359 97.5166C159.085 105.243 151.418 110.601 145.652 114.761C137.266 120.818 127.684 124.367 117.672 127.256C117.542 127.302 117.398 127.3 117.27 127.249C117.142 127.199 117.039 127.104 116.982 126.984C114.919 129.045 114.798 131.28 111.479 132.52C110.695 132.814 107.62 131.236 108.416 130.936C119.652 126.714 121.399 116.772 127.164 108.071C131.958 100.843 139.733 93.1552 148.953 91.4178ZM131.82 104.115C127.85 110.833 123.783 117.501 119.62 124.121C126.498 120.884 129.7 113.862 133.049 107.581C136.264 101.554 140.29 97.4165 145.884 93.4442C143.104 94.6923 140.503 96.2703 138.145 98.14C135.838 99.9341 133.72 101.935 131.82 104.115ZM118.714 125.653C119.051 125.402 119.392 125.153 119.723 124.895C119.714 124.877 119.708 124.858 119.707 124.837C119.706 124.817 119.709 124.797 119.716 124.778C119.724 124.759 119.735 124.741 119.75 124.726C119.765 124.712 119.782 124.7 119.802 124.692C119.961 124.621 120.112 124.548 120.271 124.478C120.431 124.407 120.436 124.33 120.52 124.255C120.144 124.374 119.769 124.488 119.391 124.598C119.356 124.629 119.302 124.639 119.256 124.658C119.046 124.99 118.842 125.322 118.635 125.651C118.661 125.649 118.688 125.65 118.714 125.653ZM121.511 123.508C121.427 123.584 121.317 123.632 121.215 123.69C121.24 123.667 121.289 123.663 121.325 123.652C121.362 123.642 121.465 123.539 121.527 123.495L121.511 123.508ZM147.047 92.999C147.046 93.0226 147.04 93.0457 147.027 93.0663C147.015 93.0869 146.998 93.1044 146.977 93.1173C143.312 95.6432 139.706 98.2164 137.05 101.745C134.574 105.036 132.9 108.786 130.963 112.362C129.451 115.168 127.724 117.9 125.551 120.192C135.155 112.004 143.494 102.584 150.326 92.2069C149.209 92.3403 148.113 92.6016 147.063 92.9851L147.047 92.999ZM150.802 92.1589C143.122 103.888 133.525 114.398 122.37 123.296C122.523 123.242 122.676 123.195 122.816 123.153C125.514 121.385 128.31 119.698 131.091 117.979C134.458 115.388 137.47 112.41 140.057 109.115C144.502 103.476 147.893 97.2019 153.429 92.3993C152.581 92.17 151.697 92.0839 150.817 92.1449L150.802 92.1589ZM154.052 92.5864C153.995 92.565 153.938 92.555 153.881 92.5335C147.565 97.9453 144.014 105.285 138.673 111.441C137.125 113.226 135.443 114.902 133.639 116.456C142.821 110.771 151.582 104.629 156.01 94.7622C156.023 94.7358 156.043 94.7126 156.067 94.6944C156.091 94.6761 156.119 94.6633 156.149 94.6569C156.179 94.6504 156.21 94.6506 156.24 94.6574C156.27 94.6641 156.297 94.6772 156.321 94.6957C155.886 93.7342 155.074 92.9694 154.056 92.5608L154.052 92.5864ZM156.37 94.7855C156.37 94.7855 156.386 94.8317 156.37 94.8627C151.558 105.6 141.66 111.959 131.644 118.073C129.743 119.551 127.738 120.905 125.643 122.126C137.286 117.664 147.751 110.831 156.291 102.115C156.307 102.097 156.328 102.083 156.351 102.073C156.375 102.064 156.4 102.06 156.425 102.061C156.432 102.04 156.441 102.019 156.451 101.999C157.14 100.073 157.434 96.9503 156.373 94.7599L156.37 94.7855ZM156.103 102.799C147.061 111.897 135.923 118.902 123.557 123.268C123.139 123.492 122.718 123.707 122.291 123.917C121.716 124.302 121.142 124.694 120.576 125.088C129.575 122.305 138.093 118.812 145.64 113.194C149.442 110.363 154.157 107.126 156.121 102.788L156.103 102.799ZM118.091 125.832L118.196 125.672L118.036 125.848L118.091 125.832ZM124.228 115.977C126.268 112.673 128.275 109.349 130.249 106.007C128.74 107.941 127.4 109.987 126.243 112.126C125.562 113.412 124.902 114.702 124.246 115.966L124.228 115.977Z" fill="#B6A756"/>
<path d="M107.08 130.042C109.813 131.251 112.407 132.721 114.822 134.43C114.956 134.36 115.112 134.337 115.262 134.364C120.279 135.23 125.401 135.437 130.482 134.978C134.002 134.704 137.372 134.546 140.854 135.216C148.222 136.628 157.833 141.206 159.857 148.776C161.649 155.478 153.877 161.897 147.08 160.685C139.927 159.425 134.421 152.861 129.444 148.357C122.501 142.089 113.226 135.945 104.369 132.126C103.581 131.781 106.31 129.703 107.08 130.042ZM125.438 136.804C125.737 136.914 126.04 137.01 126.336 137.112C128.821 137.57 131.232 138.326 133.512 139.362C140.13 141.159 146.943 142.24 153.823 142.585C151.224 140.335 148.163 138.613 144.828 137.529C144.8 137.551 144.764 137.565 144.727 137.569C140.483 137.963 136.209 137.974 131.964 137.602C128.777 137.308 125.645 136.586 122.441 136.417L121.75 136.385C121.372 136.373 120.997 136.375 120.619 136.385C120.828 136.448 121.035 136.513 121.245 136.587C122.572 136.624 123.896 136.74 125.208 136.932C125.208 136.907 125.214 136.883 125.227 136.861C125.239 136.839 125.257 136.82 125.279 136.807C125.301 136.793 125.327 136.785 125.353 136.783C125.379 136.781 125.406 136.785 125.43 136.795L125.438 136.804ZM118.365 137.083C121.042 137.933 123.76 138.754 126.439 139.658C124.831 138.548 123.076 137.643 121.218 136.966C120.229 136.918 119.237 136.918 118.248 136.966L118.365 137.083ZM117.858 136.664C117.877 136.648 117.892 136.634 117.908 136.62C118.587 136.568 119.268 136.554 119.951 136.548L119.525 136.435C119.207 136.458 118.881 136.456 118.579 136.514C118.541 136.519 118.501 136.514 118.466 136.498C118.431 136.482 118.402 136.456 118.382 136.425C118.362 136.393 118.353 136.356 118.355 136.319C118.358 136.282 118.371 136.247 118.395 136.218C118.275 136.198 118.158 136.169 118.04 136.152C118.002 136.144 117.966 136.125 117.939 136.098C117.912 136.071 117.894 136.036 117.888 135.999C117.535 135.953 117.198 135.899 116.819 135.844L117.858 136.664ZM129.07 136.335C128.07 136.407 127.08 136.448 126.087 136.468C127.622 136.69 129.16 136.943 130.715 137.119C135.119 137.592 139.564 137.64 143.981 137.264C143.22 137.034 142.445 136.832 141.656 136.66C137.384 135.724 133.38 136.02 129.061 136.326L129.07 136.335ZM154.108 142.835C154.1 142.871 154.079 142.903 154.047 142.925C154.016 142.947 153.977 142.957 153.938 142.954C147.61 142.647 141.335 141.719 135.214 140.185C138.379 141.86 141.234 143.929 144.713 145.057C148.626 146.33 153.407 146.633 157.53 146.891C157.039 146.044 156.456 145.248 155.789 144.515C155.245 143.913 154.685 143.353 154.099 142.827L154.108 142.835ZM157.721 147.248C157.721 147.248 157.721 147.248 157.7 147.267C151.198 146.864 144.615 146.049 138.973 142.795C136.709 141.467 134.343 140.3 131.896 139.301C130.299 138.841 128.718 138.327 127.141 137.781C125.568 137.4 123.963 137.146 122.344 137.02C124.138 137.822 125.829 138.814 127.384 139.979C130.465 141.003 133.452 142.262 136.316 143.743C143.51 147.571 149.857 151.795 157.818 154.176C159.123 151.793 158.846 149.408 157.713 147.239L157.721 147.248ZM157.556 154.615C157.594 154.582 157.604 154.528 157.633 154.486C150.651 152.395 144.751 149.088 138.559 145.431C135.373 143.602 132.012 142.06 128.519 140.825C130.168 142.09 131.762 143.437 133.384 144.681C139.938 149.713 146.837 154.277 154.414 157.834C155.671 156.961 156.735 155.863 157.545 154.603L157.556 154.615ZM154.054 158.034C147.635 154.948 141.561 151.26 135.924 147.025C133.224 145.04 130.567 142.583 127.701 140.49C125.105 139.562 122.466 138.727 119.837 137.889C130.457 142.804 136.012 153.85 146.303 159.22C147.07 159.422 147.86 159.544 148.656 159.582C150.583 159.623 152.474 159.081 154.054 158.034ZM136.372 152.856C138.768 154.974 141.447 157.34 144.549 158.627C135.377 153.063 129.874 143.08 120.031 138.377C122.399 140.331 124.676 142.372 126.898 144.34C130.076 147.176 133.187 150.061 136.368 152.876L136.372 152.856Z" fill="#B6A756"/>
<path d="M155.538 125.19C157.583 125.267 157.968 126.723 159.938 127.456C160.022 127.424 160.112 127.408 160.202 127.408C171.921 127.592 184.786 122.536 196.077 127.345C203.724 130.607 209.688 140.36 203.001 147.303C195.81 154.768 184.649 148.711 178.858 143.04C172.339 136.648 164.074 127.786 153.87 127.409C153.002 127.39 154.683 125.16 155.538 125.19ZM166.502 130.802C172.312 132.829 178.47 133.99 183.878 136.881C189.504 139.895 194.144 144.245 198.674 148.549C200.663 147.734 202.3 146.3 203.312 144.487C198.667 138.981 192.495 134.803 185.48 132.417L184.804 132.206C183.711 132.15 182.611 132.099 181.515 132.052C175.71 131.816 169.954 130.966 164.353 129.519C165.084 129.926 165.799 130.359 166.502 130.802ZM162.942 128.769C169.642 130.695 176.332 131.341 183.23 131.74C176.603 129.916 169.48 129.462 162.665 128.639L162.927 128.766L162.942 128.769ZM191.908 127.317C184.7 125.612 177.293 126.989 169.927 127.942C174.48 128.964 179.179 129.287 183.845 128.898C187.699 128.569 191.51 128.156 195.339 128.438C194.234 127.973 193.088 127.6 191.914 127.323L191.908 127.317ZM196.356 128.895C191.766 128.382 187.249 129.009 182.658 129.336C177.933 129.672 173.642 129.158 169.086 128.138C169.064 128.133 169.043 128.125 169.025 128.113C169.006 128.1 168.991 128.085 168.979 128.066C167.528 128.253 166.069 128.402 164.62 128.508C171.358 129.267 178.354 129.834 184.791 131.828L185.778 131.884C191.992 132.207 198.114 132.966 203.569 135.899C202.243 132.813 199.528 130.464 196.368 128.907L196.356 128.895ZM204.33 138.573C204.224 137.842 204.043 137.122 203.789 136.425C198.365 133.359 192.318 132.615 186.153 132.271L186.758 132.475C193.311 134.92 199.074 138.934 203.483 144.123C204.335 142.394 204.633 140.469 204.342 138.585L204.33 138.573ZM198.276 148.682C193.808 144.434 189.221 140.148 183.673 137.176C178.687 134.507 173.071 133.323 167.691 131.572C168.198 131.914 168.692 132.255 169.177 132.599C173.965 133.675 178.448 135.713 182.323 138.575C186.197 141.438 189.371 145.057 191.629 149.187C192.475 149.326 193.333 149.395 194.193 149.394C195.592 149.404 196.981 149.167 198.288 148.694L198.276 148.682ZM185.494 146.812C182.768 143.701 179.644 140.923 176.194 138.54C179.159 141.51 182.052 144.673 185.505 146.823L185.494 146.812ZM174.853 137.218C179.254 140.024 183.172 143.452 186.471 147.382C187.92 148.189 189.497 148.771 191.141 149.106C188.963 145.205 185.954 141.773 182.304 139.027C178.653 136.281 174.439 134.279 169.926 133.146C170.428 133.513 170.925 133.88 171.404 134.241C172.615 135.17 173.768 136.164 174.856 137.22L174.853 137.218Z" fill="#B6A756"/>
<path d="M190.186 76.3689C199.8 78.2056 199.757 89.6346 195.703 96.0179C189.414 105.926 177.922 112.171 168.092 118.475C167.999 118.537 167.89 118.571 167.777 118.573C165.637 121.086 165.895 121.921 162.886 123.566C162.151 123.973 158.654 124.2 159.389 123.793C165.242 120.589 169.565 115.376 171.457 109.242C173.106 103.824 172.591 98.009 173.404 92.473C174.579 84.7082 180.063 74.4308 190.186 76.3689ZM180.52 80.3817C180.265 80.6096 180.013 80.8348 179.767 81.0545C179.767 81.0545 179.767 81.0544 179.766 81.0887C177.41 87.4896 175.977 94.1595 175.507 100.918C176.229 98.8065 176.912 96.6857 177.537 94.5492C178.935 89.7568 180.053 84.9088 180.967 80.0156C180.821 80.1349 180.672 80.2569 180.523 80.3789L180.52 80.3817ZM172.944 108.868C172.869 109.146 172.785 109.421 172.703 109.699C173.416 109.062 174.156 108.401 174.906 107.731C174.932 107.086 174.942 106.466 174.959 105.906C174.982 105.053 175.009 104.201 175.042 103.35C174.375 105.197 173.677 107.035 172.947 108.865L172.944 108.868ZM174.683 110.312C173.63 111.297 172.525 112.23 171.373 113.11C171.211 113.443 171.044 113.77 170.879 114.106C172.125 112.843 173.386 111.594 174.687 110.386L174.683 110.312ZM174.759 109.739C174.814 109.235 174.85 108.736 174.878 108.245C174.084 108.982 173.276 109.676 172.507 110.363C172.274 111.06 171.999 111.745 171.7 112.418C172.764 111.556 173.786 110.67 174.762 109.737L174.759 109.739ZM175.409 102.604C175.36 103.815 175.438 105.489 175.401 107.249C179.601 103.202 183.476 98.1885 183.741 92.7702C183.974 87.9857 182.283 83.3986 183.281 78.6305C182.624 78.9345 181.998 79.2938 181.409 79.7038C180.004 87.3523 178.004 94.894 175.426 102.268C175.426 102.373 175.416 102.487 175.413 102.602L175.409 102.604ZM183.701 78.4495C182.38 84.1956 185.277 90.0364 183.67 95.7381C182.422 100.186 179.018 104.339 175.385 107.769C175.367 108.251 175.34 108.731 175.298 109.207C178.653 105.899 181.358 102.053 183.284 97.8492C186.201 91.443 187.009 84.495 187.757 77.6341C187.764 77.5983 187.783 77.5657 187.812 77.5411C186.394 77.5906 185 77.8981 183.704 78.4468L183.701 78.4495ZM188.093 77.5396C188.107 77.5545 188.117 77.5719 188.124 77.5907C188.131 77.6095 188.133 77.6294 188.132 77.6492C187.374 84.547 186.578 91.5668 183.645 98.0041C181.632 102.39 178.779 106.388 175.229 109.797L175.217 109.874C175.839 109.318 176.461 108.762 177.104 108.226C180.469 105.441 184.195 102.888 186.733 99.3422C187.859 97.2583 188.87 95.0944 189.812 92.9144C191.22 88.1737 191.274 83.0217 191.295 78.1489C191.295 78.1489 191.317 78.1295 191.329 78.1183C190.301 77.7388 189.207 77.5399 188.102 77.5313L188.093 77.5396ZM179.567 106.708C178.023 107.949 176.55 109.233 175.114 110.554C174.991 111.373 174.771 112.175 174.457 112.947C175.814 112.073 177.163 111.189 178.498 110.285C181.363 107.615 183.787 104.553 185.69 101.202C183.818 103.187 181.777 105.023 179.586 106.691L179.567 106.708ZM191.679 78.2443C191.659 82.2939 191.618 86.5402 190.791 90.5895C192.188 87.1805 193.446 83.7737 194.724 80.5989C194.741 80.568 194.768 80.5434 194.802 80.5294C193.981 79.5346 192.916 78.7446 191.698 78.2276L191.679 78.2443ZM195.023 80.8094C193.495 84.6295 191.975 88.7815 190.212 92.8844C189.662 94.8394 188.837 96.7163 187.759 98.4648C187.53 98.8249 187.289 99.1733 187.04 99.5128C185.254 102.944 182.994 106.137 180.319 109.007C181.259 108.345 182.184 107.668 183.094 106.976C183.072 106.952 183.06 106.922 183.059 106.89C183.059 106.858 183.07 106.827 183.091 106.802C188.293 99.7473 193.416 92.6477 196.753 84.5943C196.753 84.5943 196.781 84.5693 196.794 84.5582C196.578 83.6831 196.25 82.8361 195.819 82.0356C195.597 81.6094 195.341 81.1989 195.056 80.8074L195.023 80.8094ZM192.775 97.8136C195.693 94.1999 197.799 89.5911 196.936 85.1248C193.671 92.7971 188.82 99.6319 183.841 106.392C187.167 103.873 190.173 100.998 192.799 97.8256L192.775 97.8136ZM173.76 113.364C174.117 112.633 174.373 111.861 174.521 111.068C173.02 112.465 171.557 113.9 170.102 115.362C169.988 115.547 169.874 115.722 169.747 115.907C171.106 115.063 172.456 114.216 173.796 113.365L173.76 113.364ZM173.416 106.513C173.588 106.131 173.719 105.815 173.771 105.69C174.219 104.524 174.645 103.348 175.063 102.17C175.137 100.477 175.25 98.7875 175.453 97.0949C176.111 91.8409 177.351 86.6653 179.153 81.6535C173.107 88.2182 174.819 98.3451 173.452 106.514L173.416 106.513Z" fill="#B6A756"/>
<path d="M192.432 109.655C194.778 109.851 194.492 111.273 196.61 111.924C196.618 111.828 196.654 111.737 196.713 111.659C196.771 111.581 196.852 111.519 196.944 111.481C205.018 107.696 214.296 106.935 222.84 109.745C228.381 111.562 239.572 117.089 238.745 123.965C237.668 132.953 223.947 129.326 218.852 126.671C208.805 121.428 202.138 112.909 189.907 111.872C189.044 111.816 191.59 109.574 192.432 109.655ZM198.549 112.59C199.277 112.461 200.001 112.357 200.721 112.276L200.312 112.197C199.84 112.125 199.349 112.064 198.845 112.02C198.563 112.139 198.287 112.263 198.008 112.39L198.549 112.59ZM203.766 115.031C204.831 115.1 205.889 115.115 206.935 115.119C205.523 113.893 203.818 113.007 201.965 112.536L201.902 112.52C201.008 112.592 200.109 112.701 199.213 112.841C200.781 113.474 202.302 114.205 203.766 115.031ZM207.67 115.123C208.605 115.121 209.53 115.127 210.457 115.165C208.829 114.44 207.141 113.84 205.411 113.371C205.703 113.546 205.985 113.735 206.255 113.938C206.74 114.311 207.208 114.708 207.664 115.117L207.67 115.123ZM221.482 110.637C217.223 109.39 212.73 109.014 208.3 109.534C217.061 111.389 225.624 114.866 234.058 117.613C233.201 116.857 232.282 116.162 231.466 115.559C228.479 113.365 225.097 111.698 221.482 110.637ZM236.433 120.383C235.901 119.5 235.234 118.696 234.454 117.998C234.438 118.034 234.408 118.064 234.37 118.079C234.331 118.095 234.288 118.096 234.249 118.081C225.405 115.189 216.423 111.493 207.216 109.675C205.255 109.966 203.326 110.424 201.452 111.045C214.868 108.862 227.206 116.023 237.14 124.133C237.373 122.842 237.124 121.516 236.433 120.383ZM237.028 124.51C226.741 116.077 213.84 108.581 199.771 111.715C200.609 111.795 201.441 111.929 202.259 112.117C208.503 111.679 214.742 112.948 220.234 115.773C225.725 118.598 230.235 122.859 233.226 128.048C235.205 127.417 236.552 126.113 237.028 124.51ZM232.38 128.304C232.551 128.268 232.713 128.218 232.874 128.173C229.999 123.208 225.711 119.103 220.494 116.323C215.278 113.542 209.339 112.195 203.347 112.433C203.431 112.458 203.512 112.497 203.592 112.525C206.308 113.122 208.936 114.027 211.42 115.22C213.608 115.319 215.749 115.853 217.701 116.787C222.919 119.394 226.412 124.063 229.641 128.581C230.561 128.577 231.479 128.484 232.38 128.304ZM229.165 128.623C225.614 123.66 221.594 118.412 215.414 116.244C214.284 115.854 213.106 115.6 211.908 115.49C212.122 115.604 212.343 115.701 212.554 115.823C217.237 118.479 220.34 122.693 222.866 127.155C222.876 127.174 222.883 127.195 222.885 127.216C222.886 127.237 222.884 127.258 222.877 127.279C224.87 128.093 227.008 128.544 229.18 128.609L229.165 128.623ZM222.396 127.081C219.717 122.406 216.376 118.06 211.262 115.551L210.978 115.421C209.964 115.361 208.939 115.361 207.919 115.378C210.301 117.553 212.416 120.173 214.487 122.532C216.938 124.321 219.597 125.843 222.412 127.067L222.396 127.081ZM213.1 121.505C211.312 119.505 209.495 117.507 207.541 115.666C207.436 115.56 207.323 115.483 207.223 115.395C206.264 115.408 205.317 115.433 204.35 115.397C206.056 116.398 207.701 117.488 209.278 118.662C210.494 119.53 211.773 120.508 213.116 121.491L213.1 121.505Z" fill="#B6A756"/>
<path d="M212.454 95.9189C214.407 95.3792 214.362 96.8015 216.378 96.5721C216.431 96.5026 216.497 96.4432 216.574 96.3969C221.333 93.6389 226.326 91.2587 231.501 89.281C234.934 88.0011 238.573 86.9751 242.287 87.5487C247.515 88.3576 255.26 93.4486 253.844 99.3238C252.229 105.954 243.698 104.854 238.929 102.613C233.516 100.07 228.243 98.2796 222.748 97.8041C221.403 98.0442 220.02 98.0075 218.693 97.6964C215.989 97.7962 213.307 98.2116 210.71 98.9333C209.898 99.1644 211.637 96.1442 212.454 95.9189ZM231.978 94.1749C232.282 94.031 232.58 93.8699 232.882 93.7174C231.413 93.7904 229.951 93.9492 228.503 94.1932L228.353 94.2437C229.276 94.3127 230.189 94.4357 231.086 94.5783C231.404 94.4548 231.696 94.305 231.978 94.1749ZM241.718 88.752C241.582 88.7343 241.447 88.7223 241.311 88.7103C241.303 88.7373 241.288 88.7617 241.267 88.7808C241.245 88.8 241.219 88.8131 241.19 88.8187C235.476 89.744 230.361 92.3878 224.964 94.2242C225.536 94.2072 226.138 94.1795 226.706 94.1995C227.263 94.0791 227.817 93.9673 228.377 93.8728C230.924 92.9875 233.559 92.3499 236.241 91.9698C238.091 90.9216 239.909 89.8412 241.718 88.752ZM237.244 91.8121C241.198 91.3508 245.202 91.4467 249.123 92.0966C247.22 90.4131 244.844 89.2829 242.278 88.8404C240.611 89.8417 238.94 90.8458 237.244 91.8121ZM222.586 96.3881C223.804 95.7406 225.057 95.153 226.339 94.6275C224.482 95.0561 222.665 95.627 220.906 96.3344C221.465 96.3399 222.027 96.3598 222.586 96.3881ZM230.513 93.552C231.569 93.43 232.606 93.3475 233.665 93.3227C234.227 93.0367 234.79 92.745 235.346 92.4418C233.713 92.7163 232.098 93.0871 230.513 93.552ZM227.514 94.5656C226.063 95.1107 224.646 95.7355 223.271 96.4368C223.844 96.4798 224.414 96.5256 224.972 96.5825C226.033 96.3233 227.135 96.0652 228.248 95.876C229.041 95.5501 229.805 95.2063 230.538 94.8675C229.537 94.7098 228.526 94.6081 227.512 94.5627L227.514 94.5656ZM219.926 96.3498C221.59 95.634 223.309 95.039 225.068 94.5698C224.519 94.6103 223.976 94.6567 223.439 94.7089C222.71 94.9335 221.971 95.1436 221.228 95.325C220.567 95.6713 219.909 96.015 219.257 96.3701L219.926 96.3498ZM228.423 91.8874C226.603 92.6648 224.817 93.5003 223.053 94.382L223.384 94.3417C229.045 92.6148 234.313 89.7776 240.173 88.6274L240.086 88.6223C235.998 88.5938 232.03 90.3519 228.411 91.8986L228.423 91.8874ZM249.612 92.5319C245.255 91.7524 240.789 91.6672 236.398 92.2795C235.764 92.6295 235.134 92.9709 234.488 93.3148C240.725 93.2761 246.86 94.7877 252.276 97.698C252.294 97.7156 252.306 97.7273 252.32 97.742C252.234 96.3327 251.703 94.9813 250.795 93.8622C250.428 93.398 250.028 92.9573 249.599 92.543L249.612 92.5319ZM252.32 97.9478C252.294 97.9824 252.256 98.0067 252.213 98.0157C252.169 98.0247 252.124 98.0178 252.085 97.9962C246.531 95.0071 240.215 93.5091 233.818 93.6638C233.126 94.0151 232.426 94.3519 231.724 94.6801C237.949 95.8857 243.771 99.0132 249.02 102.641C250 102.26 250.838 101.61 251.424 100.776C252.01 99.9407 252.318 98.9594 252.307 97.9589L252.32 97.9478ZM227.05 96.8805C229.672 97.4014 232.224 98.1951 234.661 99.2471C238.412 100.776 242.166 103.475 246.426 103.216C247.168 103.173 247.9 103.031 248.601 102.793C243.306 99.1616 237.43 96.0498 231.138 94.9483C230.589 95.1946 230.034 95.435 229.486 95.6528C230.753 95.4571 232.045 95.4434 233.316 95.6119C236.629 96.1326 239.108 99.3818 240.934 101.749C241.076 101.932 240.79 102.194 240.657 101.996C238.27 98.8977 235.671 95.8341 231.247 96.0115C229.945 96.0774 228.65 96.2359 227.373 96.4857C227.095 96.5902 226.807 96.6915 226.511 96.8012C226.676 96.8425 226.854 96.8556 227.037 96.8917L227.05 96.8805Z" fill="#B6A756"/>
<path d="M215.765 55.2726C218.987 54.9592 221.97 56.3919 223.925 58.7591C226.721 62.1421 226.872 65.9273 226.177 70.0085C224.42 80.4654 215.516 87.6786 208.44 95.1921C208.421 95.2122 208.4 95.2308 208.377 95.2477C207.887 97.3962 208.954 97.726 208.422 99.8562C208.225 100.643 205.362 102.097 205.549 101.313C208.387 89.9631 210.5 79.0778 208.344 67.4763C207.325 62.0115 208.747 55.9364 215.765 55.2726ZM223.201 59.8899C223.031 66.0451 220.138 71.6801 217.713 77.2956C216.332 80.5021 215.153 84.7826 212.842 87.9086C212.438 88.7061 211.986 89.4811 211.488 90.2297C211.784 89.937 212.062 89.6611 212.349 89.371C214.529 86.4505 215.959 82.9679 217.844 79.8999C220.051 76.3112 222.496 72.8599 224.944 69.4116C225.488 66.0869 225.264 62.6056 223.195 59.8955L223.201 59.8899ZM224.802 70.2826C222.262 73.863 219.741 77.4609 217.501 81.2118C216.168 83.4477 215.062 85.8407 213.709 88.0218C218.222 83.4336 222.501 78.5536 224.248 72.5553C224.461 71.8204 224.648 71.0591 224.802 70.2826ZM210.042 91.6996C210.601 90.9219 211.134 90.1293 211.619 89.3184C211.519 89.4073 211.417 89.4991 211.308 89.5964C210.982 90.2764 210.477 90.8668 209.842 91.3116C209.799 91.3505 209.758 91.3866 209.718 91.4228C209.694 91.4447 209.664 91.4592 209.631 91.4645C209.599 91.4699 209.565 91.4657 209.535 91.4525C209.492 91.4728 209.447 91.4908 209.401 91.5063C209.277 91.6946 209.15 91.8801 209.027 92.0628C208.973 92.3216 208.923 92.5832 208.866 92.8448C209.277 92.4721 209.658 92.0872 210.042 91.6996ZM209.313 91.0125L209.329 90.9985C209.324 91.004 209.319 91.0087 209.313 91.0125ZM209.794 90.3157C210.309 89.5341 210.824 88.7296 211.333 87.9078C211.494 87.1724 211.576 86.4237 211.578 85.6731C211.062 86.2764 210.512 86.8531 209.93 87.4009C209.762 88.4618 209.574 89.5204 209.366 90.5765C209.501 90.5056 209.643 90.4177 209.785 90.3241L209.794 90.3157ZM211.574 85.0985C211.484 83.3794 211.211 81.6737 210.758 80.0075C210.634 82.2738 210.379 84.5339 210.022 86.7744C210.568 86.2449 211.082 85.6883 211.565 85.1068L211.574 85.0985ZM210.851 77.2145C210.85 77.7204 210.82 78.2198 210.804 78.7224C211.388 80.6631 211.763 82.6546 211.926 84.6672C212.632 83.7717 213.26 82.824 213.805 81.8333C213.787 81.5099 213.749 81.1888 213.705 80.8504C213.197 77.5221 211.922 74.2689 210.363 71.2085C210.681 73.1988 210.841 75.2092 210.842 77.2228L210.851 77.2145ZM211.951 85.2223C211.968 85.8267 211.939 86.4315 211.865 87.0322C212.009 86.7929 212.152 86.5536 212.308 86.2974C213.047 84.8097 213.641 83.507 213.697 83.3398C213.754 83.1726 213.761 83.127 213.795 83.025C213.828 82.9229 213.816 82.7168 213.818 82.5654C213.265 83.4972 212.638 84.3882 211.942 85.2306L211.951 85.2223ZM213.32 85.2824C213.105 85.7744 212.881 86.269 212.639 86.7516C212.397 87.2343 212.157 87.8713 211.882 88.539C212.067 88.3292 212.249 88.1166 212.419 87.8979C212.889 86.969 213.252 85.9949 213.501 84.9926C213.428 85.0851 213.368 85.1893 213.31 85.2908L213.32 85.2824ZM209.641 67.1831C209.82 68.1337 209.993 69.0898 210.157 70.0543C212.042 73.5173 213.724 77.4182 214.119 81.241C214.2 81.0859 214.274 80.9248 214.349 80.7695C214.698 78.7262 214.722 76.6458 214.419 74.5975C213.721 69.5952 212.039 64.6453 210.309 59.8886C210.231 59.6694 210.599 59.59 210.677 59.8035C212.9 65.8474 215.599 72.815 214.971 79.3417C217.64 72.4348 216.474 64.5196 213.674 57.3694C213.59 57.1557 213.965 57.0709 214.04 57.2871C217.045 65.0027 218.163 73.5227 214.762 80.7942C214.632 81.4711 214.465 82.1414 214.261 82.8024C218.593 74.4881 221.312 65.0158 217.362 56.8391C217.26 56.6307 217.582 56.4702 217.694 56.6702C221.843 65.2578 218.776 75.2015 214.145 83.8169C214.04 84.6374 213.846 85.4458 213.565 86.229C215.768 82.5944 217.052 77.9364 218.45 74.7046C220.584 69.7706 222.806 64.9247 222.868 59.5156C222.868 59.5156 222.889 59.4962 222.902 59.4851C222.588 59.1184 222.245 58.7753 221.875 58.4589C220.542 57.2916 218.812 56.6099 216.994 56.5349C215.176 56.4599 213.387 56.9963 211.944 58.049C208.715 60.4573 208.997 63.7713 209.632 67.1915L209.641 67.1831Z" fill="#B6A756"/>
<path d="M231.205 78.721C238.162 74.7915 245.627 71.5409 252.995 68.365C258.188 66.1232 268.009 63.9379 268.934 71.9299C269.685 78.5341 262.084 82.1616 256.07 81.4501C249.709 80.7156 243.705 77.3347 237.275 77.1444C237.19 77.1397 237.107 77.1202 237.029 77.0868C235.278 77.9631 230.793 81.383 229.094 82.3407C228.343 82.7505 230.473 79.137 231.205 78.721ZM247.776 72.0465C245.908 72.8942 244.022 73.7356 242.163 74.6035C242.896 74.4963 243.643 74.5064 244.372 74.6334C244.599 74.5476 244.825 74.4618 245.055 74.379C247.228 73.233 249.506 72.2735 251.86 71.5119C253.803 70.4146 255.682 69.2071 257.561 67.9939C256.96 68.1404 256.368 68.3222 255.79 68.5381C253.081 69.5875 250.432 70.8614 247.776 72.0465ZM241.218 76.3976L241.521 76.4595C241.645 76.3826 241.768 76.2999 241.882 76.2314C241.876 76.2025 241.879 76.1727 241.89 76.1452C241.901 76.1177 241.92 76.0936 241.945 76.0757C241.91 76.087 241.874 76.0966 241.838 76.1045C241.647 76.2026 241.438 76.306 241.227 76.4064L241.218 76.3976ZM256.237 79.968C254.269 78.0892 251.547 75.6742 248.582 75.5138C248.04 75.4908 247.497 75.5116 246.959 75.5759C248.403 76.4041 249.612 77.5504 250.485 78.9172C252.371 79.4046 254.294 79.7559 256.237 79.968ZM245.701 75.3728C245.471 75.2862 245.236 75.2107 244.998 75.1464C244.732 75.2398 244.465 75.3388 244.197 75.4235C243.792 75.6077 243.421 75.767 243.037 75.9488C242.858 76.0587 242.67 76.1711 242.504 76.2699C243.491 75.936 244.497 75.6559 245.518 75.431C245.588 75.4071 245.646 75.3885 245.707 75.3672L245.701 75.3728ZM248.267 73.3965C248.77 73.1576 249.271 72.9102 249.771 72.657C248.978 72.959 248.197 73.2862 247.431 73.6384C247.712 73.5483 247.977 73.4778 248.273 73.3909L248.267 73.3965ZM258.538 67.8041C256.828 68.9272 255.109 70.0359 253.353 71.0778C257.621 69.8802 262.063 69.3357 266.51 69.4652C264.859 67.5744 261.558 67.2598 258.544 67.7986L258.538 67.8041ZM266.798 69.8297C261.779 69.6509 256.766 70.3394 252.004 71.8613C251.302 72.261 250.585 72.646 249.863 73.0137C255.699 71.7622 261.767 71.8893 267.531 73.3837C267.736 72.1522 267.479 70.8929 266.804 69.8241L266.798 69.8297ZM267.474 73.8454L267.487 73.7399C261.951 72.2993 256.128 72.1323 250.503 73.2527C251.407 73.136 252.318 73.0844 253.23 73.0983C257.826 73.1939 262.446 74.785 266.851 75.919C267.149 75.2525 267.361 74.5543 267.481 73.8398L267.474 73.8454ZM266.698 76.261C262.666 75.2164 258.49 73.8451 254.329 73.5147C251.756 73.3399 249.171 73.6659 246.733 74.4726C246.344 74.6372 245.949 74.7959 245.566 74.9606C245.798 75.0393 246.025 75.129 246.247 75.2293C248.453 74.6074 250.756 74.2594 252.954 74.572C256.636 75.0962 260.299 77.5263 263.463 79.2523C264.884 78.6447 266.029 77.5777 266.692 76.2438L266.698 76.261ZM263.011 79.4067C260.061 77.789 256.735 75.7246 253.432 75.0556C251.705 74.7472 249.929 74.7755 248.213 75.1387C248.614 75.1409 249.015 75.1749 249.41 75.2403C252.168 75.7241 254.652 77.9416 256.546 79.7585C256.564 79.7738 256.578 79.7925 256.588 79.8135C256.597 79.8344 256.602 79.8571 256.601 79.88C256.6 79.9028 256.594 79.9252 256.584 79.9456C256.573 79.9661 256.558 79.9841 256.539 79.9985C258.828 80.2018 261.126 80.1081 263.017 79.4011L263.011 79.4067ZM249.938 78.7777C249.04 77.4692 247.808 76.3954 246.355 75.655C246.109 75.6974 245.853 75.7424 245.601 75.7732C244.642 76.075 243.703 76.4086 242.812 76.7664C245.099 77.3441 247.368 78.0871 249.549 78.665L249.938 78.7777ZM239.876 76.1637C240.499 76.0517 241.116 75.9205 241.727 75.7701C242.372 75.4662 243.016 75.1737 243.686 74.919C242.244 74.8131 240.805 75.1763 239.608 75.9483C239.576 75.9695 239.538 75.9784 239.499 75.9732C239.461 75.968 239.427 75.949 239.403 75.9203L239.124 76.0534C239.383 76.077 239.633 76.1204 239.883 76.1582L239.876 76.1637Z" fill="#B6A756"/>
<path d="M237.312 34.6094C243.358 37.9312 243.63 46.224 242.295 51.8154C239.832 62.2031 240.631 64.8042 238.886 68.9076C238.569 69.6514 235.367 71.7802 235.69 71.0138C236.667 68.6152 237.514 66.1714 238.228 63.692C238.141 63.6092 238.084 63.5028 238.065 63.3877C236.6 54.9563 227.278 49.7313 226.674 41.1358C226.266 35.3462 231.752 31.5541 237.312 34.6094ZM233.505 45.3206C234.339 46.4132 235.092 47.559 235.758 48.7499C236.288 49.6922 236.749 50.6412 237.208 51.636C237.345 50.7248 237.515 49.8117 237.734 48.9054L237.728 48.5994C237.592 43.334 237.341 37.2825 231.593 34.7342C231.192 34.8614 230.812 35.0435 230.466 35.2746C233.027 38.0229 232.846 41.6169 233.474 45.0768L233.505 45.3206ZM237.965 58.8178L237.958 58.5632C237.683 58.0685 237.426 57.5819 237.186 57.1033C237.19 57.1777 237.182 57.2518 237.183 57.3232C237.461 57.8133 237.721 58.3086 237.965 58.8178ZM239.538 58.8116C239.294 58.0967 239.047 57.3787 238.791 56.6634C238.843 57.9995 238.956 59.3429 239.065 60.6947C239.229 60.0701 239.387 59.4424 239.538 58.8116ZM238.679 60.5678C238.553 59.2641 238.415 57.9488 238.366 56.6156L238.394 59.8004C238.495 60.0544 238.587 60.3111 238.679 60.5678ZM237.935 57.7223L237.85 54.1388C237.724 53.8184 237.601 53.5009 237.475 53.1747C237.331 54.2024 237.242 55.2362 237.209 56.2721C237.436 56.7637 237.681 57.2443 237.935 57.7223ZM237.821 53.1092L237.775 51.2959C237.702 51.6942 237.623 52.0924 237.559 52.4938L237.821 53.1092ZM237.096 52.3192C236.286 50.4046 235.29 48.5654 234.121 46.8252C233.985 46.6302 233.843 46.4409 233.697 46.2543C234.384 49.4374 235.434 52.54 236.828 55.5079C236.867 54.4399 236.956 53.377 237.096 52.3192ZM232.138 34.6078C236.112 36.5542 237.538 40.4172 237.933 44.523C238.02 45.4512 238.084 46.3875 238.14 47.3264C239.052 44.051 240.111 40.7049 238.611 37.6031C236.873 35.6959 234.418 34.2193 232.138 34.6078ZM239.367 38.5597C239.944 40.432 239.804 42.4178 239.336 44.4582C238.965 46.061 238.572 47.6117 238.222 49.1577C238.295 50.9031 238.328 52.656 238.347 54.4057C238.372 53.5627 238.463 52.7224 238.618 51.8916C239.248 48.5519 240.851 45.5368 240.969 42.1213C240.875 41.7331 240.775 41.339 240.645 40.9613C240.349 40.1046 239.918 39.295 239.367 38.5597ZM241.234 43.4942C240.92 45.8243 240.063 48.0122 239.408 50.3137C238.95 52.013 238.734 53.7618 238.766 55.5138C239.09 56.3851 239.398 57.2589 239.701 58.1326L239.896 57.3143C240.912 52.9068 241.955 48.0598 241.234 43.4942ZM233.831 52.3771C233.485 50.8109 232.95 49.288 232.236 47.8382C231.288 46.0194 229.864 44.5658 228.337 43.1812C228.894 44.8586 229.675 46.4612 230.663 47.9501C231.662 49.4786 232.757 50.9324 233.831 52.3771ZM228.164 42.5252C231.644 45.6739 233.276 48.8132 234.38 53.114C235.241 54.2876 236.085 55.4778 236.815 56.6909C236.812 56.5822 236.816 56.4737 236.819 56.3652C235.592 53.8848 234.608 51.3027 233.88 48.6512C233.639 47.7153 233.455 46.7668 233.33 45.8106C231.57 43.7627 229.085 41.9739 227.902 39.649C227.828 40.6152 227.916 41.5859 228.164 42.5252ZM228.945 36.8284C228.488 37.4758 228.174 38.2041 228.023 38.9689C228.897 41.1145 231.06 42.4523 232.57 44.168C232.798 44.431 233.014 44.6994 233.229 44.9677C232.775 41.5693 232.413 37.9217 230.168 35.5244C229.691 35.8943 229.274 36.3287 228.931 36.8137L228.945 36.8284Z" fill="#B6A756"/>
<path d="M243.852 15.175C249.201 14.0091 251.832 19.7888 252.655 23.6738C253.925 29.6966 253.037 35.4336 251.758 41.3808C251.735 41.4819 251.684 41.5754 251.61 41.6515C252.1 43.5074 252.276 45.4497 251.63 47.2541C251.355 48.0161 249.163 49.8702 249.44 49.1055C250.672 45.6552 249.631 39.4609 248.155 36.4255C246.356 32.7189 243.781 29.633 241.612 26.1685C239.502 22.7942 238.365 16.3632 243.852 15.175ZM242.12 24.4978L242.536 25.2371C244.081 26.9105 245.531 28.6595 246.882 30.477C246.542 29.3537 246.202 28.2304 245.874 27.1132L245.606 26.0975C244.233 24.2708 242.709 22.5504 241.047 20.9524C241.036 20.9417 241.028 20.9291 241.022 20.9152C241.016 20.9013 241.013 20.8864 241.014 20.8715C241.111 22.1396 241.49 23.3734 242.126 24.4923L242.12 24.4978ZM249.855 37.0228L249.886 36.995C249.827 36.4476 249.765 35.8973 249.719 35.3502C249.164 34.4426 248.585 33.5476 247.982 32.6654C248.207 33.3914 248.445 34.1119 248.671 34.8265C249.082 35.5247 249.474 36.25 249.846 37.0025L249.855 37.0228ZM251.358 36.7233C251.334 36.7082 251.314 36.6881 251.299 36.6646C251.149 36.2436 250.983 35.8364 250.806 35.4061C250.755 35.5677 250.696 35.732 250.646 35.8937L250.689 36.2606C250.884 36.5913 251.07 36.9247 251.259 37.261L251.358 36.7233ZM244.955 16.3718C246.875 18.3679 248.476 20.6201 249.704 23.0565C249.54 20.6544 248.779 18.4573 246.322 16.6377C245.883 16.4739 245.418 16.3773 244.946 16.3515L244.955 16.3718ZM244.452 16.3934C243.668 16.4774 242.942 16.8279 242.41 17.3796C246.195 20.3673 248.305 24.9735 249.517 29.7829C249.528 29.3116 249.528 28.84 249.551 28.3633C249.626 26.8417 249.757 25.3588 249.734 23.9348C248.427 21.153 246.643 18.5954 244.453 16.3649L244.452 16.3934ZM250.093 32.367L250.23 33.0936C250.415 33.4841 250.585 33.8485 250.749 34.2299C251.399 31.7825 251.637 29.2875 250.856 26.7527C250.694 26.2312 250.499 25.7004 250.283 25.1662C250.266 27.5581 250.131 29.9556 250.084 32.3468L250.093 32.367ZM250.212 35.4312L250.126 34.8087L250.158 35.3355L250.212 35.4312ZM250.45 34.4911L250.51 34.9928C250.53 34.9304 250.544 34.8679 250.562 34.8026C250.529 34.6874 250.493 34.575 250.445 34.4681L250.45 34.4911ZM251.154 37.8271L250.799 37.2008C250.857 37.754 250.913 38.2984 250.957 38.8312L251.154 37.8271ZM250.363 36.7183L250.257 37.0129C250.28 37.2535 250.297 37.494 250.322 37.7376C250.326 37.7664 250.322 37.7956 250.312 37.8227C250.301 37.8499 250.283 37.8741 250.26 37.8933C250.365 38.1217 250.46 38.3528 250.556 38.5838C250.495 37.9573 250.429 37.3278 250.358 36.6953L250.363 36.7183ZM247.208 31.5742C246.054 29.9674 244.829 28.4074 243.518 26.9025C244.898 29.118 246.418 31.2142 247.804 33.4127C247.597 32.7758 247.392 32.1647 247.203 31.5512L247.208 31.5742ZM247.633 31.5277C248.334 32.5114 249.006 33.5163 249.647 34.5423C249.602 33.8609 249.562 33.1797 249.538 32.496C248.624 30.6332 247.561 28.8388 246.36 27.1283C246.775 28.5736 247.195 30.0418 247.627 31.5047L247.633 31.5277ZM249.519 31.6466L249.514 31.4349C248.378 26.1301 246.264 20.8721 242.154 17.6475C242.067 17.7254 242.006 17.8467 241.933 17.9506C243.732 19.3307 244.627 21.1682 245.279 23.3683C245.536 24.2493 245.787 25.136 246.037 26.0226C247.349 27.799 248.511 29.6709 249.511 31.6206L249.519 31.6466ZM251.837 26.6487C251.501 24.0107 251.022 20.9289 249.305 18.7706C248.834 18.1853 248.266 17.6767 247.621 17.2649C249.233 18.7771 250.168 20.8165 250.236 22.9642C250.253 23.3933 250.261 23.8194 250.269 24.2455C250.628 25.0398 250.944 25.851 251.216 26.6759C252.101 29.4164 251.751 32.1457 250.978 34.813C251.141 35.223 251.301 35.6358 251.454 36.0541C252.035 32.9411 252.162 29.7688 251.831 26.6257L251.837 26.6487ZM241.36 18.9738C241.129 19.5449 241.021 20.1533 241.041 20.7636C241.049 20.7335 241.066 20.7061 241.089 20.684C241.112 20.662 241.141 20.6462 241.173 20.6382C241.204 20.6303 241.238 20.6305 241.269 20.6389C241.301 20.6472 241.329 20.6633 241.352 20.6857C242.81 22.0981 244.161 23.6058 245.395 25.1976C244.723 22.5883 243.953 20.0108 241.718 18.2597C241.583 18.4835 241.462 18.7142 241.355 18.9508L241.36 18.9738Z" fill="#B6A756"/>
<path d="M254.66 51.0604C257.364 48.8047 260.142 45.9392 263.393 44.366C266.355 42.9457 273.483 41.6902 275.187 45.5544C277.027 49.7852 271.891 54.6921 267.808 55.2983C262.379 56.1021 256.776 54.4949 251.285 55.6658C251.285 55.6658 251.242 55.6648 251.221 55.6671C249.645 57.0366 248.063 58.4344 246.527 59.8621C245.905 60.4181 245.459 58.1345 246.075 57.5727C248.987 54.8591 251.574 53.6295 254.66 51.0604ZM253.91 53.9026C254.52 53.7274 255.135 53.5352 255.754 53.3259C256.184 52.9422 256.613 52.5586 257.042 52.175C256.452 52.2768 255.872 52.4237 255.308 52.6144C254.827 53.0253 254.361 53.4547 253.91 53.9026ZM255.028 53.9364L255.07 53.9318L255.089 53.9151C255.089 53.9151 255.046 53.9312 255.028 53.9364ZM256.817 51.4376C256.548 51.628 256.291 51.8303 256.033 52.0324C256.533 51.9039 257.041 51.806 257.554 51.7391C257.974 51.3638 258.394 50.9885 258.825 50.6535C258.136 50.8679 257.465 51.13 256.817 51.4376ZM259.505 50.0904C259.902 49.7688 260.305 49.4475 260.708 49.1375C259.882 49.5314 259.08 49.9682 258.305 50.4461C258.705 50.3113 259.104 50.1927 259.505 50.0904ZM258.192 51.6694C258.955 51.6036 259.723 51.5838 260.489 51.61C262.126 50.991 263.766 50.3805 265.425 49.842C263.492 49.7609 261.556 49.954 259.682 50.415C259.183 50.8226 258.683 51.2416 258.192 51.6694ZM257.731 52.0808C257.377 52.3978 257.022 52.7147 256.668 53.0316C257.661 52.6993 258.628 52.3292 259.604 51.9622C258.972 51.9573 258.339 51.9901 257.711 52.0603L257.731 52.0808ZM266.869 44.5249C263.602 45.223 261.245 47.3302 258.784 49.3349C258.033 49.9448 257.289 50.5606 256.544 51.1764C256.558 51.1612 256.574 51.1473 256.59 51.1347C258.268 49.9225 260.104 48.9187 262.051 48.148C264.616 46.3661 267.415 44.9588 270.684 44.3636C269.412 44.1865 268.116 44.2393 266.863 44.519L266.869 44.5249ZM271.423 44.5309C271.416 44.5573 271.401 44.5813 271.381 44.6001C271.36 44.6188 271.333 44.6315 271.305 44.6365C268.517 45.0981 265.865 46.1244 263.533 47.6451C266.846 46.5601 270.361 46.1451 273.85 46.4269C273.629 45.9526 273.295 45.5338 272.872 45.2036C272.45 44.8735 271.952 44.6411 271.417 44.525L271.423 44.5309ZM274.101 47.5135C274.081 47.2675 274.035 47.0241 273.963 46.787C269.964 46.4409 265.934 47.0265 262.225 48.4925C261.582 48.9393 260.953 49.4123 260.333 49.8997C262.326 49.5082 264.366 49.3882 266.393 49.5434C268.843 48.7626 271.394 48.3045 273.974 48.1821C274.013 48.1819 274.051 48.1962 274.079 48.2219C274.109 47.9848 274.114 47.7456 274.095 47.5077L274.101 47.5135ZM274.031 48.5093C274.012 48.526 273.996 48.5399 273.96 48.539C271.727 48.6346 269.514 48.9947 267.373 49.611C269.292 49.8153 271.19 50.1612 273.051 50.6455C273.537 50.0066 273.869 49.2756 274.025 48.5035L274.031 48.5093ZM272.79 50.9619C270.708 50.4237 268.577 50.0677 266.424 49.8986C264.724 50.4132 263.047 51.0227 261.365 51.6435C264.256 51.8362 267.206 52.4764 269.855 52.8574C269.889 52.8622 269.921 52.8749 269.948 52.8943C269.975 52.9137 269.997 52.9392 270.011 52.9685C270.025 52.9978 270.031 53.0299 270.029 53.062C270.027 53.0942 270.016 53.1253 269.998 53.1525C271.066 52.595 272.012 51.8494 272.784 50.9561L272.79 50.9619ZM262.415 53.9536C263.953 53.9951 265.631 54.2231 267.159 54.0901C268.122 53.9743 269.053 53.679 269.896 53.2214L269.874 53.2409C266.999 52.8284 263.719 52.0771 260.571 51.9808C259.047 52.5598 257.52 53.1359 255.977 53.6545L255.666 53.9325C257.908 53.8059 260.189 53.8833 262.421 53.9595L262.415 53.9536ZM253.183 54.113C253.474 53.8145 253.77 53.5218 254.076 53.2379C253.736 53.541 253.374 53.8263 253.026 54.1205L253.183 54.113Z" fill="#B6A756"/>
<path d="M258.354 35.896C260.712 31.3621 264.818 27.4811 269.095 24.5361C271.777 22.6943 276.6 19.6715 280.172 21.0161C285.012 22.8442 282.268 28.5231 279.138 30.3994C276.155 32.1822 272.38 32.6017 269.02 33.3775C266.601 33.8876 264.238 34.6139 261.964 35.5466C261.852 35.6467 261.76 35.7673 261.666 35.8793C261.572 35.9913 261.429 35.9191 261.381 35.8064C259.598 36.639 257.165 40.1906 255.688 41.5997C255.087 42.1763 254.948 38.7686 255.546 38.1949C256.391 37.3896 257.319 36.666 258.317 36.0351C258.323 35.9875 258.336 35.9409 258.354 35.896ZM280.519 23.3057C274.365 25.3905 268.791 28.77 264.217 33.1881C267.19 31.6325 270.364 30.4497 273.659 29.6699C276.331 28.1421 278.837 26.3678 281.139 24.3731C281.011 23.9922 280.803 23.64 280.527 23.3374L280.519 23.3057ZM262.95 33.7765L263.186 33.6881C263.379 33.5157 263.551 33.3229 263.735 33.1474C263.468 33.3751 263.207 33.5857 262.946 33.7964L262.95 33.7765ZM280.234 23.027C279.844 22.7029 279.386 22.4598 278.889 22.313C276.9 23.5872 274.942 24.8947 273.016 26.2353C275.315 24.971 277.73 23.9039 280.23 23.0469L280.234 23.027ZM265.498 32.9545C266.163 32.7674 266.837 32.589 267.519 32.4195C267.718 32.3701 267.918 32.3294 268.123 32.2803C269.287 31.7951 270.472 31.3247 271.608 30.7588C271.86 30.6336 272.106 30.5026 272.352 30.3773C269.984 31.0347 267.688 31.9043 265.494 32.9744L265.498 32.9545ZM260.745 34.6814C260.736 34.6543 260.736 34.6255 260.745 34.5984C260.753 34.5713 260.769 34.547 260.792 34.5282C265.531 30.5259 270.271 26.5245 275.012 22.5241C273.047 23.1692 271.071 24.4743 269.371 25.7777C266.864 28.5121 264.195 31.1094 261.375 33.5568C261.078 33.9609 260.797 34.3683 260.524 34.7844C260.581 34.783 260.652 34.7476 260.729 34.7124L260.745 34.6814ZM262.69 31.915C264.271 30.4799 265.803 28.9978 267.286 27.4688C267.099 27.6356 266.922 27.7941 266.751 27.947C265.285 29.1865 263.918 30.5269 262.662 31.9571L262.69 31.915ZM275.879 22.2658L261.674 34.2617L261.873 34.1781C267.142 29.875 272.668 25.8627 278.425 22.1612C278.103 22.0995 277.775 22.0674 277.445 22.0651C276.905 22.0849 276.37 22.1664 275.85 22.308L275.879 22.2658ZM280.685 27.3171C281.219 26.5553 281.431 25.6321 281.279 24.7311C279.287 26.4457 277.145 27.9991 274.878 29.3747C276.339 29.0685 277.862 28.8238 279.437 28.632C279.911 28.2699 280.322 27.8405 280.656 27.3592L280.685 27.3171ZM275.16 30.628C276.459 30.2806 277.699 29.7562 278.84 29.0714C277.16 29.2847 275.494 29.5853 273.849 29.9719C273.582 30.1224 273.314 30.2729 273.043 30.4204C272.059 30.9444 271.047 31.4049 270.026 31.8394C271.718 31.5218 273.449 31.1681 275.131 30.6702L275.16 30.628Z" fill="#B6A756"/>
<path d="M264.857 13.7339C266.182 9.5171 275.408 -4.9764 281.104 2.88407C283.305 5.91485 280.249 8.6905 277.547 10.023C272.728 12.4028 265.185 13.0905 262.621 18.3652C262.265 19.0994 261.139 18.4451 261.482 17.7163C262.247 16.2418 263.399 14.9758 264.826 14.039C264.81 13.9365 264.82 13.8317 264.857 13.7339ZM275.415 2.70953C272.587 5.23653 269.887 7.84392 268.003 11.0606C268.467 10.8087 268.945 10.5803 269.434 10.3764C270.026 9.91393 270.606 9.43975 271.192 8.97145C271.192 8.97145 271.196 8.92869 271.218 8.90923C273.317 7.1069 275.011 4.92439 276.198 2.49203C275.93 2.55388 275.668 2.6273 275.415 2.70953ZM267.987 11.4804C267.873 11.549 267.762 11.6205 267.651 11.692L267.603 11.7737L267.987 11.4804ZM266.708 12.4571C266.848 12.332 267.005 12.2303 267.157 12.1169C267.134 12.1003 267.115 12.0805 267.098 12.0582C266.999 12.1472 266.882 12.2128 266.761 12.3098L266.708 12.4571ZM267.06 11.6314C267.15 11.5508 267.267 11.5023 267.369 11.4391C269.132 8.1965 271.705 5.59735 274.456 3.08273C274.227 3.18802 274.004 3.3055 273.789 3.43463C270.746 5.32739 268.491 8.41472 267.057 11.6342L267.06 11.6314ZM276.665 2.38655C275.911 3.98181 274.944 5.47916 273.786 6.84157C275.509 5.4015 277.2 3.93492 278.862 2.42756C278.14 2.2514 277.384 2.2402 276.655 2.3949L276.665 2.38655ZM279.244 2.57437C276.54 5.04158 273.745 7.40645 270.873 9.69511C270.939 9.63673 271.024 9.6046 271.104 9.56088C274.169 7.86016 277.622 7.10097 280.428 4.97072C280.455 4.8074 280.465 4.64209 280.459 4.47702C280.455 4.08571 280.34 3.70284 280.124 3.36922C279.909 3.0356 279.602 2.76377 279.235 2.58271L279.244 2.57437ZM280.299 5.51913C278.225 6.97895 275.884 7.75468 273.545 8.7791C273.011 9.01149 272.501 9.26735 271.991 9.53462C273.946 9.015 275.991 8.69773 277.935 8.32647C278.915 7.63942 279.923 6.63296 280.29 5.52748L280.299 5.51913ZM273.312 10.2424C274.553 9.87806 275.766 9.43095 276.94 8.90449L277.032 8.85538C274.831 9.18822 272.661 9.68509 270.542 10.3413C269.381 11.0494 268.265 11.822 267.201 12.6553C269.168 11.709 271.208 10.9052 273.303 10.2507L273.312 10.2424Z" fill="#B6A756"/>
<path d="M246.743 1.2339C249.505 -0.0628532 252.841 1.58736 254.685 3.54306C258.506 7.58638 258.068 13.6205 258.756 18.6483C259.474 19.8422 260.095 21.0855 260.616 22.3678C260.916 23.11 259.742 23.7035 259.442 22.9614C258.926 21.6869 258.307 20.452 257.591 19.2678C257.567 19.2339 257.547 19.198 257.531 19.1605C256.271 17.1139 254.756 15.2181 253.018 13.5135C250.906 11.4024 248.306 9.6164 246.561 7.20587C245.13 5.26345 243.898 2.57145 246.743 1.2339ZM246.679 5.43963C249.44 7.49268 251.438 10.2439 253.934 12.5676C253.951 12.5852 253.96 12.5939 253.975 12.6086L253.989 12.6233C254.186 12.8197 254.379 13.0132 254.576 13.2097C252.332 9.78909 249.877 6.56327 246.369 4.20562C246.395 4.6311 246.5 5.04882 246.679 5.43963ZM256.028 14.8554C256.413 15.311 256.777 15.7745 257.134 16.2494C257.042 16.0813 256.951 15.919 256.865 15.7511C256.839 15.7411 256.816 15.7259 256.797 15.7067C256.777 15.6875 256.763 15.6647 256.754 15.6396L256.638 15.288C255.693 13.355 254.988 11.3422 253.936 9.46075C252.321 6.57955 249.763 4.27069 246.643 2.87774C246.468 3.15512 246.365 3.46813 246.343 3.79052C250.638 6.60529 253.406 10.6736 256.043 14.87L256.028 14.8554ZM256.839 12.9808C254.697 9.20262 253.63 5.29718 250.395 2.3233C250.06 2.23486 249.719 2.16897 249.373 2.1261C253.45 5.52419 255.341 10.2878 256.993 15.1483L257.098 15.3596C257.026 14.5689 256.95 13.781 256.854 12.9954L256.839 12.9808ZM248.74 2.07015C248.082 2.01895 247.427 2.20691 246.909 2.59575C249.479 3.75145 251.685 5.51864 253.313 7.7244C253.732 8.3219 254.111 8.94436 254.446 9.58792C253.101 6.75301 251.394 4.15194 248.755 2.08479L248.74 2.07015ZM251.726 2.82265L251.559 2.74417C253.934 5.43063 255.026 8.74216 256.708 11.9542C256.523 10.6351 256.209 9.33549 255.77 8.07203C255.048 5.99595 253.832 3.95034 251.74 2.83733L251.726 2.82265ZM251.215 10.3041C249.957 8.85493 248.593 7.49113 247.132 6.2227C248.079 7.66992 249.714 9.08015 251.23 10.3187L251.215 10.3041Z" fill="#B6A756"/>
</svg>
