<svg xmlns="http://www.w3.org/2000/svg" xmlns:xlink="http://www.w3.org/1999/xlink" width="80" zoomAndPan="magnify" viewBox="0 0 60 67.92" height="80" preserveAspectRatio="xMidYMid meet" version="1.0"><defs><clipPath id="a49f125968"><path d="M 0.0351562 0 L 59.964844 0 L 59.964844 59.929688 L 0.0351562 59.929688 Z M 0.0351562 0 " clip-rule="nonzero" data-index="0" style="visibility: visible;"></path></clipPath><clipPath id="3d10da645a"><path d="M 14 10 L 46.953125 10 L 46.953125 51.625 L 14 51.625 Z M 14 10 " clip-rule="nonzero" data-index="1" style="visibility: visible;"></path></clipPath></defs><g clip-path="url(#a49f125968)"><path fill="#a5c2b0" d="M 0.0351562 0 L 59.964844 0 L 59.964844 59.929688 L 0.0351562 59.929688 Z M 0.0351562 0 " fill-opacity="1" fill-rule="nonzero" data-index="3" style="visibility: hidden; opacity: 1; fill: rgb(121, 40, 202);"></path></g><g clip-path="url(#3d10da645a)"><path fill="#eef0ed" d="M 46.460938 20.753906 C 46.421875 20.734375 46.378906 20.71875 46.332031 20.710938 C 45.753906 20.636719 40.324219 20.601562 34.5 20.601562 C 35.039062 16.714844 33.179688 13.730469 31.03125 12.472656 C 24.015625 8.355469 18.777344 11.257812 16.21875 15.347656 C 13.351562 19.921875 13.265625 26.8125 17.710938 29.78125 L 17.800781 29.839844 C 19.285156 30.847656 20.992188 31.355469 22.90625 31.355469 C 23.996094 31.355469 25.152344 31.1875 26.371094 30.859375 C 27.757812 32.28125 30.386719 34.925781 32.425781 35.542969 C 32.476562 37.308594 32.835938 46.460938 32.910156 48.277344 C 31.570312 48.460938 30.542969 48.878906 29.902344 49.207031 C 29.496094 49.414062 29.199219 49.609375 29.023438 49.734375 C 28.675781 49.984375 28.597656 50.078125 28.597656 50.242188 C 28.597656 50.300781 28.609375 50.359375 28.640625 50.410156 C 28.902344 50.878906 29.914062 51.199219 30.496094 51.351562 C 31.40625 51.585938 32.527344 51.742188 33.730469 51.742188 C 35.640625 51.742188 37.753906 51.347656 39.535156 50.246094 C 39.582031 50.21875 39.617188 50.179688 39.648438 50.132812 C 39.714844 50.019531 39.714844 49.882812 39.648438 49.761719 C 39.410156 49.335938 37.460938 48.304688 34.839844 48.1875 L 34.082031 35.523438 C 36.21875 34.777344 39.601562 31.027344 41.480469 28.792969 C 43.910156 25.898438 46.511719 22.300781 46.667969 21.28125 C 46.71875 20.945312 46.539062 20.800781 46.460938 20.753906 Z M 18.179688 29.28125 L 18.085938 29.21875 C 13.96875 26.46875 14.09375 20.011719 16.789062 15.707031 C 17.953125 13.851562 22.386719 8.179688 30.6875 13.054688 C 32.65625 14.210938 34.355469 16.976562 33.8125 20.601562 L 33.140625 20.601562 C 33.519531 17.234375 31.949219 14.660156 30.167969 13.570312 C 27.421875 11.898438 24.703125 11.398438 22.300781 12.125 C 19.945312 12.835938 17.972656 14.671875 16.746094 17.292969 C 16.742188 17.300781 16.734375 17.308594 16.734375 17.320312 C 15.039062 20.964844 14.992188 26.035156 18.183594 28.695312 C 18.1875 28.695312 18.1875 28.699219 18.191406 28.699219 C 18.195312 28.703125 18.195312 28.707031 18.199219 28.707031 C 18.324219 28.8125 18.460938 28.917969 18.605469 29.019531 C 18.632812 29.039062 18.667969 29.0625 18.703125 29.089844 C 19.253906 29.488281 20.625 30.480469 22.9375 30.480469 C 23.722656 30.480469 24.613281 30.367188 25.617188 30.078125 C 25.6875 30.152344 25.757812 30.226562 25.832031 30.300781 C 22.824219 31.035156 20.253906 30.691406 18.179688 29.28125 Z M 31.015625 20.605469 C 31.585938 20.460938 32.082031 20.363281 32.488281 20.304688 C 32.480469 20.402344 32.46875 20.503906 32.457031 20.605469 Z M 26.257812 20.621094 C 27.714844 19.164062 30.8125 16.167969 31.367188 15.664062 C 32.058594 16.675781 32.523438 18.027344 32.519531 19.617188 C 31.585938 19.734375 30.261719 20.074219 28.578125 20.621094 Z M 19.445312 21.246094 C 19.777344 21.8125 20.074219 22.320312 20.339844 22.78125 C 19.738281 22.960938 17.28125 23.699219 16.382812 24.019531 C 16.058594 22.035156 16.398438 19.84375 17.179688 17.984375 C 17.691406 18.386719 20.332031 20.378906 20.753906 20.699219 C 20.28125 20.710938 19.925781 20.722656 19.714844 20.738281 C 19.597656 20.746094 19.496094 20.8125 19.441406 20.917969 C 19.382812 21.019531 19.386719 21.144531 19.445312 21.246094 Z M 25.089844 29.519531 C 24.28125 29.722656 23.554688 29.804688 22.914062 29.800781 C 22.996094 29.152344 23.144531 28.332031 23.332031 27.503906 C 23.800781 28.097656 24.355469 28.730469 25.089844 29.519531 Z M 22.234375 29.765625 C 20.554688 29.59375 19.539062 28.859375 19.101562 28.542969 L 18.941406 28.425781 C 20.078125 27.453125 21.019531 26.476562 21.601562 25.871094 C 21.730469 25.742188 21.847656 25.617188 21.945312 25.519531 C 22.230469 25.976562 22.503906 26.390625 22.804688 26.804688 C 22.546875 27.847656 22.335938 28.941406 22.234375 29.765625 Z M 21.585938 24.921875 C 21.46875 25.039062 21.316406 25.195312 21.113281 25.402344 C 20.527344 26.015625 19.5625 27.011719 18.40625 27.988281 C 17.441406 27.101562 16.832031 25.953125 16.519531 24.6875 C 17.210938 24.433594 20.269531 23.5 20.65625 23.394531 C 20.667969 23.390625 20.675781 23.386719 20.683594 23.382812 C 21.023438 23.96875 21.316406 24.472656 21.585938 24.921875 Z M 25.300781 20.636719 L 25.238281 20.636719 C 25.101562 20.558594 24.957031 20.492188 24.808594 20.433594 C 25.558594 17.917969 26.042969 15.503906 26.367188 12.683594 C 27.480469 12.941406 28.632812 13.429688 29.816406 14.148438 C 30.214844 14.394531 30.605469 14.726562 30.957031 15.128906 C 30.714844 15.339844 30.105469 15.910156 28.417969 17.554688 C 27.242188 18.703125 25.863281 20.058594 25.300781 20.636719 Z M 24.15625 20.253906 C 23.988281 20.226562 23.824219 20.210938 23.664062 20.210938 C 23.617188 20.210938 23.570312 20.214844 23.527344 20.214844 C 23.003906 18.859375 22.4375 17.609375 21.894531 16.40625 C 21.492188 15.515625 21.074219 14.59375 20.671875 13.625 C 21.242188 13.253906 21.855469 12.964844 22.496094 12.773438 C 23.519531 12.464844 24.589844 12.394531 25.703125 12.558594 C 25.382812 15.363281 24.898438 17.757812 24.15625 20.253906 Z M 20.105469 14.023438 C 20.496094 14.953125 20.890625 15.832031 21.277344 16.683594 C 21.828125 17.898438 22.347656 19.050781 22.847656 20.339844 C 22.605469 20.414062 22.378906 20.527344 22.175781 20.671875 L 21.832031 20.675781 C 21.320312 20.277344 17.957031 17.742188 17.472656 17.351562 C 18.152344 15.976562 19.050781 14.847656 20.105469 14.023438 Z M 41.066406 28.234375 C 37.824219 32.109375 35.054688 34.621094 33.652344 34.949219 C 33.492188 34.984375 33.382812 35.132812 33.390625 35.296875 L 34.183594 48.535156 C 34.195312 48.714844 34.339844 48.851562 34.515625 48.855469 C 36.597656 48.886719 38.144531 49.527344 38.777344 49.902344 C 36.1875 51.304688 32.910156 51.242188 30.816406 50.734375 C 30.140625 50.570312 29.707031 50.390625 29.464844 50.253906 C 30 49.882812 31.304688 49.125 33.296875 48.910156 C 33.472656 48.890625 33.605469 48.738281 33.597656 48.558594 C 33.472656 45.488281 33.082031 35.6875 33.097656 35.296875 C 33.101562 35.132812 32.996094 34.984375 32.832031 34.949219 C 30.890625 34.523438 27.964844 31.527344 26.71875 30.25 C 26.71875 30.246094 25.960938 29.457031 25.960938 29.457031 C 24.800781 28.230469 24.074219 27.390625 23.464844 26.5625 C 23.453125 26.539062 23.4375 26.519531 23.417969 26.5 C 22.910156 25.800781 22.476562 25.109375 21.941406 24.199219 C 24.785156 24.601562 30.199219 24.863281 35.773438 24.863281 C 36.066406 24.863281 36.363281 24.863281 36.65625 24.863281 C 39.601562 24.847656 42.226562 24.582031 44.105469 24.324219 C 43.300781 25.449219 42.269531 26.792969 41.066406 28.234375 Z M 44.636719 23.5625 C 42.765625 23.84375 39.90625 24.171875 36.652344 24.1875 C 30.417969 24.21875 24.242188 23.914062 21.503906 23.445312 C 21.40625 23.277344 20.644531 21.953125 20.3125 21.386719 C 21.730469 21.339844 24.9375 21.308594 28.632812 21.289062 L 28.636719 21.289062 C 28.636719 21.289062 34.113281 21.277344 34.128906 21.273438 C 39.496094 21.269531 44.601562 21.300781 45.949219 21.363281 C 45.804688 21.746094 45.34375 22.523438 44.636719 23.5625 Z M 37.621094 27.167969 C 37.609375 27.160156 37.59375 27.15625 37.570312 27.148438 C 36.890625 26.921875 36.160156 27.125 35.664062 27.511719 C 35.484375 27.117188 35.183594 26.804688 34.785156 26.605469 C 34.710938 26.566406 34.636719 26.539062 34.558594 26.511719 C 34.4375 25.839844 34 25.386719 33.277344 25.195312 C 32.890625 25.09375 32.523438 25.09375 32.171875 25.175781 C 32.15625 25.179688 32.140625 25.183594 32.125 25.1875 C 32.121094 25.191406 32.117188 25.191406 32.113281 25.191406 C 31.335938 25.417969 30.863281 26.0625 30.679688 26.667969 C 30.285156 26.425781 29.832031 26.328125 29.359375 26.394531 C 28.464844 26.519531 27.726562 27.214844 27.601562 28.050781 C 27.53125 28.523438 27.574219 29.710938 29.503906 30.621094 C 29.511719 30.625 29.515625 30.625 29.523438 30.628906 C 29.53125 30.632812 29.542969 30.636719 29.550781 30.640625 C 29.554688 30.640625 29.558594 30.644531 29.5625 30.644531 C 29.988281 30.839844 30.472656 31.007812 31.011719 31.148438 C 31.042969 31.15625 31.085938 31.167969 31.128906 31.183594 C 31.402344 31.257812 31.777344 31.359375 32.117188 31.359375 C 32.394531 31.359375 32.648438 31.292969 32.816406 31.089844 C 32.851562 31.046875 32.953125 30.914062 33.085938 30.707031 C 33.214844 30.875 33.347656 31.046875 33.496094 31.21875 C 33.519531 31.242188 33.542969 31.273438 33.570312 31.304688 C 33.847656 31.636719 34.292969 32.171875 34.777344 32.171875 C 34.835938 32.171875 34.894531 32.164062 34.953125 32.148438 C 35.082031 32.113281 36.222656 31.699219 37.238281 31.050781 C 37.300781 31.011719 37.363281 30.96875 37.421875 30.929688 C 37.425781 30.925781 37.429688 30.921875 37.4375 30.917969 C 37.4375 30.917969 37.441406 30.914062 37.445312 30.914062 C 38.335938 30.304688 38.828125 29.679688 38.910156 29.050781 C 38.96875 28.605469 38.824219 28.179688 38.484375 27.78125 C 38.234375 27.492188 37.945312 27.285156 37.621094 27.167969 Z M 32.300781 30.65625 C 32.246094 30.695312 32.042969 30.734375 31.3125 30.53125 C 31.261719 30.515625 31.214844 30.503906 31.179688 30.496094 C 30.683594 30.363281 30.234375 30.210938 29.847656 30.03125 C 29.824219 30.023438 29.804688 30.011719 29.785156 30.003906 C 28.707031 29.527344 28.167969 28.828125 28.269531 28.152344 C 28.351562 27.613281 28.859375 27.144531 29.453125 27.0625 C 29.910156 27 30.347656 27.171875 30.679688 27.550781 C 30.777344 27.660156 30.933594 27.695312 31.070312 27.636719 C 31.203125 27.578125 31.285156 27.441406 31.269531 27.292969 C 31.226562 26.824219 31.597656 26.046875 32.300781 25.84375 L 32.316406 25.839844 C 32.320312 25.835938 32.328125 25.835938 32.332031 25.832031 C 32.570312 25.773438 32.828125 25.777344 33.105469 25.851562 C 33.46875 25.945312 33.699219 26.125 33.820312 26.394531 C 33.320312 26.40625 32.839844 26.601562 32.507812 26.957031 C 32.195312 27.285156 31.585938 28.242188 32.613281 30 L 32.640625 30.046875 C 32.648438 30.066406 32.664062 30.082031 32.671875 30.101562 C 32.472656 30.421875 32.324219 30.625 32.300781 30.65625 Z M 38.238281 28.964844 C 38.183594 29.386719 37.777344 29.867188 37.0625 30.355469 C 37.058594 30.355469 37.054688 30.359375 37.050781 30.363281 C 37.046875 30.363281 37.046875 30.367188 37.042969 30.371094 C 36.984375 30.40625 36.929688 30.445312 36.871094 30.480469 C 35.941406 31.074219 34.878906 31.464844 34.777344 31.496094 C 34.714844 31.496094 34.539062 31.410156 34.089844 30.871094 C 34.058594 30.835938 34.03125 30.800781 34.007812 30.777344 C 33.691406 30.40625 33.425781 30.042969 33.21875 29.699219 L 33.191406 29.65625 C 32.636719 28.699219 32.566406 27.882812 33 27.417969 C 33.214844 27.191406 33.542969 27.070312 33.878906 27.070312 C 34.082031 27.070312 34.292969 27.113281 34.484375 27.210938 C 34.753906 27.347656 35.09375 27.632812 35.167969 28.234375 C 35.183594 28.378906 35.292969 28.496094 35.4375 28.523438 C 35.582031 28.550781 35.726562 28.484375 35.796875 28.359375 C 36.011719 27.972656 36.710938 27.574219 37.351562 27.789062 L 37.367188 27.792969 C 37.371094 27.796875 37.378906 27.796875 37.386719 27.800781 C 37.597656 27.875 37.792969 28.019531 37.96875 28.222656 C 38.183594 28.472656 38.273438 28.714844 38.238281 28.964844 Z M 38.238281 28.964844 " fill-opacity="1" fill-rule="nonzero" data-index="4" style="visibility: visible; opacity: 1;"></path></g></svg>