<svg xmlns="http://www.w3.org/2000/svg" xmlns:xlink="http://www.w3.org/1999/xlink" width="80" zoomAndPan="magnify" viewBox="0 0 60 67.92" height="80" preserveAspectRatio="xMidYMid meet" version="1.0"><defs><clipPath id="19a81e0fbe"><path d="M 0.0351562 0 L 59.964844 0 L 59.964844 59.929688 L 0.0351562 59.929688 Z M 0.0351562 0 " clip-rule="nonzero" data-index="0" style="visibility: visible;"></path></clipPath><clipPath id="c3f05b16b1"><path d="M 7.554688 11.398438 L 52.503906 11.398438 L 52.503906 48 L 7.554688 48 Z M 7.554688 11.398438 " clip-rule="nonzero" data-index="1" style="visibility: visible;"></path></clipPath></defs><g clip-path="url(#19a81e0fbe)"><path fill="#000000" d="M 0.0351562 0 L 59.964844 0 L 59.964844 59.929688 L 0.0351562 59.929688 Z M 0.0351562 0 " fill-opacity="1" fill-rule="nonzero" data-index="3" style="visibility: hidden; opacity: 1; fill: rgb(121, 40, 202);"></path></g><g clip-path="url(#c3f05b16b1)"><path fill="#eef0ed" d="M 51.304688 29.585938 C 50.09375 26.402344 47.519531 23.597656 44.238281 21.894531 C 40.8125 20.113281 37.148438 19.761719 33.914062 20.902344 C 32.265625 21.484375 30.746094 22.335938 29.394531 23.425781 C 27.253906 22.089844 24.59375 21.3125 21.671875 21.175781 C 21.3125 21.160156 20.945312 21.164062 20.578125 21.1875 C 20.578125 21.1875 23.035156 14.457031 23.035156 14.453125 C 23.101562 14.257812 23.019531 14.042969 22.84375 13.9375 L 18.628906 11.472656 C 18.523438 11.410156 18.398438 11.394531 18.28125 11.429688 L 10.246094 13.898438 C 10.121094 13.9375 10.023438 14.027344 9.972656 14.148438 L 7.667969 19.714844 C 7.578125 19.929688 7.675781 20.179688 7.890625 20.277344 L 14.464844 23.300781 C 12.625 24.492188 11.070312 26.085938 10.039062 27.855469 C 8.253906 30.902344 7.972656 34.941406 9.28125 38.65625 C 10.582031 42.347656 13.316406 45.089844 16.972656 46.390625 C 18.523438 46.9375 20.164062 47.207031 21.796875 47.207031 C 24.652344 47.207031 27.472656 46.382812 29.707031 44.8125 C 32.191406 46.714844 35.582031 47.972656 38.996094 47.972656 C 41.6875 47.972656 44.398438 47.191406 46.683594 45.332031 C 48.949219 43.492188 50.667969 40.953125 51.519531 38.191406 C 52.414062 35.289062 52.339844 32.3125 51.304688 29.585938 Z M 15.375 22.757812 L 9.265625 19.949219 L 12.53125 19.160156 L 15.691406 22.585938 C 15.585938 22.640625 15.480469 22.699219 15.375 22.757812 Z M 15.132812 13.3125 L 17.679688 16.371094 L 13.164062 18.03125 L 13.46875 13.820312 Z M 16.519531 22.195312 L 13.441406 18.859375 L 17.972656 17.191406 L 17.972656 21.660156 C 17.484375 21.808594 17 21.984375 16.519531 22.195312 Z M 18.847656 16.832031 L 21.820312 15.246094 L 19.613281 21.289062 C 19.359375 21.328125 19.101562 21.375 18.847656 21.429688 Z M 18.355469 12.320312 L 21.734375 14.300781 L 18.515625 16.015625 L 16.035156 13.035156 Z M 10.699219 14.671875 L 12.574219 14.097656 L 12.265625 18.324219 L 8.84375 19.152344 Z M 17.265625 45.566406 C 13.859375 44.359375 11.316406 41.800781 10.105469 38.367188 C 8.878906 34.890625 9.136719 31.125 10.789062 28.292969 C 11.878906 26.433594 13.589844 24.773438 15.605469 23.625 C 15.925781 23.441406 16.257812 23.269531 16.59375 23.117188 C 17.226562 22.820312 17.875 22.582031 18.523438 22.40625 C 19.011719 22.273438 19.503906 22.175781 19.988281 22.117188 C 20.539062 22.046875 21.089844 22.023438 21.632812 22.046875 C 24.296875 22.171875 26.722656 22.851562 28.695312 24.019531 C 28.332031 24.347656 27.988281 24.695312 27.664062 25.058594 C 25.234375 23.480469 21.964844 22.90625 19.015625 23.554688 C 15.886719 24.25 13.277344 26.164062 12.035156 28.683594 C 10.800781 31.203125 10.515625 34.339844 11.28125 37.070312 C 12.347656 40.871094 14.71875 43.550781 17.796875 44.425781 C 18.984375 44.761719 20.199219 44.929688 21.402344 44.929688 C 22.945312 44.929688 24.464844 44.652344 25.871094 44.105469 C 26.671875 43.792969 27.4375 43.390625 28.148438 42.90625 C 28.15625 42.902344 28.164062 42.898438 28.171875 42.894531 C 28.273438 42.824219 28.375 42.75 28.480469 42.675781 C 28.929688 42.347656 29.359375 41.972656 29.753906 41.566406 C 30.464844 40.835938 31.105469 39.96875 31.714844 38.90625 C 34.070312 34.816406 32.476562 29.976562 29.933594 27.050781 C 30.28125 26.675781 30.660156 26.316406 31.0625 25.984375 C 31.078125 25.96875 31.09375 25.957031 31.113281 25.945312 C 31.839844 26.71875 32.441406 27.597656 32.902344 28.566406 C 34.628906 32.207031 34.441406 36.792969 32.410156 40.53125 C 31.984375 41.316406 31.460938 42.039062 30.855469 42.679688 C 30.484375 43.074219 30.074219 43.445312 29.636719 43.785156 C 29.578125 43.832031 29.523438 43.875 29.457031 43.921875 C 26.160156 46.378906 21.375 47.023438 17.265625 45.566406 Z M 24.878906 38.183594 C 25.332031 39.449219 25.992188 40.6875 26.839844 41.863281 C 26.980469 42.058594 27.125 42.246094 27.273438 42.429688 C 26.726562 42.765625 26.152344 43.058594 25.554688 43.289062 C 23.230469 44.199219 20.5625 44.300781 18.035156 43.585938 C 15.257812 42.796875 13.101562 40.335938 12.121094 36.835938 C 11.414062 34.304688 11.675781 31.402344 12.820312 29.070312 C 13.941406 26.785156 16.332031 25.042969 19.207031 24.410156 C 21.890625 23.816406 24.867188 24.320312 27.089844 25.726562 C 24.195312 29.347656 23.367188 33.96875 24.878906 38.183594 Z M 29.355469 27.71875 C 31.652344 30.421875 33.074219 34.796875 30.960938 38.472656 C 30.488281 39.289062 30 39.980469 29.476562 40.574219 C 28.007812 38.476562 27.15625 35.578125 27.28125 33.039062 C 27.371094 31.144531 28.089844 29.316406 29.355469 27.71875 Z M 31.804688 25.40625 C 34.648438 23.3125 37.480469 22.738281 40.679688 23.605469 C 43.925781 24.484375 46.664062 26.597656 48.003906 29.261719 C 50.5625 34.339844 49.046875 40.324219 44.476562 43.1875 C 38.773438 46.761719 34.21875 44.695312 31.8125 42.917969 C 32.332031 42.316406 32.792969 41.65625 33.175781 40.949219 C 35.339844 36.96875 35.535156 32.078125 33.6875 28.191406 C 33.199219 27.167969 32.566406 26.230469 31.804688 25.40625 Z M 46.132812 44.65625 C 41.375 48.523438 34.621094 47.359375 30.429688 44.269531 C 30.703125 44.042969 30.964844 43.804688 31.214844 43.558594 C 32.484375 44.511719 34.417969 45.609375 36.855469 45.925781 C 37.316406 45.984375 37.777344 46.015625 38.238281 46.015625 C 40.476562 46.015625 42.726562 45.316406 44.941406 43.925781 C 49.894531 40.824219 51.546875 34.351562 48.785156 28.867188 C 47.332031 25.984375 44.390625 23.703125 40.90625 22.761719 C 37.328125 21.792969 34.046875 22.527344 30.878906 25.011719 C 30.753906 25.109375 30.632812 25.207031 30.507812 25.308594 C 29.964844 25.757812 29.460938 26.246094 29.015625 26.761719 C 27.421875 28.59375 26.519531 30.75 26.410156 32.996094 C 26.273438 35.777344 27.230469 38.953125 28.867188 41.214844 C 28.59375 41.476562 28.300781 41.722656 28.003906 41.941406 C 27.847656 41.75 27.695312 41.554688 27.546875 41.351562 C 26.746094 40.242188 26.125 39.078125 25.699219 37.890625 C 24.21875 33.765625 25.082031 29.398438 28.066406 25.914062 C 28.5625 25.332031 29.113281 24.789062 29.703125 24.292969 C 31.039062 23.171875 32.550781 22.308594 34.203125 21.726562 C 40.285156 19.578125 48.046875 23.472656 50.488281 29.894531 C 52.40625 34.945312 50.613281 41.015625 46.132812 44.65625 Z M 46.132812 44.65625 " fill-opacity="1" fill-rule="nonzero" data-index="4" style="visibility: visible; opacity: 1;"></path></g></svg>