<svg xmlns="http://www.w3.org/2000/svg" xmlns:xlink="http://www.w3.org/1999/xlink" width="80" zoomAndPan="magnify" viewBox="0 0 60 67.92" height="80" preserveAspectRatio="xMidYMid meet" version="1.0"><defs><clipPath id="c990464740"><path d="M 0.0351562 0 L 59.964844 0 L 59.964844 59.929688 L 0.0351562 59.929688 Z M 0.0351562 0 " clip-rule="nonzero" data-index="0" style="visibility: visible;"></path></clipPath><clipPath id="e719b0d717"><path d="M 7.460938 14.75 L 52.410156 14.75 L 52.410156 45.464844 L 7.460938 45.464844 Z M 7.460938 14.75 " clip-rule="nonzero" data-index="1" style="visibility: visible;"></path></clipPath></defs><g clip-path="url(#c990464740)"><path fill="#a5c2b0" d="M 0.0351562 0 L 59.964844 0 L 59.964844 59.929688 L 0.0351562 59.929688 Z M 0.0351562 0 " fill-opacity="1" fill-rule="nonzero" data-index="3" style="visibility: hidden; opacity: 1; fill: rgb(121, 40, 202);"></path></g><g clip-path="url(#e719b0d717)"><path fill="#eef0ed" d="M 10.5625 45.175781 L 49.429688 45.175781 C 51.128906 45.175781 52.511719 43.792969 52.511719 42.09375 L 52.511719 21.898438 C 52.511719 20.199219 51.128906 18.816406 49.429688 18.816406 L 46.515625 18.816406 L 45.828125 16.832031 C 45.683594 16.410156 45.296875 16.136719 44.851562 16.136719 C 44.402344 16.136719 44.019531 16.410156 43.871094 16.832031 L 43.183594 18.816406 L 37.925781 18.816406 L 37.023438 16.160156 C 36.738281 15.316406 35.949219 14.75 35.058594 14.75 L 24.929688 14.75 C 24.042969 14.75 23.25 15.316406 22.964844 16.160156 L 22.0625 18.816406 L 16.226562 18.816406 L 16.226562 17.515625 C 16.226562 16.773438 15.621094 16.167969 14.878906 16.167969 L 12.054688 16.167969 C 11.308594 16.167969 10.707031 16.773438 10.707031 17.515625 L 10.707031 18.816406 L 10.5625 18.816406 C 8.859375 18.816406 7.476562 20.199219 7.476562 21.898438 L 7.476562 42.09375 C 7.476562 43.792969 8.859375 45.175781 10.5625 45.175781 Z M 51.824219 39.746094 L 38.207031 39.746094 C 40.117188 37.71875 41.289062 34.992188 41.289062 31.996094 C 41.289062 29.0625 40.164062 26.382812 38.324219 24.371094 L 43.269531 24.371094 L 43.871094 26.105469 C 44.019531 26.527344 44.402344 26.800781 44.851562 26.800781 C 45.296875 26.800781 45.683594 26.527344 45.828125 26.105469 L 46.429688 24.371094 L 51.824219 24.371094 Z M 29.996094 42.605469 C 24.144531 42.605469 19.382812 37.847656 19.382812 31.996094 C 19.382812 26.144531 24.144531 21.386719 29.996094 21.386719 C 35.84375 21.386719 40.605469 26.144531 40.605469 31.996094 C 40.605469 37.847656 35.84375 42.605469 29.996094 42.605469 Z M 49.429688 19.5 C 50.75 19.5 51.824219 20.578125 51.824219 21.898438 L 51.824219 23.6875 L 46.667969 23.6875 L 46.800781 23.304688 L 48.640625 22.398438 C 48.996094 22.222656 49.214844 21.867188 49.214844 21.46875 C 49.214844 21.070312 48.996094 20.714844 48.640625 20.539062 L 46.800781 19.632812 L 46.753906 19.5 Z M 43.328125 20.183594 C 43.410156 20.144531 43.472656 20.074219 43.5 19.988281 L 44.519531 17.054688 C 44.59375 16.835938 44.792969 16.820312 44.851562 16.820312 C 44.910156 16.820312 45.105469 16.835938 45.179688 17.054688 L 46.199219 19.988281 C 46.226562 20.074219 46.289062 20.144531 46.371094 20.183594 L 48.335938 21.15625 C 48.457031 21.214844 48.53125 21.332031 48.53125 21.46875 C 48.53125 21.605469 48.457031 21.722656 48.335938 21.785156 L 46.371094 22.753906 C 46.289062 22.792969 46.226562 22.863281 46.199219 22.949219 L 45.179688 25.882812 C 45.105469 26.101562 44.910156 26.117188 44.851562 26.117188 C 44.792969 26.117188 44.59375 26.101562 44.519531 25.882812 L 43.5 22.949219 C 43.472656 22.863281 43.410156 22.792969 43.328125 22.753906 L 41.363281 21.785156 C 41.242188 21.722656 41.167969 21.605469 41.167969 21.46875 C 41.167969 21.332031 41.242188 21.214844 41.363281 21.15625 Z M 23.613281 16.378906 C 23.804688 15.816406 24.335938 15.4375 24.929688 15.4375 L 35.058594 15.4375 C 35.652344 15.4375 36.183594 15.816406 36.375 16.378906 L 37.203125 18.816406 L 22.785156 18.816406 Z M 11.390625 17.515625 C 11.390625 17.148438 11.6875 16.851562 12.054688 16.851562 L 14.878906 16.851562 C 15.246094 16.851562 15.542969 17.148438 15.542969 17.515625 L 15.542969 18.816406 L 11.390625 18.816406 Z M 8.164062 21.898438 C 8.164062 20.578125 9.238281 19.5 10.5625 19.5 L 42.945312 19.5 L 42.902344 19.632812 L 41.0625 20.539062 C 40.703125 20.714844 40.484375 21.070312 40.484375 21.46875 C 40.484375 21.867188 40.703125 22.222656 41.0625 22.398438 L 42.902344 23.304688 L 43.03125 23.6875 L 37.640625 23.6875 C 35.625 21.835938 32.941406 20.699219 29.996094 20.699219 C 27.046875 20.699219 24.363281 21.835938 22.351562 23.6875 L 8.164062 23.6875 Z M 8.164062 24.371094 L 21.667969 24.371094 C 19.824219 26.382812 18.699219 29.0625 18.699219 31.996094 C 18.699219 34.992188 19.871094 37.71875 21.785156 39.746094 L 8.164062 39.746094 Z M 8.164062 40.429688 L 22.488281 40.429688 C 24.484375 42.207031 27.117188 43.292969 29.996094 43.292969 C 32.871094 43.292969 35.503906 42.207031 37.5 40.429688 L 51.824219 40.429688 L 51.824219 42.09375 C 51.824219 43.414062 50.75 44.488281 49.429688 44.488281 L 10.5625 44.488281 C 9.238281 44.488281 8.164062 43.414062 8.164062 42.09375 Z M 8.164062 40.429688 " fill-opacity="1" fill-rule="nonzero" data-index="4" style="visibility: visible;"></path></g><path fill="#eef0ed" d="M 29.996094 23.328125 C 25.214844 23.328125 21.324219 27.214844 21.324219 31.996094 C 21.324219 36.777344 25.214844 40.664062 29.996094 40.664062 C 34.773438 40.664062 38.664062 36.777344 38.664062 31.996094 C 38.664062 27.214844 34.773438 23.328125 29.996094 23.328125 Z M 29.996094 39.980469 C 25.59375 39.980469 22.011719 36.398438 22.011719 31.996094 C 22.011719 27.59375 25.59375 24.011719 29.996094 24.011719 C 34.398438 24.011719 37.976562 27.59375 37.976562 31.996094 C 37.976562 36.398438 34.398438 39.980469 29.996094 39.980469 Z M 29.996094 39.980469 " fill-opacity="1" fill-rule="nonzero" data-index="5" style="visibility: visible; opacity: 1;"></path><path fill="#eef0ed" d="M 32.667969 28.160156 C 32.039062 28.132812 31.390625 28.355469 30.789062 28.804688 C 30.398438 29.097656 30.058594 29.441406 29.792969 29.804688 C 29.527344 29.441406 29.1875 29.097656 28.796875 28.804688 C 28.199219 28.355469 27.546875 28.132812 26.921875 28.160156 C 25.523438 28.226562 24.363281 29.355469 24.21875 30.792969 C 23.984375 33.136719 25.785156 34.988281 27.335938 36.128906 C 27.691406 36.394531 28.074219 36.636719 28.460938 36.847656 C 28.792969 37.035156 29.070312 37.171875 29.351562 37.289062 C 29.492188 37.347656 29.640625 37.378906 29.792969 37.378906 C 29.796875 37.378906 29.804688 37.378906 29.808594 37.378906 C 29.957031 37.375 30.101562 37.347656 30.238281 37.289062 C 30.519531 37.171875 30.792969 37.035156 31.121094 36.851562 C 31.515625 36.636719 31.894531 36.394531 32.25 36.128906 C 33.800781 34.988281 35.601562 33.136719 35.367188 30.792969 C 35.222656 29.355469 34.0625 28.222656 32.667969 28.160156 Z M 31.847656 35.578125 C 31.511719 35.824219 31.160156 36.050781 30.789062 36.25 C 30.480469 36.425781 30.230469 36.550781 29.972656 36.65625 C 29.917969 36.679688 29.859375 36.691406 29.800781 36.695312 C 29.738281 36.695312 29.675781 36.683594 29.617188 36.65625 C 29.359375 36.550781 29.105469 36.425781 28.792969 36.25 C 28.429688 36.050781 28.074219 35.824219 27.742188 35.578125 C 26.332031 34.542969 24.699219 32.886719 24.902344 30.863281 C 25.007812 29.777344 25.910156 28.890625 26.953125 28.84375 C 26.976562 28.84375 27.003906 28.84375 27.03125 28.84375 C 27.585938 28.84375 28.074219 29.117188 28.386719 29.355469 C 28.738281 29.617188 29.042969 29.925781 29.273438 30.253906 C 29.394531 30.421875 29.585938 30.519531 29.796875 30.519531 C 30.003906 30.519531 30.195312 30.417969 30.316406 30.25 C 30.542969 29.925781 30.847656 29.617188 31.199219 29.355469 C 31.527344 29.105469 32.046875 28.816406 32.632812 28.84375 C 33.675781 28.890625 34.578125 29.777344 34.683594 30.863281 C 34.886719 32.886719 33.253906 34.542969 31.847656 35.578125 Z M 31.847656 35.578125 " fill-opacity="1" fill-rule="nonzero" data-index="6" style="visibility: visible;"></path></svg>