<svg xmlns="http://www.w3.org/2000/svg" xmlns:xlink="http://www.w3.org/1999/xlink" width="80" zoomAndPan="magnify" viewBox="0 0 60 67.92" height="80" preserveAspectRatio="xMidYMid meet" version="1.0"><defs><clipPath id="fa314fad05"><path d="M 0.0351562 0 L 59.964844 0 L 59.964844 59.929688 L 0.0351562 59.929688 Z M 0.0351562 0 " clip-rule="nonzero" data-index="0" style="visibility: visible;"></path></clipPath><clipPath id="03fea44a45"><path d="M 45 13.238281 L 50 13.238281 L 50 46.949219 L 45 46.949219 Z M 45 13.238281 " clip-rule="nonzero" data-index="1"></path></clipPath><clipPath id="ac4d72f868"><path d="M 9.445312 14 L 15 14 L 15 46.949219 L 9.445312 46.949219 Z M 9.445312 14 " clip-rule="nonzero" data-index="2" style="visibility: visible;"></path></clipPath><clipPath id="02f69d405b"><path d="M 49 29 L 50.644531 29 L 50.644531 30 L 49 30 Z M 49 29 " clip-rule="nonzero" data-index="3"></path></clipPath><clipPath id="a208dff2cc"><path d="M 49 32 L 50.644531 32 L 50.644531 34 L 49 34 Z M 49 32 " clip-rule="nonzero" data-index="4"></path></clipPath><clipPath id="1b8a0a218f"><path d="M 38 13.238281 L 42 13.238281 L 42 17 L 38 17 Z M 38 13.238281 " clip-rule="nonzero" data-index="5" style="visibility: visible;"></path></clipPath><clipPath id="ea5233faaf"><path d="M 35 13.238281 L 37 13.238281 L 37 15 L 35 15 Z M 35 13.238281 " clip-rule="nonzero" data-index="6" style="visibility: visible;"></path></clipPath></defs><g clip-path="url(#fa314fad05)"><path fill="#a5c2b0" d="M 0.0351562 0 L 59.964844 0 L 59.964844 59.929688 L 0.0351562 59.929688 Z M 0.0351562 0 " fill-opacity="1" fill-rule="nonzero" data-index="8" style="visibility: hidden; opacity: 1; fill: rgb(121, 40, 202);"></path></g><g clip-path="url(#03fea44a45)"><path fill="#eef0ed" d="M 48.691406 13.324219 C 48.667969 13.351562 48.644531 13.375 48.621094 13.402344 C 48.609375 13.410156 48.605469 13.421875 48.59375 13.429688 C 48.578125 13.449219 48.5625 13.464844 48.546875 13.484375 C 48.539062 13.496094 48.527344 13.507812 48.519531 13.519531 C 48.503906 13.535156 48.492188 13.550781 48.476562 13.570312 C 48.46875 13.582031 48.457031 13.59375 48.449219 13.605469 C 48.433594 13.625 48.421875 13.640625 48.40625 13.660156 C 48.398438 13.671875 48.386719 13.683594 48.378906 13.695312 C 48.367188 13.710938 48.351562 13.730469 48.339844 13.75 C 48.328125 13.761719 48.320312 13.773438 48.3125 13.785156 C 48.296875 13.800781 48.285156 13.820312 48.269531 13.839844 C 48.261719 13.851562 48.257812 13.859375 48.25 13.871094 C 48.234375 13.890625 48.21875 13.910156 48.207031 13.929688 C 48.199219 13.941406 48.195312 13.949219 48.1875 13.960938 C 48.171875 13.980469 48.160156 14 48.144531 14.019531 C 48.144531 14.023438 48.140625 14.023438 48.140625 14.027344 C 47.988281 14.246094 47.867188 14.445312 47.808594 14.539062 C 45.609375 18.566406 44.785156 23.351562 45.292969 27.898438 C 45.5 29.460938 45.910156 30.992188 46.46875 32.464844 C 46.613281 32.847656 46.765625 33.226562 46.921875 33.605469 C 46.796875 34.960938 46.683594 36.316406 46.574219 37.671875 C 46.429688 39.433594 46.289062 41.195312 46.25 42.957031 C 46.304688 44.085938 46.066406 46.089844 47.402344 46.527344 C 49.234375 46.683594 48.941406 44.039062 49.015625 42.828125 C 49.035156 38.558594 48.664062 34.304688 48.621094 30.039062 C 48.511719 24.472656 48.535156 18.890625 48.691406 13.324219 Z M 48.367188 45.128906 C 48.246094 46.085938 47.289062 46.460938 46.960938 45.394531 C 46.546875 43.667969 46.820312 41.855469 46.886719 40.101562 C 47.050781 37.910156 47.226562 35.71875 47.429688 33.527344 C 47.363281 33.367188 47.296875 33.203125 47.230469 33.039062 C 47.1875 32.941406 47.148438 32.84375 47.109375 32.746094 C 47.097656 32.714844 47.085938 32.6875 47.078125 32.65625 C 46.785156 31.925781 46.535156 31.203125 46.320312 30.421875 C 45.039062 25.859375 45.644531 20.894531 47.378906 16.53125 C 47.605469 16.011719 47.839844 15.492188 48.117188 14.996094 C 48.097656 21.21875 47.964844 27.441406 48.21875 33.660156 C 48.304688 37.476562 48.78125 41.324219 48.367188 45.128906 Z M 48.367188 45.128906 " fill-opacity="1" fill-rule="nonzero" data-index="9"></path></g><g clip-path="url(#ac4d72f868)"><path fill="#eef0ed" d="M 14.09375 15.066406 C 14.015625 14.820312 14 14.199219 13.769531 14.101562 C 13.578125 14.011719 13.351562 14.226562 13.441406 14.421875 C 13.46875 14.507812 13.484375 14.59375 13.503906 14.679688 C 13.851562 16.304688 14 17.96875 14.136719 19.621094 C 14.210938 21.25 14.324219 23.074219 13.375 24.488281 C 13.21875 24.71875 13.050781 24.941406 12.878906 25.148438 C 12.839844 25.199219 12.800781 25.246094 12.761719 25.292969 C 12.75 25.308594 12.738281 25.320312 12.726562 25.335938 C 12.683594 25.382812 12.640625 25.433594 12.601562 25.480469 C 12.601562 25.480469 12.597656 25.480469 12.597656 25.484375 C 12.585938 25.5 12.570312 25.515625 12.554688 25.535156 C 12.570312 25.695312 12.582031 25.855469 12.59375 26.019531 C 12.660156 26.953125 12.695312 27.890625 12.730469 28.828125 C 12.695312 30.761719 13.902344 45.824219 12.089844 45.585938 C 10.324219 44.28125 11.230469 31.828125 11.296875 29.125 C 11.363281 28.105469 11.457031 27.089844 11.566406 26.078125 L 11.566406 26.074219 C 11.582031 25.925781 11.597656 25.773438 11.617188 25.621094 C 11.585938 25.589844 11.554688 25.558594 11.53125 25.523438 C 11.5 25.488281 11.46875 25.453125 11.4375 25.417969 C 11.425781 25.402344 11.414062 25.390625 11.402344 25.378906 C 11.382812 25.355469 11.363281 25.328125 11.34375 25.304688 C 11.328125 25.289062 11.316406 25.273438 11.304688 25.257812 C 11.285156 25.234375 11.265625 25.214844 11.246094 25.191406 C 11.234375 25.175781 11.21875 25.15625 11.207031 25.140625 C 11.050781 24.945312 10.898438 24.742188 10.753906 24.53125 C 9.808594 23.117188 9.917969 21.292969 9.992188 19.664062 C 10.128906 18.011719 10.277344 16.347656 10.625 14.722656 C 10.644531 14.636719 10.660156 14.550781 10.6875 14.464844 C 10.777344 14.269531 10.550781 14.054688 10.359375 14.140625 C 10.128906 14.242188 10.113281 14.863281 10.035156 15.109375 C 9.691406 17.148438 9.445312 19.222656 9.449219 21.292969 C 9.460938 23.203125 9.867188 24.417969 11.097656 25.792969 C 10.625 30.199219 10.527344 34.644531 10.53125 39.074219 C 10.652344 40.527344 10.390625 45.773438 12.082031 46.089844 C 13.925781 46.242188 13.46875 40.699219 13.558594 39.40625 C 13.523438 34.914062 13.320312 30.425781 13.085938 25.941406 C 13.082031 25.867188 13.074219 25.789062 13.066406 25.710938 C 14.269531 24.355469 14.667969 23.140625 14.679688 21.25 C 14.683594 19.179688 14.4375 17.105469 14.09375 15.066406 Z M 14.09375 15.066406 " fill-opacity="1" fill-rule="nonzero" data-index="10" style="visibility: visible;"></path></g><path fill="#eef0ed" d="M 11.398438 22.972656 C 11.398438 22.972656 11.398438 22.972656 11.402344 22.972656 C 11.535156 22.972656 11.648438 22.859375 11.648438 22.722656 C 11.65625 22.289062 11.65625 21.855469 11.660156 21.421875 C 11.664062 20.636719 11.671875 19.851562 11.679688 19.070312 C 11.683594 18.230469 11.691406 17.390625 11.695312 16.550781 C 11.699219 16.164062 11.703125 15.777344 11.707031 15.390625 C 11.707031 15.085938 11.710938 14.78125 11.710938 14.476562 C 11.710938 14.339844 11.601562 14.226562 11.464844 14.226562 C 11.328125 14.222656 11.214844 14.335938 11.214844 14.472656 C 11.214844 15.140625 11.203125 15.8125 11.199219 16.480469 C 11.191406 17.320312 11.1875 18.164062 11.179688 19.003906 C 11.175781 19.785156 11.167969 20.566406 11.164062 21.347656 C 11.160156 21.804688 11.15625 22.261719 11.152344 22.71875 C 11.148438 22.855469 11.265625 22.96875 11.398438 22.972656 Z M 11.398438 22.972656 " fill-opacity="1" fill-rule="nonzero" data-index="11" style="visibility: visible;"></path><path fill="#eef0ed" d="M 12.609375 22.972656 C 12.746094 22.972656 12.855469 22.859375 12.859375 22.722656 C 12.863281 22.289062 12.867188 21.855469 12.867188 21.421875 C 12.875 20.636719 12.882812 19.851562 12.886719 19.070312 C 12.894531 18.230469 12.898438 17.390625 12.90625 16.550781 C 12.910156 16.164062 12.910156 15.777344 12.914062 15.390625 C 12.917969 15.085938 12.921875 14.78125 12.921875 14.476562 C 12.921875 14.339844 12.808594 14.226562 12.671875 14.226562 C 12.539062 14.222656 12.421875 14.335938 12.421875 14.472656 C 12.421875 15.140625 12.414062 15.8125 12.40625 16.480469 C 12.402344 17.320312 12.394531 18.164062 12.386719 19.003906 C 12.382812 19.785156 12.378906 20.566406 12.371094 21.347656 C 12.367188 21.804688 12.367188 22.261719 12.359375 22.71875 C 12.359375 22.855469 12.472656 22.96875 12.609375 22.972656 Z M 12.609375 22.972656 " fill-opacity="1" fill-rule="nonzero" data-index="12" style="visibility: visible;"></path><path fill="#eef0ed" d="M 42.824219 26.839844 C 42.738281 26.261719 42.605469 25.691406 42.445312 25.128906 C 42.292969 24.59375 42.101562 24.070312 41.886719 23.554688 C 41.78125 23.304688 41.664062 23.054688 41.539062 22.8125 C 41.410156 22.554688 41.277344 22.304688 41.132812 22.058594 C 40.550781 21.070312 39.859375 20.148438 39.054688 19.335938 C 38.660156 18.941406 38.246094 18.5625 37.804688 18.21875 C 37.351562 17.863281 36.878906 17.535156 36.390625 17.238281 C 35.910156 16.945312 35.410156 16.6875 34.898438 16.460938 C 34.378906 16.230469 33.847656 16.027344 33.304688 15.863281 C 33.03125 15.78125 32.753906 15.707031 32.476562 15.640625 C 32.195312 15.574219 31.910156 15.519531 31.625 15.46875 C 31.0625 15.371094 30.496094 15.316406 29.925781 15.289062 C 29.371094 15.261719 28.8125 15.277344 28.257812 15.320312 C 27.695312 15.359375 27.128906 15.441406 26.574219 15.558594 C 26.546875 15.5625 26.496094 15.574219 26.441406 15.585938 C 25.910156 15.699219 25.359375 15.859375 24.8125 16.046875 C 23.734375 16.421875 22.707031 16.945312 21.757812 17.574219 C 21.285156 17.890625 20.832031 18.234375 20.402344 18.609375 C 19.976562 18.976562 19.570312 19.371094 19.195312 19.792969 C 18.453125 20.625 17.808594 21.539062 17.285156 22.523438 C 17.027344 23.003906 16.800781 23.503906 16.605469 24.011719 C 16.480469 24.335938 16.371094 24.664062 16.269531 24.992188 C 16.265625 25 16.265625 25.003906 16.265625 25.007812 C 16.261719 25.015625 16.261719 25.023438 16.257812 25.03125 C 16.257812 25.035156 16.253906 25.035156 16.253906 25.039062 C 16.253906 25.042969 16.253906 25.050781 16.25 25.054688 C 16.25 25.058594 16.25 25.0625 16.246094 25.066406 C 16.246094 25.070312 16.246094 25.070312 16.246094 25.074219 C 15.949219 26.078125 15.773438 27.117188 15.714844 28.164062 C 15.648438 29.265625 15.726562 30.375 15.929688 31.457031 C 16.136719 32.550781 16.480469 33.613281 16.941406 34.625 C 17.175781 35.132812 17.4375 35.628906 17.734375 36.101562 C 17.808594 36.21875 17.882812 36.335938 17.957031 36.449219 C 17.984375 36.492188 18.011719 36.539062 18.046875 36.582031 C 18.046875 36.582031 18.046875 36.582031 18.046875 36.585938 C 18.050781 36.585938 18.050781 36.585938 18.050781 36.589844 C 18.054688 36.597656 18.0625 36.601562 18.066406 36.609375 C 18.066406 36.613281 18.070312 36.613281 18.070312 36.617188 C 18.089844 36.644531 18.109375 36.675781 18.128906 36.703125 C 18.167969 36.757812 18.203125 36.808594 18.242188 36.863281 C 18.40625 37.085938 18.574219 37.308594 18.746094 37.523438 C 19.097656 37.964844 19.484375 38.378906 19.890625 38.769531 C 20.695312 39.539062 21.597656 40.21875 22.566406 40.769531 C 23.058594 41.046875 23.566406 41.296875 24.089844 41.515625 C 24.605469 41.730469 25.136719 41.914062 25.671875 42.066406 C 26.78125 42.378906 27.929688 42.535156 29.082031 42.5625 C 29.171875 42.566406 29.261719 42.566406 29.351562 42.566406 C 29.824219 42.566406 30.300781 42.539062 30.773438 42.492188 C 31.328125 42.433594 31.882812 42.339844 32.429688 42.210938 C 32.984375 42.082031 33.53125 41.917969 34.070312 41.71875 C 34.605469 41.519531 35.128906 41.285156 35.640625 41.023438 C 36.132812 40.769531 36.613281 40.480469 37.066406 40.164062 C 37.53125 39.84375 37.976562 39.5 38.394531 39.125 C 39.238281 38.375 40 37.523438 40.628906 36.585938 C 40.765625 36.382812 40.917969 36.148438 41.058594 35.910156 C 41.199219 35.671875 41.332031 35.429688 41.460938 35.183594 C 41.722656 34.683594 41.949219 34.160156 42.144531 33.628906 C 42.339844 33.097656 42.507812 32.550781 42.632812 31.996094 C 42.761719 31.429688 42.859375 30.851562 42.917969 30.273438 C 42.972656 29.707031 43 29.136719 42.980469 28.566406 C 42.960938 27.988281 42.910156 27.414062 42.824219 26.839844 Z M 42.464844 29.667969 C 42.445312 29.953125 42.421875 30.238281 42.386719 30.523438 C 42.351562 30.816406 42.304688 31.109375 42.25 31.398438 C 42.195312 31.683594 42.132812 31.964844 42.058594 32.242188 C 41.984375 32.527344 41.898438 32.8125 41.808594 33.09375 C 41.707031 33.386719 41.601562 33.675781 41.484375 33.960938 C 41.363281 34.242188 41.238281 34.519531 41.101562 34.792969 C 40.855469 35.28125 40.582031 35.757812 40.277344 36.214844 C 40.253906 36.25 40.226562 36.292969 40.195312 36.339844 C 40.054688 36.542969 39.890625 36.769531 39.71875 36.992188 C 39.550781 37.203125 39.378906 37.410156 39.203125 37.613281 C 38.832031 38.027344 38.441406 38.421875 38.027344 38.789062 C 37.625 39.140625 37.203125 39.46875 36.761719 39.773438 C 36.308594 40.082031 35.808594 40.378906 35.289062 40.644531 C 35.035156 40.773438 34.777344 40.894531 34.511719 41.007812 C 34.230469 41.128906 33.949219 41.238281 33.660156 41.339844 C 33.398438 41.429688 33.136719 41.511719 32.871094 41.585938 C 32.625 41.65625 32.375 41.714844 32.125 41.769531 C 31.828125 41.832031 31.53125 41.890625 31.230469 41.933594 C 30.925781 41.976562 30.621094 42.007812 30.316406 42.03125 C 30.023438 42.054688 29.726562 42.066406 29.433594 42.070312 C 29.132812 42.070312 28.832031 42.0625 28.53125 42.042969 C 28.234375 42.023438 27.9375 41.996094 27.640625 41.957031 C 27.351562 41.921875 27.0625 41.871094 26.777344 41.816406 C 26.496094 41.761719 26.21875 41.699219 25.941406 41.625 C 25.675781 41.550781 25.410156 41.46875 25.144531 41.382812 C 24.863281 41.285156 24.585938 41.183594 24.3125 41.070312 C 24.03125 40.953125 23.753906 40.824219 23.476562 40.691406 C 22.972656 40.4375 22.488281 40.15625 22.019531 39.84375 C 21.550781 39.527344 21.105469 39.183594 20.675781 38.8125 C 20.253906 38.441406 19.859375 38.042969 19.484375 37.625 C 19.304688 37.417969 19.128906 37.210938 18.960938 36.996094 C 18.796875 36.78125 18.640625 36.566406 18.488281 36.34375 C 18.480469 36.332031 18.46875 36.320312 18.460938 36.304688 C 18.460938 36.304688 18.457031 36.304688 18.457031 36.300781 C 18.449219 36.292969 18.445312 36.28125 18.4375 36.269531 C 18.4375 36.269531 18.433594 36.269531 18.433594 36.269531 C 18.125 35.800781 17.84375 35.320312 17.589844 34.820312 C 17.339844 34.320312 17.121094 33.804688 16.933594 33.277344 C 16.75 32.742188 16.59375 32.195312 16.476562 31.640625 C 16.359375 31.074219 16.277344 30.503906 16.230469 29.929688 C 16.1875 29.332031 16.179688 28.734375 16.214844 28.136719 C 16.25 27.558594 16.324219 26.984375 16.433594 26.414062 C 16.511719 26.003906 16.613281 25.601562 16.726562 25.203125 C 16.726562 25.203125 16.726562 25.199219 16.730469 25.199219 C 16.734375 25.183594 16.738281 25.167969 16.742188 25.152344 C 16.792969 24.992188 16.839844 24.832031 16.894531 24.675781 C 17.085938 24.125 17.308594 23.585938 17.566406 23.066406 C 17.816406 22.570312 18.089844 22.097656 18.394531 21.636719 C 18.710938 21.164062 19.058594 20.710938 19.429688 20.28125 C 19.625 20.058594 19.824219 19.84375 20.035156 19.632812 C 20.234375 19.429688 20.445312 19.234375 20.660156 19.042969 C 20.878906 18.851562 21.101562 18.667969 21.332031 18.492188 C 21.550781 18.324219 21.773438 18.167969 21.996094 18.015625 C 22.222656 17.867188 22.445312 17.722656 22.675781 17.585938 C 22.902344 17.453125 23.128906 17.328125 23.363281 17.210938 C 23.625 17.078125 23.886719 16.957031 24.15625 16.839844 C 24.421875 16.722656 24.691406 16.621094 24.964844 16.523438 C 25.222656 16.433594 25.480469 16.347656 25.746094 16.273438 C 26.015625 16.199219 26.289062 16.132812 26.5625 16.070312 L 26.574219 16.066406 C 26.613281 16.058594 26.660156 16.050781 26.710938 16.039062 C 27.21875 15.929688 27.75 15.863281 28.28125 15.816406 C 28.582031 15.792969 28.878906 15.78125 29.179688 15.773438 C 29.472656 15.769531 29.765625 15.777344 30.058594 15.792969 C 30.359375 15.8125 30.664062 15.835938 30.964844 15.875 C 31.265625 15.914062 31.566406 15.960938 31.867188 16.019531 C 32.152344 16.074219 32.433594 16.136719 32.714844 16.214844 C 32.984375 16.289062 33.253906 16.367188 33.519531 16.457031 C 33.792969 16.550781 34.0625 16.648438 34.328125 16.757812 C 34.59375 16.867188 34.855469 16.984375 35.117188 17.109375 C 35.375 17.238281 35.628906 17.375 35.882812 17.519531 C 36.136719 17.660156 36.382812 17.816406 36.625 17.976562 C 36.855469 18.132812 37.078125 18.289062 37.296875 18.457031 C 37.53125 18.632812 37.757812 18.816406 37.976562 19.007812 C 38.179688 19.1875 38.378906 19.367188 38.566406 19.554688 C 38.773438 19.761719 38.972656 19.96875 39.164062 20.183594 C 39.542969 20.613281 39.894531 21.0625 40.214844 21.535156 C 40.382812 21.78125 40.542969 22.035156 40.691406 22.292969 C 40.835938 22.535156 40.96875 22.789062 41.097656 23.039062 C 41.34375 23.535156 41.558594 24.042969 41.746094 24.566406 C 41.835938 24.828125 41.917969 25.089844 41.996094 25.355469 C 42.070312 25.621094 42.132812 25.886719 42.191406 26.152344 C 42.253906 26.453125 42.308594 26.753906 42.355469 27.058594 C 42.398438 27.34375 42.425781 27.632812 42.449219 27.921875 C 42.46875 28.207031 42.484375 28.492188 42.484375 28.777344 C 42.488281 29.074219 42.480469 29.371094 42.464844 29.667969 Z M 42.464844 29.667969 " fill-opacity="1" fill-rule="nonzero" data-index="13" style="visibility: visible;"></path><path fill="#eef0ed" d="M 38.335938 27.160156 C 38.292969 26.941406 38.238281 26.722656 38.179688 26.507812 C 38.058594 26.082031 37.90625 25.667969 37.726562 25.261719 C 37.367188 24.445312 36.886719 23.679688 36.304688 23 C 35.726562 22.328125 35.058594 21.734375 34.3125 21.25 C 33.574219 20.769531 32.761719 20.386719 31.917969 20.132812 C 31.074219 19.882812 30.195312 19.738281 29.320312 19.738281 C 28.855469 19.734375 28.398438 19.765625 27.941406 19.824219 C 27.503906 19.882812 27.070312 19.972656 26.652344 20.101562 C 26.222656 20.226562 25.800781 20.378906 25.390625 20.5625 C 25.195312 20.652344 25.003906 20.746094 24.816406 20.847656 C 24.722656 20.898438 24.628906 20.949219 24.535156 21.003906 C 24.488281 21.03125 24.445312 21.058594 24.398438 21.085938 C 24.375 21.101562 24.347656 21.117188 24.324219 21.132812 C 24.320312 21.132812 24.320312 21.136719 24.316406 21.136719 C 24.289062 21.152344 24.261719 21.171875 24.234375 21.191406 C 24.050781 21.304688 23.875 21.425781 23.703125 21.550781 C 23.355469 21.808594 23.027344 22.085938 22.71875 22.386719 C 22.304688 22.792969 21.921875 23.238281 21.59375 23.714844 C 21.585938 23.726562 21.582031 23.738281 21.574219 23.746094 C 21.574219 23.746094 21.570312 23.75 21.570312 23.75 C 21.570312 23.75 21.566406 23.753906 21.566406 23.757812 C 21.308594 24.132812 21.078125 24.523438 20.878906 24.933594 C 20.683594 25.335938 20.511719 25.75 20.375 26.175781 C 20.335938 26.289062 20.300781 26.398438 20.273438 26.511719 C 20.257812 26.566406 20.242188 26.621094 20.226562 26.675781 C 20.21875 26.710938 20.207031 26.75 20.199219 26.789062 C 20.195312 26.808594 20.1875 26.828125 20.183594 26.847656 C 20.183594 26.855469 20.179688 26.863281 20.179688 26.875 C 20.089844 27.230469 20.023438 27.597656 19.984375 27.964844 C 19.945312 28.339844 19.917969 28.71875 19.921875 29.097656 C 19.929688 29.546875 19.957031 29.996094 20.027344 30.4375 C 20.066406 30.671875 20.109375 30.90625 20.160156 31.136719 C 20.210938 31.351562 20.269531 31.5625 20.332031 31.773438 C 20.597656 32.644531 20.996094 33.472656 21.5 34.226562 C 21.753906 34.605469 22.039062 34.960938 22.34375 35.300781 C 22.484375 35.457031 22.636719 35.613281 22.792969 35.761719 C 22.953125 35.914062 23.117188 36.0625 23.292969 36.207031 C 23.976562 36.765625 24.730469 37.238281 25.542969 37.585938 C 26.371094 37.9375 27.242188 38.171875 28.136719 38.28125 C 28.492188 38.320312 28.847656 38.34375 29.203125 38.34375 C 29.296875 38.34375 29.390625 38.34375 29.484375 38.339844 C 29.707031 38.332031 29.929688 38.320312 30.152344 38.296875 C 30.386719 38.273438 30.625 38.238281 30.859375 38.199219 C 31.066406 38.164062 31.273438 38.121094 31.476562 38.066406 C 31.699219 38.007812 31.917969 37.949219 32.136719 37.875 C 32.574219 37.730469 33 37.554688 33.414062 37.347656 C 33.8125 37.144531 34.203125 36.914062 34.570312 36.65625 C 34.949219 36.386719 35.304688 36.09375 35.640625 35.777344 C 36.296875 35.160156 36.859375 34.433594 37.304688 33.652344 C 37.527344 33.261719 37.730469 32.851562 37.890625 32.429688 C 37.96875 32.21875 38.046875 32.007812 38.113281 31.792969 C 38.179688 31.582031 38.234375 31.367188 38.285156 31.148438 C 38.335938 30.945312 38.378906 30.734375 38.410156 30.527344 C 38.476562 30.078125 38.523438 29.625 38.527344 29.171875 C 38.53125 28.730469 38.511719 28.285156 38.453125 27.84375 C 38.421875 27.617188 38.382812 27.386719 38.335938 27.160156 Z M 38.023438 29.382812 C 38.015625 29.570312 38.003906 29.753906 37.984375 29.9375 C 37.964844 30.117188 37.945312 30.296875 37.914062 30.476562 C 37.878906 30.664062 37.84375 30.847656 37.800781 31.035156 C 37.789062 31.09375 37.773438 31.152344 37.757812 31.210938 C 37.671875 31.566406 37.550781 31.917969 37.421875 32.261719 C 37.277344 32.621094 37.113281 32.96875 36.925781 33.308594 C 36.835938 33.46875 36.746094 33.628906 36.644531 33.78125 C 36.542969 33.9375 36.4375 34.09375 36.328125 34.242188 C 36.210938 34.402344 36.09375 34.558594 35.964844 34.707031 C 35.839844 34.851562 35.710938 34.996094 35.582031 35.132812 C 35.453125 35.265625 35.324219 35.390625 35.191406 35.515625 C 35.066406 35.632812 34.9375 35.742188 34.804688 35.851562 C 34.667969 35.964844 34.527344 36.074219 34.382812 36.175781 C 34.226562 36.285156 34.070312 36.390625 33.914062 36.496094 C 33.742188 36.597656 33.574219 36.699219 33.398438 36.792969 C 33.214844 36.890625 33.03125 36.980469 32.84375 37.070312 C 32.652344 37.152344 32.460938 37.230469 32.269531 37.304688 C 32.101562 37.367188 31.933594 37.417969 31.761719 37.472656 C 31.570312 37.527344 31.375 37.578125 31.179688 37.625 C 31.003906 37.667969 30.824219 37.699219 30.640625 37.730469 C 30.449219 37.761719 30.257812 37.789062 30.0625 37.804688 C 29.859375 37.824219 29.660156 37.835938 29.457031 37.84375 C 29.25 37.847656 29.046875 37.847656 28.839844 37.835938 C 28.648438 37.828125 28.453125 37.8125 28.261719 37.792969 C 28.070312 37.769531 27.878906 37.746094 27.691406 37.710938 C 27.496094 37.675781 27.300781 37.632812 27.105469 37.585938 C 26.917969 37.539062 26.730469 37.484375 26.546875 37.429688 C 26.371094 37.371094 26.199219 37.308594 26.027344 37.246094 C 25.855469 37.175781 25.683594 37.105469 25.511719 37.023438 C 25.328125 36.9375 25.148438 36.847656 24.972656 36.75 C 24.804688 36.65625 24.640625 36.558594 24.480469 36.457031 C 24.316406 36.351562 24.15625 36.242188 24 36.125 C 23.691406 35.894531 23.398438 35.648438 23.117188 35.382812 C 22.878906 35.148438 22.652344 34.90625 22.4375 34.648438 C 22.320312 34.503906 22.203125 34.355469 22.09375 34.203125 C 21.984375 34.050781 21.878906 33.894531 21.777344 33.734375 C 21.664062 33.554688 21.558594 33.371094 21.457031 33.1875 C 21.359375 33.011719 21.273438 32.828125 21.191406 32.644531 C 21.046875 32.3125 20.917969 31.976562 20.808594 31.632812 C 20.699219 31.261719 20.609375 30.890625 20.542969 30.507812 C 20.511719 30.316406 20.484375 30.128906 20.464844 29.933594 C 20.445312 29.730469 20.433594 29.527344 20.425781 29.324219 C 20.417969 29.128906 20.417969 28.9375 20.425781 28.746094 C 20.433594 28.539062 20.449219 28.332031 20.464844 28.128906 C 20.507812 27.746094 20.570312 27.367188 20.660156 26.996094 C 20.671875 26.960938 20.679688 26.921875 20.6875 26.886719 C 20.777344 26.515625 20.898438 26.160156 21.035156 25.804688 C 21.109375 25.621094 21.191406 25.4375 21.277344 25.253906 C 21.355469 25.085938 21.441406 24.921875 21.53125 24.761719 C 21.671875 24.507812 21.824219 24.261719 21.988281 24.023438 C 21.988281 24.023438 21.988281 24.019531 21.992188 24.019531 C 21.992188 24.015625 21.992188 24.015625 21.996094 24.011719 C 21.996094 24.011719 22 24.007812 22 24.003906 C 22.042969 23.949219 22.082031 23.890625 22.121094 23.835938 C 22.339844 23.535156 22.578125 23.25 22.835938 22.980469 C 23.09375 22.707031 23.371094 22.453125 23.660156 22.214844 C 23.894531 22.023438 24.136719 21.84375 24.390625 21.679688 C 24.453125 21.640625 24.515625 21.601562 24.578125 21.558594 C 24.585938 21.554688 24.597656 21.546875 24.609375 21.542969 C 24.910156 21.359375 25.222656 21.191406 25.542969 21.039062 C 25.90625 20.875 26.277344 20.734375 26.660156 20.617188 C 27.023438 20.507812 27.390625 20.421875 27.761719 20.355469 C 27.960938 20.324219 28.15625 20.296875 28.355469 20.277344 C 28.5625 20.257812 28.773438 20.246094 28.980469 20.238281 C 29.367188 20.230469 29.75 20.242188 30.132812 20.28125 C 30.53125 20.324219 30.921875 20.394531 31.3125 20.484375 C 31.683594 20.578125 32.042969 20.691406 32.398438 20.824219 C 32.777344 20.976562 33.140625 21.144531 33.496094 21.339844 C 33.820312 21.523438 34.132812 21.722656 34.4375 21.941406 C 34.734375 22.164062 35.019531 22.402344 35.289062 22.65625 C 35.421875 22.78125 35.550781 22.910156 35.675781 23.042969 C 35.796875 23.175781 35.914062 23.3125 36.03125 23.449219 C 36.261719 23.738281 36.480469 24.039062 36.679688 24.351562 C 36.785156 24.523438 36.890625 24.699219 36.984375 24.875 C 37.078125 25.050781 37.164062 25.230469 37.25 25.410156 C 37.398438 25.75 37.53125 26.097656 37.644531 26.457031 C 37.757812 26.84375 37.851562 27.234375 37.917969 27.632812 C 37.949219 27.828125 37.976562 28.027344 37.992188 28.222656 C 38.011719 28.425781 38.023438 28.628906 38.027344 28.828125 C 38.03125 29.015625 38.035156 29.199219 38.023438 29.382812 Z M 38.023438 29.382812 " fill-opacity="1" fill-rule="nonzero" data-index="14"></path><path fill="#eef0ed" d="M 33.972656 26.171875 C 33.066406 25.855469 32.09375 26.210938 31.347656 26.753906 C 31.105469 26.203125 30.6875 25.726562 30.164062 25.53125 C 29.15625 25.1875 28.265625 26.039062 28.074219 26.984375 C 27.757812 28.179688 28.152344 29.414062 28.6875 30.484375 C 28.90625 30.953125 29.125 31.421875 29.351562 31.882812 C 29.417969 32.023438 29.488281 32.160156 29.558594 32.300781 C 29.5625 32.3125 29.566406 32.320312 29.574219 32.332031 C 29.683594 32.292969 29.796875 32.25 29.90625 32.207031 C 30.121094 32.125 30.335938 32.039062 30.554688 31.957031 C 31.597656 31.5625 32.640625 31.125 33.527344 30.425781 C 34.121094 29.96875 34.660156 29.394531 34.945312 28.691406 C 35.332031 27.765625 34.980469 26.507812 33.972656 26.171875 Z M 31.519531 31.027344 C 30.960938 31.273438 30.390625 31.488281 29.820312 31.703125 C 29.527344 31.113281 29.246094 30.507812 28.976562 29.917969 C 28.484375 28.878906 28.203125 27.578125 28.792969 26.523438 C 29.542969 25.410156 30.566406 26.085938 30.949219 27.085938 C 30.957031 27.113281 30.964844 27.136719 30.972656 27.160156 C 31.015625 27.289062 31.050781 27.425781 31.074219 27.5625 C 31.078125 27.582031 31.082031 27.601562 31.085938 27.621094 C 31.125 27.582031 31.167969 27.546875 31.210938 27.507812 C 31.222656 27.496094 31.238281 27.484375 31.25 27.472656 C 31.28125 27.445312 31.3125 27.417969 31.339844 27.394531 C 31.355469 27.382812 31.371094 27.371094 31.386719 27.359375 C 31.421875 27.328125 31.457031 27.300781 31.492188 27.273438 C 31.5 27.265625 31.507812 27.257812 31.515625 27.253906 C 31.566406 27.214844 31.613281 27.179688 31.664062 27.144531 C 32.351562 26.640625 33.402344 26.265625 34.152344 26.835938 C 35.699219 28.507812 32.941406 30.453125 31.519531 31.027344 Z M 31.519531 31.027344 " fill-opacity="1" fill-rule="nonzero" data-index="15"></path><path fill="#eef0ed" d="M 26.890625 27.421875 C 26.140625 27.160156 25.546875 27.691406 25.253906 28.351562 C 24.757812 28.128906 24.1875 28.132812 23.800781 28.589844 C 23.222656 29.308594 23.570312 30.371094 24.167969 30.96875 C 24.5625 31.367188 25.0625 31.644531 25.566406 31.882812 C 25.828125 32.003906 26.089844 32.128906 26.351562 32.246094 C 26.378906 32.261719 26.410156 32.273438 26.441406 32.289062 C 26.46875 32.300781 26.496094 32.3125 26.527344 32.324219 C 26.621094 32.367188 26.714844 32.410156 26.808594 32.449219 C 26.886719 32.300781 26.964844 32.152344 27.042969 32.003906 C 27.148438 31.800781 27.253906 31.59375 27.359375 31.386719 C 27.761719 30.601562 28.0625 29.703125 27.878906 28.816406 C 27.761719 28.246094 27.460938 27.640625 26.890625 27.421875 Z M 27.195312 30.535156 C 27.015625 30.96875 26.804688 31.390625 26.585938 31.804688 C 26.523438 31.777344 26.464844 31.75 26.40625 31.722656 C 25.453125 31.28125 24.226562 30.816406 24.015625 29.65625 C 23.886719 28.976562 24.464844 28.441406 25.097656 28.832031 C 25.15625 28.867188 25.214844 28.902344 25.269531 28.941406 C 25.292969 28.957031 25.316406 28.972656 25.335938 28.988281 C 25.335938 28.988281 25.339844 28.992188 25.339844 28.992188 C 25.414062 29.050781 25.484375 29.109375 25.550781 29.175781 C 25.554688 29.132812 25.5625 29.09375 25.570312 29.050781 C 25.570312 29.039062 25.570312 29.03125 25.574219 29.019531 C 25.582031 28.976562 25.589844 28.9375 25.597656 28.894531 C 25.597656 28.894531 25.597656 28.890625 25.597656 28.890625 C 25.609375 28.851562 25.617188 28.808594 25.628906 28.769531 C 25.632812 28.757812 25.636719 28.746094 25.640625 28.738281 C 25.652344 28.695312 25.664062 28.65625 25.679688 28.621094 C 25.792969 28.316406 25.976562 28.050781 26.273438 27.90625 C 26.878906 27.648438 27.28125 28.375 27.382812 28.875 C 27.5 29.429688 27.40625 30.011719 27.195312 30.535156 Z M 27.195312 30.535156 " fill-opacity="1" fill-rule="nonzero" data-index="16"></path><path fill="#eef0ed" d="M 41.820312 18.164062 C 41.65625 18.285156 41.542969 18.460938 41.492188 18.65625 C 41.410156 18.964844 41.519531 19.320312 41.765625 19.523438 C 41.910156 19.640625 42.082031 19.714844 42.269531 19.730469 C 42.289062 19.730469 42.3125 19.734375 42.332031 19.734375 C 42.535156 19.734375 42.734375 19.65625 42.890625 19.527344 C 43.046875 19.398438 43.160156 19.207031 43.1875 19.007812 C 43.210938 18.835938 43.191406 18.671875 43.125 18.511719 C 43.042969 18.324219 42.882812 18.160156 42.691406 18.078125 C 42.519531 18.003906 42.328125 17.976562 42.144531 18.019531 C 42.035156 18.042969 41.929688 18.085938 41.839844 18.152344 C 41.832031 18.15625 41.828125 18.160156 41.820312 18.164062 Z M 41.964844 18.820312 C 41.96875 18.804688 41.972656 18.785156 41.976562 18.769531 C 41.980469 18.757812 41.984375 18.742188 41.992188 18.726562 C 42 18.710938 42.007812 18.691406 42.015625 18.675781 C 42.023438 18.664062 42.03125 18.648438 42.042969 18.636719 C 42.054688 18.625 42.0625 18.613281 42.074219 18.601562 C 42.085938 18.589844 42.097656 18.582031 42.109375 18.570312 C 42.117188 18.566406 42.121094 18.5625 42.125 18.558594 C 42.132812 18.554688 42.140625 18.550781 42.144531 18.546875 C 42.160156 18.539062 42.175781 18.53125 42.1875 18.523438 C 42.203125 18.519531 42.21875 18.515625 42.234375 18.511719 C 42.25 18.507812 42.265625 18.503906 42.28125 18.5 C 42.296875 18.5 42.3125 18.496094 42.328125 18.496094 C 42.34375 18.496094 42.359375 18.5 42.378906 18.5 C 42.394531 18.503906 42.410156 18.503906 42.425781 18.507812 C 42.441406 18.515625 42.457031 18.519531 42.472656 18.523438 C 42.488281 18.53125 42.503906 18.539062 42.519531 18.546875 C 42.53125 18.554688 42.542969 18.566406 42.558594 18.574219 C 42.570312 18.585938 42.582031 18.59375 42.59375 18.605469 C 42.605469 18.617188 42.613281 18.628906 42.625 18.644531 C 42.632812 18.65625 42.644531 18.667969 42.652344 18.683594 C 42.660156 18.695312 42.664062 18.710938 42.671875 18.722656 C 42.675781 18.738281 42.679688 18.75 42.6875 18.765625 C 42.691406 18.78125 42.691406 18.796875 42.695312 18.8125 C 42.699219 18.828125 42.699219 18.84375 42.699219 18.859375 C 42.699219 18.878906 42.699219 18.894531 42.695312 18.910156 C 42.695312 18.925781 42.691406 18.945312 42.6875 18.960938 C 42.683594 18.976562 42.675781 18.988281 42.671875 19.003906 C 42.664062 19.019531 42.65625 19.035156 42.648438 19.050781 C 42.640625 19.066406 42.628906 19.078125 42.621094 19.09375 C 42.609375 19.105469 42.601562 19.113281 42.589844 19.125 C 42.578125 19.136719 42.566406 19.148438 42.550781 19.160156 C 42.539062 19.167969 42.523438 19.179688 42.511719 19.1875 C 42.5 19.191406 42.484375 19.199219 42.472656 19.203125 C 42.460938 19.210938 42.445312 19.214844 42.429688 19.21875 C 42.414062 19.222656 42.398438 19.226562 42.382812 19.230469 C 42.367188 19.230469 42.351562 19.234375 42.332031 19.234375 C 42.316406 19.234375 42.300781 19.230469 42.285156 19.230469 C 42.269531 19.226562 42.25 19.226562 42.234375 19.222656 C 42.21875 19.214844 42.203125 19.210938 42.191406 19.207031 C 42.175781 19.199219 42.160156 19.191406 42.144531 19.183594 C 42.132812 19.175781 42.117188 19.164062 42.105469 19.15625 C 42.089844 19.144531 42.078125 19.132812 42.066406 19.125 C 42.058594 19.113281 42.046875 19.101562 42.039062 19.089844 C 42.027344 19.074219 42.019531 19.0625 42.011719 19.050781 C 42.003906 19.035156 41.996094 19.019531 41.988281 19.007812 C 41.984375 18.992188 41.980469 18.976562 41.976562 18.960938 C 41.972656 18.945312 41.96875 18.929688 41.964844 18.914062 C 41.964844 18.898438 41.960938 18.882812 41.960938 18.867188 C 41.964844 18.851562 41.964844 18.835938 41.964844 18.820312 Z M 41.964844 18.820312 " fill-opacity="1" fill-rule="nonzero" data-index="17"></path><path fill="#eef0ed" d="M 16.871094 40.488281 C 16.699219 40.414062 16.507812 40.386719 16.324219 40.429688 C 16.214844 40.453125 16.109375 40.496094 16.019531 40.5625 C 16.011719 40.566406 16.007812 40.570312 16 40.574219 C 15.835938 40.695312 15.722656 40.871094 15.667969 41.066406 C 15.589844 41.375 15.699219 41.730469 15.945312 41.933594 C 16.089844 42.050781 16.261719 42.125 16.449219 42.140625 C 16.46875 42.140625 16.492188 42.144531 16.511719 42.144531 C 16.714844 42.144531 16.914062 42.066406 17.070312 41.9375 C 17.226562 41.808594 17.339844 41.617188 17.367188 41.417969 C 17.390625 41.246094 17.371094 41.082031 17.304688 40.921875 C 17.222656 40.734375 17.058594 40.570312 16.871094 40.488281 Z M 16.875 41.320312 C 16.875 41.339844 16.871094 41.355469 16.867188 41.371094 C 16.863281 41.386719 16.859375 41.398438 16.851562 41.414062 C 16.84375 41.429688 16.835938 41.445312 16.828125 41.460938 C 16.820312 41.476562 16.808594 41.492188 16.800781 41.503906 C 16.789062 41.515625 16.78125 41.527344 16.769531 41.535156 C 16.757812 41.546875 16.746094 41.558594 16.730469 41.570312 C 16.71875 41.578125 16.703125 41.589844 16.691406 41.597656 C 16.679688 41.605469 16.664062 41.609375 16.652344 41.613281 C 16.640625 41.621094 16.625 41.625 16.609375 41.632812 C 16.59375 41.632812 16.578125 41.636719 16.5625 41.640625 C 16.546875 41.640625 16.53125 41.644531 16.511719 41.644531 C 16.496094 41.644531 16.480469 41.644531 16.464844 41.640625 C 16.449219 41.640625 16.429688 41.636719 16.414062 41.632812 C 16.398438 41.628906 16.386719 41.621094 16.371094 41.617188 C 16.355469 41.609375 16.339844 41.601562 16.324219 41.59375 C 16.3125 41.585938 16.296875 41.578125 16.285156 41.566406 C 16.269531 41.554688 16.257812 41.546875 16.246094 41.535156 C 16.238281 41.523438 16.226562 41.511719 16.21875 41.5 C 16.207031 41.488281 16.199219 41.472656 16.191406 41.460938 C 16.183594 41.445312 16.175781 41.429688 16.167969 41.417969 C 16.164062 41.402344 16.160156 41.386719 16.15625 41.375 C 16.152344 41.355469 16.148438 41.339844 16.144531 41.324219 C 16.144531 41.308594 16.140625 41.292969 16.140625 41.277344 C 16.140625 41.261719 16.144531 41.246094 16.144531 41.230469 C 16.148438 41.214844 16.148438 41.195312 16.152344 41.179688 C 16.160156 41.164062 16.164062 41.152344 16.167969 41.136719 C 16.175781 41.121094 16.183594 41.101562 16.195312 41.085938 C 16.203125 41.074219 16.210938 41.058594 16.222656 41.046875 C 16.230469 41.035156 16.242188 41.023438 16.253906 41.011719 C 16.265625 41 16.277344 40.988281 16.289062 40.980469 C 16.292969 40.976562 16.296875 40.972656 16.304688 40.96875 C 16.3125 40.964844 16.316406 40.960938 16.324219 40.957031 C 16.339844 40.949219 16.351562 40.941406 16.367188 40.933594 C 16.382812 40.929688 16.398438 40.925781 16.410156 40.921875 C 16.425781 40.917969 16.441406 40.914062 16.457031 40.910156 C 16.472656 40.910156 16.488281 40.90625 16.503906 40.90625 C 16.523438 40.90625 16.539062 40.910156 16.554688 40.910156 C 16.574219 40.914062 16.589844 40.914062 16.605469 40.917969 C 16.621094 40.925781 16.636719 40.929688 16.652344 40.933594 C 16.667969 40.941406 16.683594 40.949219 16.695312 40.957031 C 16.710938 40.964844 16.722656 40.976562 16.734375 40.984375 C 16.75 40.996094 16.761719 41.007812 16.773438 41.015625 C 16.785156 41.027344 16.792969 41.039062 16.804688 41.054688 C 16.8125 41.066406 16.820312 41.078125 16.828125 41.09375 C 16.835938 41.105469 16.84375 41.121094 16.851562 41.132812 C 16.855469 41.148438 16.859375 41.164062 16.863281 41.175781 C 16.867188 41.191406 16.871094 41.207031 16.875 41.226562 C 16.875 41.242188 16.878906 41.257812 16.878906 41.273438 C 16.878906 41.289062 16.878906 41.304688 16.875 41.320312 Z M 16.875 41.320312 " fill-opacity="1" fill-rule="nonzero" data-index="18" style="visibility: visible;"></path><path fill="#eef0ed" d="M 15.957031 38.457031 C 16.148438 38.457031 16.308594 38.296875 16.308594 38.105469 C 16.308594 37.914062 16.148438 37.75 15.957031 37.75 C 15.761719 37.75 15.601562 37.914062 15.601562 38.105469 C 15.601562 38.296875 15.761719 38.457031 15.957031 38.457031 Z M 15.957031 38.457031 " fill-opacity="1" fill-rule="nonzero" data-index="19" style="visibility: visible;"></path><path fill="#eef0ed" d="M 19.160156 40.914062 C 18.96875 40.914062 18.808594 41.074219 18.808594 41.269531 C 18.808594 41.460938 18.96875 41.621094 19.160156 41.621094 C 19.351562 41.621094 19.515625 41.460938 19.515625 41.269531 C 19.515625 41.074219 19.351562 40.914062 19.160156 40.914062 Z M 19.160156 40.914062 " fill-opacity="1" fill-rule="nonzero" data-index="20" style="visibility: visible;"></path><path fill="#eef0ed" d="M 16.878906 18.796875 C 16.878906 18.894531 16.84375 18.976562 16.773438 19.046875 C 16.703125 19.117188 16.621094 19.148438 16.523438 19.148438 C 16.425781 19.148438 16.34375 19.117188 16.273438 19.046875 C 16.207031 18.976562 16.171875 18.894531 16.171875 18.796875 C 16.171875 18.699219 16.207031 18.617188 16.273438 18.546875 C 16.34375 18.476562 16.425781 18.445312 16.523438 18.445312 C 16.621094 18.445312 16.703125 18.476562 16.773438 18.546875 C 16.84375 18.617188 16.878906 18.699219 16.878906 18.796875 Z M 16.878906 18.796875 " fill-opacity="1" fill-rule="nonzero" data-index="21" style="visibility: visible;"></path><path fill="#eef0ed" d="M 44.703125 34.945312 C 44.511719 34.945312 44.351562 35.105469 44.351562 35.300781 C 44.351562 35.492188 44.511719 35.652344 44.703125 35.652344 C 44.898438 35.652344 45.058594 35.492188 45.058594 35.300781 C 45.058594 35.105469 44.898438 34.945312 44.703125 34.945312 Z M 44.703125 34.945312 " fill-opacity="1" fill-rule="nonzero" data-index="22"></path><g clip-path="url(#02f69d405b)"><path fill="#eef0ed" d="M 50.308594 29.492188 C 50.308594 29.300781 50.148438 29.140625 49.957031 29.140625 C 49.765625 29.140625 49.605469 29.300781 49.605469 29.492188 C 49.605469 29.683594 49.765625 29.84375 49.957031 29.84375 C 50.148438 29.84375 50.308594 29.683594 50.308594 29.492188 Z M 50.308594 29.492188 " fill-opacity="1" fill-rule="nonzero" data-index="23"></path></g><g clip-path="url(#a208dff2cc)"><path fill="#eef0ed" d="M 50.199219 32.3125 C 50.007812 32.3125 49.847656 32.472656 49.847656 32.667969 C 49.847656 32.859375 50.007812 33.019531 50.199219 33.019531 C 50.390625 33.019531 50.550781 32.859375 50.550781 32.667969 C 50.550781 32.472656 50.390625 32.3125 50.199219 32.3125 Z M 50.199219 32.3125 " fill-opacity="1" fill-rule="nonzero" data-index="24"></path></g><g clip-path="url(#1b8a0a218f)"><path fill="#eef0ed" d="M 39.03125 16 C 39.03125 16.003906 39.03125 16.003906 39.03125 16.007812 C 39.09375 16.160156 39.160156 16.308594 39.222656 16.460938 C 39.222656 16.460938 39.222656 16.460938 39.226562 16.460938 C 39.269531 16.453125 39.3125 16.441406 39.359375 16.433594 C 39.375 16.429688 39.390625 16.425781 39.410156 16.421875 C 39.433594 16.417969 39.460938 16.410156 39.488281 16.40625 C 39.511719 16.398438 39.53125 16.394531 39.554688 16.386719 C 39.574219 16.382812 39.597656 16.378906 39.617188 16.371094 C 39.644531 16.367188 39.671875 16.359375 39.695312 16.351562 C 39.703125 16.347656 39.710938 16.347656 39.71875 16.34375 C 39.929688 16.285156 40.136719 16.214844 40.339844 16.140625 C 41.101562 15.890625 42.257812 15.234375 41.78125 14.28125 C 41.5 13.839844 40.988281 13.789062 40.527344 13.925781 C 40.402344 13.660156 40.175781 13.445312 39.878906 13.390625 C 39.234375 13.242188 38.738281 13.859375 38.707031 14.453125 C 38.679688 14.988281 38.832031 15.503906 39.03125 16 Z M 39.335938 14.082031 C 39.523438 13.765625 39.945312 13.832031 40.078125 14.132812 C 40.085938 14.144531 40.089844 14.160156 40.09375 14.175781 C 40.097656 14.179688 40.097656 14.183594 40.097656 14.1875 C 40.101562 14.203125 40.105469 14.21875 40.109375 14.238281 C 40.128906 14.328125 40.136719 14.429688 40.117188 14.519531 C 40.109375 14.554688 40.105469 14.585938 40.113281 14.617188 C 40.117188 14.644531 40.128906 14.675781 40.144531 14.699219 C 40.148438 14.695312 40.152344 14.691406 40.160156 14.6875 C 40.171875 14.679688 40.183594 14.667969 40.195312 14.660156 C 40.21875 14.644531 40.238281 14.628906 40.257812 14.613281 C 40.289062 14.589844 40.320312 14.570312 40.351562 14.550781 C 40.355469 14.550781 40.355469 14.546875 40.355469 14.546875 C 40.386719 14.527344 40.417969 14.511719 40.445312 14.496094 C 40.449219 14.496094 40.449219 14.496094 40.449219 14.492188 C 40.480469 14.476562 40.507812 14.464844 40.539062 14.449219 C 40.539062 14.449219 40.539062 14.449219 40.542969 14.449219 C 40.570312 14.4375 40.597656 14.425781 40.625 14.414062 C 41.40625 14.128906 41.792969 14.890625 40.769531 15.410156 C 40.371094 15.613281 39.949219 15.761719 39.519531 15.882812 C 39.265625 15.269531 39.054688 14.582031 39.335938 14.082031 Z M 39.335938 14.082031 " fill-opacity="1" fill-rule="nonzero" data-index="25" style="visibility: visible;"></path></g><path fill="#eef0ed" d="M 43.976562 16.386719 C 43.976562 16.484375 43.941406 16.570312 43.871094 16.636719 C 43.804688 16.707031 43.71875 16.742188 43.621094 16.742188 C 43.523438 16.742188 43.441406 16.707031 43.371094 16.636719 C 43.304688 16.570312 43.269531 16.484375 43.269531 16.386719 C 43.269531 16.289062 43.304688 16.207031 43.371094 16.136719 C 43.441406 16.070312 43.523438 16.035156 43.621094 16.035156 C 43.71875 16.035156 43.804688 16.070312 43.871094 16.136719 C 43.941406 16.207031 43.976562 16.289062 43.976562 16.386719 Z M 43.976562 16.386719 " fill-opacity="1" fill-rule="nonzero" data-index="26" style="visibility: visible;"></path><path fill="#eef0ed" d="M 43.1875 21.546875 C 42.992188 21.546875 42.832031 21.707031 42.832031 21.898438 C 42.832031 22.09375 42.992188 22.253906 43.1875 22.253906 C 43.378906 22.253906 43.539062 22.09375 43.539062 21.898438 C 43.539062 21.707031 43.378906 21.546875 43.1875 21.546875 Z M 43.1875 21.546875 " fill-opacity="1" fill-rule="nonzero" data-index="27"></path><g clip-path="url(#ea5233faaf)"><path fill="#eef0ed" d="M 36.222656 13.996094 C 36.222656 14.09375 36.1875 14.179688 36.121094 14.246094 C 36.050781 14.316406 35.96875 14.351562 35.871094 14.351562 C 35.773438 14.351562 35.6875 14.316406 35.621094 14.246094 C 35.550781 14.179688 35.515625 14.09375 35.515625 13.996094 C 35.515625 13.902344 35.550781 13.816406 35.621094 13.75 C 35.6875 13.679688 35.773438 13.644531 35.871094 13.644531 C 35.96875 13.644531 36.050781 13.679688 36.121094 13.75 C 36.1875 13.816406 36.222656 13.902344 36.222656 13.996094 Z M 36.222656 13.996094 " fill-opacity="1" fill-rule="nonzero" data-index="28" style="visibility: visible;"></path></g></svg>