<svg xmlns="http://www.w3.org/2000/svg" xmlns:xlink="http://www.w3.org/1999/xlink" width="80" zoomAndPan="magnify" viewBox="0 0 60 67.92" height="80" preserveAspectRatio="xMidYMid meet" version="1.0"><defs><clipPath id="50014f1b12"><path d="M 0.0351562 0 L 59.964844 0 L 59.964844 59.929688 L 0.0351562 59.929688 Z M 0.0351562 0 " clip-rule="nonzero" data-index="0" style="visibility: visible;"></path></clipPath><clipPath id="ba683e1d75"><path d="M 18.445312 8.21875 L 41.667969 8.21875 L 41.667969 51.667969 L 18.445312 51.667969 Z M 18.445312 8.21875 " clip-rule="nonzero" data-index="1" style="visibility: visible;"></path></clipPath></defs><g clip-path="url(#50014f1b12)"><path fill="#a5c2b0" d="M 0.0351562 0 L 59.964844 0 L 59.964844 59.929688 L 0.0351562 59.929688 Z M 0.0351562 0 " fill-opacity="1" fill-rule="nonzero" data-index="3" style="visibility: hidden; opacity: 1;"></path></g><g clip-path="url(#ba683e1d75)"><path fill="#eef0ed" d="M 21.519531 15.121094 C 21.40625 14.15625 22.066406 13.496094 22.832031 13.253906 C 23.191406 13.140625 23.539062 12.992188 23.832031 12.757812 C 24.042969 12.601562 24.269531 12.496094 24.519531 12.445312 C 24.640625 12.417969 24.753906 12.433594 24.859375 12.503906 C 25.007812 12.601562 25.148438 12.714844 25.285156 12.816406 C 25.320312 12.84375 25.355469 12.871094 25.363281 12.90625 C 25.441406 13.164062 25.695312 13.210938 25.910156 13.339844 C 25.894531 13.199219 25.886719 13.050781 25.867188 12.914062 C 25.859375 12.878906 25.824219 12.84375 25.800781 12.828125 C 25.5625 12.6875 25.46875 12.460938 25.417969 12.210938 C 25.371094 11.984375 25.304688 11.757812 25.257812 11.523438 C 25.234375 11.410156 25.164062 11.355469 25.058594 11.339844 C 24.910156 11.3125 24.808594 11.21875 24.765625 11.097656 C 24.667969 10.851562 24.625 10.589844 24.703125 10.332031 C 24.730469 10.253906 24.789062 10.183594 24.84375 10.121094 C 25.050781 9.90625 25.257812 9.695312 25.46875 9.476562 C 25.878906 9.050781 26.3125 8.679688 26.859375 8.433594 C 27.171875 8.304688 27.503906 8.253906 27.832031 8.234375 C 28.085938 8.21875 28.3125 8.304688 28.46875 8.511719 C 28.476562 8.53125 28.496094 8.546875 28.511719 8.546875 C 28.652344 8.574219 28.789062 8.601562 28.929688 8.617188 C 29.058594 8.644531 29.207031 8.632812 29.328125 8.6875 C 29.78125 8.878906 30.078125 9.21875 30.136719 9.722656 C 30.191406 10.164062 30.242188 10.617188 30.296875 11.0625 C 30.3125 11.175781 30.3125 11.296875 30.355469 11.410156 C 30.433594 11.644531 30.433594 11.878906 30.425781 12.113281 C 30.417969 12.242188 30.476562 12.277344 30.609375 12.277344 C 30.816406 12.269531 31.027344 12.269531 31.226562 12.296875 C 31.503906 12.332031 31.773438 12.402344 32.042969 12.460938 C 32.0625 12.460938 32.070312 12.460938 32.085938 12.46875 C 32.375 12.46875 32.660156 12.460938 32.9375 12.46875 C 33.171875 12.480469 33.390625 12.460938 33.617188 12.382812 C 33.851562 12.304688 34.105469 12.261719 34.347656 12.226562 C 34.433594 12.21875 34.539062 12.269531 34.625 12.304688 C 34.695312 12.332031 34.757812 12.367188 34.824219 12.410156 C 35.226562 12.636719 35.539062 12.949219 35.828125 13.304688 C 35.871094 13.367188 35.921875 13.425781 35.957031 13.488281 C 36.105469 13.722656 36.3125 13.894531 36.601562 13.964844 C 36.625 13.886719 36.652344 13.808594 36.679688 13.730469 C 36.730469 13.546875 36.792969 13.375 36.835938 13.191406 C 36.851562 13.132812 36.835938 13.050781 36.800781 12.992188 C 36.75 12.894531 36.679688 12.816406 36.617188 12.738281 C 36.453125 12.511719 36.390625 12.261719 36.460938 11.984375 C 36.511719 11.765625 36.558594 11.546875 36.589844 11.332031 C 36.601562 11.304688 36.582031 11.269531 36.574219 11.242188 C 36.523438 11.128906 36.46875 11.019531 36.417969 10.90625 C 36.339844 10.738281 36.375 10.636719 36.53125 10.488281 C 36.660156 10.367188 36.78125 10.339844 36.921875 10.433594 C 37.050781 10.523438 37.15625 10.644531 37.289062 10.765625 C 37.382812 10.714844 37.511719 10.644531 37.636719 10.574219 C 37.644531 10.566406 37.652344 10.558594 37.652344 10.546875 C 37.738281 10.320312 37.929688 10.207031 38.15625 10.148438 C 38.261719 10.113281 38.355469 10.085938 38.460938 10.0625 C 38.574219 10.035156 38.6875 10.035156 38.773438 10.140625 C 38.851562 10.234375 38.878906 10.347656 38.828125 10.46875 C 38.828125 10.476562 38.816406 10.488281 38.816406 10.488281 C 38.851562 10.625 38.863281 10.765625 38.828125 10.914062 C 38.828125 10.921875 38.851562 10.949219 38.871094 10.957031 C 39.0625 11.027344 39.085938 11.191406 39.097656 11.355469 C 39.097656 11.453125 39.113281 11.511719 39.183594 11.589844 C 39.246094 11.652344 39.277344 11.757812 39.277344 11.84375 C 39.289062 12.078125 39.289062 12.320312 39.269531 12.558594 C 39.261719 12.679688 39.199219 12.792969 39.164062 12.90625 C 39.304688 13 39.453125 13.105469 39.59375 13.210938 C 39.816406 13.375 39.941406 13.601562 39.984375 13.886719 C 40.042969 14.332031 40.140625 14.765625 40.21875 15.199219 C 40.261719 15.46875 40.339844 15.730469 40.347656 16 C 40.375 16.503906 40.199219 16.957031 39.871094 17.339844 C 39.773438 17.453125 39.617188 17.539062 39.480469 17.574219 C 38.835938 17.730469 38.175781 17.738281 37.523438 17.652344 C 37.425781 17.636719 37.339844 17.601562 37.234375 17.566406 C 37.140625 17.820312 37.027344 18.070312 36.941406 18.332031 C 36.816406 18.6875 36.625 18.992188 36.320312 19.21875 C 36.296875 19.234375 36.277344 19.28125 36.277344 19.304688 C 36.367188 19.800781 36.480469 20.289062 36.546875 20.785156 C 36.695312 21.742188 36.808594 22.707031 36.957031 23.671875 C 37.035156 24.175781 37.183594 24.671875 37.261719 25.175781 C 37.390625 25.992188 37.496094 26.820312 37.625 27.636719 C 37.6875 28.003906 37.574219 28.296875 37.339844 28.566406 C 37.253906 28.671875 37.226562 28.769531 37.234375 28.898438 C 37.261719 29.339844 37.261719 29.792969 37.261719 30.238281 C 37.253906 30.890625 37.234375 31.542969 37.210938 32.195312 C 37.199219 32.34375 37.210938 32.488281 37.105469 32.621094 C 37.085938 32.648438 37.105469 32.707031 37.121094 32.75 C 37.21875 33.0625 37.347656 33.359375 37.417969 33.679688 C 37.609375 34.515625 37.984375 35.28125 38.3125 36.0625 C 38.660156 36.890625 39.007812 37.714844 39.242188 38.585938 C 39.304688 38.8125 39.402344 39.039062 39.515625 39.246094 C 39.84375 39.898438 40.191406 40.535156 40.523438 41.179688 C 40.941406 42.003906 41.0625 42.867188 40.785156 43.761719 C 40.679688 44.082031 40.6875 44.378906 40.773438 44.699219 C 40.871094 45.046875 41.078125 45.34375 41.253906 45.65625 C 41.324219 45.777344 41.390625 45.902344 41.453125 46.03125 C 41.546875 46.238281 41.546875 46.464844 41.445312 46.664062 C 41.347656 46.847656 41.246094 47.046875 41.085938 47.1875 C 40.324219 47.882812 39.460938 48.386719 38.410156 48.484375 C 38.035156 48.519531 37.660156 48.507812 37.289062 48.542969 C 37.070312 48.5625 36.84375 48.621094 36.636719 48.691406 C 36.375 48.777344 36.175781 48.960938 36.0625 49.214844 C 35.878906 49.632812 35.558594 49.832031 35.140625 49.9375 C 34.433594 50.109375 33.738281 50.128906 33.027344 49.925781 C 32.792969 49.859375 32.523438 49.867188 32.269531 49.867188 C 31.738281 49.875 31.226562 49.953125 30.730469 50.136719 C 30.453125 50.238281 30.207031 50.40625 30.035156 50.648438 C 29.644531 51.207031 29.058594 51.429688 28.433594 51.5625 C 28.242188 51.605469 28.042969 51.570312 27.851562 51.578125 C 27.441406 51.597656 27.035156 51.640625 26.617188 51.648438 C 25.945312 51.667969 25.277344 51.703125 24.609375 51.675781 C 23.964844 51.648438 23.335938 51.484375 22.753906 51.195312 C 22.414062 51.023438 22.113281 50.804688 21.859375 50.519531 C 21.527344 50.152344 21.492188 49.890625 21.730469 49.378906 C 21.78125 49.273438 21.859375 49.179688 21.921875 49.082031 C 21.972656 49.003906 22.03125 48.9375 22.078125 48.847656 C 22.179688 48.664062 22.113281 48.449219 21.910156 48.394531 C 21.695312 48.335938 21.46875 48.300781 21.242188 48.285156 C 20.894531 48.257812 20.5625 48.171875 20.234375 48.058594 C 20.03125 47.988281 19.859375 47.855469 19.71875 47.691406 C 19.554688 47.472656 19.355469 47.300781 19.121094 47.160156 C 18.710938 46.925781 18.535156 46.535156 18.492188 46.074219 C 18.449219 45.578125 18.582031 45.136719 18.789062 44.691406 C 19.101562 44.046875 19.597656 43.5625 20.136719 43.109375 C 20.503906 42.804688 20.859375 42.484375 21.214844 42.160156 C 21.335938 42.046875 21.441406 41.917969 21.539062 41.785156 C 22.050781 41.109375 22.433594 40.371094 22.632812 39.542969 C 22.789062 38.90625 22.921875 38.273438 23.078125 37.648438 C 23.304688 36.726562 23.617188 35.839844 24.085938 35.011719 C 24.09375 35.003906 24.09375 34.984375 24.101562 34.960938 C 23.929688 34.996094 23.765625 35.03125 23.597656 35.0625 C 23.085938 35.167969 22.582031 35.175781 22.066406 35.074219 C 21.511719 34.96875 21 34.472656 20.929688 33.96875 C 20.902344 33.777344 20.902344 33.578125 20.929688 33.386719 C 20.980469 32.96875 20.859375 32.648438 20.484375 32.421875 C 20.207031 32.246094 19.964844 32.039062 19.796875 31.742188 C 19.457031 31.140625 19.335938 30.523438 19.589844 29.863281 C 19.738281 29.480469 19.894531 29.097656 20.007812 28.707031 C 20.15625 28.203125 20.269531 27.679688 20.390625 27.167969 C 20.546875 26.480469 20.632812 25.777344 20.667969 25.070312 C 20.675781 24.800781 20.617188 24.523438 20.570312 24.253906 C 20.539062 24 20.492188 23.742188 20.433594 23.488281 C 20.363281 23.21875 20.292969 22.941406 20.191406 22.679688 C 20.023438 22.269531 20.03125 21.84375 20.042969 21.417969 C 20.050781 21.191406 20.042969 20.957031 20.050781 20.730469 C 20.066406 20.347656 20.171875 19.992188 20.300781 19.636719 C 20.503906 19.0625 20.695312 18.488281 20.746094 17.878906 C 20.796875 17.277344 20.875 16.6875 20.832031 16.085938 C 20.796875 15.574219 20.972656 15.304688 21.460938 15.105469 C 21.492188 15.140625 21.511719 15.132812 21.519531 15.121094 Z M 19.660156 47.066406 C 20.554688 45.578125 21.546875 44.160156 22.414062 42.65625 C 22.433594 42.726562 22.433594 42.785156 22.425781 42.847656 C 22.363281 43.292969 22.191406 43.699219 21.988281 44.089844 C 21.519531 45.023438 20.886719 45.847656 20.242188 46.664062 C 20.101562 46.839844 19.964844 47.011719 19.808594 47.214844 C 20.007812 47.363281 20.171875 47.527344 20.371094 47.613281 C 20.632812 47.71875 20.929688 47.761719 21.207031 47.832031 C 21.441406 47.882812 21.683594 47.910156 21.921875 47.980469 C 22.050781 48.015625 22.15625 48.101562 22.285156 48.171875 C 22.363281 47.855469 22.460938 47.542969 22.527344 47.230469 C 22.730469 46.363281 22.929688 45.492188 23.101562 44.613281 C 23.371094 43.246094 23.597656 41.875 23.867188 40.515625 C 24.214844 38.785156 24.84375 37.125 25.363281 35.445312 C 25.371094 35.410156 25.398438 35.386719 25.417969 35.359375 C 25.441406 35.394531 25.441406 35.410156 25.441406 35.4375 C 25.363281 35.898438 25.304688 36.359375 25.191406 36.8125 C 24.652344 38.917969 24.234375 41.039062 23.910156 43.1875 C 23.765625 44.144531 23.625 45.101562 23.347656 46.03125 C 23.121094 46.804688 22.851562 47.570312 22.605469 48.34375 C 22.503906 48.675781 22.363281 48.980469 22.15625 49.257812 C 22.101562 49.328125 22.050781 49.40625 22.023438 49.492188 C 21.972656 49.675781 21.921875 49.875 22.078125 50.03125 C 22.460938 50.421875 22.894531 50.726562 23.414062 50.890625 C 23.703125 50.980469 24 51.066406 24.292969 51.109375 C 25 51.222656 25.710938 51.195312 26.417969 51.160156 C 26.992188 51.136719 27.554688 51.09375 28.128906 51.179688 C 28.269531 51.195312 28.425781 51.179688 28.554688 51.144531 C 28.773438 51.082031 29 51.003906 29.199219 50.902344 C 29.347656 50.824219 29.488281 50.691406 29.597656 50.5625 C 29.667969 50.484375 29.675781 50.363281 29.722656 50.265625 C 29.921875 49.832031 30.121094 49.398438 30.328125 48.96875 C 30.84375 47.925781 31.261719 46.839844 31.539062 45.710938 C 31.78125 44.71875 31.9375 43.707031 31.871094 42.683594 C 31.789062 41.613281 31.667969 40.550781 31.566406 39.480469 C 31.554688 39.386719 31.546875 39.300781 31.539062 39.203125 C 31.546875 39.203125 31.566406 39.195312 31.574219 39.195312 C 31.582031 39.222656 31.601562 39.246094 31.609375 39.273438 C 31.660156 39.4375 31.722656 39.605469 31.773438 39.777344 C 32 40.570312 32.121094 41.378906 32.242188 42.1875 C 32.355469 42.898438 32.398438 43.613281 32.304688 44.328125 C 32.121094 45.761719 31.6875 47.125 31.035156 48.421875 C 30.78125 48.910156 30.503906 49.378906 30.242188 49.867188 C 30.226562 49.890625 30.21875 49.917969 30.191406 49.96875 C 30.625 49.710938 31.070312 49.578125 31.53125 49.5 C 32.09375 49.414062 32.652344 49.351562 33.21875 49.507812 C 33.652344 49.632812 34.09375 49.648438 34.53125 49.570312 C 34.792969 49.527344 35.042969 49.464844 35.285156 49.378906 C 35.503906 49.300781 35.574219 49.144531 35.558594 48.917969 C 35.546875 48.847656 35.546875 48.789062 35.546875 48.71875 C 35.539062 48.195312 35.558594 47.675781 35.53125 47.152344 C 35.46875 45.910156 35.382812 44.664062 35.433594 43.421875 C 35.433594 43.386719 35.445312 43.34375 35.445312 43.292969 C 35.476562 43.308594 35.488281 43.316406 35.496094 43.328125 C 35.78125 45.089844 35.984375 46.867188 35.84375 48.683594 C 35.878906 48.65625 35.894531 48.648438 35.90625 48.632812 C 36.164062 48.386719 36.46875 48.230469 36.816406 48.1875 C 37.183594 48.144531 37.558594 48.117188 37.929688 48.125 C 38.652344 48.136719 39.304688 47.953125 39.878906 47.527344 C 40.164062 47.316406 40.445312 47.09375 40.695312 46.839844 C 40.992188 46.535156 40.992188 46.351562 40.785156 45.988281 C 40.765625 45.953125 40.738281 45.917969 40.722656 45.882812 C 40.558594 45.507812 40.347656 45.152344 40.332031 44.734375 C 40.332031 44.699219 40.3125 44.65625 40.296875 44.621094 C 40.054688 44.1875 39.808594 43.742188 39.566406 43.308594 C 38.785156 41.933594 37.972656 40.570312 37.375 39.097656 C 37.105469 38.4375 36.851562 37.777344 36.589844 37.117188 C 36.582031 37.089844 36.589844 37.054688 36.589844 37.019531 C 36.617188 37.039062 36.652344 37.054688 36.667969 37.082031 C 36.757812 37.230469 36.84375 37.378906 36.921875 37.535156 C 37.417969 38.472656 37.914062 39.414062 38.417969 40.34375 C 39.019531 41.449219 39.636719 42.542969 40.253906 43.640625 C 40.269531 43.664062 40.289062 43.683594 40.304688 43.71875 C 40.402344 43.265625 40.417969 42.832031 40.367188 42.386719 C 40.3125 41.875 40.21875 41.378906 39.984375 40.917969 C 39.730469 40.421875 39.460938 39.925781 39.199219 39.429688 C 39.097656 39.222656 38.992188 39.011719 38.90625 38.796875 C 38.828125 38.605469 38.773438 38.402344 38.695312 38.222656 C 38.347656 37.394531 37.992188 36.570312 37.636719 35.75 C 37.367188 35.125 37.078125 34.515625 36.949219 33.847656 C 36.921875 33.726562 36.878906 33.601562 36.835938 33.472656 C 36.6875 32.949219 36.488281 32.4375 36.523438 31.882812 C 36.523438 31.855469 36.511719 31.835938 36.511719 31.8125 C 36.382812 31.453125 36.269531 31.097656 36.113281 30.757812 C 35.859375 30.183594 35.574219 29.628906 35.3125 29.0625 C 35.085938 28.578125 34.824219 28.117188 34.503906 27.6875 C 34.070312 27.105469 33.632812 26.523438 33.285156 25.878906 C 33.0625 25.453125 32.773438 25.070312 32.46875 24.699219 C 32.269531 24.453125 32.070312 24.210938 31.886719 23.949219 C 31.703125 23.6875 31.546875 23.417969 31.53125 23.089844 C 31.519531 22.84375 31.53125 22.601562 31.554688 22.367188 C 31.609375 21.878906 31.582031 21.425781 31.207031 21.0625 C 31.113281 20.964844 31.035156 20.921875 30.894531 20.964844 C 30.722656 21.011719 30.546875 21.027344 30.382812 21.054688 C 30.363281 21.132812 30.363281 21.210938 30.328125 21.261719 C 30.171875 21.496094 30.035156 21.757812 29.824219 21.949219 C 29.214844 22.523438 28.460938 22.863281 27.667969 23.105469 C 27.398438 23.191406 27.113281 23.238281 26.824219 23.304688 C 27.058594 24.097656 27.304688 24.898438 27.546875 25.722656 C 27.652344 25.628906 27.730469 25.566406 27.789062 25.496094 C 27.902344 25.367188 28.035156 25.261719 28.199219 25.195312 C 28.398438 25.105469 28.582031 24.984375 28.773438 24.871094 C 29.085938 24.679688 29.375 24.460938 29.695312 24.296875 C 29.929688 24.175781 30.199219 24.125 30.453125 24.054688 C 30.667969 23.984375 30.808594 24.097656 30.78125 24.332031 C 30.773438 24.410156 30.738281 24.496094 30.6875 24.566406 C 30.609375 24.671875 30.511719 24.765625 30.417969 24.863281 C 30.3125 24.96875 30.199219 25.054688 30.078125 25.167969 C 30.398438 25.082031 30.660156 24.933594 30.921875 24.757812 C 31.128906 24.621094 31.355469 24.480469 31.625 24.53125 C 31.894531 24.574219 31.972656 24.765625 31.808594 24.992188 C 31.765625 25.054688 31.703125 25.097656 31.652344 25.148438 C 31.625 25.175781 31.589844 25.203125 31.539062 25.253906 C 31.667969 25.21875 31.773438 25.183594 31.871094 25.167969 C 31.972656 25.148438 32.085938 25.132812 32.199219 25.132812 C 32.425781 25.125 32.554688 25.210938 32.609375 25.394531 C 32.660156 25.585938 32.574219 25.777344 32.390625 25.863281 C 32.242188 25.933594 32.078125 25.992188 31.929688 26.0625 C 31.84375 26.097656 31.765625 26.148438 31.695312 26.183594 C 31.859375 26.226562 32.027344 26.246094 32.164062 26.304688 C 32.347656 26.386719 32.363281 26.558594 32.207031 26.679688 C 32.121094 26.75 32.007812 26.800781 31.902344 26.847656 C 31.835938 26.871094 31.746094 26.871094 31.679688 26.898438 C 31.53125 26.941406 31.390625 26.992188 31.242188 27.046875 C 31.410156 27.117188 31.539062 27.183594 31.617188 27.332031 C 31.679688 27.445312 31.660156 27.542969 31.566406 27.628906 C 31.433594 27.757812 31.269531 27.777344 31.09375 27.757812 C 30.980469 27.742188 30.867188 27.722656 30.757812 27.714844 C 30.242188 27.6875 29.738281 27.609375 29.277344 27.351562 C 29.207031 27.316406 29.121094 27.296875 29.042969 27.296875 C 28.800781 27.316406 28.554688 27.339844 28.3125 27.375 C 28.277344 27.375 28.25 27.402344 28.207031 27.410156 C 28.242188 27.507812 28.277344 27.59375 28.304688 27.679688 C 28.363281 27.855469 28.417969 28.027344 28.476562 28.203125 C 28.503906 28.289062 28.519531 28.386719 28.574219 28.464844 C 28.753906 28.757812 28.894531 29.0625 28.945312 29.402344 C 29.007812 29.828125 28.972656 30.238281 28.753906 30.613281 C 28.496094 31.0625 28.136719 31.4375 27.710938 31.742188 C 27.546875 31.855469 27.371094 31.960938 27.207031 32.0625 C 27.035156 32.175781 26.929688 32.324219 26.921875 32.535156 C 26.921875 32.707031 26.929688 32.882812 26.921875 33.046875 C 26.921875 33.1875 26.945312 33.34375 26.886719 33.445312 C 26.730469 33.726562 26.574219 34.03125 26.277344 34.195312 C 25.957031 34.378906 25.625 34.542969 25.285156 34.691406 C 25.015625 34.804688 24.730469 34.871094 24.46875 34.960938 C 24.441406 35.054688 24.425781 35.140625 24.390625 35.222656 C 24.09375 35.839844 23.851562 36.480469 23.660156 37.144531 C 23.484375 37.769531 23.347656 38.402344 23.179688 39.03125 C 22.921875 39.996094 22.484375 40.882812 21.945312 41.71875 C 21.78125 41.976562 21.617188 42.238281 21.425781 42.484375 C 21.015625 43.023438 20.503906 43.464844 20 43.917969 C 19.570312 44.300781 19.277344 44.769531 19.050781 45.28125 C 18.859375 45.710938 18.867188 46.144531 19.023438 46.578125 C 19.078125 46.71875 19.164062 46.855469 19.277344 46.953125 C 19.398438 46.980469 19.539062 47.003906 19.660156 47.066406 Z M 21.257812 20.246094 C 21.269531 20.253906 21.285156 20.253906 21.292969 20.261719 C 21.292969 20.289062 21.300781 20.316406 21.300781 20.339844 C 21.320312 22.289062 21.257812 24.246094 21.03125 26.183594 C 20.921875 27.175781 20.640625 28.125 20.214844 29.027344 C 20.085938 29.296875 19.972656 29.578125 19.851562 29.855469 C 19.597656 30.402344 19.773438 30.90625 20.042969 31.386719 C 20.136719 31.550781 20.269531 31.699219 20.40625 31.820312 C 20.652344 32.039062 20.921875 32.21875 21.179688 32.421875 C 21.179688 32.394531 21.191406 32.359375 21.199219 32.316406 C 21.257812 31.855469 21.300781 31.394531 21.371094 30.941406 C 21.589844 29.636719 21.796875 28.332031 21.910156 27.011719 C 21.980469 26.148438 22.101562 25.296875 22.207031 24.445312 C 22.222656 24.304688 22.269531 24.167969 22.304688 24.027344 C 22.320312 24.027344 22.328125 24.027344 22.347656 24.035156 C 22.347656 24.082031 22.355469 24.125 22.355469 24.167969 C 22.335938 25.140625 22.320312 26.105469 22.285156 27.082031 C 22.269531 27.628906 22.25 28.183594 22.164062 28.734375 C 21.972656 29.960938 21.738281 31.175781 21.511719 32.394531 C 21.425781 32.871094 21.3125 33.351562 21.300781 33.847656 C 21.300781 34.003906 21.328125 34.152344 21.425781 34.28125 C 21.605469 34.507812 21.824219 34.699219 22.121094 34.714844 C 22.449219 34.742188 22.789062 34.769531 23.113281 34.714844 C 23.980469 34.585938 24.816406 34.34375 25.625 34.011719 C 25.753906 33.960938 25.878906 33.898438 26 33.847656 C 25.964844 33.691406 25.929688 33.542969 25.894531 33.394531 C 25.886719 33.367188 25.878906 33.332031 25.859375 33.308594 C 25.496094 32.558594 25.3125 31.757812 25.242188 30.941406 C 25.164062 30.089844 25.164062 29.238281 25.136719 28.386719 C 25.128906 28.273438 25.148438 28.148438 25.128906 28.039062 C 25.078125 27.578125 25.015625 27.117188 24.945312 26.65625 C 24.832031 25.871094 24.625 25.105469 24.292969 24.382812 C 24.179688 24.140625 24.058594 23.90625 23.957031 23.664062 C 23.113281 21.6875 22.390625 19.671875 22.058594 17.53125 C 22.007812 17.183594 22.015625 16.828125 22.007812 16.480469 C 22.007812 16.445312 22.023438 16.410156 22.050781 16.347656 C 22.085938 16.59375 22.09375 16.792969 22.144531 16.984375 C 22.347656 17.714844 22.527344 18.453125 22.78125 19.167969 C 23.277344 20.539062 23.816406 21.898438 24.335938 23.261719 C 24.546875 23.8125 24.753906 24.359375 24.859375 24.941406 C 24.964844 25.523438 25.050781 26.105469 25.128906 26.6875 C 25.199219 27.195312 25.269531 27.707031 25.328125 28.210938 C 25.382812 28.628906 25.398438 29.054688 25.460938 29.472656 C 25.554688 30.125 25.652344 30.785156 25.773438 31.429688 C 25.859375 31.90625 25.972656 32.386719 26.09375 32.863281 C 26.15625 33.109375 26.242188 33.34375 26.320312 33.613281 C 26.390625 33.535156 26.433594 33.480469 26.484375 33.4375 C 26.660156 33.316406 26.675781 33.140625 26.667969 32.949219 C 26.660156 32.742188 26.6875 32.535156 26.695312 32.332031 C 26.703125 32.167969 26.773438 32.027344 26.886719 31.914062 C 26.972656 31.828125 27.058594 31.734375 27.164062 31.664062 C 27.589844 31.367188 27.921875 30.976562 28.214844 30.550781 C 28.597656 29.984375 28.617188 29.386719 28.339844 28.769531 C 28.242188 28.558594 28.148438 28.351562 28.09375 28.132812 C 28.058594 28.003906 28.042969 27.871094 27.980469 27.757812 C 27.957031 27.714844 27.9375 27.664062 27.921875 27.609375 C 27.703125 26.976562 27.484375 26.339844 27.277344 25.707031 C 26.992188 24.828125 26.78125 23.933594 26.46875 23.0625 C 26.179688 22.28125 25.765625 21.585938 25.257812 20.941406 C 24.730469 20.261719 24.207031 19.582031 23.859375 18.792969 C 23.832031 18.730469 23.816406 18.671875 23.789062 18.617188 C 23.796875 18.609375 23.816406 18.59375 23.824219 18.582031 C 23.875 18.609375 23.9375 18.628906 23.980469 18.671875 C 24.078125 18.773438 24.171875 18.886719 24.257812 19 C 24.476562 19.28125 24.695312 19.566406 24.910156 19.84375 C 24.929688 19.871094 24.957031 19.898438 24.980469 19.921875 C 24.972656 19.820312 24.9375 19.722656 24.910156 19.636719 C 24.730469 19 24.433594 18.425781 24 17.929688 C 23.84375 17.75 23.703125 17.53125 23.574219 17.324219 C 23.328125 16.941406 23.09375 16.539062 22.851562 16.15625 C 22.660156 15.84375 22.414062 15.59375 22.113281 15.382812 C 21.921875 15.246094 21.761719 15.277344 21.589844 15.355469 C 21.300781 15.480469 21.101562 15.671875 21.085938 16 C 21.058594 16.375 21.042969 16.75 21.007812 17.121094 C 20.964844 17.628906 20.921875 18.140625 20.839844 18.636719 C 20.773438 19.054688 20.667969 19.472656 20.5625 19.878906 C 20.390625 20.539062 20.371094 21.21875 20.371094 21.898438 C 20.371094 22.035156 20.40625 22.175781 20.460938 22.304688 C 20.582031 22.585938 20.71875 22.855469 20.859375 23.132812 C 20.859375 23.113281 20.867188 23.089844 20.867188 23.0625 C 20.921875 22.445312 20.972656 21.828125 21.042969 21.210938 C 21.066406 20.949219 21.121094 20.6875 21.164062 20.4375 C 21.179688 20.375 21.222656 20.316406 21.257812 20.246094 Z M 26.25 15.992188 C 26.226562 16.246094 26.070312 16.4375 25.652344 16.402344 C 25.652344 16.417969 25.652344 16.4375 25.652344 16.460938 C 25.695312 16.90625 25.582031 17.3125 25.371094 17.707031 C 25.277344 17.886719 25.148438 18.027344 24.957031 18.113281 C 24.816406 18.175781 24.773438 18.347656 24.851562 18.488281 C 24.929688 18.628906 25.023438 18.773438 25.058594 18.933594 C 25.148438 19.332031 25.207031 19.75 25.277344 20.15625 C 25.285156 20.226562 25.3125 20.296875 25.355469 20.347656 C 25.964844 21.0625 26.417969 21.871094 26.695312 22.765625 C 26.78125 23.035156 26.78125 23.027344 27.050781 22.976562 C 28.050781 22.792969 28.929688 22.394531 29.625 21.628906 C 29.773438 21.472656 29.894531 21.289062 30.027344 21.125 C 30.015625 21.113281 30.007812 21.105469 30 21.097656 C 29.835938 21.148438 29.667969 21.191406 29.503906 21.246094 C 29.46875 21.253906 29.433594 21.234375 29.398438 21.234375 C 29.40625 21.203125 29.398438 21.148438 29.417969 21.132812 C 29.460938 21.089844 29.511719 21.035156 29.574219 21.011719 C 29.765625 20.933594 29.957031 20.84375 30.15625 20.800781 C 30.546875 20.722656 30.949219 20.679688 31.339844 20.601562 C 31.800781 20.503906 32.25 20.382812 32.703125 20.28125 C 33.554688 20.078125 34.410156 19.886719 35.207031 19.515625 C 35.574219 19.339844 35.921875 19.15625 36.199219 18.871094 C 36.320312 18.742188 36.445312 18.601562 36.523438 18.445312 C 36.652344 18.183594 36.765625 17.921875 36.859375 17.644531 C 37.277344 16.359375 37.652344 15.054688 37.90625 13.722656 C 37.921875 13.617188 37.957031 13.511719 38.027344 13.433594 C 38.261719 13.15625 38.375 12.84375 38.347656 12.460938 C 38.289062 12.480469 38.234375 12.496094 38.183594 12.511719 C 38.050781 12.546875 37.921875 12.601562 37.792969 12.625 C 37.539062 12.671875 37.410156 12.523438 37.46875 12.277344 C 37.480469 12.253906 37.480469 12.21875 37.460938 12.199219 C 37.375 12.097656 37.375 11.992188 37.425781 11.871094 C 37.433594 11.84375 37.445312 11.816406 37.425781 11.800781 C 37.332031 11.609375 37.332031 11.558594 37.460938 11.390625 C 37.589844 11.226562 37.714844 11.0625 37.863281 10.859375 C 37.773438 10.859375 37.703125 10.84375 37.652344 10.859375 C 37.410156 10.984375 37.175781 11.105469 36.941406 11.242188 C 36.816406 11.3125 36.714844 11.410156 36.703125 11.574219 C 36.695312 11.773438 36.667969 11.984375 36.644531 12.183594 C 36.617188 12.367188 36.6875 12.511719 36.816406 12.617188 C 37.097656 12.828125 37.191406 13.148438 37.0625 13.460938 C 36.757812 14.191406 36.453125 14.921875 36.140625 15.644531 C 35.894531 16.199219 35.644531 16.75 35.382812 17.296875 C 35.253906 17.566406 35.070312 17.792969 34.84375 17.984375 C 34.714844 18.089844 34.582031 18.140625 34.398438 18.148438 C 33.949219 18.175781 33.488281 18.199219 33.050781 18.332031 C 32.148438 18.59375 31.261719 18.566406 30.355469 18.375 C 30.21875 18.347656 30.070312 18.347656 29.929688 18.382812 C 29.519531 18.472656 29.128906 18.59375 28.722656 18.6875 C 28.398438 18.757812 28.070312 18.828125 27.738281 18.871094 C 27.46875 18.90625 27.136719 18.707031 27.050781 18.472656 C 26.972656 18.28125 26.902344 18.078125 26.832031 17.886719 C 26.632812 17.304688 26.632812 16.730469 26.964844 16.191406 C 27.035156 16.070312 27.113281 15.957031 27.199219 15.84375 C 27.320312 15.679688 27.433594 15.515625 27.484375 15.304688 C 27.285156 15.234375 27.183594 15.097656 27.128906 14.90625 C 27.09375 14.792969 27.015625 14.722656 26.929688 14.644531 C 26.816406 14.539062 26.730469 14.417969 26.582031 14.347656 C 26.554688 14.339844 26.546875 14.289062 26.539062 14.253906 C 26.519531 14.199219 26.496094 14.140625 26.476562 14.085938 C 26.460938 14.019531 26.417969 13.992188 26.339844 13.984375 C 26.226562 13.972656 26.101562 13.941406 26.015625 13.878906 C 25.886719 13.792969 25.78125 13.671875 25.660156 13.566406 C 25.609375 13.523438 25.546875 13.488281 25.496094 13.445312 C 25.6875 13.792969 25.78125 14.15625 25.808594 14.546875 C 25.816406 14.730469 25.859375 14.914062 25.972656 15.070312 C 25.992188 15.097656 26 15.132812 26.007812 15.15625 C 26.050781 15.289062 26.015625 15.382812 25.894531 15.4375 C 25.816406 15.46875 25.730469 15.480469 25.640625 15.480469 C 25.554688 15.488281 25.460938 15.460938 25.371094 15.460938 C 25.242188 15.460938 25.128906 15.617188 25.171875 15.75 C 25.242188 15.929688 25.355469 16.070312 25.539062 16.15625 C 25.746094 16.253906 25.921875 16.183594 26.007812 15.964844 C 26.058594 15.835938 26.171875 15.785156 26.3125 15.816406 C 26.390625 15.835938 26.46875 15.851562 26.539062 15.878906 C 26.582031 15.898438 26.640625 15.941406 26.640625 15.957031 C 26.632812 16 26.597656 16.070312 26.5625 16.078125 C 26.503906 16.097656 26.425781 16.078125 26.363281 16.0625 C 26.328125 16.054688 26.292969 16.019531 26.25 15.992188 Z M 36.894531 29.046875 C 36.828125 29.089844 36.78125 29.125 36.738281 29.160156 C 36.574219 29.273438 36.398438 29.332031 36.199219 29.308594 C 36.113281 29.296875 35.992188 29.296875 35.972656 29.183594 C 35.957031 29.0625 36.078125 29.039062 36.164062 29.003906 C 36.277344 28.960938 36.410156 28.941406 36.496094 28.863281 C 36.738281 28.671875 36.964844 28.464844 37.191406 28.253906 C 37.21875 28.238281 37.226562 28.183594 37.226562 28.148438 C 37.21875 28.019531 37.191406 27.898438 37.175781 27.769531 C 37.085938 26.933594 37.027344 26.089844 36.921875 25.253906 C 36.851562 24.722656 36.722656 24.203125 36.636719 23.671875 C 36.445312 22.523438 36.269531 21.367188 36.085938 20.210938 C 36.050781 19.964844 36.027344 19.722656 36 19.480469 C 35.390625 19.820312 34.765625 20.097656 34.09375 20.28125 C 33.53125 20.4375 32.949219 20.550781 32.363281 20.671875 C 32.09375 20.730469 31.824219 20.777344 31.546875 20.828125 C 31.539062 20.835938 31.539062 20.84375 31.53125 20.855469 C 31.566406 20.878906 31.601562 20.898438 31.625 20.921875 C 31.851562 21.148438 32 21.410156 32.007812 21.730469 C 32.007812 22 32 22.28125 31.949219 22.550781 C 31.859375 23.027344 31.929688 23.4375 32.261719 23.800781 C 32.488281 24.046875 32.703125 24.296875 32.902344 24.566406 C 33.121094 24.855469 33.347656 25.140625 33.53125 25.464844 C 33.824219 25.96875 34.128906 26.464844 34.488281 26.933594 C 34.886719 27.453125 35.261719 27.992188 35.523438 28.601562 C 35.625 28.847656 35.738281 29.082031 35.84375 29.316406 C 36.128906 29.976562 36.417969 30.636719 36.703125 31.296875 C 36.730469 31.351562 36.75 31.402344 36.773438 31.445312 C 36.84375 30.65625 36.765625 29.855469 36.894531 29.046875 Z M 29.375 13.183594 C 29.191406 13.140625 29.121094 13 29.058594 12.878906 C 28.980469 12.722656 29.035156 12.636719 29.214844 12.636719 C 29.441406 12.636719 29.582031 12.523438 29.625 12.296875 C 29.695312 11.964844 29.625 11.660156 29.460938 11.375 C 29.425781 11.3125 29.347656 11.269531 29.285156 11.21875 C 29.269531 11.199219 29.226562 11.199219 29.199219 11.207031 C 28.929688 11.339844 28.730469 11.6875 28.746094 11.992188 C 28.753906 12.148438 28.78125 12.304688 28.78125 12.460938 C 28.789062 12.582031 28.738281 12.679688 28.625 12.722656 C 28.519531 12.765625 28.375 12.730469 28.292969 12.636719 C 28.261719 12.601562 28.234375 12.546875 28.214844 12.503906 C 28.148438 12.375 28.078125 12.242188 28.015625 12.105469 C 27.972656 12.007812 27.914062 11.941406 27.800781 11.914062 C 27.632812 11.871094 27.511719 11.757812 27.453125 11.589844 C 27.425781 11.511719 27.398438 11.433594 27.382812 11.355469 C 27.347656 11.199219 27.320312 11.175781 27.15625 11.148438 C 26.957031 11.113281 26.753906 11.164062 26.5625 11.21875 C 26.191406 11.320312 25.824219 11.460938 25.417969 11.433594 C 25.460938 11.644531 25.503906 11.84375 25.53125 12.042969 C 25.554688 12.296875 25.660156 12.488281 25.902344 12.589844 C 26.023438 12.644531 26.101562 12.75 26.113281 12.878906 C 26.128906 13.132812 26.148438 13.382812 26.15625 13.636719 C 26.15625 13.703125 26.171875 13.738281 26.242188 13.738281 C 26.328125 13.738281 26.417969 13.730469 26.496094 13.730469 C 26.554688 13.730469 26.667969 13.714844 26.640625 13.800781 C 26.609375 13.941406 26.6875 14.027344 26.722656 14.121094 C 26.738281 14.164062 26.789062 14.210938 26.832031 14.210938 C 26.9375 14.21875 26.980469 14.269531 26.992188 14.367188 C 27 14.402344 27.007812 14.445312 27.035156 14.453125 C 27.199219 14.53125 27.269531 14.6875 27.328125 14.84375 C 27.40625 15.035156 27.53125 15.105469 27.730469 15.042969 C 27.816406 15.019531 27.914062 14.984375 27.980469 14.929688 C 28.128906 14.816406 28.269531 14.695312 28.398438 14.566406 C 28.597656 14.367188 28.78125 14.148438 28.964844 13.941406 C 29.035156 13.863281 29.09375 13.773438 29.15625 13.695312 C 29.191406 13.644531 29.226562 13.582031 29.261719 13.523438 C 29.269531 13.523438 29.285156 13.523438 29.296875 13.53125 C 29.3125 13.601562 29.328125 13.660156 29.339844 13.730469 C 29.347656 13.894531 29.226562 13.984375 29.121094 14.085938 C 28.972656 14.253906 28.824219 14.425781 28.675781 14.59375 C 28.6875 14.601562 28.6875 14.617188 28.695312 14.625 C 28.921875 14.652344 29.148438 14.679688 29.363281 14.703125 C 29.511719 14.722656 29.625 14.671875 29.722656 14.546875 C 30.007812 14.191406 30.21875 13.800781 30.328125 13.355469 C 30.417969 13.007812 30.382812 12.671875 30.183594 12.367188 C 30.164062 12.339844 30.121094 12.3125 30.085938 12.304688 C 30 12.289062 29.914062 12.289062 29.816406 12.269531 C 29.730469 12.53125 29.660156 12.816406 29.328125 12.878906 C 29.363281 13 29.363281 13.085938 29.375 13.183594 Z M 36.503906 14.289062 C 36.121094 14.113281 35.878906 13.800781 35.617188 13.503906 C 35.347656 13.199219 35.042969 12.929688 34.757812 12.644531 C 34.660156 12.546875 34.546875 12.503906 34.398438 12.496094 C 34.164062 12.496094 33.921875 12.46875 33.703125 12.574219 C 33.382812 12.738281 33.050781 12.730469 32.703125 12.695312 C 32.539062 12.679688 32.363281 12.671875 32.183594 12.660156 C 32.199219 12.695312 32.199219 12.703125 32.207031 12.714844 C 32.226562 12.738281 32.242188 12.765625 32.269531 12.78125 C 32.496094 13.007812 32.53125 13.261719 32.382812 13.558594 C 32.304688 13.722656 32.242188 13.90625 32.164062 14.097656 C 32.347656 14.078125 32.511719 14.0625 32.667969 14.042969 C 32.871094 14.019531 33.015625 14.097656 33.128906 14.261719 C 33.332031 14.558594 33.476562 14.886719 33.554688 15.234375 C 33.695312 15.871094 33.765625 16.515625 33.746094 17.167969 C 33.738281 17.402344 33.746094 17.636719 33.746094 17.878906 C 33.972656 17.863281 34.183594 17.84375 34.390625 17.820312 C 34.453125 17.808594 34.53125 17.785156 34.574219 17.738281 C 34.921875 17.375 35.191406 16.957031 35.433594 16.515625 C 35.453125 16.488281 35.453125 16.4375 35.445312 16.402344 C 35.375 16.097656 35.3125 15.785156 35.21875 15.480469 C 34.949219 14.644531 34.765625 13.792969 34.582031 12.941406 C 34.574219 12.90625 34.601562 12.859375 34.609375 12.828125 C 34.644531 12.851562 34.6875 12.859375 34.703125 12.894531 C 34.765625 13.027344 34.816406 13.15625 34.859375 13.289062 C 35.128906 14.140625 35.398438 14.992188 35.660156 15.851562 C 35.679688 15.898438 35.6875 15.941406 35.714844 16.007812 C 35.992188 15.410156 36.320312 14.886719 36.503906 14.289062 Z M 30.171875 12.085938 C 30.191406 12.078125 30.199219 12.070312 30.21875 12.0625 C 30.191406 11.921875 30.164062 11.773438 30.136719 11.636719 C 30.09375 11.433594 30.027344 11.242188 30.007812 11.042969 C 29.972656 10.660156 29.972656 10.269531 29.957031 9.886719 C 29.9375 9.589844 29.894531 9.332031 29.625 9.121094 C 29.339844 8.894531 29.027344 8.835938 28.6875 8.871094 C 28.546875 8.886719 28.46875 8.851562 28.390625 8.730469 C 28.375 8.714844 28.355469 8.6875 28.328125 8.679688 C 28.234375 8.644531 28.136719 8.589844 28.042969 8.582031 C 27.539062 8.546875 27.050781 8.609375 26.617188 8.902344 C 26.242188 9.15625 25.910156 9.460938 25.609375 9.800781 C 25.433594 9.992188 25.242188 10.164062 24.980469 10.234375 C 24.945312 10.242188 24.910156 10.285156 24.886719 10.332031 C 24.808594 10.460938 24.859375 10.589844 24.878906 10.730469 C 24.9375 11.113281 25.164062 11.242188 25.511719 11.207031 C 25.824219 11.175781 26.136719 11.078125 26.449219 11.007812 C 26.695312 10.949219 26.9375 10.878906 27.199219 10.929688 C 27.453125 10.972656 27.539062 11.0625 27.582031 11.3125 C 27.609375 11.496094 27.667969 11.667969 27.878906 11.730469 C 28.023438 11.773438 28.128906 11.871094 28.199219 12 C 28.285156 12.15625 28.363281 12.320312 28.460938 12.480469 C 28.476562 12.503906 28.511719 12.523438 28.546875 12.546875 C 28.566406 12.523438 28.589844 12.488281 28.609375 12.453125 C 28.617188 12.417969 28.617188 12.382812 28.617188 12.347656 C 28.609375 12.21875 28.589844 12.085938 28.582031 11.949219 C 28.554688 11.511719 28.730469 11.226562 29.105469 11.070312 C 29.3125 10.984375 29.503906 11.035156 29.652344 11.226562 C 29.78125 11.410156 29.851562 11.617188 29.878906 11.835938 C 29.886719 11.878906 29.886719 11.941406 29.914062 11.957031 C 29.980469 12 30.078125 12.042969 30.171875 12.085938 Z M 23.886719 14.375 C 23.703125 15.007812 23.484375 15.332031 23.257812 15.304688 C 23.347656 15.148438 23.441406 14.992188 23.519531 14.828125 C 23.667969 14.523438 23.773438 14.199219 23.746094 13.851562 C 23.730469 13.652344 23.695312 13.453125 23.667969 13.261719 C 23.582031 13.289062 23.476562 13.332031 23.363281 13.355469 C 22.980469 13.433594 22.652344 13.617188 22.328125 13.84375 C 22.03125 14.054688 21.859375 14.339844 21.773438 14.6875 C 21.738281 14.808594 21.71875 14.941406 21.683594 15.078125 C 21.746094 15.078125 21.789062 15.078125 21.824219 15.078125 C 22.007812 15.105469 22.207031 15.0625 22.371094 15.175781 C 22.484375 15.253906 22.589844 15.332031 22.683594 15.417969 C 22.980469 15.714844 23.171875 16.078125 23.371094 16.4375 C 23.660156 16.949219 23.972656 17.453125 24.371094 17.898438 C 24.398438 17.921875 24.425781 17.957031 24.46875 18 C 24.417969 17.539062 24.25 17.148438 24.078125 16.75 C 24.148438 16.757812 24.207031 16.773438 24.25 16.808594 C 24.460938 16.976562 24.574219 17.199219 24.667969 17.445312 C 24.730469 17.59375 24.773438 17.738281 24.824219 17.898438 C 24.972656 17.800781 25.09375 17.6875 25.171875 17.539062 C 25.355469 17.183594 25.449219 16.808594 25.449219 16.410156 C 25.449219 16.375 25.441406 16.332031 25.417969 16.304688 C 25.285156 16.175781 25.15625 16.054688 25.023438 15.929688 C 25.023438 15.929688 25.007812 15.949219 24.988281 15.964844 C 24.851562 16.199219 24.71875 16.425781 24.582031 16.660156 C 24.546875 16.714844 24.511719 16.765625 24.460938 16.835938 C 24.425781 16.75 24.398438 16.695312 24.390625 16.644531 C 24.328125 16.375 24.390625 16.121094 24.546875 15.898438 C 24.632812 15.773438 24.746094 15.660156 24.84375 15.546875 C 25.023438 15.339844 25.136719 15.105469 25.164062 14.816406 C 25.171875 14.730469 25.199219 14.644531 25.214844 14.546875 C 25.226562 14.546875 25.242188 14.546875 25.25 14.546875 C 25.328125 14.75 25.328125 14.957031 25.339844 15.15625 C 25.519531 15.175781 25.6875 15.183594 25.851562 15.199219 C 25.859375 15.191406 25.867188 15.175781 25.878906 15.164062 C 25.667969 14.949219 25.640625 14.671875 25.574219 14.402344 C 25.546875 14.289062 25.519531 14.175781 25.484375 14.0625 C 25.382812 13.703125 25.164062 13.410156 24.9375 13.121094 C 24.902344 13.078125 24.84375 13.019531 24.851562 12.972656 C 24.878906 12.808594 24.738281 12.75 24.660156 12.660156 C 24.632812 12.625 24.554688 12.617188 24.511719 12.625 C 24.269531 12.660156 24.035156 12.914062 24 13.15625 C 23.972656 13.347656 24.015625 13.523438 24.085938 13.695312 C 24.371094 14.433594 24.25 15.121094 23.773438 15.757812 C 23.730469 15.816406 23.660156 15.851562 23.597656 15.90625 C 23.589844 15.898438 23.582031 15.886719 23.574219 15.878906 C 23.824219 15.425781 24.035156 14.949219 23.886719 14.375 Z M 37.296875 17.324219 C 37.382812 17.339844 37.453125 17.359375 37.53125 17.367188 C 38.097656 17.425781 38.660156 17.382812 39.226562 17.332031 C 39.503906 17.304688 39.730469 17.167969 39.835938 16.886719 C 39.851562 16.84375 39.871094 16.808594 39.894531 16.773438 C 40.070312 16.453125 40.113281 16.105469 40.070312 15.75 C 40.054688 15.59375 40.019531 15.4375 39.992188 15.269531 C 39.90625 14.816406 39.828125 14.367188 39.730469 13.914062 C 39.703125 13.800781 39.695312 13.679688 39.625 13.601562 C 39.460938 13.417969 39.234375 13.3125 38.984375 13.191406 C 39.042969 13.445312 39.085938 13.671875 39.140625 13.894531 C 39.210938 13.84375 39.269531 13.808594 39.332031 13.773438 C 39.410156 13.730469 39.460938 13.765625 39.453125 13.84375 C 39.433594 13.941406 39.402344 14.035156 39.347656 14.105469 C 39.199219 14.269531 39 14.355469 38.792969 14.410156 C 38.574219 14.460938 38.367188 14.417969 38.175781 14.347656 C 37.878906 15.339844 37.589844 16.324219 37.296875 17.324219 Z M 30.617188 24.226562 C 30.609375 24.21875 30.597656 24.210938 30.589844 24.203125 C 30.539062 24.226562 30.496094 24.253906 30.441406 24.273438 C 30.347656 24.316406 30.25 24.351562 30.164062 24.382812 C 30.050781 24.429688 29.9375 24.445312 29.835938 24.496094 C 29.589844 24.628906 29.347656 24.777344 29.105469 24.921875 C 28.859375 25.082031 28.609375 25.21875 28.320312 25.28125 C 28.136719 25.316406 28.050781 25.464844 27.957031 25.609375 C 27.894531 25.714844 27.832031 25.828125 27.78125 25.933594 C 27.765625 25.96875 27.738281 26.003906 27.746094 26.035156 C 27.867188 26.386719 28 26.734375 28.128906 27.070312 C 28.277344 27.035156 28.398438 26.976562 28.539062 26.96875 C 28.902344 26.941406 29.261719 26.984375 29.597656 27.125 C 30.136719 27.339844 30.710938 27.359375 31.269531 27.472656 C 31.328125 27.488281 31.410156 27.453125 31.46875 27.445312 C 31.46875 27.429688 31.476562 27.410156 31.476562 27.402344 C 31.417969 27.359375 31.375 27.296875 31.304688 27.273438 C 31.105469 27.183594 30.914062 27.097656 30.679688 27.167969 C 30.554688 27.203125 30.398438 27.160156 30.269531 27.125 C 30.21875 27.105469 30.136719 27.019531 30.136719 26.96875 C 30.136719 26.878906 30.234375 26.855469 30.3125 26.855469 C 30.347656 26.855469 30.390625 26.855469 30.425781 26.863281 C 30.617188 26.914062 30.800781 26.890625 30.980469 26.828125 C 31.304688 26.722656 31.625 26.636719 31.949219 26.53125 C 32 26.515625 32.050781 26.480469 32.140625 26.4375 C 32.0625 26.410156 32.015625 26.386719 31.972656 26.375 C 31.660156 26.359375 31.355469 26.410156 31.070312 26.523438 C 30.851562 26.609375 30.644531 26.644531 30.417969 26.621094 C 30.363281 26.609375 30.285156 26.558594 30.269531 26.515625 C 30.242188 26.4375 30.304688 26.375 30.382812 26.351562 C 30.441406 26.324219 30.511719 26.296875 30.574219 26.304688 C 30.894531 26.332031 31.148438 26.175781 31.417969 26.027344 C 31.632812 25.90625 31.859375 25.820312 32.078125 25.714844 C 32.15625 25.679688 32.261719 25.65625 32.3125 25.59375 C 32.363281 25.542969 32.375 25.4375 32.375 25.359375 C 32.375 25.339844 32.25 25.296875 32.199219 25.304688 C 31.902344 25.367188 31.609375 25.445312 31.3125 25.53125 C 31.207031 25.566406 31.113281 25.644531 31.015625 25.714844 C 30.929688 25.777344 30.851562 25.84375 30.765625 25.898438 C 30.644531 25.976562 30.511719 26.046875 30.390625 26.113281 C 30.339844 26.148438 30.285156 26.195312 30.226562 26.203125 C 30.164062 26.210938 30.105469 26.175781 30.035156 26.160156 C 30.050781 26.097656 30.050781 26.011719 30.085938 25.976562 C 30.15625 25.914062 30.25 25.878906 30.339844 25.835938 C 30.46875 25.765625 30.632812 25.714844 30.730469 25.609375 C 30.980469 25.332031 31.261719 25.097656 31.554688 24.890625 C 31.609375 24.855469 31.652344 24.792969 31.695312 24.742188 C 31.6875 24.722656 31.6875 24.714844 31.679688 24.699219 C 31.609375 24.699219 31.539062 24.6875 31.476562 24.699219 C 31.199219 24.722656 30.972656 24.84375 30.757812 25.011719 C 30.25 25.394531 29.695312 25.585938 29.058594 25.515625 C 29.015625 25.507812 28.980469 25.480469 28.9375 25.464844 C 28.972656 25.417969 29 25.359375 29.035156 25.351562 C 29.171875 25.296875 29.328125 25.261719 29.46875 25.21875 C 29.503906 25.210938 29.546875 25.195312 29.574219 25.175781 C 29.667969 25.105469 29.757812 25.035156 29.851562 24.957031 C 30.050781 24.785156 30.25 24.609375 30.453125 24.429688 C 30.53125 24.382812 30.566406 24.296875 30.617188 24.226562 Z M 30.765625 12.511719 C 30.757812 12.523438 30.757812 12.53125 30.746094 12.539062 C 30.800781 12.617188 30.84375 12.6875 30.894531 12.765625 C 31.183594 13.226562 31.441406 13.703125 31.617188 14.226562 C 31.84375 14.921875 32.09375 15.617188 32.3125 16.3125 C 32.488281 16.878906 32.632812 17.460938 32.800781 18.042969 C 32.902344 18.027344 33.035156 18 33.15625 17.984375 C 33.476562 17.929688 33.476562 17.929688 33.488281 17.609375 C 33.503906 16.929688 33.453125 16.253906 33.363281 15.574219 C 33.3125 15.164062 33.199219 14.773438 32.972656 14.417969 C 32.902344 14.3125 32.824219 14.277344 32.710938 14.296875 C 32.554688 14.324219 32.390625 14.332031 32.234375 14.339844 C 31.972656 14.355469 31.871094 14.191406 31.992188 13.964844 C 32.035156 13.878906 32.085938 13.808594 32.140625 13.722656 C 32.207031 13.59375 32.277344 13.460938 32.339844 13.320312 C 32.355469 13.277344 32.355469 13.199219 32.332031 13.164062 C 32.234375 13.027344 32.121094 12.90625 32.007812 12.773438 C 31.980469 12.75 31.9375 12.722656 31.902344 12.722656 C 31.710938 12.6875 31.53125 12.671875 31.339844 12.636719 C 31.128906 12.589844 30.949219 12.546875 30.765625 12.511719 Z M 31.234375 14.027344 C 31.226562 14.367188 31.21875 14.6875 31.199219 15.007812 C 31.191406 15.121094 31.183594 15.246094 31.15625 15.355469 C 31.113281 15.566406 30.949219 15.660156 30.738281 15.601562 C 30.644531 15.574219 30.539062 15.53125 30.441406 15.503906 C 30.425781 15.644531 30.417969 15.773438 30.375 15.90625 C 30.339844 16.007812 30.347656 16.097656 30.398438 16.191406 C 30.667969 16.75 30.929688 17.3125 31.199219 17.878906 C 31.234375 17.957031 31.277344 18.042969 31.320312 18.121094 C 31.339844 18.148438 31.375 18.175781 31.398438 18.183594 C 31.746094 18.210938 32.09375 18.175781 32.453125 18.121094 C 32.339844 16.652344 31.703125 15.367188 31.234375 14.027344 Z M 27.328125 16.070312 C 27.46875 16.097656 27.617188 16.113281 27.738281 16.167969 C 27.972656 16.261719 28.007812 16.390625 27.886719 16.617188 C 27.800781 16.773438 27.695312 16.914062 27.617188 17.070312 C 27.589844 17.121094 27.582031 17.210938 27.617188 17.253906 C 27.859375 17.636719 28.113281 18.011719 28.355469 18.390625 C 28.390625 18.453125 28.441406 18.460938 28.503906 18.4375 C 28.738281 18.359375 28.972656 18.28125 29.207031 18.210938 C 29.226562 18.199219 29.242188 18.183594 29.269531 18.175781 C 28.914062 17.15625 28.46875 16.175781 28.199219 15.148438 C 28.042969 15.199219 27.894531 15.246094 27.746094 15.296875 C 27.722656 15.304688 27.703125 15.347656 27.6875 15.375 C 27.652344 15.488281 27.632812 15.609375 27.574219 15.714844 C 27.519531 15.835938 27.417969 15.949219 27.328125 16.070312 Z M 28.753906 15.921875 C 28.859375 15.75 28.945312 15.59375 29.050781 15.4375 C 29.320312 15.042969 29.902344 14.929688 30.296875 15.140625 C 30.453125 15.21875 30.609375 15.296875 30.773438 15.367188 C 30.902344 15.417969 30.964844 15.390625 30.980469 15.246094 C 31 15.078125 31.015625 14.914062 31.007812 14.757812 C 30.980469 14.339844 30.964844 13.914062 30.914062 13.496094 C 30.894531 13.339844 30.789062 13.199219 30.722656 13.050781 C 30.710938 13.0625 30.703125 13.0625 30.695312 13.070312 C 30.695312 13.433594 30.574219 13.773438 30.417969 14.085938 C 30.304688 14.324219 30.148438 14.53125 29.992188 14.75 C 29.894531 14.886719 29.746094 14.957031 29.582031 14.976562 C 29.25 15.007812 28.921875 14.964844 28.617188 14.851562 C 28.511719 14.808594 28.484375 14.878906 28.433594 14.921875 C 28.375 14.964844 28.398438 15.007812 28.425781 15.0625 C 28.496094 15.234375 28.574219 15.410156 28.644531 15.582031 C 28.667969 15.6875 28.703125 15.800781 28.753906 15.921875 Z M 31.050781 18.148438 C 31.027344 18.089844 31.015625 18.054688 31 18.019531 C 30.835938 17.679688 30.667969 17.339844 30.503906 16.992188 C 30.382812 16.738281 30.261719 16.480469 30.15625 16.226562 C 30.121094 16.15625 30.105469 16.0625 30.121094 15.992188 C 30.15625 15.785156 30.21875 15.582031 30.261719 15.375 C 30.09375 15.269531 29.914062 15.175781 29.695312 15.269531 C 29.652344 15.289062 29.597656 15.304688 29.546875 15.304688 C 29.363281 15.3125 29.285156 15.425781 29.234375 15.582031 C 29.261719 15.59375 29.285156 15.601562 29.3125 15.617188 C 29.546875 15.722656 29.738281 15.871094 29.789062 16.140625 C 29.859375 16.488281 29.929688 16.835938 29.980469 17.183594 C 30.027344 17.453125 30.035156 17.722656 30.050781 17.964844 C 30.234375 18.035156 30.382812 18.097656 30.539062 18.148438 C 30.554688 18.15625 30.582031 18.167969 30.609375 18.167969 C 30.746094 18.148438 30.886719 18.148438 31.050781 18.148438 Z M 38.558594 12.480469 C 38.636719 12.921875 38.617188 13.105469 38.382812 13.410156 C 38.199219 13.636719 38.261719 13.894531 38.183594 14.148438 C 38.425781 14.183594 38.644531 14.191406 38.851562 14.085938 C 38.914062 14.054688 38.929688 14.019531 38.921875 13.957031 C 38.894531 13.792969 38.886719 13.636719 38.863281 13.46875 C 38.835938 13.234375 38.757812 12.992188 38.949219 12.773438 C 38.957031 12.765625 38.957031 12.75 38.957031 12.738281 C 39.007812 12.511719 39.0625 12.289062 39.105469 12.050781 C 39.121094 11.984375 39.113281 11.914062 39.105469 11.84375 C 39.097656 11.792969 39.070312 11.75 38.992188 11.757812 C 38.800781 11.78125 38.609375 11.800781 38.417969 11.808594 C 38.242188 11.816406 38.105469 11.886719 37.984375 12.007812 C 37.886719 12.105469 37.792969 12.199219 37.695312 12.304688 C 37.671875 12.332031 37.660156 12.367188 37.644531 12.402344 C 37.6875 12.417969 37.730469 12.433594 37.765625 12.433594 C 37.800781 12.433594 37.835938 12.410156 37.878906 12.390625 C 38 12.347656 38.121094 12.289062 38.242188 12.269531 C 38.402344 12.242188 38.566406 12.253906 38.722656 12.261719 C 38.757812 12.261719 38.792969 12.332031 38.828125 12.367188 C 38.792969 12.402344 38.765625 12.445312 38.722656 12.460938 C 38.679688 12.488281 38.625 12.480469 38.558594 12.480469 Z M 29.519531 18.089844 C 29.816406 18.0625 29.824219 18.054688 29.808594 17.800781 C 29.808594 17.785156 29.808594 17.765625 29.808594 17.757812 C 29.773438 17.183594 29.667969 16.609375 29.53125 16.054688 C 29.519531 16.019531 29.496094 15.964844 29.46875 15.949219 C 29.363281 15.886719 29.25 15.835938 29.148438 15.773438 C 29.070312 15.886719 29 16.007812 28.902344 16.105469 C 28.859375 16.15625 28.851562 16.183594 28.867188 16.246094 C 28.957031 16.503906 29.042969 16.765625 29.136719 17.019531 C 29.261719 17.375 29.390625 17.738281 29.519531 18.089844 Z M 28.105469 18.515625 C 28.023438 18.402344 27.957031 18.304688 27.894531 18.210938 C 27.722656 17.921875 27.554688 17.636719 27.390625 17.339844 C 27.3125 17.210938 27.3125 17.0625 27.398438 16.929688 C 27.496094 16.792969 27.589844 16.652344 27.675781 16.515625 C 27.703125 16.480469 27.730469 16.445312 27.773438 16.375 C 27.574219 16.359375 27.40625 16.347656 27.242188 16.332031 C 27.171875 16.324219 27.148438 16.347656 27.113281 16.402344 C 26.972656 16.671875 26.929688 16.957031 26.980469 17.246094 C 27.050781 17.574219 27.148438 17.90625 27.242188 18.226562 C 27.261719 18.296875 27.320312 18.367188 27.371094 18.410156 C 27.589844 18.601562 27.832031 18.582031 28.105469 18.515625 Z M 38.871094 11.15625 C 38.671875 11.21875 38.460938 11.234375 38.296875 11.332031 C 38.042969 11.496094 37.816406 11.703125 37.589844 11.90625 C 37.511719 11.972656 37.546875 12.035156 37.644531 12.070312 C 37.722656 12.097656 37.757812 12.042969 37.800781 12.007812 C 37.929688 11.90625 38.050781 11.78125 38.199219 11.714844 C 38.410156 11.617188 38.644531 11.574219 38.863281 11.511719 C 38.871094 11.410156 38.871094 11.296875 38.871094 11.15625 Z M 38.714844 10.636719 C 38.332031 10.730469 37.984375 10.78125 37.816406 11.175781 C 37.792969 11.242188 37.738281 11.296875 37.695312 11.355469 C 37.644531 11.425781 37.589844 11.496094 37.539062 11.566406 C 37.546875 11.574219 37.558594 11.589844 37.566406 11.601562 C 37.609375 11.582031 37.652344 11.574219 37.6875 11.539062 C 37.90625 11.339844 38.121094 11.140625 38.417969 11.050781 C 38.496094 11.035156 38.601562 11 38.636719 10.9375 C 38.6875 10.878906 38.6875 10.765625 38.714844 10.636719 Z M 37.894531 10.667969 C 38.132812 10.582031 38.375 10.488281 38.617188 10.398438 C 38.644531 10.253906 38.566406 10.175781 38.410156 10.21875 C 38.261719 10.261719 38.121094 10.320312 37.984375 10.382812 C 37.886719 10.425781 37.851562 10.546875 37.894531 10.667969 Z M 37.007812 10.929688 C 36.941406 10.851562 36.878906 10.757812 36.792969 10.6875 C 36.757812 10.660156 36.667969 10.6875 36.617188 10.703125 C 36.601562 10.714844 36.574219 10.773438 36.582031 10.800781 C 36.636719 10.90625 36.695312 11.007812 36.75 11.113281 C 36.859375 11.042969 36.949219 10.984375 37.007812 10.929688 Z M 37.007812 10.929688 " fill-opacity="1" fill-rule="nonzero" data-index="4" style="visibility: visible;"></path></g></svg>