<svg xmlns="http://www.w3.org/2000/svg" xmlns:xlink="http://www.w3.org/1999/xlink" width="80" zoomAndPan="magnify" viewBox="0 0 60 60" height="80" preserveAspectRatio="xMidYMid meet" version="1.0"><defs><clipPath id="99e7a86b57"><path d="M 7.53125 11.410156 L 52.53125 11.410156 L 52.53125 48.910156 L 7.53125 48.910156 Z M 7.53125 11.410156 " clip-rule="nonzero"/></clipPath></defs><g clip-path="url(#99e7a86b57)"><path fill="#eef0ed" d="M 51.328125 29.621094 C 50.117188 26.433594 47.539062 23.625 44.257812 21.921875 C 40.828125 20.136719 37.15625 19.785156 33.917969 20.929688 C 32.265625 21.511719 30.75 22.363281 29.394531 23.453125 C 27.25 22.113281 24.585938 21.335938 21.664062 21.199219 C 21.300781 21.183594 20.933594 21.1875 20.566406 21.210938 C 20.566406 21.210938 23.027344 14.472656 23.027344 14.46875 C 23.09375 14.273438 23.011719 14.058594 22.835938 13.957031 L 18.617188 11.484375 C 18.511719 11.421875 18.382812 11.410156 18.265625 11.445312 L 10.222656 13.914062 C 10.097656 13.953125 10 14.046875 9.949219 14.164062 L 7.640625 19.738281 C 7.550781 19.953125 7.648438 20.203125 7.863281 20.304688 L 14.445312 23.328125 C 12.605469 24.519531 11.046875 26.117188 10.015625 27.886719 C 8.226562 30.9375 7.945312 34.984375 9.257812 38.703125 C 10.5625 42.394531 13.296875 45.144531 16.957031 46.445312 C 18.511719 46.992188 20.152344 47.261719 21.785156 47.261719 C 24.648438 47.261719 27.472656 46.4375 29.707031 44.867188 C 32.195312 46.773438 35.585938 48.027344 39.003906 48.027344 C 41.703125 48.027344 44.414062 47.246094 46.703125 45.386719 C 48.972656 43.542969 50.691406 41.003906 51.542969 38.234375 C 52.441406 35.332031 52.363281 32.351562 51.328125 29.621094 Z M 15.359375 22.785156 L 9.238281 19.972656 L 12.511719 19.179688 L 15.675781 22.613281 C 15.566406 22.667969 15.464844 22.726562 15.359375 22.785156 Z M 15.113281 13.328125 L 17.664062 16.390625 L 13.140625 18.050781 L 13.449219 13.839844 Z M 16.503906 22.222656 L 13.421875 18.878906 L 17.960938 17.214844 L 17.960938 21.6875 C 17.46875 21.832031 16.984375 22.011719 16.503906 22.222656 Z M 18.832031 16.851562 L 21.808594 15.265625 L 19.597656 21.3125 C 19.34375 21.351562 19.089844 21.398438 18.832031 21.457031 Z M 18.339844 12.335938 L 21.726562 14.320312 L 18.503906 16.035156 L 16.019531 13.046875 Z M 10.675781 14.691406 L 12.550781 14.113281 L 12.246094 18.347656 L 8.820312 19.175781 Z M 17.25 45.621094 C 13.839844 44.410156 11.296875 41.851562 10.082031 38.414062 C 8.855469 34.933594 9.109375 31.160156 10.769531 28.328125 C 11.855469 26.464844 13.570312 24.804688 15.589844 23.652344 C 15.910156 23.46875 16.242188 23.296875 16.578125 23.144531 C 17.210938 22.847656 17.859375 22.609375 18.511719 22.433594 C 19 22.300781 19.492188 22.203125 19.976562 22.140625 C 20.527344 22.070312 21.082031 22.046875 21.621094 22.074219 C 24.289062 22.195312 26.71875 22.878906 28.691406 24.046875 C 28.332031 24.378906 27.988281 24.726562 27.660156 25.085938 C 25.230469 23.511719 21.953125 22.933594 19.003906 23.585938 C 15.867188 24.277344 13.257812 26.195312 12.015625 28.71875 C 10.777344 31.242188 10.496094 34.378906 11.261719 37.113281 C 12.324219 40.917969 14.703125 43.601562 17.78125 44.476562 C 18.96875 44.8125 20.1875 44.980469 21.390625 44.980469 C 22.9375 44.980469 24.460938 44.703125 25.867188 44.15625 C 26.667969 43.84375 27.433594 43.441406 28.148438 42.957031 C 28.152344 42.953125 28.160156 42.949219 28.167969 42.945312 C 28.269531 42.875 28.375 42.800781 28.476562 42.726562 C 28.929688 42.398438 29.359375 42.023438 29.753906 41.613281 C 30.464844 40.882812 31.105469 40.015625 31.71875 38.953125 C 34.074219 34.855469 32.476562 30.011719 29.933594 27.082031 C 30.28125 26.707031 30.660156 26.347656 31.066406 26.011719 C 31.082031 26 31.097656 25.988281 31.113281 25.972656 C 31.839844 26.75 32.441406 27.628906 32.902344 28.601562 C 34.632812 32.246094 34.445312 36.835938 32.414062 40.582031 C 31.988281 41.363281 31.460938 42.085938 30.855469 42.730469 C 30.484375 43.125 30.074219 43.496094 29.636719 43.835938 C 29.578125 43.882812 29.519531 43.925781 29.457031 43.972656 C 26.15625 46.433594 21.363281 47.078125 17.25 45.621094 Z M 24.871094 38.230469 C 25.324219 39.496094 25.988281 40.734375 26.835938 41.914062 C 26.976562 42.105469 27.121094 42.292969 27.269531 42.480469 C 26.722656 42.816406 26.144531 43.109375 25.546875 43.339844 C 23.222656 44.25 20.550781 44.355469 18.019531 43.636719 C 15.242188 42.847656 13.082031 40.382812 12.101562 36.878906 C 11.390625 34.34375 11.652344 31.4375 12.800781 29.105469 C 13.925781 26.816406 16.3125 25.074219 19.191406 24.4375 C 21.882812 23.84375 24.859375 24.347656 27.089844 25.753906 C 24.191406 29.382812 23.359375 34.007812 24.871094 38.230469 Z M 29.355469 27.75 C 31.652344 30.457031 33.078125 34.835938 30.960938 38.515625 C 30.488281 39.335938 30 40.027344 29.476562 40.625 C 28.007812 38.523438 27.152344 35.621094 27.277344 33.078125 C 27.371094 31.183594 28.085938 29.351562 29.355469 27.75 Z M 31.804688 25.4375 C 34.65625 23.339844 37.492188 22.765625 40.691406 23.632812 C 43.941406 24.511719 46.683594 26.628906 48.027344 29.292969 C 50.585938 34.378906 49.066406 40.375 44.496094 43.238281 C 38.785156 46.816406 34.222656 44.75 31.816406 42.96875 C 32.335938 42.367188 32.796875 41.707031 33.179688 40.996094 C 35.34375 37.011719 35.542969 32.117188 33.691406 28.226562 C 33.203125 27.199219 32.570312 26.261719 31.804688 25.4375 Z M 46.152344 44.710938 C 41.386719 48.582031 34.625 47.414062 30.429688 44.320312 C 30.703125 44.09375 30.964844 43.855469 31.214844 43.609375 C 32.488281 44.566406 34.421875 45.664062 36.863281 45.980469 C 37.324219 46.039062 37.785156 46.066406 38.25 46.066406 C 40.492188 46.066406 42.742188 45.367188 44.957031 43.980469 C 49.917969 40.871094 51.570312 34.390625 48.804688 28.902344 C 47.355469 26.015625 44.40625 23.730469 40.921875 22.789062 C 37.335938 21.816406 34.050781 22.554688 30.878906 25.042969 C 30.757812 25.136719 30.632812 25.238281 30.507812 25.339844 C 29.964844 25.789062 29.460938 26.277344 29.015625 26.792969 C 27.417969 28.628906 26.515625 30.789062 26.40625 33.035156 C 26.265625 35.820312 27.226562 39 28.867188 41.265625 C 28.589844 41.527344 28.300781 41.769531 28 41.992188 C 27.84375 41.800781 27.691406 41.601562 27.546875 41.402344 C 26.742188 40.289062 26.121094 39.125 25.695312 37.933594 C 24.214844 33.804688 25.078125 29.433594 28.066406 25.945312 C 28.5625 25.363281 29.113281 24.816406 29.703125 24.324219 C 31.039062 23.199219 32.554688 22.335938 34.207031 21.753906 C 40.300781 19.601562 48.070312 23.5 50.511719 29.929688 C 52.429688 34.984375 50.636719 41.0625 46.152344 44.710938 Z M 46.152344 44.710938 " fill-opacity="1" fill-rule="nonzero"/></g></svg>