<svg xmlns="http://www.w3.org/2000/svg" xmlns:xlink="http://www.w3.org/1999/xlink" width="80" zoomAndPan="magnify" viewBox="0 0 60 60" height="80" preserveAspectRatio="xMidYMid meet" version="1.0"><defs><clipPath id="7fb5142fe2"><path d="M 18.433594 8.226562 L 41.683594 8.226562 L 41.683594 51.726562 L 18.433594 51.726562 Z M 18.433594 8.226562 " clip-rule="nonzero"/></clipPath></defs><g clip-path="url(#7fb5142fe2)"><path fill="#eef0ed" d="M 21.511719 15.140625 C 21.398438 14.171875 22.058594 13.511719 22.824219 13.269531 C 23.183594 13.15625 23.53125 13.007812 23.824219 12.773438 C 24.035156 12.617188 24.261719 12.511719 24.515625 12.457031 C 24.636719 12.433594 24.75 12.449219 24.855469 12.519531 C 25 12.617188 25.140625 12.726562 25.28125 12.832031 C 25.316406 12.859375 25.351562 12.886719 25.359375 12.921875 C 25.4375 13.179688 25.691406 13.226562 25.90625 13.355469 C 25.890625 13.214844 25.882812 13.066406 25.863281 12.929688 C 25.855469 12.894531 25.820312 12.859375 25.792969 12.839844 C 25.558594 12.703125 25.464844 12.476562 25.410156 12.222656 C 25.367188 11.996094 25.296875 11.769531 25.253906 11.535156 C 25.226562 11.421875 25.160156 11.371094 25.054688 11.351562 C 24.90625 11.328125 24.800781 11.230469 24.757812 11.109375 C 24.660156 10.863281 24.617188 10.605469 24.695312 10.34375 C 24.722656 10.265625 24.785156 10.195312 24.835938 10.132812 C 25.046875 9.917969 25.253906 9.707031 25.464844 9.488281 C 25.871094 9.0625 26.308594 8.6875 26.855469 8.445312 C 27.167969 8.3125 27.5 8.261719 27.832031 8.246094 C 28.082031 8.226562 28.308594 8.3125 28.46875 8.523438 C 28.476562 8.539062 28.492188 8.558594 28.511719 8.558594 C 28.648438 8.582031 28.789062 8.609375 28.929688 8.628906 C 29.058594 8.652344 29.207031 8.644531 29.328125 8.695312 C 29.78125 8.886719 30.078125 9.226562 30.140625 9.734375 C 30.191406 10.175781 30.242188 10.628906 30.296875 11.074219 C 30.3125 11.1875 30.3125 11.308594 30.355469 11.421875 C 30.433594 11.65625 30.433594 11.894531 30.425781 12.128906 C 30.417969 12.257812 30.476562 12.292969 30.609375 12.292969 C 30.816406 12.285156 31.027344 12.285156 31.226562 12.308594 C 31.503906 12.34375 31.777344 12.414062 32.046875 12.476562 C 32.0625 12.476562 32.070312 12.476562 32.089844 12.484375 C 32.375 12.484375 32.664062 12.476562 32.941406 12.484375 C 33.175781 12.492188 33.394531 12.476562 33.621094 12.398438 C 33.855469 12.320312 34.109375 12.277344 34.351562 12.242188 C 34.441406 12.230469 34.542969 12.285156 34.632812 12.320312 C 34.703125 12.34375 34.761719 12.378906 34.832031 12.421875 C 35.230469 12.648438 35.546875 12.964844 35.832031 13.320312 C 35.875 13.382812 35.929688 13.441406 35.964844 13.503906 C 36.113281 13.738281 36.320312 13.914062 36.609375 13.980469 C 36.632812 13.902344 36.660156 13.824219 36.6875 13.746094 C 36.738281 13.5625 36.800781 13.390625 36.84375 13.207031 C 36.859375 13.144531 36.84375 13.066406 36.808594 13.007812 C 36.757812 12.910156 36.6875 12.832031 36.625 12.753906 C 36.460938 12.527344 36.398438 12.277344 36.46875 11.996094 C 36.519531 11.78125 36.566406 11.5625 36.597656 11.34375 C 36.609375 11.316406 36.589844 11.28125 36.582031 11.257812 C 36.53125 11.144531 36.476562 11.03125 36.425781 10.917969 C 36.347656 10.753906 36.382812 10.648438 36.539062 10.5 C 36.667969 10.378906 36.789062 10.351562 36.929688 10.445312 C 37.0625 10.535156 37.164062 10.65625 37.296875 10.777344 C 37.390625 10.726562 37.523438 10.65625 37.644531 10.585938 C 37.652344 10.578125 37.660156 10.570312 37.660156 10.558594 C 37.75 10.335938 37.941406 10.222656 38.167969 10.160156 C 38.269531 10.125 38.367188 10.097656 38.472656 10.074219 C 38.585938 10.046875 38.699219 10.046875 38.785156 10.152344 C 38.863281 10.246094 38.890625 10.359375 38.835938 10.480469 C 38.835938 10.492188 38.828125 10.5 38.828125 10.5 C 38.863281 10.640625 38.871094 10.777344 38.835938 10.925781 C 38.835938 10.933594 38.863281 10.960938 38.878906 10.96875 C 39.070312 11.039062 39.097656 11.203125 39.105469 11.371094 C 39.105469 11.464844 39.125 11.527344 39.195312 11.605469 C 39.253906 11.667969 39.289062 11.769531 39.289062 11.859375 C 39.296875 12.09375 39.296875 12.335938 39.28125 12.570312 C 39.273438 12.695312 39.210938 12.808594 39.175781 12.921875 C 39.316406 13.015625 39.464844 13.121094 39.601562 13.226562 C 39.828125 13.390625 39.953125 13.617188 39.996094 13.902344 C 40.054688 14.347656 40.152344 14.785156 40.230469 15.21875 C 40.273438 15.488281 40.351562 15.75 40.359375 16.019531 C 40.386719 16.523438 40.210938 16.976562 39.882812 17.359375 C 39.785156 17.472656 39.628906 17.5625 39.488281 17.59375 C 38.847656 17.753906 38.183594 17.761719 37.53125 17.675781 C 37.433594 17.65625 37.347656 17.621094 37.242188 17.585938 C 37.148438 17.839844 37.035156 18.09375 36.949219 18.351562 C 36.824219 18.710938 36.632812 19.015625 36.328125 19.242188 C 36.304688 19.257812 36.285156 19.300781 36.285156 19.328125 C 36.371094 19.824219 36.484375 20.3125 36.554688 20.808594 C 36.703125 21.765625 36.816406 22.734375 36.964844 23.699219 C 37.042969 24.203125 37.191406 24.699219 37.269531 25.207031 C 37.402344 26.023438 37.503906 26.851562 37.636719 27.667969 C 37.695312 28.035156 37.582031 28.332031 37.347656 28.601562 C 37.261719 28.707031 37.234375 28.800781 37.242188 28.933594 C 37.269531 29.375 37.269531 29.828125 37.269531 30.273438 C 37.261719 30.925781 37.242188 31.578125 37.21875 32.230469 C 37.207031 32.378906 37.21875 32.527344 37.113281 32.660156 C 37.09375 32.683594 37.113281 32.746094 37.128906 32.789062 C 37.226562 33.101562 37.355469 33.398438 37.425781 33.722656 C 37.617188 34.558594 37.992188 35.324219 38.324219 36.105469 C 38.671875 36.933594 39.019531 37.761719 39.253906 38.632812 C 39.316406 38.859375 39.410156 39.085938 39.523438 39.292969 C 39.855469 39.945312 40.203125 40.582031 40.535156 41.226562 C 40.953125 42.054688 41.074219 42.914062 40.796875 43.8125 C 40.691406 44.132812 40.699219 44.429688 40.789062 44.753906 C 40.882812 45.101562 41.09375 45.398438 41.265625 45.710938 C 41.335938 45.832031 41.40625 45.953125 41.464844 46.085938 C 41.5625 46.292969 41.5625 46.519531 41.457031 46.722656 C 41.363281 46.902344 41.257812 47.105469 41.101562 47.242188 C 40.335938 47.941406 39.472656 48.445312 38.417969 48.539062 C 38.042969 48.574219 37.671875 48.566406 37.296875 48.601562 C 37.078125 48.617188 36.851562 48.679688 36.644531 48.75 C 36.382812 48.835938 36.179688 49.019531 36.066406 49.273438 C 35.886719 49.691406 35.5625 49.890625 35.144531 49.996094 C 34.441406 50.167969 33.742188 50.1875 33.03125 49.984375 C 32.792969 49.917969 32.523438 49.925781 32.273438 49.925781 C 31.742188 49.933594 31.226562 50.011719 30.730469 50.195312 C 30.453125 50.300781 30.207031 50.464844 30.035156 50.707031 C 29.640625 51.265625 29.058594 51.492188 28.433594 51.621094 C 28.242188 51.667969 28.039062 51.632812 27.847656 51.640625 C 27.441406 51.65625 27.03125 51.699219 26.613281 51.710938 C 25.941406 51.726562 25.273438 51.761719 24.601562 51.734375 C 23.957031 51.710938 23.328125 51.542969 22.746094 51.257812 C 22.40625 51.082031 22.101562 50.867188 21.851562 50.578125 C 21.519531 50.210938 21.484375 49.949219 21.71875 49.4375 C 21.769531 49.332031 21.851562 49.238281 21.910156 49.140625 C 21.960938 49.0625 22.023438 48.992188 22.066406 48.90625 C 22.171875 48.722656 22.101562 48.503906 21.902344 48.453125 C 21.683594 48.390625 21.457031 48.359375 21.230469 48.339844 C 20.882812 48.3125 20.550781 48.226562 20.222656 48.113281 C 20.019531 48.042969 19.847656 47.914062 19.707031 47.75 C 19.542969 47.53125 19.34375 47.355469 19.105469 47.21875 C 18.699219 46.980469 18.523438 46.589844 18.480469 46.128906 C 18.4375 45.632812 18.566406 45.1875 18.777344 44.746094 C 19.089844 44.101562 19.585938 43.613281 20.125 43.160156 C 20.492188 42.855469 20.847656 42.53125 21.207031 42.210938 C 21.328125 42.097656 21.433594 41.964844 21.527344 41.835938 C 22.042969 41.15625 22.425781 40.417969 22.625 39.589844 C 22.78125 38.953125 22.910156 38.320312 23.070312 37.691406 C 23.296875 36.769531 23.609375 35.878906 24.078125 35.054688 C 24.085938 35.042969 24.085938 35.027344 24.097656 35 C 23.921875 35.035156 23.757812 35.070312 23.589844 35.105469 C 23.078125 35.210938 22.574219 35.21875 22.058594 35.113281 C 21.5 35.007812 20.988281 34.511719 20.917969 34.007812 C 20.890625 33.816406 20.890625 33.617188 20.917969 33.425781 C 20.96875 33.007812 20.847656 32.683594 20.472656 32.457031 C 20.195312 32.285156 19.953125 32.074219 19.785156 31.78125 C 19.445312 31.179688 19.324219 30.558594 19.578125 29.898438 C 19.726562 29.515625 19.882812 29.132812 19.996094 28.742188 C 20.144531 28.234375 20.257812 27.714844 20.378906 27.199219 C 20.535156 26.511719 20.621094 25.804688 20.65625 25.101562 C 20.664062 24.832031 20.605469 24.550781 20.5625 24.28125 C 20.527344 24.03125 20.484375 23.769531 20.421875 23.515625 C 20.351562 23.246094 20.28125 22.96875 20.179688 22.707031 C 20.011719 22.296875 20.019531 21.871094 20.03125 21.445312 C 20.039062 21.21875 20.03125 20.984375 20.039062 20.757812 C 20.054688 20.375 20.160156 20.015625 20.292969 19.660156 C 20.492188 19.085938 20.683594 18.511719 20.734375 17.902344 C 20.789062 17.300781 20.867188 16.707031 20.820312 16.105469 C 20.789062 15.59375 20.960938 15.324219 21.449219 15.121094 C 21.484375 15.15625 21.5 15.148438 21.511719 15.140625 Z M 19.648438 47.121094 C 20.542969 45.632812 21.535156 44.214844 22.40625 42.707031 C 22.425781 42.777344 22.425781 42.835938 22.414062 42.898438 C 22.355469 43.34375 22.179688 43.75 21.980469 44.144531 C 21.511719 45.074219 20.875 45.902344 20.230469 46.722656 C 20.089844 46.894531 19.953125 47.070312 19.792969 47.269531 C 19.996094 47.417969 20.160156 47.582031 20.359375 47.667969 C 20.621094 47.773438 20.917969 47.816406 21.195312 47.886719 C 21.433594 47.941406 21.675781 47.964844 21.910156 48.035156 C 22.042969 48.070312 22.144531 48.15625 22.277344 48.226562 C 22.355469 47.914062 22.449219 47.601562 22.519531 47.285156 C 22.71875 46.414062 22.921875 45.546875 23.09375 44.664062 C 23.363281 43.300781 23.589844 41.921875 23.859375 40.566406 C 24.210938 38.832031 24.835938 37.167969 25.359375 35.488281 C 25.367188 35.453125 25.394531 35.425781 25.410156 35.402344 C 25.4375 35.4375 25.4375 35.453125 25.4375 35.480469 C 25.359375 35.941406 25.296875 36.402344 25.183594 36.855469 C 24.644531 38.960938 24.226562 41.085938 23.90625 43.238281 C 23.757812 44.195312 23.617188 45.152344 23.339844 46.085938 C 23.113281 46.859375 22.84375 47.625 22.597656 48.402344 C 22.492188 48.730469 22.355469 49.035156 22.144531 49.316406 C 22.09375 49.386719 22.042969 49.464844 22.015625 49.550781 C 21.960938 49.734375 21.910156 49.933594 22.066406 50.089844 C 22.449219 50.480469 22.886719 50.785156 23.410156 50.953125 C 23.695312 51.039062 23.992188 51.125 24.289062 51.171875 C 24.992188 51.28125 25.707031 51.257812 26.414062 51.222656 C 26.988281 51.195312 27.554688 51.152344 28.128906 51.238281 C 28.265625 51.257812 28.421875 51.238281 28.554688 51.203125 C 28.773438 51.144531 29 51.066406 29.199219 50.960938 C 29.347656 50.882812 29.484375 50.753906 29.597656 50.621094 C 29.667969 50.542969 29.675781 50.421875 29.722656 50.324219 C 29.921875 49.890625 30.121094 49.453125 30.332031 49.027344 C 30.84375 47.984375 31.261719 46.894531 31.539062 45.761719 C 31.785156 44.769531 31.941406 43.761719 31.871094 42.734375 C 31.792969 41.660156 31.671875 40.601562 31.566406 39.527344 C 31.558594 39.433594 31.550781 39.347656 31.539062 39.25 C 31.550781 39.25 31.566406 39.242188 31.574219 39.242188 C 31.585938 39.265625 31.601562 39.292969 31.609375 39.320312 C 31.664062 39.484375 31.722656 39.652344 31.777344 39.824219 C 32.003906 40.617188 32.125 41.425781 32.246094 42.238281 C 32.359375 42.949219 32.402344 43.664062 32.308594 44.378906 C 32.125 45.816406 31.6875 47.183594 31.035156 48.480469 C 30.78125 48.96875 30.503906 49.4375 30.242188 49.925781 C 30.226562 49.949219 30.21875 49.976562 30.191406 50.03125 C 30.625 49.769531 31.070312 49.636719 31.53125 49.558594 C 32.097656 49.472656 32.65625 49.410156 33.222656 49.566406 C 33.65625 49.691406 34.101562 49.707031 34.535156 49.628906 C 34.796875 49.585938 35.050781 49.523438 35.292969 49.4375 C 35.511719 49.359375 35.582031 49.203125 35.5625 48.976562 C 35.554688 48.90625 35.554688 48.84375 35.554688 48.777344 C 35.546875 48.253906 35.5625 47.730469 35.539062 47.207031 C 35.476562 45.964844 35.390625 44.71875 35.441406 43.472656 C 35.441406 43.4375 35.449219 43.394531 35.449219 43.34375 C 35.484375 43.359375 35.492188 43.367188 35.503906 43.378906 C 35.789062 45.144531 35.988281 46.921875 35.851562 48.742188 C 35.886719 48.714844 35.902344 48.707031 35.910156 48.6875 C 36.171875 48.445312 36.476562 48.289062 36.824219 48.246094 C 37.191406 48.199219 37.566406 48.175781 37.941406 48.183594 C 38.664062 48.191406 39.316406 48.007812 39.890625 47.582031 C 40.179688 47.375 40.457031 47.148438 40.710938 46.894531 C 41.003906 46.589844 41.003906 46.40625 40.796875 46.042969 C 40.777344 46.007812 40.753906 45.972656 40.734375 45.9375 C 40.570312 45.5625 40.359375 45.207031 40.34375 44.789062 C 40.34375 44.753906 40.324219 44.710938 40.308594 44.675781 C 40.066406 44.238281 39.820312 43.796875 39.578125 43.359375 C 38.792969 41.984375 37.984375 40.617188 37.382812 39.144531 C 37.113281 38.484375 36.859375 37.820312 36.597656 37.160156 C 36.589844 37.132812 36.597656 37.097656 36.597656 37.066406 C 36.625 37.082031 36.660156 37.097656 36.679688 37.125 C 36.765625 37.273438 36.851562 37.421875 36.929688 37.578125 C 37.425781 38.519531 37.921875 39.460938 38.429688 40.390625 C 39.027344 41.496094 39.648438 42.59375 40.265625 43.691406 C 40.28125 43.714844 40.300781 43.734375 40.316406 43.769531 C 40.414062 43.316406 40.429688 42.882812 40.378906 42.4375 C 40.324219 41.921875 40.230469 41.425781 39.996094 40.964844 C 39.742188 40.46875 39.472656 39.972656 39.210938 39.476562 C 39.105469 39.265625 39.003906 39.058594 38.914062 38.839844 C 38.835938 38.648438 38.785156 38.449219 38.707031 38.265625 C 38.359375 37.4375 38 36.613281 37.644531 35.792969 C 37.375 35.167969 37.085938 34.558594 36.957031 33.886719 C 36.929688 33.765625 36.886719 33.644531 36.84375 33.511719 C 36.695312 32.988281 36.496094 32.476562 36.53125 31.917969 C 36.53125 31.894531 36.519531 31.875 36.519531 31.847656 C 36.390625 31.492188 36.277344 31.136719 36.121094 30.796875 C 35.867188 30.222656 35.582031 29.664062 35.320312 29.097656 C 35.09375 28.609375 34.832031 28.148438 34.507812 27.722656 C 34.074219 27.136719 33.640625 26.554688 33.289062 25.910156 C 33.0625 25.484375 32.777344 25.101562 32.472656 24.726562 C 32.273438 24.484375 32.070312 24.238281 31.890625 23.976562 C 31.707031 23.714844 31.550781 23.445312 31.53125 23.117188 C 31.523438 22.871094 31.53125 22.628906 31.558594 22.394531 C 31.609375 21.90625 31.585938 21.453125 31.210938 21.085938 C 31.113281 20.992188 31.035156 20.949219 30.894531 20.992188 C 30.722656 21.035156 30.546875 21.050781 30.382812 21.078125 C 30.363281 21.15625 30.363281 21.234375 30.332031 21.289062 C 30.171875 21.523438 30.035156 21.785156 29.824219 21.976562 C 29.214844 22.550781 28.457031 22.890625 27.664062 23.132812 C 27.394531 23.21875 27.109375 23.265625 26.820312 23.332031 C 27.054688 24.125 27.300781 24.925781 27.542969 25.753906 C 27.648438 25.660156 27.726562 25.597656 27.789062 25.527344 C 27.902344 25.398438 28.03125 25.292969 28.195312 25.222656 C 28.398438 25.136719 28.582031 25.015625 28.773438 24.902344 C 29.085938 24.710938 29.371094 24.492188 29.695312 24.328125 C 29.929688 24.203125 30.199219 24.152344 30.453125 24.082031 C 30.667969 24.011719 30.808594 24.125 30.78125 24.359375 C 30.773438 24.4375 30.738281 24.527344 30.6875 24.597656 C 30.609375 24.699219 30.511719 24.796875 30.417969 24.890625 C 30.3125 24.996094 30.199219 25.082031 30.078125 25.195312 C 30.398438 25.109375 30.660156 24.960938 30.921875 24.789062 C 31.132812 24.648438 31.359375 24.507812 31.628906 24.5625 C 31.898438 24.605469 31.976562 24.796875 31.808594 25.023438 C 31.765625 25.082031 31.707031 25.128906 31.652344 25.179688 C 31.628906 25.207031 31.59375 25.230469 31.539062 25.285156 C 31.671875 25.25 31.777344 25.214844 31.871094 25.195312 C 31.976562 25.179688 32.089844 25.164062 32.203125 25.164062 C 32.429688 25.152344 32.558594 25.242188 32.613281 25.421875 C 32.664062 25.613281 32.578125 25.804688 32.394531 25.894531 C 32.246094 25.964844 32.082031 26.023438 31.933594 26.09375 C 31.84375 26.128906 31.765625 26.179688 31.699219 26.214844 C 31.863281 26.257812 32.027344 26.277344 32.167969 26.335938 C 32.351562 26.414062 32.367188 26.589844 32.210938 26.710938 C 32.125 26.78125 32.011719 26.832031 31.90625 26.878906 C 31.835938 26.902344 31.75 26.902344 31.679688 26.929688 C 31.53125 26.972656 31.390625 27.027344 31.246094 27.078125 C 31.410156 27.148438 31.539062 27.21875 31.617188 27.363281 C 31.679688 27.476562 31.664062 27.574219 31.566406 27.660156 C 31.4375 27.792969 31.269531 27.808594 31.097656 27.792969 C 30.984375 27.773438 30.871094 27.757812 30.757812 27.75 C 30.242188 27.722656 29.738281 27.644531 29.277344 27.382812 C 29.207031 27.347656 29.121094 27.332031 29.042969 27.332031 C 28.796875 27.347656 28.554688 27.375 28.308594 27.410156 C 28.277344 27.410156 28.25 27.433594 28.207031 27.441406 C 28.242188 27.539062 28.277344 27.625 28.300781 27.714844 C 28.363281 27.886719 28.414062 28.0625 28.476562 28.234375 C 28.5 28.324219 28.519531 28.417969 28.570312 28.496094 C 28.753906 28.792969 28.894531 29.097656 28.945312 29.4375 C 29.007812 29.863281 28.972656 30.273438 28.753906 30.648438 C 28.492188 31.101562 28.136719 31.476562 27.710938 31.78125 C 27.542969 31.894531 27.371094 31.996094 27.203125 32.101562 C 27.03125 32.214844 26.925781 32.363281 26.917969 32.570312 C 26.917969 32.746094 26.925781 32.921875 26.917969 33.085938 C 26.917969 33.226562 26.941406 33.382812 26.882812 33.484375 C 26.726562 33.765625 26.570312 34.070312 26.273438 34.234375 C 25.949219 34.417969 25.621094 34.582031 25.28125 34.730469 C 25.011719 34.84375 24.722656 34.914062 24.460938 35 C 24.4375 35.097656 24.417969 35.183594 24.382812 35.261719 C 24.085938 35.878906 23.84375 36.523438 23.652344 37.1875 C 23.476562 37.8125 23.339844 38.449219 23.171875 39.074219 C 22.910156 40.042969 22.476562 40.929688 21.9375 41.765625 C 21.769531 42.027344 21.605469 42.289062 21.414062 42.53125 C 21.003906 43.074219 20.492188 43.515625 19.988281 43.96875 C 19.558594 44.351562 19.265625 44.824219 19.039062 45.335938 C 18.847656 45.761719 18.855469 46.199219 19.011719 46.632812 C 19.0625 46.773438 19.152344 46.914062 19.265625 47.007812 C 19.386719 47.035156 19.523438 47.058594 19.648438 47.121094 Z M 21.25 20.269531 C 21.257812 20.277344 21.273438 20.277344 21.285156 20.285156 C 21.285156 20.3125 21.292969 20.339844 21.292969 20.363281 C 21.308594 22.316406 21.25 24.273438 21.023438 26.214844 C 20.910156 27.207031 20.628906 28.15625 20.203125 29.0625 C 20.074219 29.332031 19.960938 29.613281 19.839844 29.890625 C 19.585938 30.4375 19.761719 30.945312 20.03125 31.421875 C 20.125 31.585938 20.257812 31.734375 20.394531 31.859375 C 20.640625 32.074219 20.910156 32.257812 21.171875 32.457031 C 21.171875 32.433594 21.179688 32.398438 21.1875 32.355469 C 21.25 31.894531 21.292969 31.429688 21.363281 30.976562 C 21.578125 29.671875 21.789062 28.367188 21.902344 27.042969 C 21.972656 26.179688 22.09375 25.328125 22.199219 24.472656 C 22.214844 24.335938 22.257812 24.195312 22.292969 24.054688 C 22.3125 24.054688 22.320312 24.054688 22.335938 24.066406 C 22.335938 24.109375 22.347656 24.152344 22.347656 24.195312 C 22.328125 25.171875 22.3125 26.136719 22.277344 27.113281 C 22.257812 27.660156 22.242188 28.21875 22.15625 28.765625 C 21.960938 29.996094 21.726562 31.214844 21.5 32.433594 C 21.414062 32.910156 21.300781 33.390625 21.292969 33.886719 C 21.292969 34.042969 21.320312 34.191406 21.414062 34.320312 C 21.597656 34.546875 21.816406 34.738281 22.109375 34.757812 C 22.441406 34.785156 22.78125 34.808594 23.101562 34.757812 C 23.972656 34.625 24.808594 34.382812 25.621094 34.050781 C 25.75 34 25.871094 33.9375 25.996094 33.886719 C 25.960938 33.730469 25.925781 33.582031 25.890625 33.433594 C 25.882812 33.40625 25.871094 33.371094 25.855469 33.347656 C 25.488281 32.597656 25.304688 31.796875 25.238281 30.976562 C 25.160156 30.125 25.160156 29.273438 25.132812 28.417969 C 25.125 28.304688 25.140625 28.183594 25.125 28.070312 C 25.070312 27.609375 25.011719 27.148438 24.941406 26.6875 C 24.828125 25.902344 24.617188 25.136719 24.289062 24.414062 C 24.175781 24.167969 24.050781 23.933594 23.949219 23.691406 C 23.101562 21.714844 22.378906 19.695312 22.050781 17.550781 C 21.996094 17.203125 22.007812 16.847656 21.996094 16.5 C 21.996094 16.464844 22.015625 16.429688 22.042969 16.367188 C 22.074219 16.613281 22.085938 16.8125 22.136719 17.003906 C 22.335938 17.734375 22.519531 18.476562 22.773438 19.1875 C 23.269531 20.566406 23.808594 21.921875 24.332031 23.289062 C 24.539062 23.839844 24.75 24.386719 24.855469 24.96875 C 24.957031 25.554688 25.046875 26.136719 25.125 26.71875 C 25.191406 27.226562 25.261719 27.738281 25.324219 28.246094 C 25.375 28.664062 25.394531 29.089844 25.453125 29.507812 C 25.550781 30.160156 25.644531 30.820312 25.769531 31.464844 C 25.855469 31.945312 25.96875 32.421875 26.089844 32.902344 C 26.152344 33.144531 26.238281 33.382812 26.316406 33.652344 C 26.386719 33.574219 26.429688 33.519531 26.480469 33.476562 C 26.65625 33.355469 26.671875 33.179688 26.664062 32.988281 C 26.65625 32.78125 26.683594 32.570312 26.691406 32.371094 C 26.699219 32.207031 26.769531 32.066406 26.882812 31.953125 C 26.96875 31.867188 27.054688 31.769531 27.160156 31.699219 C 27.585938 31.40625 27.917969 31.011719 28.214844 30.585938 C 28.597656 30.019531 28.613281 29.417969 28.335938 28.800781 C 28.242188 28.59375 28.144531 28.382812 28.09375 28.167969 C 28.058594 28.035156 28.039062 27.90625 27.980469 27.792969 C 27.953125 27.75 27.9375 27.695312 27.917969 27.644531 C 27.699219 27.007812 27.484375 26.371094 27.273438 25.738281 C 26.988281 24.855469 26.777344 23.960938 26.464844 23.089844 C 26.175781 22.304688 25.757812 21.609375 25.253906 20.964844 C 24.722656 20.285156 24.199219 19.605469 23.851562 18.816406 C 23.824219 18.753906 23.808594 18.691406 23.78125 18.640625 C 23.792969 18.632812 23.808594 18.613281 23.816406 18.605469 C 23.871094 18.632812 23.929688 18.648438 23.972656 18.691406 C 24.070312 18.796875 24.164062 18.910156 24.253906 19.023438 C 24.46875 19.300781 24.6875 19.589844 24.90625 19.867188 C 24.921875 19.894531 24.949219 19.921875 24.976562 19.945312 C 24.964844 19.84375 24.933594 19.746094 24.90625 19.660156 C 24.722656 19.023438 24.425781 18.449219 23.992188 17.953125 C 23.835938 17.769531 23.695312 17.550781 23.566406 17.34375 C 23.320312 16.960938 23.085938 16.558594 22.84375 16.175781 C 22.652344 15.863281 22.40625 15.609375 22.101562 15.402344 C 21.910156 15.261719 21.753906 15.296875 21.578125 15.375 C 21.292969 15.496094 21.09375 15.6875 21.074219 16.019531 C 21.046875 16.394531 21.03125 16.769531 20.996094 17.144531 C 20.953125 17.648438 20.910156 18.160156 20.832031 18.65625 C 20.761719 19.074219 20.65625 19.492188 20.550781 19.902344 C 20.378906 20.566406 20.359375 21.242188 20.359375 21.921875 C 20.359375 22.0625 20.394531 22.203125 20.449219 22.332031 C 20.570312 22.609375 20.710938 22.878906 20.847656 23.160156 C 20.847656 23.140625 20.855469 23.117188 20.855469 23.089844 C 20.910156 22.472656 20.960938 21.851562 21.03125 21.234375 C 21.058594 20.972656 21.109375 20.710938 21.152344 20.460938 C 21.171875 20.398438 21.214844 20.339844 21.25 20.269531 Z M 26.246094 16.011719 C 26.21875 16.261719 26.0625 16.453125 25.644531 16.421875 C 25.644531 16.4375 25.644531 16.453125 25.644531 16.480469 C 25.691406 16.925781 25.578125 17.335938 25.367188 17.726562 C 25.273438 17.910156 25.140625 18.046875 24.949219 18.136719 C 24.808594 18.195312 24.765625 18.371094 24.84375 18.511719 C 24.921875 18.648438 25.019531 18.796875 25.054688 18.953125 C 25.140625 19.355469 25.203125 19.773438 25.273438 20.183594 C 25.28125 20.25 25.304688 20.320312 25.351562 20.375 C 25.960938 21.085938 26.414062 21.898438 26.691406 22.792969 C 26.777344 23.0625 26.777344 23.054688 27.046875 23.003906 C 28.050781 22.820312 28.929688 22.417969 29.625 21.652344 C 29.773438 21.496094 29.894531 21.3125 30.027344 21.148438 C 30.015625 21.140625 30.007812 21.128906 30 21.121094 C 29.835938 21.175781 29.667969 21.21875 29.503906 21.269531 C 29.46875 21.277344 29.433594 21.261719 29.398438 21.261719 C 29.40625 21.226562 29.398438 21.175781 29.417969 21.15625 C 29.460938 21.113281 29.511719 21.0625 29.574219 21.035156 C 29.765625 20.957031 29.957031 20.871094 30.15625 20.824219 C 30.546875 20.746094 30.949219 20.703125 31.339844 20.625 C 31.800781 20.53125 32.253906 20.40625 32.707031 20.304688 C 33.5625 20.101562 34.414062 19.910156 35.214844 19.539062 C 35.582031 19.363281 35.929688 19.179688 36.207031 18.894531 C 36.328125 18.761719 36.453125 18.625 36.53125 18.464844 C 36.660156 18.207031 36.773438 17.945312 36.871094 17.664062 C 37.289062 16.375 37.660156 15.070312 37.914062 13.738281 C 37.929688 13.632812 37.964844 13.53125 38.035156 13.449219 C 38.269531 13.171875 38.382812 12.859375 38.359375 12.476562 C 38.296875 12.492188 38.246094 12.511719 38.191406 12.527344 C 38.0625 12.5625 37.929688 12.617188 37.800781 12.640625 C 37.546875 12.683594 37.417969 12.535156 37.480469 12.292969 C 37.488281 12.265625 37.488281 12.230469 37.46875 12.214844 C 37.382812 12.109375 37.382812 12.003906 37.433594 11.882812 C 37.445312 11.859375 37.453125 11.832031 37.433594 11.8125 C 37.339844 11.621094 37.339844 11.570312 37.46875 11.40625 C 37.601562 11.238281 37.722656 11.074219 37.871094 10.875 C 37.785156 10.875 37.714844 10.855469 37.660156 10.875 C 37.417969 10.996094 37.183594 11.117188 36.949219 11.257812 C 36.824219 11.328125 36.722656 11.421875 36.710938 11.585938 C 36.703125 11.789062 36.679688 11.996094 36.652344 12.199219 C 36.625 12.378906 36.695312 12.527344 36.824219 12.632812 C 37.105469 12.839844 37.199219 13.164062 37.070312 13.476562 C 36.765625 14.207031 36.460938 14.941406 36.148438 15.664062 C 35.902344 16.21875 35.648438 16.769531 35.390625 17.316406 C 35.257812 17.585938 35.074219 17.8125 34.847656 18.003906 C 34.71875 18.109375 34.589844 18.160156 34.40625 18.171875 C 33.953125 18.195312 33.492188 18.222656 33.054688 18.351562 C 32.148438 18.613281 31.261719 18.589844 30.355469 18.398438 C 30.21875 18.371094 30.070312 18.371094 29.929688 18.40625 C 29.519531 18.492188 29.128906 18.613281 28.71875 18.710938 C 28.398438 18.78125 28.066406 18.847656 27.734375 18.894531 C 27.464844 18.929688 27.136719 18.726562 27.046875 18.492188 C 26.96875 18.300781 26.898438 18.101562 26.832031 17.910156 C 26.628906 17.324219 26.628906 16.75 26.960938 16.210938 C 27.03125 16.089844 27.109375 15.976562 27.195312 15.863281 C 27.316406 15.699219 27.429688 15.53125 27.484375 15.324219 C 27.28125 15.253906 27.179688 15.113281 27.125 14.921875 C 27.089844 14.808594 27.011719 14.738281 26.925781 14.660156 C 26.8125 14.558594 26.726562 14.433594 26.578125 14.367188 C 26.550781 14.355469 26.542969 14.304688 26.535156 14.269531 C 26.515625 14.21875 26.492188 14.15625 26.472656 14.105469 C 26.457031 14.035156 26.414062 14.007812 26.332031 14 C 26.21875 13.992188 26.097656 13.957031 26.011719 13.894531 C 25.882812 13.808594 25.777344 13.6875 25.65625 13.582031 C 25.601562 13.539062 25.542969 13.503906 25.488281 13.460938 C 25.679688 13.808594 25.777344 14.171875 25.800781 14.566406 C 25.8125 14.75 25.855469 14.929688 25.96875 15.089844 C 25.984375 15.113281 25.996094 15.148438 26.003906 15.175781 C 26.046875 15.304688 26.011719 15.402344 25.890625 15.453125 C 25.8125 15.488281 25.722656 15.496094 25.636719 15.496094 C 25.550781 15.507812 25.453125 15.480469 25.367188 15.480469 C 25.238281 15.480469 25.125 15.636719 25.167969 15.765625 C 25.238281 15.949219 25.351562 16.089844 25.53125 16.175781 C 25.742188 16.273438 25.914062 16.203125 26.003906 15.984375 C 26.054688 15.855469 26.167969 15.800781 26.308594 15.835938 C 26.386719 15.855469 26.464844 15.871094 26.535156 15.898438 C 26.578125 15.914062 26.636719 15.957031 26.636719 15.976562 C 26.628906 16.019531 26.59375 16.089844 26.558594 16.097656 C 26.5 16.117188 26.421875 16.097656 26.359375 16.082031 C 26.324219 16.070312 26.289062 16.039062 26.246094 16.011719 Z M 36.902344 29.082031 C 36.835938 29.125 36.789062 29.160156 36.746094 29.195312 C 36.582031 29.308594 36.40625 29.367188 36.207031 29.339844 C 36.121094 29.332031 36 29.332031 35.980469 29.21875 C 35.964844 29.097656 36.085938 29.070312 36.171875 29.035156 C 36.285156 28.992188 36.417969 28.976562 36.503906 28.898438 C 36.746094 28.707031 36.972656 28.496094 37.199219 28.289062 C 37.226562 28.269531 37.234375 28.21875 37.234375 28.183594 C 37.226562 28.054688 37.199219 27.929688 37.183594 27.800781 C 37.09375 26.964844 37.035156 26.121094 36.929688 25.285156 C 36.859375 24.753906 36.730469 24.230469 36.644531 23.699219 C 36.453125 22.550781 36.277344 21.390625 36.09375 20.234375 C 36.058594 19.988281 36.035156 19.746094 36.007812 19.503906 C 35.398438 19.84375 34.769531 20.121094 34.101562 20.304688 C 33.535156 20.460938 32.949219 20.574219 32.367188 20.695312 C 32.097656 20.757812 31.828125 20.800781 31.550781 20.851562 C 31.539062 20.859375 31.539062 20.871094 31.53125 20.878906 C 31.566406 20.90625 31.601562 20.921875 31.628906 20.949219 C 31.855469 21.175781 32.003906 21.433594 32.011719 21.757812 C 32.011719 22.027344 32.003906 22.304688 31.949219 22.574219 C 31.863281 23.054688 31.933594 23.464844 32.261719 23.828125 C 32.488281 24.074219 32.707031 24.328125 32.90625 24.597656 C 33.125 24.882812 33.351562 25.171875 33.535156 25.492188 C 33.832031 25.996094 34.136719 26.496094 34.492188 26.964844 C 34.894531 27.488281 35.265625 28.027344 35.527344 28.636719 C 35.632812 28.878906 35.746094 29.113281 35.851562 29.351562 C 36.136719 30.011719 36.425781 30.671875 36.710938 31.335938 C 36.738281 31.386719 36.757812 31.441406 36.78125 31.484375 C 36.851562 30.691406 36.773438 29.890625 36.902344 29.082031 Z M 29.371094 13.199219 C 29.191406 13.15625 29.121094 13.015625 29.058594 12.894531 C 28.980469 12.738281 29.03125 12.648438 29.214844 12.648438 C 29.441406 12.648438 29.582031 12.535156 29.625 12.308594 C 29.695312 11.980469 29.625 11.675781 29.460938 11.386719 C 29.425781 11.328125 29.347656 11.28125 29.285156 11.230469 C 29.269531 11.214844 29.222656 11.214844 29.199219 11.222656 C 28.929688 11.351562 28.726562 11.699219 28.746094 12.003906 C 28.753906 12.164062 28.78125 12.320312 28.78125 12.476562 C 28.789062 12.597656 28.738281 12.695312 28.625 12.738281 C 28.519531 12.78125 28.371094 12.746094 28.292969 12.648438 C 28.257812 12.617188 28.230469 12.5625 28.214844 12.519531 C 28.144531 12.390625 28.074219 12.257812 28.015625 12.117188 C 27.972656 12.023438 27.910156 11.953125 27.796875 11.925781 C 27.632812 11.882812 27.507812 11.769531 27.449219 11.605469 C 27.421875 11.527344 27.394531 11.449219 27.378906 11.371094 C 27.34375 11.214844 27.316406 11.1875 27.152344 11.160156 C 26.953125 11.125 26.75 11.179688 26.558594 11.230469 C 26.1875 11.335938 25.820312 11.476562 25.410156 11.449219 C 25.453125 11.65625 25.496094 11.859375 25.523438 12.058594 C 25.550781 12.308594 25.65625 12.503906 25.898438 12.605469 C 26.019531 12.660156 26.097656 12.761719 26.105469 12.894531 C 26.125 13.144531 26.140625 13.398438 26.152344 13.652344 C 26.152344 13.722656 26.167969 13.757812 26.238281 13.757812 C 26.324219 13.757812 26.414062 13.746094 26.492188 13.746094 C 26.550781 13.746094 26.664062 13.730469 26.636719 13.816406 C 26.605469 13.957031 26.683594 14.042969 26.71875 14.140625 C 26.734375 14.183594 26.785156 14.226562 26.832031 14.226562 C 26.933594 14.234375 26.976562 14.285156 26.988281 14.382812 C 26.996094 14.417969 27.003906 14.460938 27.03125 14.46875 C 27.195312 14.546875 27.265625 14.703125 27.328125 14.863281 C 27.40625 15.054688 27.527344 15.121094 27.726562 15.0625 C 27.8125 15.035156 27.910156 15 27.980469 14.949219 C 28.128906 14.835938 28.265625 14.714844 28.398438 14.582031 C 28.597656 14.382812 28.78125 14.164062 28.964844 13.957031 C 29.03125 13.878906 29.09375 13.789062 29.15625 13.710938 C 29.191406 13.660156 29.222656 13.597656 29.257812 13.539062 C 29.269531 13.539062 29.285156 13.539062 29.292969 13.546875 C 29.3125 13.617188 29.328125 13.675781 29.335938 13.746094 C 29.347656 13.914062 29.222656 14 29.121094 14.105469 C 28.972656 14.269531 28.824219 14.445312 28.675781 14.609375 C 28.683594 14.617188 28.683594 14.636719 28.695312 14.644531 C 28.917969 14.671875 29.144531 14.695312 29.363281 14.722656 C 29.511719 14.738281 29.625 14.6875 29.722656 14.566406 C 30.007812 14.207031 30.21875 13.816406 30.332031 13.371094 C 30.417969 13.023438 30.382812 12.683594 30.183594 12.378906 C 30.164062 12.355469 30.121094 12.328125 30.085938 12.320312 C 30 12.300781 29.914062 12.300781 29.816406 12.285156 C 29.730469 12.546875 29.660156 12.832031 29.328125 12.894531 C 29.363281 13.015625 29.363281 13.101562 29.371094 13.199219 Z M 36.511719 14.304688 C 36.128906 14.128906 35.886719 13.816406 35.625 13.519531 C 35.355469 13.214844 35.050781 12.945312 34.761719 12.660156 C 34.667969 12.5625 34.554688 12.519531 34.40625 12.511719 C 34.171875 12.511719 33.925781 12.484375 33.707031 12.589844 C 33.386719 12.753906 33.054688 12.746094 32.707031 12.710938 C 32.542969 12.695312 32.367188 12.683594 32.183594 12.675781 C 32.203125 12.710938 32.203125 12.71875 32.210938 12.726562 C 32.226562 12.753906 32.246094 12.78125 32.273438 12.796875 C 32.5 13.023438 32.53125 13.277344 32.386719 13.574219 C 32.308594 13.738281 32.246094 13.921875 32.167969 14.113281 C 32.351562 14.09375 32.515625 14.078125 32.671875 14.0625 C 32.871094 14.035156 33.019531 14.113281 33.132812 14.277344 C 33.335938 14.574219 33.480469 14.90625 33.5625 15.253906 C 33.699219 15.890625 33.769531 16.535156 33.753906 17.1875 C 33.742188 17.421875 33.753906 17.65625 33.753906 17.902344 C 33.980469 17.882812 34.1875 17.867188 34.398438 17.839844 C 34.457031 17.832031 34.535156 17.804688 34.578125 17.761719 C 34.925781 17.394531 35.199219 16.976562 35.441406 16.535156 C 35.457031 16.507812 35.457031 16.453125 35.449219 16.421875 C 35.378906 16.117188 35.320312 15.800781 35.222656 15.496094 C 34.953125 14.660156 34.769531 13.808594 34.589844 12.953125 C 34.578125 12.921875 34.605469 12.875 34.613281 12.839844 C 34.648438 12.867188 34.691406 12.875 34.710938 12.910156 C 34.769531 13.042969 34.824219 13.171875 34.867188 13.304688 C 35.136719 14.15625 35.40625 15.007812 35.667969 15.871094 C 35.683594 15.914062 35.695312 15.957031 35.71875 16.027344 C 36 15.425781 36.328125 14.90625 36.511719 14.304688 Z M 30.171875 12.101562 C 30.191406 12.09375 30.199219 12.085938 30.21875 12.074219 C 30.191406 11.9375 30.164062 11.789062 30.140625 11.648438 C 30.09375 11.449219 30.027344 11.257812 30.007812 11.058594 C 29.972656 10.671875 29.972656 10.28125 29.957031 9.898438 C 29.9375 9.601562 29.894531 9.339844 29.625 9.132812 C 29.335938 8.90625 29.023438 8.84375 28.683594 8.878906 C 28.546875 8.898438 28.46875 8.863281 28.386719 8.742188 C 28.371094 8.722656 28.355469 8.695312 28.328125 8.6875 C 28.230469 8.652344 28.136719 8.601562 28.039062 8.59375 C 27.535156 8.558594 27.046875 8.617188 26.613281 8.914062 C 26.238281 9.167969 25.90625 9.472656 25.601562 9.8125 C 25.429688 10.003906 25.238281 10.175781 24.976562 10.246094 C 24.941406 10.253906 24.90625 10.300781 24.878906 10.34375 C 24.800781 10.472656 24.855469 10.605469 24.871094 10.742188 C 24.933594 11.125 25.160156 11.257812 25.507812 11.222656 C 25.820312 11.1875 26.132812 11.089844 26.445312 11.023438 C 26.691406 10.960938 26.933594 10.890625 27.195312 10.945312 C 27.449219 10.988281 27.535156 11.074219 27.578125 11.328125 C 27.605469 11.507812 27.664062 11.683594 27.875 11.746094 C 28.023438 11.789062 28.128906 11.882812 28.195312 12.015625 C 28.285156 12.171875 28.363281 12.335938 28.457031 12.492188 C 28.476562 12.519531 28.511719 12.535156 28.546875 12.5625 C 28.5625 12.535156 28.589844 12.503906 28.605469 12.46875 C 28.613281 12.433594 28.613281 12.398438 28.613281 12.363281 C 28.605469 12.230469 28.589844 12.101562 28.582031 11.960938 C 28.554688 11.527344 28.726562 11.238281 29.101562 11.082031 C 29.3125 10.996094 29.503906 11.046875 29.652344 11.238281 C 29.78125 11.421875 29.851562 11.632812 29.878906 11.847656 C 29.886719 11.894531 29.886719 11.953125 29.914062 11.972656 C 29.980469 12.015625 30.078125 12.058594 30.171875 12.101562 Z M 23.878906 14.390625 C 23.695312 15.027344 23.476562 15.347656 23.25 15.324219 C 23.339844 15.167969 23.433594 15.007812 23.511719 14.84375 C 23.660156 14.539062 23.765625 14.21875 23.738281 13.867188 C 23.722656 13.667969 23.6875 13.46875 23.660156 13.277344 C 23.574219 13.304688 23.46875 13.347656 23.355469 13.371094 C 22.972656 13.449219 22.640625 13.632812 22.320312 13.859375 C 22.023438 14.070312 21.851562 14.355469 21.761719 14.703125 C 21.726562 14.828125 21.710938 14.957031 21.675781 15.097656 C 21.738281 15.097656 21.78125 15.097656 21.816406 15.097656 C 21.996094 15.121094 22.199219 15.078125 22.363281 15.191406 C 22.476562 15.269531 22.582031 15.347656 22.675781 15.4375 C 22.972656 15.730469 23.164062 16.097656 23.363281 16.453125 C 23.652344 16.96875 23.964844 17.472656 24.367188 17.917969 C 24.390625 17.945312 24.417969 17.980469 24.460938 18.023438 C 24.410156 17.5625 24.242188 17.167969 24.070312 16.769531 C 24.140625 16.777344 24.199219 16.792969 24.242188 16.828125 C 24.453125 16.996094 24.566406 17.222656 24.660156 17.464844 C 24.722656 17.613281 24.765625 17.761719 24.820312 17.917969 C 24.964844 17.820312 25.089844 17.707031 25.167969 17.5625 C 25.351562 17.203125 25.445312 16.828125 25.445312 16.429688 C 25.445312 16.394531 25.4375 16.351562 25.410156 16.324219 C 25.28125 16.195312 25.148438 16.070312 25.019531 15.949219 C 25.019531 15.949219 25 15.96875 24.984375 15.984375 C 24.84375 16.21875 24.714844 16.445312 24.574219 16.679688 C 24.539062 16.734375 24.503906 16.785156 24.453125 16.855469 C 24.417969 16.769531 24.390625 16.714844 24.382812 16.664062 C 24.324219 16.394531 24.382812 16.140625 24.539062 15.914062 C 24.628906 15.792969 24.742188 15.679688 24.835938 15.566406 C 25.019531 15.359375 25.132812 15.121094 25.160156 14.835938 C 25.167969 14.75 25.191406 14.660156 25.210938 14.566406 C 25.21875 14.566406 25.238281 14.566406 25.246094 14.566406 C 25.324219 14.765625 25.324219 14.976562 25.332031 15.175781 C 25.515625 15.191406 25.679688 15.203125 25.847656 15.21875 C 25.855469 15.210938 25.863281 15.191406 25.871094 15.183594 C 25.664062 14.964844 25.636719 14.6875 25.566406 14.417969 C 25.542969 14.304688 25.515625 14.191406 25.480469 14.078125 C 25.375 13.722656 25.160156 13.425781 24.933594 13.136719 C 24.898438 13.09375 24.835938 13.03125 24.84375 12.988281 C 24.871094 12.824219 24.730469 12.761719 24.652344 12.675781 C 24.628906 12.640625 24.550781 12.632812 24.503906 12.640625 C 24.261719 12.675781 24.027344 12.929688 23.992188 13.171875 C 23.964844 13.363281 24.007812 13.539062 24.078125 13.710938 C 24.367188 14.453125 24.242188 15.140625 23.765625 15.777344 C 23.722656 15.835938 23.652344 15.871094 23.589844 15.925781 C 23.582031 15.914062 23.574219 15.90625 23.566406 15.898438 C 23.816406 15.445312 24.027344 14.964844 23.878906 14.390625 Z M 37.304688 17.34375 C 37.390625 17.359375 37.460938 17.378906 37.539062 17.386719 C 38.105469 17.449219 38.671875 17.402344 39.238281 17.351562 C 39.515625 17.324219 39.742188 17.1875 39.847656 16.90625 C 39.863281 16.863281 39.882812 16.828125 39.90625 16.792969 C 40.082031 16.472656 40.125 16.125 40.082031 15.765625 C 40.066406 15.609375 40.03125 15.453125 40.003906 15.289062 C 39.917969 14.835938 39.839844 14.382812 39.742188 13.929688 C 39.714844 13.816406 39.707031 13.695312 39.636719 13.617188 C 39.472656 13.433594 39.246094 13.328125 38.992188 13.207031 C 39.054688 13.460938 39.097656 13.6875 39.152344 13.914062 C 39.21875 13.859375 39.28125 13.824219 39.34375 13.789062 C 39.421875 13.746094 39.472656 13.78125 39.464844 13.859375 C 39.445312 13.957031 39.410156 14.050781 39.359375 14.121094 C 39.210938 14.285156 39.011719 14.375 38.800781 14.425781 C 38.585938 14.480469 38.375 14.433594 38.183594 14.367188 C 37.886719 15.359375 37.601562 16.34375 37.304688 17.34375 Z M 30.617188 24.257812 C 30.609375 24.246094 30.601562 24.238281 30.589844 24.230469 C 30.539062 24.257812 30.496094 24.28125 30.445312 24.300781 C 30.347656 24.34375 30.253906 24.378906 30.164062 24.414062 C 30.050781 24.457031 29.9375 24.472656 29.835938 24.527344 C 29.589844 24.65625 29.347656 24.804688 29.101562 24.953125 C 28.859375 25.109375 28.605469 25.25 28.320312 25.308594 C 28.136719 25.34375 28.050781 25.492188 27.953125 25.640625 C 27.890625 25.746094 27.832031 25.859375 27.777344 25.964844 C 27.761719 25.996094 27.734375 26.03125 27.746094 26.066406 C 27.867188 26.414062 27.996094 26.765625 28.128906 27.105469 C 28.277344 27.070312 28.398438 27.007812 28.535156 27 C 28.902344 26.972656 29.257812 27.015625 29.597656 27.15625 C 30.140625 27.375 30.714844 27.390625 31.269531 27.503906 C 31.332031 27.523438 31.410156 27.488281 31.472656 27.476562 C 31.472656 27.460938 31.480469 27.441406 31.480469 27.433594 C 31.417969 27.390625 31.375 27.332031 31.304688 27.304688 C 31.105469 27.21875 30.914062 27.128906 30.679688 27.199219 C 30.558594 27.234375 30.398438 27.191406 30.269531 27.15625 C 30.21875 27.136719 30.140625 27.050781 30.140625 27 C 30.140625 26.914062 30.234375 26.886719 30.3125 26.886719 C 30.347656 26.886719 30.390625 26.886719 30.425781 26.894531 C 30.617188 26.945312 30.800781 26.921875 30.984375 26.859375 C 31.304688 26.753906 31.628906 26.667969 31.949219 26.5625 C 32.003906 26.546875 32.054688 26.511719 32.140625 26.46875 C 32.0625 26.441406 32.019531 26.414062 31.976562 26.40625 C 31.664062 26.390625 31.359375 26.441406 31.070312 26.554688 C 30.851562 26.640625 30.644531 26.675781 30.417969 26.652344 C 30.363281 26.640625 30.285156 26.589844 30.269531 26.546875 C 30.242188 26.46875 30.304688 26.40625 30.382812 26.382812 C 30.445312 26.355469 30.511719 26.328125 30.574219 26.335938 C 30.894531 26.363281 31.148438 26.207031 31.417969 26.058594 C 31.636719 25.9375 31.863281 25.851562 32.082031 25.746094 C 32.160156 25.710938 32.261719 25.683594 32.316406 25.625 C 32.367188 25.570312 32.375 25.46875 32.375 25.386719 C 32.375 25.371094 32.253906 25.328125 32.203125 25.335938 C 31.90625 25.398438 31.609375 25.476562 31.3125 25.5625 C 31.210938 25.597656 31.113281 25.675781 31.019531 25.746094 C 30.929688 25.804688 30.851562 25.875 30.765625 25.929688 C 30.644531 26.007812 30.511719 26.078125 30.390625 26.144531 C 30.339844 26.179688 30.285156 26.222656 30.226562 26.234375 C 30.164062 26.242188 30.105469 26.207031 30.035156 26.191406 C 30.050781 26.128906 30.050781 26.042969 30.085938 26.007812 C 30.15625 25.945312 30.253906 25.910156 30.339844 25.867188 C 30.46875 25.796875 30.636719 25.746094 30.730469 25.640625 C 30.984375 25.363281 31.261719 25.128906 31.558594 24.917969 C 31.609375 24.882812 31.652344 24.824219 31.699219 24.769531 C 31.6875 24.753906 31.6875 24.746094 31.679688 24.726562 C 31.609375 24.726562 31.539062 24.71875 31.480469 24.726562 C 31.199219 24.753906 30.976562 24.875 30.757812 25.039062 C 30.253906 25.421875 29.695312 25.613281 29.058594 25.546875 C 29.015625 25.535156 28.980469 25.511719 28.9375 25.492188 C 28.972656 25.449219 29 25.386719 29.03125 25.378906 C 29.171875 25.328125 29.328125 25.292969 29.46875 25.25 C 29.503906 25.242188 29.546875 25.222656 29.574219 25.207031 C 29.667969 25.136719 29.753906 25.066406 29.851562 24.988281 C 30.050781 24.8125 30.253906 24.640625 30.453125 24.457031 C 30.53125 24.414062 30.566406 24.328125 30.617188 24.257812 Z M 30.765625 12.527344 C 30.757812 12.535156 30.757812 12.546875 30.75 12.554688 C 30.800781 12.632812 30.84375 12.703125 30.894531 12.78125 C 31.183594 13.242188 31.445312 13.722656 31.617188 14.242188 C 31.84375 14.941406 32.097656 15.636719 32.316406 16.332031 C 32.488281 16.898438 32.636719 17.484375 32.804688 18.066406 C 32.90625 18.046875 33.039062 18.023438 33.160156 18.003906 C 33.480469 17.953125 33.480469 17.953125 33.492188 17.628906 C 33.507812 16.953125 33.457031 16.273438 33.367188 15.59375 C 33.316406 15.183594 33.203125 14.792969 32.976562 14.433594 C 32.90625 14.332031 32.828125 14.296875 32.714844 14.3125 C 32.558594 14.339844 32.394531 14.347656 32.238281 14.355469 C 31.976562 14.375 31.871094 14.207031 31.992188 13.980469 C 32.035156 13.894531 32.089844 13.824219 32.140625 13.738281 C 32.210938 13.609375 32.28125 13.476562 32.339844 13.339844 C 32.359375 13.292969 32.359375 13.214844 32.332031 13.179688 C 32.238281 13.042969 32.125 12.921875 32.011719 12.789062 C 31.984375 12.761719 31.941406 12.738281 31.90625 12.738281 C 31.714844 12.703125 31.53125 12.683594 31.339844 12.648438 C 31.132812 12.605469 30.949219 12.5625 30.765625 12.527344 Z M 31.234375 14.042969 C 31.226562 14.382812 31.21875 14.703125 31.199219 15.027344 C 31.191406 15.140625 31.183594 15.261719 31.15625 15.375 C 31.113281 15.585938 30.949219 15.679688 30.738281 15.621094 C 30.644531 15.59375 30.539062 15.550781 30.445312 15.523438 C 30.425781 15.664062 30.417969 15.792969 30.375 15.925781 C 30.339844 16.027344 30.347656 16.117188 30.398438 16.210938 C 30.667969 16.769531 30.929688 17.335938 31.199219 17.902344 C 31.234375 17.980469 31.28125 18.066406 31.324219 18.144531 C 31.339844 18.171875 31.375 18.195312 31.402344 18.207031 C 31.75 18.230469 32.097656 18.195312 32.453125 18.144531 C 32.339844 16.671875 31.707031 15.382812 31.234375 14.042969 Z M 27.328125 16.089844 C 27.464844 16.117188 27.613281 16.132812 27.734375 16.183594 C 27.972656 16.28125 28.003906 16.410156 27.882812 16.636719 C 27.796875 16.792969 27.691406 16.933594 27.613281 17.089844 C 27.585938 17.144531 27.578125 17.230469 27.613281 17.273438 C 27.859375 17.65625 28.109375 18.03125 28.355469 18.414062 C 28.386719 18.476562 28.441406 18.484375 28.5 18.457031 C 28.738281 18.378906 28.972656 18.300781 29.207031 18.230469 C 29.222656 18.222656 29.242188 18.207031 29.269531 18.195312 C 28.910156 17.179688 28.46875 16.195312 28.195312 15.167969 C 28.039062 15.21875 27.890625 15.261719 27.746094 15.3125 C 27.71875 15.324219 27.699219 15.367188 27.683594 15.394531 C 27.648438 15.507812 27.632812 15.628906 27.570312 15.730469 C 27.519531 15.855469 27.414062 15.96875 27.328125 16.089844 Z M 28.753906 15.941406 C 28.859375 15.765625 28.945312 15.609375 29.050781 15.453125 C 29.320312 15.0625 29.902344 14.949219 30.296875 15.15625 C 30.453125 15.234375 30.609375 15.3125 30.773438 15.382812 C 30.90625 15.4375 30.964844 15.410156 30.984375 15.261719 C 31 15.097656 31.019531 14.929688 31.007812 14.773438 C 30.984375 14.355469 30.964844 13.929688 30.914062 13.511719 C 30.894531 13.355469 30.792969 13.214844 30.722656 13.066406 C 30.714844 13.078125 30.703125 13.078125 30.695312 13.085938 C 30.695312 13.449219 30.574219 13.789062 30.417969 14.105469 C 30.304688 14.339844 30.148438 14.546875 29.992188 14.765625 C 29.894531 14.90625 29.746094 14.976562 29.582031 14.992188 C 29.25 15.027344 28.917969 14.984375 28.613281 14.871094 C 28.511719 14.828125 28.484375 14.898438 28.433594 14.941406 C 28.371094 14.984375 28.398438 15.027344 28.421875 15.078125 C 28.492188 15.253906 28.570312 15.425781 28.640625 15.601562 C 28.667969 15.707031 28.703125 15.820312 28.753906 15.941406 Z M 31.054688 18.171875 C 31.027344 18.109375 31.019531 18.074219 31 18.039062 C 30.835938 17.699219 30.667969 17.359375 30.503906 17.011719 C 30.382812 16.761719 30.261719 16.5 30.15625 16.246094 C 30.121094 16.175781 30.105469 16.082031 30.121094 16.011719 C 30.15625 15.800781 30.21875 15.601562 30.261719 15.394531 C 30.09375 15.289062 29.914062 15.191406 29.695312 15.289062 C 29.652344 15.304688 29.597656 15.324219 29.546875 15.324219 C 29.363281 15.332031 29.285156 15.445312 29.234375 15.601562 C 29.257812 15.609375 29.285156 15.621094 29.3125 15.636719 C 29.546875 15.742188 29.738281 15.890625 29.789062 16.160156 C 29.859375 16.507812 29.929688 16.855469 29.980469 17.203125 C 30.027344 17.472656 30.035156 17.742188 30.050781 17.988281 C 30.234375 18.058594 30.382812 18.117188 30.539062 18.171875 C 30.558594 18.179688 30.582031 18.1875 30.609375 18.1875 C 30.75 18.171875 30.886719 18.171875 31.054688 18.171875 Z M 38.566406 12.492188 C 38.644531 12.9375 38.628906 13.121094 38.394531 13.425781 C 38.210938 13.652344 38.269531 13.914062 38.191406 14.164062 C 38.4375 14.199219 38.652344 14.207031 38.863281 14.105469 C 38.925781 14.070312 38.941406 14.035156 38.933594 13.972656 C 38.90625 13.808594 38.898438 13.652344 38.871094 13.484375 C 38.847656 13.25 38.765625 13.007812 38.960938 12.789062 C 38.96875 12.78125 38.96875 12.761719 38.96875 12.753906 C 39.019531 12.527344 39.070312 12.300781 39.117188 12.066406 C 39.132812 11.996094 39.125 11.925781 39.117188 11.859375 C 39.105469 11.804688 39.082031 11.761719 39.003906 11.769531 C 38.8125 11.796875 38.621094 11.8125 38.429688 11.824219 C 38.253906 11.832031 38.113281 11.902344 37.992188 12.023438 C 37.898438 12.117188 37.800781 12.214844 37.707031 12.320312 C 37.679688 12.34375 37.671875 12.378906 37.652344 12.414062 C 37.695312 12.433594 37.738281 12.449219 37.773438 12.449219 C 37.808594 12.449219 37.84375 12.421875 37.886719 12.40625 C 38.011719 12.363281 38.132812 12.300781 38.253906 12.285156 C 38.410156 12.257812 38.574219 12.265625 38.734375 12.277344 C 38.765625 12.277344 38.800781 12.34375 38.835938 12.378906 C 38.800781 12.414062 38.777344 12.457031 38.734375 12.476562 C 38.6875 12.503906 38.636719 12.492188 38.566406 12.492188 Z M 29.519531 18.109375 C 29.816406 18.082031 29.824219 18.074219 29.808594 17.820312 C 29.808594 17.804688 29.808594 17.789062 29.808594 17.777344 C 29.773438 17.203125 29.667969 16.628906 29.527344 16.070312 C 29.519531 16.039062 29.496094 15.984375 29.46875 15.96875 C 29.363281 15.90625 29.25 15.855469 29.144531 15.792969 C 29.066406 15.90625 29 16.027344 28.902344 16.125 C 28.859375 16.175781 28.851562 16.203125 28.867188 16.261719 C 28.953125 16.523438 29.042969 16.785156 29.136719 17.039062 C 29.257812 17.394531 29.390625 17.761719 29.519531 18.109375 Z M 28.101562 18.535156 C 28.023438 18.421875 27.953125 18.328125 27.890625 18.230469 C 27.71875 17.945312 27.554688 17.65625 27.386719 17.359375 C 27.308594 17.230469 27.308594 17.082031 27.394531 16.953125 C 27.492188 16.8125 27.585938 16.671875 27.675781 16.535156 C 27.699219 16.5 27.726562 16.464844 27.769531 16.394531 C 27.570312 16.375 27.40625 16.367188 27.238281 16.351562 C 27.167969 16.34375 27.144531 16.367188 27.109375 16.421875 C 26.96875 16.691406 26.925781 16.976562 26.976562 17.265625 C 27.046875 17.59375 27.144531 17.925781 27.238281 18.25 C 27.257812 18.320312 27.316406 18.386719 27.371094 18.429688 C 27.585938 18.625 27.832031 18.605469 28.101562 18.535156 Z M 38.878906 11.167969 C 38.679688 11.230469 38.472656 11.25 38.304688 11.34375 C 38.054688 11.507812 37.828125 11.71875 37.601562 11.917969 C 37.523438 11.988281 37.558594 12.050781 37.652344 12.085938 C 37.730469 12.109375 37.765625 12.058594 37.808594 12.023438 C 37.941406 11.917969 38.0625 11.796875 38.210938 11.726562 C 38.417969 11.632812 38.652344 11.585938 38.871094 11.527344 C 38.878906 11.421875 38.878906 11.308594 38.878906 11.167969 Z M 38.722656 10.648438 C 38.339844 10.742188 37.992188 10.796875 37.828125 11.1875 C 37.800781 11.257812 37.75 11.308594 37.707031 11.371094 C 37.652344 11.441406 37.601562 11.507812 37.546875 11.578125 C 37.558594 11.585938 37.566406 11.605469 37.574219 11.613281 C 37.617188 11.597656 37.660156 11.585938 37.695312 11.554688 C 37.914062 11.351562 38.132812 11.152344 38.429688 11.066406 C 38.507812 11.046875 38.609375 11.011719 38.644531 10.953125 C 38.699219 10.890625 38.699219 10.777344 38.722656 10.648438 Z M 37.90625 10.683594 C 38.140625 10.59375 38.382812 10.5 38.628906 10.414062 C 38.652344 10.265625 38.574219 10.1875 38.417969 10.230469 C 38.269531 10.273438 38.132812 10.335938 37.992188 10.394531 C 37.898438 10.4375 37.863281 10.558594 37.90625 10.683594 Z M 37.015625 10.945312 C 36.949219 10.863281 36.886719 10.769531 36.800781 10.699219 C 36.765625 10.671875 36.679688 10.699219 36.625 10.71875 C 36.609375 10.726562 36.582031 10.785156 36.589844 10.8125 C 36.644531 10.917969 36.703125 11.023438 36.757812 11.125 C 36.871094 11.058594 36.957031 10.996094 37.015625 10.945312 Z M 37.015625 10.945312 " fill-opacity="1" fill-rule="nonzero"/></g></svg>