<svg xmlns="http://www.w3.org/2000/svg" xmlns:xlink="http://www.w3.org/1999/xlink" width="80" zoomAndPan="magnify" viewBox="0 0 60 60" height="80" preserveAspectRatio="xMidYMid meet" version="1.0"><defs><clipPath id="dbecf370bb"><path d="M 45 13.253906 L 50 13.253906 L 50 47 L 45 47 Z M 45 13.253906 " clip-rule="nonzero"/></clipPath><clipPath id="da3aa9e062"><path d="M 9.421875 14 L 15 14 L 15 47 L 9.421875 47 Z M 9.421875 14 " clip-rule="nonzero"/></clipPath><clipPath id="a317e0a3f8"><path d="M 49 29 L 50.671875 29 L 50.671875 30 L 49 30 Z M 49 29 " clip-rule="nonzero"/></clipPath><clipPath id="5d48d977e6"><path d="M 49 32 L 50.671875 32 L 50.671875 34 L 49 34 Z M 49 32 " clip-rule="nonzero"/></clipPath><clipPath id="97dadbd44c"><path d="M 38 13.253906 L 42 13.253906 L 42 17 L 38 17 Z M 38 13.253906 " clip-rule="nonzero"/></clipPath><clipPath id="e041097602"><path d="M 35 13.253906 L 37 13.253906 L 37 15 L 35 15 Z M 35 13.253906 " clip-rule="nonzero"/></clipPath></defs><g clip-path="url(#dbecf370bb)"><path fill="#eef0ed" d="M 48.710938 13.339844 C 48.6875 13.367188 48.664062 13.390625 48.640625 13.417969 C 48.632812 13.429688 48.625 13.4375 48.617188 13.445312 C 48.601562 13.464844 48.585938 13.480469 48.570312 13.5 C 48.558594 13.511719 48.550781 13.523438 48.542969 13.535156 C 48.527344 13.550781 48.511719 13.570312 48.5 13.585938 C 48.488281 13.597656 48.480469 13.609375 48.46875 13.621094 C 48.457031 13.640625 48.441406 13.65625 48.429688 13.675781 C 48.417969 13.6875 48.410156 13.699219 48.402344 13.710938 C 48.386719 13.730469 48.375 13.746094 48.359375 13.765625 C 48.351562 13.777344 48.34375 13.789062 48.332031 13.800781 C 48.320312 13.820312 48.304688 13.835938 48.292969 13.855469 C 48.285156 13.867188 48.277344 13.878906 48.269531 13.886719 C 48.257812 13.90625 48.242188 13.925781 48.226562 13.945312 C 48.222656 13.957031 48.214844 13.964844 48.207031 13.976562 C 48.195312 13.996094 48.179688 14.015625 48.167969 14.035156 C 48.164062 14.039062 48.164062 14.039062 48.160156 14.042969 C 48.011719 14.265625 47.890625 14.460938 47.828125 14.554688 C 45.628906 18.585938 44.804688 23.378906 45.3125 27.929688 C 45.519531 29.492188 45.925781 31.03125 46.488281 32.503906 C 46.632812 32.886719 46.785156 33.265625 46.941406 33.644531 C 46.820312 35.003906 46.703125 36.359375 46.59375 37.71875 C 46.449219 39.480469 46.308594 41.242188 46.269531 43.007812 C 46.324219 44.136719 46.085938 46.144531 47.421875 46.582031 C 49.257812 46.738281 48.964844 44.09375 49.039062 42.875 C 49.058594 38.605469 48.683594 34.34375 48.644531 30.074219 C 48.53125 24.5 48.558594 18.914062 48.710938 13.339844 Z M 48.386719 45.179688 C 48.265625 46.140625 47.3125 46.515625 46.980469 45.449219 C 46.566406 43.71875 46.839844 41.90625 46.90625 40.148438 C 47.070312 37.953125 47.246094 35.761719 47.449219 33.566406 C 47.382812 33.40625 47.316406 33.242188 47.25 33.078125 C 47.210938 32.980469 47.167969 32.882812 47.128906 32.78125 C 47.117188 32.753906 47.109375 32.726562 47.097656 32.695312 C 46.804688 31.964844 46.554688 31.242188 46.339844 30.457031 C 45.058594 25.890625 45.664062 20.921875 47.402344 16.550781 C 47.625 16.03125 47.863281 15.511719 48.140625 15.015625 C 48.121094 21.242188 47.984375 27.472656 48.242188 33.703125 C 48.328125 37.519531 48.800781 41.371094 48.386719 45.179688 Z M 48.386719 45.179688 " fill-opacity="1" fill-rule="nonzero"/></g><g clip-path="url(#da3aa9e062)"><path fill="#eef0ed" d="M 14.074219 15.085938 C 13.996094 14.839844 13.980469 14.214844 13.753906 14.117188 C 13.558594 14.027344 13.332031 14.242188 13.421875 14.4375 C 13.449219 14.523438 13.464844 14.613281 13.484375 14.699219 C 13.835938 16.324219 13.980469 17.988281 14.117188 19.644531 C 14.191406 21.273438 14.304688 23.101562 13.355469 24.515625 C 13.199219 24.746094 13.03125 24.96875 12.859375 25.179688 C 12.820312 25.226562 12.78125 25.277344 12.742188 25.324219 C 12.730469 25.335938 12.71875 25.351562 12.707031 25.363281 C 12.664062 25.414062 12.621094 25.464844 12.578125 25.511719 C 12.566406 25.53125 12.550781 25.546875 12.535156 25.5625 C 12.546875 25.726562 12.5625 25.886719 12.570312 26.050781 C 12.640625 26.984375 12.671875 27.925781 12.710938 28.863281 C 12.675781 30.796875 13.882812 45.878906 12.070312 45.636719 C 10.300781 44.332031 11.210938 31.863281 11.273438 29.160156 C 11.34375 28.140625 11.4375 27.121094 11.542969 26.105469 C 11.5625 25.953125 11.578125 25.800781 11.59375 25.648438 C 11.566406 25.617188 11.535156 25.589844 11.507812 25.554688 C 11.476562 25.519531 11.445312 25.484375 11.414062 25.445312 C 11.402344 25.433594 11.394531 25.421875 11.382812 25.410156 C 11.359375 25.382812 11.339844 25.359375 11.320312 25.335938 C 11.308594 25.320312 11.292969 25.304688 11.28125 25.289062 C 11.261719 25.265625 11.242188 25.242188 11.226562 25.21875 C 11.210938 25.203125 11.199219 25.1875 11.183594 25.171875 C 11.027344 24.976562 10.875 24.773438 10.730469 24.558594 C 9.78125 23.144531 9.894531 21.316406 9.96875 19.6875 C 10.105469 18.03125 10.253906 16.367188 10.601562 14.742188 C 10.621094 14.65625 10.636719 14.566406 10.664062 14.480469 C 10.753906 14.285156 10.527344 14.070312 10.335938 14.160156 C 10.105469 14.257812 10.089844 14.882812 10.011719 15.128906 C 9.667969 17.167969 9.421875 19.246094 9.425781 21.316406 C 9.4375 23.230469 9.84375 24.449219 11.074219 25.824219 C 10.601562 30.234375 10.503906 34.683594 10.507812 39.121094 C 10.628906 40.574219 10.367188 45.824219 12.058594 46.144531 C 13.90625 46.296875 13.449219 40.746094 13.539062 39.453125 C 13.503906 34.957031 13.300781 30.460938 13.066406 25.972656 C 13.0625 25.894531 13.054688 25.820312 13.046875 25.742188 C 14.25 24.382812 14.648438 23.167969 14.660156 21.277344 C 14.667969 19.203125 14.417969 17.128906 14.074219 15.085938 Z M 14.074219 15.085938 " fill-opacity="1" fill-rule="nonzero"/></g><path fill="#eef0ed" d="M 11.378906 22.996094 C 11.515625 22.996094 11.628906 22.886719 11.628906 22.75 C 11.632812 22.316406 11.636719 21.882812 11.636719 21.445312 C 11.644531 20.660156 11.652344 19.875 11.65625 19.089844 C 11.664062 18.25 11.667969 17.410156 11.675781 16.570312 C 11.679688 16.183594 11.679688 15.796875 11.683594 15.410156 C 11.6875 15.105469 11.691406 14.796875 11.691406 14.492188 C 11.691406 14.359375 11.582031 14.242188 11.441406 14.242188 C 11.308594 14.242188 11.191406 14.355469 11.191406 14.488281 C 11.191406 15.160156 11.179688 15.828125 11.175781 16.5 C 11.171875 17.34375 11.164062 18.183594 11.15625 19.023438 C 11.152344 19.808594 11.144531 20.589844 11.140625 21.375 C 11.136719 21.832031 11.136719 22.289062 11.128906 22.746094 C 11.128906 22.882812 11.242188 22.996094 11.378906 22.996094 Z M 11.378906 22.996094 " fill-opacity="1" fill-rule="nonzero"/><path fill="#eef0ed" d="M 12.585938 22.996094 C 12.585938 22.996094 12.589844 22.996094 12.589844 22.996094 C 12.722656 22.996094 12.835938 22.886719 12.839844 22.75 C 12.84375 22.316406 12.84375 21.882812 12.847656 21.445312 C 12.855469 20.660156 12.859375 19.875 12.867188 19.089844 C 12.871094 18.25 12.878906 17.410156 12.886719 16.570312 C 12.886719 16.183594 12.890625 15.796875 12.894531 15.410156 C 12.894531 15.105469 12.902344 14.796875 12.902344 14.492188 C 12.902344 14.359375 12.789062 14.242188 12.652344 14.242188 C 12.519531 14.242188 12.402344 14.355469 12.402344 14.488281 C 12.402344 15.160156 12.390625 15.828125 12.386719 16.5 C 12.378906 17.34375 12.375 18.183594 12.367188 19.023438 C 12.363281 19.808594 12.355469 20.589844 12.351562 21.375 C 12.347656 21.832031 12.34375 22.289062 12.339844 22.746094 C 12.339844 22.882812 12.453125 22.996094 12.585938 22.996094 Z M 12.585938 22.996094 " fill-opacity="1" fill-rule="nonzero"/><path fill="#eef0ed" d="M 42.839844 26.871094 C 42.753906 26.292969 42.621094 25.71875 42.460938 25.15625 C 42.308594 24.621094 42.117188 24.097656 41.898438 23.582031 C 41.792969 23.332031 41.675781 23.082031 41.554688 22.839844 C 41.425781 22.582031 41.292969 22.328125 41.148438 22.082031 C 40.566406 21.097656 39.871094 20.171875 39.0625 19.359375 C 38.667969 18.964844 38.253906 18.585938 37.8125 18.242188 C 37.359375 17.886719 36.886719 17.558594 36.398438 17.257812 C 35.917969 16.964844 35.417969 16.707031 34.90625 16.480469 C 34.386719 16.25 33.851562 16.046875 33.308594 15.882812 C 33.03125 15.800781 32.757812 15.726562 32.476562 15.660156 C 32.195312 15.589844 31.914062 15.535156 31.625 15.488281 C 31.066406 15.386719 30.496094 15.332031 29.925781 15.304688 C 29.367188 15.28125 28.8125 15.296875 28.253906 15.335938 C 27.691406 15.378906 27.125 15.460938 26.570312 15.578125 C 26.542969 15.582031 26.492188 15.59375 26.4375 15.605469 C 25.90625 15.71875 25.351562 15.878906 24.808594 16.066406 C 23.726562 16.441406 22.699219 16.964844 21.746094 17.59375 C 21.273438 17.910156 20.820312 18.257812 20.390625 18.628906 C 19.964844 19 19.558594 19.394531 19.179688 19.816406 C 18.4375 20.648438 17.792969 21.5625 17.269531 22.550781 C 17.011719 23.03125 16.785156 23.53125 16.589844 24.039062 C 16.464844 24.363281 16.355469 24.691406 16.253906 25.023438 C 16.25 25.027344 16.25 25.03125 16.246094 25.039062 C 16.246094 25.046875 16.242188 25.054688 16.242188 25.058594 C 16.242188 25.0625 16.238281 25.066406 16.238281 25.070312 C 16.238281 25.074219 16.234375 25.078125 16.234375 25.082031 C 16.234375 25.085938 16.230469 25.09375 16.230469 25.097656 C 16.230469 25.097656 16.230469 25.101562 16.230469 25.101562 C 16.230469 25.105469 16.226562 25.105469 16.226562 25.105469 C 15.933594 26.109375 15.757812 27.152344 15.695312 28.199219 C 15.632812 29.300781 15.710938 30.410156 15.914062 31.496094 C 16.121094 32.589844 16.464844 33.652344 16.925781 34.664062 C 17.160156 35.175781 17.421875 35.671875 17.71875 36.144531 C 17.792969 36.261719 17.867188 36.375 17.941406 36.492188 C 17.972656 36.535156 18 36.582031 18.03125 36.625 C 18.03125 36.625 18.035156 36.625 18.035156 36.628906 C 18.035156 36.628906 18.035156 36.628906 18.035156 36.632812 C 18.042969 36.640625 18.046875 36.648438 18.050781 36.652344 C 18.054688 36.65625 18.054688 36.660156 18.058594 36.660156 C 18.074219 36.6875 18.097656 36.71875 18.113281 36.746094 C 18.152344 36.800781 18.191406 36.851562 18.226562 36.90625 C 18.390625 37.132812 18.558594 37.351562 18.734375 37.566406 C 19.085938 38.007812 19.472656 38.421875 19.878906 38.8125 C 20.683594 39.585938 21.585938 40.265625 22.558594 40.816406 C 23.050781 41.097656 23.558594 41.347656 24.082031 41.566406 C 24.597656 41.78125 25.128906 41.960938 25.667969 42.113281 C 26.777344 42.429688 27.929688 42.585938 29.082031 42.613281 C 29.171875 42.617188 29.261719 42.617188 29.351562 42.617188 C 29.824219 42.617188 30.300781 42.589844 30.773438 42.539062 C 31.328125 42.484375 31.886719 42.390625 32.429688 42.261719 C 32.988281 42.128906 33.535156 41.96875 34.074219 41.769531 C 34.613281 41.570312 35.136719 41.335938 35.644531 41.074219 C 36.140625 40.820312 36.621094 40.527344 37.078125 40.214844 C 37.539062 39.890625 37.984375 39.546875 38.40625 39.171875 C 39.25 38.421875 40.011719 37.566406 40.640625 36.628906 C 40.777344 36.425781 40.929688 36.191406 41.070312 35.953125 C 41.210938 35.714844 41.347656 35.472656 41.476562 35.226562 C 41.738281 34.726562 41.964844 34.203125 42.160156 33.671875 C 42.355469 33.136719 42.523438 32.589844 42.648438 32.035156 C 42.777344 31.464844 42.875 30.890625 42.933594 30.308594 C 42.988281 29.742188 43.011719 29.167969 42.996094 28.601562 C 42.976562 28.023438 42.925781 27.445312 42.839844 26.871094 Z M 42.480469 29.699219 C 42.460938 29.988281 42.4375 30.273438 42.402344 30.5625 C 42.367188 30.855469 42.320312 31.144531 42.265625 31.4375 C 42.210938 31.71875 42.148438 32 42.074219 32.28125 C 41.996094 32.566406 41.914062 32.851562 41.820312 33.132812 C 41.722656 33.425781 41.617188 33.714844 41.496094 34 C 41.378906 34.28125 41.25 34.558594 41.117188 34.835938 C 40.867188 35.324219 40.597656 35.800781 40.289062 36.257812 C 40.269531 36.292969 40.238281 36.335938 40.207031 36.382812 C 40.066406 36.585938 39.902344 36.8125 39.730469 37.035156 C 39.5625 37.246094 39.390625 37.453125 39.214844 37.660156 C 38.84375 38.074219 38.453125 38.464844 38.035156 38.835938 C 37.632812 39.1875 37.210938 39.515625 36.769531 39.820312 C 36.316406 40.128906 35.816406 40.425781 35.296875 40.691406 C 35.039062 40.820312 34.78125 40.945312 34.515625 41.054688 C 34.238281 41.175781 33.953125 41.285156 33.664062 41.386719 C 33.402344 41.476562 33.140625 41.558594 32.875 41.636719 C 32.625 41.703125 32.375 41.765625 32.125 41.820312 C 31.828125 41.882812 31.53125 41.9375 31.230469 41.980469 C 30.925781 42.023438 30.621094 42.058594 30.316406 42.082031 C 30.023438 42.101562 29.726562 42.117188 29.433594 42.117188 C 29.132812 42.117188 28.832031 42.113281 28.53125 42.09375 C 28.230469 42.074219 27.933594 42.046875 27.636719 42.007812 C 27.347656 41.96875 27.058594 41.921875 26.773438 41.867188 C 26.492188 41.808594 26.214844 41.746094 25.9375 41.671875 C 25.667969 41.597656 25.402344 41.519531 25.136719 41.429688 C 24.859375 41.335938 24.578125 41.234375 24.308594 41.121094 C 24.023438 41 23.746094 40.875 23.46875 40.738281 C 22.964844 40.484375 22.480469 40.203125 22.007812 39.890625 C 21.539062 39.574219 21.09375 39.230469 20.664062 38.859375 C 20.242188 38.484375 19.847656 38.089844 19.472656 37.667969 C 19.292969 37.464844 19.117188 37.253906 18.949219 37.039062 C 18.785156 36.824219 18.625 36.609375 18.472656 36.386719 C 18.464844 36.375 18.457031 36.363281 18.445312 36.347656 C 18.445312 36.347656 18.445312 36.347656 18.445312 36.34375 C 18.4375 36.335938 18.429688 36.324219 18.421875 36.3125 C 18.109375 35.84375 17.828125 35.363281 17.574219 34.863281 C 17.324219 34.359375 17.105469 33.84375 16.917969 33.316406 C 16.734375 32.78125 16.578125 32.234375 16.460938 31.679688 C 16.34375 31.109375 16.261719 30.539062 16.214844 29.964844 C 16.171875 29.367188 16.164062 28.765625 16.199219 28.167969 C 16.234375 27.589844 16.308594 27.015625 16.417969 26.441406 C 16.496094 26.035156 16.597656 25.632812 16.710938 25.234375 C 16.710938 25.230469 16.710938 25.230469 16.714844 25.226562 C 16.71875 25.210938 16.722656 25.199219 16.726562 25.183594 C 16.777344 25.023438 16.824219 24.863281 16.878906 24.703125 C 17.070312 24.152344 17.292969 23.617188 17.550781 23.09375 C 17.800781 22.597656 18.078125 22.121094 18.378906 21.660156 C 18.699219 21.1875 19.042969 20.734375 19.417969 20.304688 C 19.613281 20.082031 19.8125 19.867188 20.023438 19.65625 C 20.222656 19.453125 20.433594 19.257812 20.648438 19.066406 C 20.867188 18.875 21.09375 18.691406 21.324219 18.515625 C 21.539062 18.347656 21.761719 18.1875 21.988281 18.035156 C 22.210938 17.886719 22.4375 17.742188 22.667969 17.609375 C 22.894531 17.476562 23.121094 17.351562 23.355469 17.230469 C 23.617188 17.097656 23.878906 16.976562 24.148438 16.859375 C 24.414062 16.742188 24.6875 16.640625 24.960938 16.542969 C 25.21875 16.453125 25.476562 16.367188 25.742188 16.292969 C 26.011719 16.21875 26.285156 16.148438 26.558594 16.089844 L 26.570312 16.085938 C 26.609375 16.078125 26.65625 16.066406 26.707031 16.058594 C 27.214844 15.949219 27.75 15.882812 28.28125 15.835938 C 28.582031 15.8125 28.878906 15.796875 29.179688 15.792969 C 29.472656 15.789062 29.765625 15.796875 30.058594 15.8125 C 30.363281 15.828125 30.664062 15.855469 30.964844 15.894531 C 31.269531 15.933594 31.570312 15.980469 31.871094 16.039062 C 32.152344 16.09375 32.4375 16.15625 32.714844 16.234375 C 32.988281 16.308594 33.257812 16.386719 33.523438 16.476562 C 33.796875 16.570312 34.066406 16.667969 34.332031 16.777344 C 34.601562 16.886719 34.863281 17.003906 35.121094 17.128906 C 35.382812 17.261719 35.636719 17.394531 35.890625 17.539062 C 36.144531 17.683594 36.390625 17.839844 36.632812 18 C 36.863281 18.152344 37.085938 18.3125 37.304688 18.476562 C 37.539062 18.65625 37.765625 18.839844 37.988281 19.03125 C 38.1875 19.207031 38.386719 19.390625 38.578125 19.578125 C 38.785156 19.785156 38.984375 19.996094 39.175781 20.210938 C 39.554688 20.640625 39.902344 21.089844 40.226562 21.558594 C 40.394531 21.808594 40.554688 22.058594 40.707031 22.316406 C 40.851562 22.5625 40.984375 22.8125 41.113281 23.066406 C 41.355469 23.5625 41.570312 24.070312 41.757812 24.59375 C 41.847656 24.855469 41.933594 25.121094 42.007812 25.386719 C 42.082031 25.648438 42.148438 25.914062 42.207031 26.183594 C 42.269531 26.484375 42.324219 26.785156 42.367188 27.089844 C 42.410156 27.375 42.441406 27.667969 42.464844 27.957031 C 42.484375 28.242188 42.5 28.527344 42.5 28.8125 C 42.5 29.109375 42.496094 29.402344 42.480469 29.699219 Z M 42.480469 29.699219 " fill-opacity="1" fill-rule="nonzero"/><path fill="#eef0ed" d="M 38.347656 27.191406 C 38.300781 26.972656 38.246094 26.753906 38.1875 26.539062 C 38.070312 26.113281 37.914062 25.695312 37.738281 25.292969 C 37.375 24.476562 36.894531 23.707031 36.3125 23.027344 C 35.730469 22.355469 35.0625 21.761719 34.316406 21.273438 C 33.578125 20.792969 32.765625 20.410156 31.917969 20.15625 C 31.078125 19.90625 30.199219 19.761719 29.316406 19.761719 C 28.855469 19.757812 28.394531 19.789062 27.9375 19.847656 C 27.503906 19.90625 27.066406 19.996094 26.648438 20.125 C 26.214844 20.253906 25.792969 20.402344 25.382812 20.589844 C 25.191406 20.675781 24.996094 20.769531 24.808594 20.871094 C 24.714844 20.921875 24.621094 20.976562 24.527344 21.03125 C 24.484375 21.054688 24.4375 21.082031 24.394531 21.109375 C 24.367188 21.125 24.34375 21.140625 24.316406 21.15625 C 24.316406 21.160156 24.3125 21.160156 24.3125 21.160156 C 24.28125 21.175781 24.253906 21.195312 24.226562 21.214844 C 24.046875 21.328125 23.867188 21.449219 23.695312 21.578125 C 23.347656 21.832031 23.019531 22.113281 22.710938 22.414062 C 22.296875 22.820312 21.914062 23.265625 21.585938 23.746094 C 21.578125 23.753906 21.570312 23.765625 21.5625 23.773438 C 21.5625 23.777344 21.5625 23.777344 21.5625 23.777344 C 21.558594 23.78125 21.558594 23.78125 21.554688 23.785156 C 21.300781 24.160156 21.066406 24.554688 20.867188 24.960938 C 20.671875 25.363281 20.5 25.78125 20.363281 26.207031 C 20.328125 26.320312 20.292969 26.429688 20.261719 26.542969 C 20.246094 26.597656 20.230469 26.652344 20.214844 26.707031 C 20.207031 26.746094 20.195312 26.78125 20.1875 26.820312 C 20.183594 26.839844 20.175781 26.859375 20.171875 26.878906 C 20.171875 26.886719 20.167969 26.894531 20.167969 26.90625 C 20.078125 27.265625 20.011719 27.628906 19.972656 27.996094 C 19.929688 28.371094 19.90625 28.75 19.910156 29.128906 C 19.917969 29.578125 19.945312 30.03125 20.015625 30.476562 C 20.054688 30.710938 20.097656 30.941406 20.148438 31.171875 C 20.199219 31.386719 20.257812 31.601562 20.320312 31.8125 C 20.585938 32.679688 20.984375 33.511719 21.492188 34.265625 C 21.746094 34.644531 22.027344 35 22.332031 35.339844 C 22.476562 35.5 22.628906 35.65625 22.785156 35.800781 C 22.945312 35.957031 23.109375 36.105469 23.285156 36.25 C 23.96875 36.808594 24.722656 37.28125 25.539062 37.628906 C 26.367188 37.980469 27.242188 38.21875 28.136719 38.324219 C 28.488281 38.367188 28.847656 38.390625 29.203125 38.390625 C 29.296875 38.390625 29.390625 38.386719 29.484375 38.382812 C 29.707031 38.375 29.929688 38.367188 30.152344 38.34375 C 30.390625 38.316406 30.625 38.285156 30.859375 38.242188 C 31.066406 38.207031 31.273438 38.164062 31.476562 38.113281 C 31.699219 38.054688 31.921875 37.992188 32.140625 37.921875 C 32.578125 37.773438 33.003906 37.601562 33.417969 37.390625 C 33.816406 37.1875 34.207031 36.957031 34.574219 36.699219 C 34.953125 36.429688 35.3125 36.136719 35.648438 35.820312 C 36.304688 35.199219 36.867188 34.476562 37.3125 33.691406 C 37.539062 33.300781 37.738281 32.890625 37.898438 32.46875 C 37.980469 32.257812 38.054688 32.046875 38.121094 31.832031 C 38.1875 31.617188 38.246094 31.402344 38.296875 31.1875 C 38.347656 30.980469 38.386719 30.773438 38.417969 30.5625 C 38.488281 30.113281 38.535156 29.660156 38.539062 29.207031 C 38.542969 28.761719 38.523438 28.316406 38.460938 27.878906 C 38.429688 27.648438 38.394531 27.417969 38.347656 27.191406 Z M 38.035156 29.417969 C 38.023438 29.605469 38.011719 29.789062 37.996094 29.972656 C 37.976562 30.152344 37.953125 30.332031 37.921875 30.511719 C 37.890625 30.699219 37.851562 30.886719 37.8125 31.070312 C 37.796875 31.128906 37.78125 31.1875 37.769531 31.246094 C 37.679688 31.605469 37.5625 31.953125 37.429688 32.296875 C 37.285156 32.660156 37.121094 33.007812 36.933594 33.347656 C 36.84375 33.507812 36.753906 33.667969 36.652344 33.820312 C 36.550781 33.980469 36.445312 34.132812 36.335938 34.285156 C 36.21875 34.441406 36.097656 34.601562 35.96875 34.75 C 35.847656 34.894531 35.71875 35.035156 35.589844 35.175781 C 35.460938 35.304688 35.332031 35.433594 35.199219 35.558594 C 35.074219 35.675781 34.941406 35.785156 34.808594 35.894531 C 34.671875 36.007812 34.53125 36.117188 34.386719 36.21875 C 34.234375 36.328125 34.078125 36.433594 33.917969 36.539062 C 33.75 36.640625 33.578125 36.746094 33.402344 36.835938 C 33.21875 36.933594 33.035156 37.023438 32.847656 37.113281 C 32.65625 37.195312 32.464844 37.273438 32.269531 37.347656 C 32.105469 37.410156 31.933594 37.464844 31.765625 37.515625 C 31.570312 37.570312 31.378906 37.625 31.183594 37.667969 C 31.003906 37.710938 30.824219 37.746094 30.644531 37.777344 C 30.449219 37.804688 30.257812 37.832031 30.0625 37.851562 C 29.859375 37.867188 29.65625 37.878906 29.457031 37.886719 C 29.25 37.890625 29.046875 37.890625 28.839844 37.882812 C 28.644531 37.871094 28.453125 37.859375 28.257812 37.839844 C 28.070312 37.816406 27.878906 37.789062 27.691406 37.753906 C 27.492188 37.71875 27.296875 37.675781 27.101562 37.632812 C 26.914062 37.582031 26.726562 37.53125 26.542969 37.472656 C 26.367188 37.417969 26.195312 37.355469 26.023438 37.289062 C 25.851562 37.21875 25.675781 37.148438 25.507812 37.066406 C 25.324219 36.980469 25.144531 36.890625 24.964844 36.792969 C 24.800781 36.699219 24.632812 36.601562 24.472656 36.5 C 24.308594 36.394531 24.148438 36.285156 23.992188 36.167969 C 23.683594 35.9375 23.390625 35.6875 23.109375 35.425781 C 22.871094 35.191406 22.644531 34.945312 22.429688 34.6875 C 22.308594 34.542969 22.195312 34.394531 22.085938 34.246094 C 21.972656 34.089844 21.867188 33.933594 21.765625 33.773438 C 21.65625 33.59375 21.550781 33.410156 21.449219 33.226562 C 21.351562 33.050781 21.265625 32.867188 21.179688 32.683594 C 21.035156 32.351562 20.910156 32.015625 20.800781 31.667969 C 20.6875 31.300781 20.601562 30.925781 20.53125 30.546875 C 20.5 30.355469 20.472656 30.164062 20.453125 29.96875 C 20.433594 29.765625 20.421875 29.5625 20.414062 29.359375 C 20.410156 29.164062 20.40625 28.972656 20.414062 28.777344 C 20.421875 28.574219 20.4375 28.367188 20.457031 28.160156 C 20.5 27.78125 20.558594 27.402344 20.648438 27.027344 C 20.660156 26.992188 20.667969 26.953125 20.675781 26.917969 C 20.765625 26.546875 20.890625 26.1875 21.023438 25.835938 C 21.101562 25.648438 21.179688 25.464844 21.265625 25.285156 C 21.34375 25.117188 21.429688 24.953125 21.519531 24.789062 C 21.660156 24.539062 21.8125 24.292969 21.976562 24.050781 C 21.980469 24.050781 21.980469 24.046875 21.980469 24.046875 C 21.984375 24.042969 21.984375 24.042969 21.984375 24.042969 C 21.988281 24.039062 21.988281 24.035156 21.992188 24.03125 C 22.03125 23.976562 22.070312 23.917969 22.113281 23.863281 C 22.332031 23.5625 22.570312 23.277344 22.824219 23.007812 C 23.085938 22.734375 23.363281 22.480469 23.65625 22.238281 C 23.890625 22.050781 24.132812 21.871094 24.382812 21.707031 C 24.445312 21.664062 24.507812 21.625 24.570312 21.585938 C 24.582031 21.578125 24.589844 21.574219 24.601562 21.566406 C 24.90625 21.382812 25.214844 21.214844 25.539062 21.066406 C 25.902344 20.902344 26.273438 20.761719 26.65625 20.640625 C 27.019531 20.53125 27.386719 20.445312 27.761719 20.378906 C 27.957031 20.347656 28.152344 20.320312 28.351562 20.300781 C 28.5625 20.28125 28.769531 20.269531 28.980469 20.261719 C 29.367188 20.253906 29.75 20.265625 30.132812 20.304688 C 30.53125 20.347656 30.921875 20.417969 31.3125 20.507812 C 31.683594 20.601562 32.046875 20.714844 32.402344 20.851562 C 32.78125 21 33.144531 21.171875 33.5 21.363281 C 33.824219 21.546875 34.140625 21.746094 34.441406 21.964844 C 34.738281 22.1875 35.023438 22.425781 35.296875 22.683594 C 35.425781 22.808594 35.554688 22.9375 35.679688 23.070312 C 35.804688 23.203125 35.921875 23.339844 36.035156 23.476562 C 36.269531 23.765625 36.488281 24.070312 36.6875 24.382812 C 36.792969 24.554688 36.898438 24.726562 36.992188 24.90625 C 37.085938 25.082031 37.171875 25.257812 37.257812 25.441406 C 37.40625 25.78125 37.539062 26.128906 37.652344 26.488281 C 37.769531 26.875 37.859375 27.265625 37.925781 27.664062 C 37.957031 27.863281 37.984375 28.058594 38.003906 28.257812 C 38.019531 28.460938 38.03125 28.660156 38.039062 28.863281 C 38.039062 29.050781 38.042969 29.234375 38.035156 29.417969 Z M 38.035156 29.417969 " fill-opacity="1" fill-rule="nonzero"/><path fill="#eef0ed" d="M 33.976562 26.203125 C 33.070312 25.886719 32.09375 26.242188 31.351562 26.785156 C 31.105469 26.234375 30.6875 25.757812 30.164062 25.558594 C 29.15625 25.214844 28.265625 26.070312 28.070312 27.015625 C 27.757812 28.210938 28.148438 29.449219 28.6875 30.519531 C 28.90625 30.992188 29.121094 31.457031 29.347656 31.921875 C 29.417969 32.058594 29.488281 32.199219 29.554688 32.335938 C 29.5625 32.347656 29.566406 32.359375 29.574219 32.371094 C 29.683594 32.328125 29.792969 32.289062 29.90625 32.246094 C 30.121094 32.160156 30.339844 32.078125 30.554688 31.996094 C 31.601562 31.597656 32.644531 31.160156 33.53125 30.460938 C 34.125 30.003906 34.664062 29.425781 34.949219 28.722656 C 35.335938 27.796875 34.988281 26.539062 33.976562 26.203125 Z M 31.523438 31.0625 C 30.964844 31.308594 30.390625 31.527344 29.820312 31.742188 C 29.527344 31.148438 29.246094 30.542969 28.972656 29.953125 C 28.480469 28.914062 28.199219 27.609375 28.792969 26.554688 C 29.542969 25.441406 30.566406 26.117188 30.949219 27.121094 C 30.957031 27.144531 30.964844 27.167969 30.976562 27.191406 C 30.976562 27.191406 30.976562 27.191406 30.976562 27.195312 C 31.015625 27.324219 31.050781 27.457031 31.074219 27.59375 C 31.078125 27.613281 31.082031 27.636719 31.085938 27.65625 C 31.125 27.617188 31.167969 27.578125 31.210938 27.539062 C 31.222656 27.527344 31.238281 27.515625 31.253906 27.503906 C 31.28125 27.476562 31.3125 27.453125 31.34375 27.425781 C 31.355469 27.414062 31.371094 27.402344 31.386719 27.390625 C 31.421875 27.359375 31.457031 27.332031 31.492188 27.304688 C 31.503906 27.296875 31.511719 27.292969 31.519531 27.285156 C 31.566406 27.246094 31.617188 27.210938 31.664062 27.175781 C 32.355469 26.671875 33.40625 26.296875 34.160156 26.871094 C 35.707031 28.539062 32.945312 30.488281 31.523438 31.0625 Z M 31.523438 31.0625 " fill-opacity="1" fill-rule="nonzero"/><path fill="#eef0ed" d="M 26.886719 27.453125 C 26.136719 27.195312 25.542969 27.726562 25.246094 28.386719 C 24.75 28.164062 24.179688 28.164062 23.792969 28.625 C 23.214844 29.34375 23.5625 30.40625 24.160156 31.003906 C 24.558594 31.40625 25.054688 31.683594 25.5625 31.921875 C 25.820312 32.042969 26.082031 32.164062 26.34375 32.285156 C 26.375 32.296875 26.40625 32.3125 26.4375 32.324219 C 26.464844 32.339844 26.492188 32.351562 26.523438 32.363281 C 26.617188 32.40625 26.710938 32.445312 26.804688 32.488281 C 26.882812 32.339844 26.960938 32.191406 27.039062 32.042969 C 27.144531 31.839844 27.253906 31.632812 27.355469 31.425781 C 27.761719 30.636719 28.0625 29.738281 27.878906 28.847656 C 27.761719 28.28125 27.457031 27.671875 26.886719 27.453125 Z M 27.191406 30.570312 C 27.011719 31.007812 26.800781 31.425781 26.582031 31.84375 C 26.519531 31.816406 26.460938 31.789062 26.402344 31.761719 C 25.449219 31.316406 24.222656 30.851562 24.007812 29.691406 C 23.878906 29.011719 24.457031 28.472656 25.089844 28.867188 C 25.152344 28.898438 25.207031 28.9375 25.265625 28.976562 C 25.285156 28.992188 25.308594 29.007812 25.332031 29.023438 C 25.332031 29.023438 25.335938 29.027344 25.335938 29.027344 C 25.410156 29.082031 25.480469 29.144531 25.546875 29.210938 C 25.550781 29.167969 25.554688 29.125 25.5625 29.085938 C 25.566406 29.074219 25.566406 29.0625 25.570312 29.054688 C 25.574219 29.011719 25.582031 28.96875 25.59375 28.929688 C 25.59375 28.925781 25.59375 28.925781 25.59375 28.925781 C 25.601562 28.882812 25.613281 28.84375 25.625 28.804688 C 25.628906 28.792969 25.632812 28.78125 25.636719 28.769531 C 25.648438 28.730469 25.660156 28.691406 25.675781 28.652344 C 25.785156 28.351562 25.972656 28.082031 26.269531 27.941406 C 26.878906 27.679688 27.277344 28.410156 27.378906 28.910156 C 27.5 29.464844 27.402344 30.046875 27.191406 30.570312 Z M 27.191406 30.570312 " fill-opacity="1" fill-rule="nonzero"/><path fill="#eef0ed" d="M 41.835938 18.183594 C 41.671875 18.304688 41.554688 18.480469 41.503906 18.679688 C 41.421875 18.988281 41.53125 19.339844 41.78125 19.546875 C 41.925781 19.664062 42.097656 19.738281 42.285156 19.753906 C 42.304688 19.753906 42.324219 19.757812 42.347656 19.757812 C 42.550781 19.757812 42.75 19.679688 42.90625 19.550781 C 43.0625 19.421875 43.175781 19.230469 43.203125 19.027344 C 43.226562 18.859375 43.207031 18.691406 43.140625 18.535156 C 43.058594 18.34375 42.894531 18.179688 42.707031 18.097656 C 42.535156 18.023438 42.34375 18 42.160156 18.039062 C 42.050781 18.066406 41.945312 18.109375 41.851562 18.171875 C 41.847656 18.175781 41.839844 18.179688 41.835938 18.183594 Z M 41.980469 18.839844 C 41.980469 18.824219 41.984375 18.808594 41.988281 18.792969 C 41.992188 18.777344 42 18.761719 42.003906 18.75 C 42.011719 18.730469 42.019531 18.714844 42.027344 18.699219 C 42.039062 18.6875 42.046875 18.671875 42.058594 18.660156 C 42.066406 18.644531 42.078125 18.632812 42.089844 18.621094 C 42.101562 18.613281 42.113281 18.601562 42.125 18.59375 C 42.125 18.59375 42.125 18.59375 42.125 18.589844 C 42.128906 18.589844 42.132812 18.585938 42.140625 18.582031 C 42.148438 18.578125 42.152344 18.574219 42.160156 18.570312 C 42.175781 18.5625 42.1875 18.554688 42.203125 18.546875 C 42.21875 18.542969 42.234375 18.535156 42.246094 18.53125 C 42.261719 18.527344 42.277344 18.523438 42.292969 18.523438 C 42.308594 18.519531 42.324219 18.519531 42.339844 18.519531 C 42.359375 18.519531 42.375 18.519531 42.390625 18.523438 C 42.410156 18.523438 42.425781 18.527344 42.441406 18.53125 C 42.457031 18.535156 42.472656 18.542969 42.488281 18.546875 C 42.503906 18.554688 42.519531 18.5625 42.53125 18.570312 C 42.546875 18.578125 42.558594 18.585938 42.570312 18.597656 C 42.585938 18.605469 42.597656 18.617188 42.609375 18.628906 C 42.621094 18.640625 42.628906 18.652344 42.640625 18.664062 C 42.648438 18.675781 42.65625 18.691406 42.664062 18.703125 C 42.671875 18.71875 42.679688 18.730469 42.6875 18.746094 C 42.691406 18.757812 42.695312 18.773438 42.699219 18.789062 C 42.703125 18.804688 42.707031 18.820312 42.710938 18.835938 C 42.710938 18.851562 42.714844 18.867188 42.714844 18.882812 C 42.714844 18.898438 42.714844 18.917969 42.710938 18.933594 C 42.710938 18.949219 42.707031 18.964844 42.703125 18.980469 C 42.699219 18.996094 42.691406 19.011719 42.6875 19.027344 C 42.679688 19.042969 42.671875 19.058594 42.664062 19.074219 C 42.65625 19.089844 42.644531 19.101562 42.636719 19.117188 C 42.625 19.128906 42.617188 19.136719 42.605469 19.148438 C 42.59375 19.160156 42.582031 19.171875 42.566406 19.183594 C 42.554688 19.191406 42.539062 19.199219 42.523438 19.210938 C 42.511719 19.214844 42.5 19.222656 42.488281 19.226562 C 42.472656 19.234375 42.457031 19.238281 42.441406 19.242188 C 42.429688 19.246094 42.414062 19.25 42.398438 19.253906 C 42.382812 19.253906 42.363281 19.253906 42.347656 19.257812 C 42.332031 19.253906 42.316406 19.253906 42.296875 19.253906 C 42.28125 19.25 42.265625 19.246094 42.25 19.242188 C 42.234375 19.238281 42.21875 19.234375 42.203125 19.226562 C 42.1875 19.222656 42.175781 19.214844 42.160156 19.207031 C 42.144531 19.199219 42.132812 19.1875 42.117188 19.179688 C 42.105469 19.167969 42.09375 19.15625 42.082031 19.144531 C 42.070312 19.132812 42.0625 19.121094 42.050781 19.109375 C 42.042969 19.097656 42.035156 19.085938 42.023438 19.070312 C 42.015625 19.058594 42.011719 19.042969 42.003906 19.027344 C 42 19.015625 41.992188 19 41.988281 18.984375 C 41.984375 18.96875 41.980469 18.953125 41.980469 18.933594 C 41.976562 18.917969 41.976562 18.902344 41.976562 18.890625 C 41.976562 18.875 41.976562 18.855469 41.980469 18.839844 Z M 41.980469 18.839844 " fill-opacity="1" fill-rule="nonzero"/><path fill="#eef0ed" d="M 16.855469 40.535156 C 16.683594 40.460938 16.492188 40.433594 16.308594 40.476562 C 16.199219 40.5 16.09375 40.542969 16.003906 40.609375 C 15.996094 40.613281 15.992188 40.617188 15.984375 40.621094 C 15.820312 40.742188 15.703125 40.917969 15.652344 41.113281 C 15.574219 41.421875 15.679688 41.777344 15.929688 41.980469 C 16.074219 42.101562 16.246094 42.175781 16.433594 42.191406 C 16.453125 42.191406 16.476562 42.191406 16.496094 42.191406 C 16.699219 42.191406 16.898438 42.117188 17.054688 41.988281 C 17.210938 41.859375 17.324219 41.664062 17.351562 41.464844 C 17.375 41.296875 17.355469 41.128906 17.289062 40.972656 C 17.207031 40.78125 17.046875 40.617188 16.855469 40.535156 Z M 16.859375 41.371094 C 16.859375 41.386719 16.855469 41.402344 16.851562 41.417969 C 16.847656 41.433594 16.84375 41.449219 16.835938 41.464844 C 16.828125 41.480469 16.820312 41.496094 16.8125 41.511719 C 16.804688 41.527344 16.792969 41.539062 16.785156 41.554688 C 16.773438 41.5625 16.765625 41.574219 16.753906 41.585938 C 16.742188 41.597656 16.730469 41.609375 16.714844 41.621094 C 16.703125 41.628906 16.6875 41.636719 16.675781 41.648438 C 16.664062 41.652344 16.648438 41.660156 16.636719 41.664062 C 16.625 41.671875 16.609375 41.675781 16.59375 41.679688 C 16.578125 41.683594 16.5625 41.6875 16.546875 41.6875 C 16.53125 41.691406 16.515625 41.691406 16.496094 41.691406 C 16.480469 41.691406 16.464844 41.691406 16.449219 41.691406 C 16.429688 41.6875 16.414062 41.683594 16.398438 41.679688 C 16.382812 41.675781 16.367188 41.671875 16.351562 41.664062 C 16.339844 41.660156 16.324219 41.652344 16.308594 41.644531 C 16.296875 41.632812 16.28125 41.625 16.265625 41.613281 C 16.253906 41.605469 16.242188 41.59375 16.230469 41.582031 C 16.21875 41.570312 16.210938 41.558594 16.199219 41.546875 C 16.191406 41.535156 16.183594 41.523438 16.175781 41.507812 C 16.167969 41.496094 16.160156 41.480469 16.152344 41.464844 C 16.148438 41.453125 16.144531 41.4375 16.136719 41.421875 C 16.132812 41.40625 16.132812 41.390625 16.128906 41.371094 C 16.125 41.355469 16.125 41.339844 16.125 41.324219 C 16.125 41.308594 16.125 41.292969 16.128906 41.277344 C 16.128906 41.261719 16.132812 41.246094 16.136719 41.230469 C 16.140625 41.214844 16.148438 41.199219 16.152344 41.183594 C 16.160156 41.167969 16.167969 41.152344 16.175781 41.136719 C 16.1875 41.121094 16.195312 41.109375 16.203125 41.09375 C 16.214844 41.082031 16.226562 41.070312 16.238281 41.058594 C 16.25 41.046875 16.261719 41.039062 16.273438 41.027344 C 16.277344 41.023438 16.28125 41.023438 16.289062 41.019531 C 16.289062 41.019531 16.289062 41.019531 16.289062 41.015625 C 16.296875 41.011719 16.300781 41.007812 16.308594 41.003906 C 16.324219 40.996094 16.335938 40.988281 16.351562 40.984375 C 16.367188 40.976562 16.378906 40.972656 16.394531 40.96875 C 16.410156 40.964844 16.425781 40.960938 16.441406 40.957031 C 16.457031 40.957031 16.472656 40.957031 16.488281 40.957031 C 16.507812 40.957031 16.523438 40.957031 16.539062 40.957031 C 16.558594 40.960938 16.574219 40.964844 16.589844 40.96875 C 16.605469 40.972656 16.621094 40.976562 16.636719 40.984375 C 16.652344 40.992188 16.667969 41 16.679688 41.007812 C 16.695312 41.015625 16.707031 41.023438 16.71875 41.03125 C 16.734375 41.042969 16.746094 41.054688 16.757812 41.066406 C 16.769531 41.078125 16.777344 41.089844 16.789062 41.101562 C 16.796875 41.113281 16.804688 41.128906 16.816406 41.140625 C 16.820312 41.15625 16.828125 41.167969 16.835938 41.183594 C 16.839844 41.195312 16.84375 41.210938 16.851562 41.226562 C 16.851562 41.242188 16.855469 41.257812 16.859375 41.273438 C 16.859375 41.289062 16.863281 41.304688 16.863281 41.320312 C 16.863281 41.335938 16.863281 41.355469 16.859375 41.371094 Z M 16.859375 41.371094 " fill-opacity="1" fill-rule="nonzero"/><path fill="#eef0ed" d="M 15.9375 38.503906 C 16.132812 38.503906 16.292969 38.34375 16.292969 38.148438 C 16.292969 37.957031 16.132812 37.796875 15.9375 37.796875 C 15.746094 37.796875 15.585938 37.957031 15.585938 38.148438 C 15.585938 38.34375 15.746094 38.503906 15.9375 38.503906 Z M 15.9375 38.503906 " fill-opacity="1" fill-rule="nonzero"/><path fill="#eef0ed" d="M 19.148438 40.964844 C 18.957031 40.964844 18.792969 41.125 18.792969 41.316406 C 18.792969 41.511719 18.957031 41.671875 19.148438 41.671875 C 19.339844 41.671875 19.5 41.511719 19.5 41.316406 C 19.503906 41.125 19.339844 40.964844 19.148438 40.964844 Z M 19.148438 40.964844 " fill-opacity="1" fill-rule="nonzero"/><path fill="#eef0ed" d="M 16.863281 18.820312 C 16.863281 18.917969 16.828125 19 16.757812 19.070312 C 16.6875 19.136719 16.605469 19.171875 16.507812 19.171875 C 16.410156 19.171875 16.328125 19.136719 16.257812 19.070312 C 16.1875 19 16.15625 18.917969 16.15625 18.820312 C 16.15625 18.722656 16.1875 18.636719 16.257812 18.570312 C 16.328125 18.5 16.410156 18.464844 16.507812 18.464844 C 16.605469 18.464844 16.6875 18.5 16.757812 18.570312 C 16.828125 18.636719 16.863281 18.722656 16.863281 18.820312 Z M 16.863281 18.820312 " fill-opacity="1" fill-rule="nonzero"/><path fill="#eef0ed" d="M 44.722656 34.988281 C 44.53125 34.988281 44.367188 35.148438 44.367188 35.339844 C 44.367188 35.535156 44.53125 35.695312 44.722656 35.695312 C 44.914062 35.695312 45.074219 35.53125 45.074219 35.339844 C 45.074219 35.148438 44.914062 34.988281 44.722656 34.988281 Z M 44.722656 34.988281 " fill-opacity="1" fill-rule="nonzero"/><g clip-path="url(#a317e0a3f8)"><path fill="#eef0ed" d="M 50.335938 29.527344 C 50.335938 29.335938 50.171875 29.171875 49.980469 29.171875 C 49.789062 29.171875 49.625 29.335938 49.625 29.527344 C 49.625 29.71875 49.789062 29.878906 49.980469 29.878906 C 50.171875 29.878906 50.335938 29.71875 50.335938 29.527344 Z M 50.335938 29.527344 " fill-opacity="1" fill-rule="nonzero"/></g><g clip-path="url(#5d48d977e6)"><path fill="#eef0ed" d="M 50.222656 32.351562 C 50.03125 32.351562 49.871094 32.511719 49.871094 32.703125 C 49.871094 32.898438 50.03125 33.058594 50.222656 33.058594 C 50.417969 33.058594 50.578125 32.898438 50.578125 32.703125 C 50.578125 32.511719 50.414062 32.351562 50.222656 32.351562 Z M 50.222656 32.351562 " fill-opacity="1" fill-rule="nonzero"/></g><g clip-path="url(#97dadbd44c)"><path fill="#eef0ed" d="M 39.039062 16.019531 C 39.042969 16.023438 39.042969 16.023438 39.042969 16.027344 C 39.105469 16.179688 39.167969 16.328125 39.234375 16.480469 C 39.28125 16.472656 39.324219 16.460938 39.367188 16.453125 C 39.386719 16.449219 39.402344 16.445312 39.417969 16.441406 C 39.445312 16.4375 39.472656 16.429688 39.5 16.421875 C 39.523438 16.417969 39.542969 16.414062 39.566406 16.40625 C 39.585938 16.402344 39.609375 16.398438 39.628906 16.390625 C 39.65625 16.382812 39.683594 16.378906 39.707031 16.371094 C 39.714844 16.367188 39.722656 16.367188 39.730469 16.363281 C 39.941406 16.304688 40.148438 16.234375 40.351562 16.160156 C 41.113281 15.910156 42.273438 15.25 41.792969 14.296875 C 41.515625 13.859375 41.003906 13.804688 40.539062 13.941406 C 40.417969 13.675781 40.1875 13.460938 39.890625 13.40625 C 39.246094 13.257812 38.746094 13.875 38.71875 14.472656 C 38.691406 15.007812 38.84375 15.523438 39.039062 16.019531 Z M 39.347656 14.101562 C 39.53125 13.78125 39.957031 13.847656 40.089844 14.148438 C 40.097656 14.164062 40.101562 14.179688 40.105469 14.195312 C 40.109375 14.199219 40.109375 14.199219 40.109375 14.203125 C 40.113281 14.21875 40.117188 14.238281 40.121094 14.253906 C 40.140625 14.347656 40.148438 14.445312 40.128906 14.539062 C 40.121094 14.570312 40.117188 14.601562 40.125 14.632812 C 40.128906 14.664062 40.140625 14.691406 40.15625 14.71875 C 40.160156 14.714844 40.164062 14.710938 40.171875 14.707031 C 40.183594 14.695312 40.195312 14.6875 40.207031 14.675781 C 40.230469 14.660156 40.25 14.644531 40.269531 14.628906 C 40.300781 14.609375 40.332031 14.585938 40.363281 14.566406 C 40.367188 14.566406 40.367188 14.566406 40.367188 14.566406 C 40.398438 14.546875 40.429688 14.527344 40.457031 14.511719 C 40.460938 14.511719 40.460938 14.511719 40.464844 14.511719 C 40.492188 14.496094 40.523438 14.480469 40.550781 14.46875 C 40.550781 14.46875 40.554688 14.464844 40.554688 14.464844 C 40.582031 14.453125 40.609375 14.441406 40.636719 14.433594 C 41.421875 14.148438 41.804688 14.90625 40.78125 15.429688 C 40.382812 15.632812 39.960938 15.78125 39.53125 15.898438 C 39.277344 15.289062 39.066406 14.597656 39.347656 14.101562 Z M 39.347656 14.101562 " fill-opacity="1" fill-rule="nonzero"/></g><path fill="#eef0ed" d="M 43.992188 16.40625 C 43.992188 16.503906 43.957031 16.589844 43.886719 16.65625 C 43.820312 16.726562 43.734375 16.761719 43.636719 16.761719 C 43.539062 16.761719 43.457031 16.726562 43.386719 16.65625 C 43.320312 16.589844 43.285156 16.503906 43.285156 16.40625 C 43.285156 16.308594 43.320312 16.226562 43.386719 16.15625 C 43.457031 16.089844 43.539062 16.054688 43.636719 16.054688 C 43.734375 16.054688 43.820312 16.089844 43.886719 16.15625 C 43.957031 16.226562 43.992188 16.308594 43.992188 16.40625 Z M 43.992188 16.40625 " fill-opacity="1" fill-rule="nonzero"/><path fill="#eef0ed" d="M 43.203125 21.570312 C 43.007812 21.570312 42.847656 21.734375 42.847656 21.925781 C 42.847656 22.117188 43.007812 22.277344 43.203125 22.277344 C 43.394531 22.277344 43.554688 22.117188 43.554688 21.925781 C 43.554688 21.734375 43.394531 21.570312 43.203125 21.570312 Z M 43.203125 21.570312 " fill-opacity="1" fill-rule="nonzero"/><g clip-path="url(#e041097602)"><path fill="#eef0ed" d="M 36.230469 14.015625 C 36.230469 14.113281 36.195312 14.195312 36.128906 14.265625 C 36.058594 14.332031 35.972656 14.367188 35.875 14.367188 C 35.78125 14.367188 35.695312 14.332031 35.625 14.265625 C 35.558594 14.195312 35.523438 14.113281 35.523438 14.015625 C 35.523438 13.917969 35.558594 13.832031 35.625 13.765625 C 35.695312 13.695312 35.78125 13.660156 35.875 13.660156 C 35.972656 13.660156 36.058594 13.695312 36.128906 13.765625 C 36.195312 13.832031 36.230469 13.917969 36.230469 14.015625 Z M 36.230469 14.015625 " fill-opacity="1" fill-rule="nonzero"/></g></svg>