<svg xmlns="http://www.w3.org/2000/svg" xmlns:xlink="http://www.w3.org/1999/xlink" width="80" zoomAndPan="magnify" viewBox="0 0 60 60" height="80" preserveAspectRatio="xMidYMid meet" version="1.0"><defs><clipPath id="5cc067288a"><path d="M 11.550781 18.308594 L 48.300781 18.308594 L 48.300781 41.558594 L 11.550781 41.558594 Z M 11.550781 18.308594 " clip-rule="nonzero"/></clipPath></defs><g clip-path="url(#5cc067288a)"><path fill="#eef0ed" d="M 48.441406 41.3125 C 48.441406 41.3125 48.320312 19.082031 48.320312 18.800781 C 48.320312 18.523438 48.070312 18.335938 47.914062 18.335938 L 47.871094 18.335938 C 47.847656 18.332031 47.832031 18.320312 47.800781 18.320312 C 47.574219 18.320312 35.464844 18.328125 25.414062 18.335938 L 12.007812 18.335938 C 11.710938 18.335938 11.703125 18.59375 11.699219 18.886719 C 11.699219 19.054688 11.695312 19.296875 11.691406 19.609375 C 11.683594 20.230469 11.675781 21.117188 11.667969 22.179688 C 11.652344 24.304688 11.636719 27.140625 11.617188 29.972656 C 11.582031 35.640625 11.550781 41.3125 11.550781 41.3125 C 11.550781 41.433594 11.617188 41.539062 11.710938 41.601562 C 11.71875 41.609375 11.726562 41.617188 11.738281 41.621094 C 11.789062 41.652344 11.847656 41.675781 11.914062 41.675781 L 48.082031 41.675781 C 48.144531 41.675781 48.203125 41.652344 48.257812 41.621094 C 48.269531 41.617188 48.277344 41.609375 48.285156 41.601562 C 48.378906 41.535156 48.441406 41.433594 48.441406 41.3125 Z M 47.03125 18.941406 C 45.128906 20.699219 39.027344 26.117188 34.46875 29.171875 C 34.601562 28.820312 34.683594 28.472656 34.679688 28.136719 C 34.667969 27.460938 34.347656 26.902344 33.722656 26.476562 C 33.195312 26.117188 32.660156 25.933594 32.132812 25.933594 C 31.109375 25.933594 30.378906 26.609375 29.996094 27.074219 C 29.617188 26.609375 28.886719 25.933594 27.859375 25.933594 C 27.335938 25.933594 26.800781 26.117188 26.273438 26.476562 C 25.648438 26.902344 25.328125 27.460938 25.316406 28.136719 C 25.3125 28.492188 25.40625 28.863281 25.554688 29.242188 C 21.652344 26.644531 16.40625 22.171875 12.875 18.957031 C 14.746094 18.949219 19.808594 18.945312 25.519531 18.941406 Z M 12.296875 19.25 C 14.371094 21.140625 20.851562 26.941406 25.613281 30.003906 C 20.714844 33.121094 13.988281 39.054688 12.160156 40.695312 C 12.195312 33.746094 12.265625 21.988281 12.296875 19.25 Z M 25.890625 28.144531 C 25.898438 27.660156 26.128906 27.269531 26.59375 26.949219 C 27.027344 26.65625 27.453125 26.503906 27.859375 26.503906 C 28.921875 26.503906 29.625 27.511719 29.757812 27.714844 L 29.996094 28.085938 L 30.238281 27.714844 C 30.367188 27.511719 31.074219 26.503906 32.132812 26.503906 C 32.542969 26.503906 32.96875 26.65625 33.402344 26.949219 C 33.867188 27.269531 34.097656 27.660156 34.105469 28.144531 C 34.136719 30.074219 30.796875 32.765625 29.996094 33.378906 C 29.199219 32.765625 25.859375 30.074219 25.890625 28.144531 Z M 40.503906 25.375 C 42.585938 23.675781 44.507812 22 45.75 20.894531 C 46.492188 20.238281 47.054688 19.726562 47.394531 19.414062 C 47.515625 19.304688 47.613281 19.21875 47.703125 19.140625 L 47.835938 40.695312 C 46 39.050781 39.242188 33.085938 34.339844 29.976562 C 36.015625 28.890625 38.070312 27.359375 40.503906 25.375 Z M 12.644531 41.070312 C 16.253906 37.824219 22.085938 32.914062 26.167969 30.351562 C 27.4375 32.199219 29.695312 33.871094 29.828125 33.96875 L 29.996094 34.09375 L 30.167969 33.96875 C 30.300781 33.871094 32.558594 32.199219 33.828125 30.351562 C 37.910156 32.910156 43.742188 37.824219 47.351562 41.070312 Z M 12.644531 41.070312 " fill-opacity="1" fill-rule="nonzero"/></g></svg>