<svg xmlns="http://www.w3.org/2000/svg" xmlns:xlink="http://www.w3.org/1999/xlink" width="80" zoomAndPan="magnify" viewBox="0 0 60 60" height="80" preserveAspectRatio="xMidYMid meet" version="1.0"><defs><clipPath id="42f61ee313"><path d="M 15 7.710938 L 46 7.710938 L 46 49 L 15 49 Z M 15 7.710938 " clip-rule="nonzero"/></clipPath><clipPath id="951d65d23e"><path d="M 12.890625 39 L 18 39 L 18 48 L 12.890625 48 Z M 12.890625 39 " clip-rule="nonzero"/></clipPath><clipPath id="c20224f65d"><path d="M 13 48 L 16 48 L 16 51.960938 L 13 51.960938 Z M 13 48 " clip-rule="nonzero"/></clipPath></defs><g clip-path="url(#42f61ee313)"><path fill="#eef0ed" d="M 45.246094 31.921875 C 45.136719 31.257812 44.929688 30.617188 44.84375 29.953125 C 44.5625 28.835938 44.371094 27.695312 43.851562 26.652344 C 43.539062 25.9375 43.136719 25.277344 42.640625 24.675781 C 42.277344 24.179688 41.964844 23.613281 41.554688 23.140625 C 40.882812 22.320312 39.933594 21.808594 39.207031 21.046875 C 37.8125 19.78125 36.042969 19.015625 34.191406 18.722656 C 33.8125 18.644531 33.46875 18.464844 33.09375 18.378906 C 32.351562 18.226562 31.597656 18.136719 30.839844 18.101562 C 30.855469 17.984375 30.835938 17.847656 30.84375 17.753906 C 30.839844 17.421875 30.835938 17.089844 30.820312 16.757812 C 30.828125 16.328125 30.808594 15.894531 30.789062 15.464844 C 30.792969 14.960938 30.8125 14.460938 30.78125 13.957031 C 30.816406 12.558594 30.761719 11.160156 30.753906 9.757812 C 30.734375 9.226562 30.765625 8.695312 30.75 8.164062 C 30.722656 8.023438 30.84375 7.753906 30.636719 7.726562 C 30.410156 7.726562 30.507812 8.191406 30.488281 8.355469 C 30.488281 8.667969 30.46875 8.976562 30.46875 9.285156 C 30.464844 10.492188 30.472656 11.695312 30.480469 12.902344 C 30.4375 14.1875 30.476562 15.46875 30.480469 16.753906 C 30.496094 17.089844 30.5 17.421875 30.496094 17.757812 C 30.507812 17.851562 30.480469 17.980469 30.484375 18.089844 C 30.375 18.089844 30.261719 18.089844 30.152344 18.089844 C 29.316406 18.066406 28.480469 18.117188 27.652344 18.234375 C 27.472656 18.285156 27.191406 18.203125 27.074219 18.375 C 25.828125 18.75 24.589844 19.183594 23.449219 19.816406 C 22.574219 20.269531 21.84375 20.949219 21.050781 21.527344 C 19.839844 22.449219 18.757812 23.503906 17.800781 24.6875 C 17.359375 25.277344 17.03125 25.941406 16.632812 26.5625 C 16.238281 27.363281 15.917969 28.199219 15.667969 29.058594 C 15.179688 30.617188 14.992188 32.210938 15.113281 33.839844 C 15.144531 35.335938 15.390625 36.796875 15.851562 38.21875 C 16.453125 40.082031 17.417969 41.734375 18.738281 43.175781 C 19.246094 43.804688 19.765625 44.425781 20.398438 44.933594 C 21 45.4375 21.652344 45.859375 22.355469 46.199219 C 22.417969 46.257812 22.484375 46.308594 22.550781 46.359375 C 22.59375 46.390625 22.640625 46.390625 22.6875 46.367188 C 23.140625 46.597656 23.601562 46.816406 24.046875 47.054688 C 25.199219 47.4375 26.355469 47.851562 27.558594 48.054688 C 28.921875 48.28125 30.289062 48.464844 31.675781 48.398438 C 32.835938 48.308594 33.941406 47.871094 35.042969 47.511719 C 36.277344 47.175781 37.433594 46.660156 38.511719 45.972656 C 39.3125 45.519531 40.078125 44.976562 40.660156 44.253906 C 41.335938 43.5625 42.003906 42.863281 42.480469 42.015625 C 42.949219 41.257812 43.414062 40.496094 43.667969 39.636719 C 44.175781 38.5625 44.636719 37.472656 44.894531 36.304688 C 45.09375 35.222656 45.34375 34.144531 45.292969 33.035156 C 45.265625 32.664062 45.277344 32.289062 45.246094 31.921875 Z M 43.179688 26.117188 C 43.6875 27.003906 44.039062 27.949219 44.234375 28.953125 C 44.363281 29.472656 44.46875 29.996094 44.582031 30.519531 C 44.4375 30.550781 44.304688 30.734375 44.164062 30.792969 C 43.535156 31.136719 42.890625 31.441406 42.222656 31.707031 C 42.121094 31.746094 42.015625 31.785156 41.910156 31.824219 C 41.851562 30.660156 41.660156 29.519531 41.335938 28.402344 C 41.230469 28 41.132812 27.59375 41.019531 27.191406 C 41.738281 26.882812 42.429688 26.539062 43.105469 26.148438 C 43.132812 26.140625 43.15625 26.128906 43.179688 26.117188 Z M 30.214844 34.304688 C 27.980469 34.320312 25.769531 34.003906 23.574219 33.585938 C 23.617188 32.039062 23.722656 30.46875 24.042969 28.949219 C 24.773438 29.109375 25.511719 29.238281 26.253906 29.339844 C 27.566406 29.457031 28.878906 29.503906 30.199219 29.46875 C 30.195312 30.527344 30.132812 31.589844 30.136719 32.648438 C 30.152344 33.203125 30.1875 33.753906 30.214844 34.304688 Z M 30.230469 34.660156 C 30.242188 34.894531 30.25 35.125 30.257812 35.359375 C 30.277344 36.785156 30.289062 38.21875 30.339844 39.644531 C 29.640625 39.644531 28.941406 39.601562 28.246094 39.566406 C 27.351562 39.554688 26.46875 39.457031 25.578125 39.390625 C 25.128906 39.320312 24.679688 39.226562 24.234375 39.125 C 23.851562 37.421875 23.695312 35.683594 23.582031 33.945312 C 25.773438 34.367188 28 34.683594 30.234375 34.664062 Z M 30.195312 28.960938 C 30.195312 29.015625 30.195312 29.070312 30.195312 29.125 C 28.152344 29.164062 26.105469 29.0625 24.113281 28.625 C 24.160156 28.417969 24.210938 28.207031 24.269531 28 C 24.777344 26.175781 25.519531 24.453125 26.5 22.832031 C 27.417969 23.050781 28.347656 23.210938 29.289062 23.3125 C 29.652344 23.34375 30.015625 23.367188 30.378906 23.378906 C 30.277344 25.238281 30.199219 27.097656 30.195312 28.964844 Z M 23.8125 28.375 C 23.800781 28.433594 23.785156 28.492188 23.773438 28.546875 C 23.429688 28.464844 23.089844 28.375 22.75 28.273438 C 21.691406 27.976562 20.664062 27.589844 19.671875 27.113281 C 19.703125 27.042969 19.734375 26.972656 19.765625 26.902344 C 20.101562 26.308594 20.371094 25.675781 20.722656 25.089844 C 21.347656 24.082031 22.0625 23.144531 22.867188 22.28125 C 23.015625 22.125 23.164062 21.972656 23.316406 21.824219 C 23.550781 21.914062 23.746094 21.976562 23.816406 22 C 24.382812 22.210938 24.9375 22.445312 25.523438 22.59375 C 25.738281 22.648438 25.957031 22.699219 26.171875 22.753906 C 25.101562 24.507812 24.316406 26.382812 23.8125 28.375 Z M 23.703125 28.871094 C 23.519531 29.855469 23.386719 30.84375 23.3125 31.84375 C 23.253906 32.398438 23.226562 32.957031 23.226562 33.515625 C 22.882812 33.449219 22.539062 33.378906 22.195312 33.308594 C 21.429688 33.148438 20.6875 32.878906 19.945312 32.640625 C 19.429688 32.46875 18.914062 32.300781 18.40625 32.113281 C 18.546875 30.480469 18.929688 28.910156 19.550781 27.394531 C 20.878906 28.046875 22.261719 28.539062 23.703125 28.871094 Z M 19.757812 32.953125 C 20.878906 33.359375 22.027344 33.667969 23.207031 33.871094 L 23.230469 33.875 C 23.242188 34.375 23.277344 34.875 23.335938 35.375 C 23.425781 36.605469 23.597656 37.828125 23.847656 39.035156 C 23.644531 38.988281 23.441406 38.941406 23.238281 38.890625 C 21.691406 38.480469 20.152344 37.992188 18.71875 37.273438 C 18.421875 35.695312 18.304688 34.101562 18.375 32.496094 C 18.375 32.492188 18.375 32.484375 18.375 32.476562 C 18.832031 32.644531 19.296875 32.796875 19.757812 32.953125 Z M 22.015625 38.917969 C 22.644531 39.105469 23.285156 39.253906 23.929688 39.394531 C 23.949219 39.484375 23.972656 39.574219 23.996094 39.667969 C 24.355469 41.054688 24.667969 42.46875 25.140625 43.820312 C 24.617188 43.746094 24.09375 43.621094 23.5625 43.546875 C 22.949219 43.4375 22.359375 43.226562 21.761719 43.042969 C 21.300781 42.914062 20.847656 42.765625 20.402344 42.589844 C 19.691406 41.023438 19.160156 39.398438 18.808594 37.71875 C 19.851562 38.1875 20.917969 38.585938 22.015625 38.917969 Z M 24.429688 39.921875 C 24.386719 39.773438 24.351562 39.625 24.316406 39.480469 C 24.433594 39.503906 24.550781 39.53125 24.671875 39.558594 C 25.109375 39.667969 25.554688 39.734375 26.007812 39.753906 C 27.035156 39.851562 28.066406 39.894531 29.101562 39.933594 C 29.519531 39.933594 29.933594 39.960938 30.351562 39.96875 C 30.386719 40.871094 30.4375 41.769531 30.515625 42.664062 C 30.527344 43.175781 30.546875 43.691406 30.566406 44.203125 C 28.878906 44.222656 27.203125 44.113281 25.535156 43.878906 C 25.0625 42.59375 24.785156 41.242188 24.429688 39.921875 Z M 30.476562 31.625 C 30.507812 30.902344 30.515625 30.183594 30.523438 29.460938 C 31.003906 29.449219 31.488281 29.429688 31.96875 29.402344 C 33.058594 29.316406 34.132812 29.160156 35.199219 28.929688 C 35.535156 28.871094 35.871094 28.808594 36.203125 28.738281 C 36.414062 30.300781 36.527344 31.871094 36.539062 33.449219 C 35.898438 33.589844 35.269531 33.785156 34.617188 33.886719 C 33.359375 34.089844 32.09375 34.226562 30.820312 34.292969 C 30.726562 34.296875 30.628906 34.300781 30.535156 34.300781 C 30.496094 33.410156 30.457031 32.519531 30.476562 31.625 Z M 30.523438 29.117188 C 30.53125 28.117188 30.53125 27.117188 30.578125 26.117188 C 30.609375 25.203125 30.648438 24.292969 30.699219 23.386719 C 31.707031 23.394531 32.710938 23.347656 33.714844 23.246094 C 34.128906 23.210938 34.542969 23.160156 34.953125 23.097656 C 35.210938 23.84375 35.507812 24.574219 35.660156 25.355469 C 35.839844 26.300781 35.957031 27.257812 36.125 28.207031 C 36.136719 28.265625 36.144531 28.324219 36.152344 28.382812 C 35.679688 28.476562 35.207031 28.566406 34.734375 28.660156 C 33.417969 28.925781 32.089844 29.078125 30.746094 29.109375 C 30.671875 29.113281 30.597656 29.113281 30.523438 29.117188 Z M 36.492188 28.3125 C 36.300781 27.058594 36.148438 25.796875 35.824219 24.570312 C 35.671875 24.054688 35.484375 23.546875 35.296875 23.039062 C 35.855469 22.945312 36.40625 22.828125 36.957031 22.6875 C 37.359375 22.59375 37.773438 22.492188 38.171875 22.359375 L 38.203125 22.40625 L 38.261719 22.496094 L 38.328125 22.597656 L 38.453125 22.808594 L 38.511719 22.914062 L 38.621094 23.109375 L 38.671875 23.203125 L 38.78125 23.390625 L 38.839844 23.492188 L 38.90625 23.601562 L 39.039062 23.835938 L 39.113281 23.957031 L 39.183594 24.082031 L 39.332031 24.324219 L 39.402344 24.445312 L 39.476562 24.566406 L 39.625 24.816406 L 39.695312 24.941406 L 39.761719 25.066406 L 39.828125 25.195312 L 39.886719 25.308594 L 39.933594 25.40625 L 39.988281 25.511719 L 40.039062 25.613281 L 40.046875 25.632812 L 40.101562 25.738281 L 40.148438 25.832031 L 40.199219 25.9375 L 40.308594 26.164062 L 40.359375 26.28125 L 40.382812 26.320312 L 40.398438 26.339844 L 40.414062 26.351562 L 40.433594 26.367188 L 40.457031 26.378906 L 40.472656 26.382812 C 40.480469 26.402344 40.488281 26.421875 40.496094 26.445312 C 40.546875 26.613281 40.597656 26.785156 40.644531 26.960938 C 39.769531 27.335938 38.878906 27.660156 37.96875 27.941406 C 37.480469 28.089844 36.988281 28.207031 36.492188 28.3125 Z M 40.164062 27.542969 C 40.355469 27.46875 40.546875 27.390625 40.734375 27.3125 C 40.859375 27.796875 40.96875 28.289062 41.097656 28.773438 C 41.375 29.8125 41.535156 30.867188 41.589844 31.941406 C 40.054688 32.492188 38.488281 32.953125 36.914062 33.371094 L 36.878906 33.378906 C 36.878906 31.929688 36.789062 30.484375 36.609375 29.042969 C 36.585938 28.917969 36.566406 28.792969 36.546875 28.664062 C 37.785156 28.394531 38.992188 28.023438 40.164062 27.542969 Z M 36.5625 39.152344 C 37.277344 38.953125 37.980469 38.71875 38.695312 38.515625 C 39.460938 38.222656 40.265625 38.042969 41.03125 37.753906 C 40.875 38.292969 40.699219 38.828125 40.535156 39.363281 C 40.175781 40.574219 39.726562 41.75 39.183594 42.890625 C 38.019531 43.316406 36.832031 43.644531 35.613281 43.867188 C 35.847656 43.035156 36.046875 42.195312 36.207031 41.347656 C 36.375 40.621094 36.492188 39.890625 36.5625 39.152344 Z M 39.585938 37.894531 C 38.960938 38.089844 38.359375 38.339844 37.722656 38.488281 C 37.351562 38.617188 36.976562 38.730469 36.597656 38.828125 C 36.613281 38.671875 36.628906 38.515625 36.644531 38.363281 C 36.789062 37.347656 36.863281 36.328125 36.867188 35.304688 C 36.875 34.785156 36.878906 34.265625 36.878906 33.746094 C 37.511719 33.585938 38.140625 33.410156 38.765625 33.214844 C 39.722656 32.945312 40.671875 32.660156 41.605469 32.320312 C 41.640625 33.378906 41.613281 34.433594 41.527344 35.488281 C 41.441406 36.128906 41.3125 36.757812 41.136719 37.378906 C 41.109375 37.390625 41.085938 37.402344 41.058594 37.414062 C 40.578125 37.605469 40.078125 37.75 39.585938 37.894531 Z M 39.457031 21.746094 C 39.546875 21.832031 39.640625 21.921875 39.730469 22.011719 C 40.78125 22.695312 41.59375 23.65625 42.234375 24.722656 C 42.507812 25.066406 42.761719 25.421875 42.992188 25.800781 C 42.328125 26.195312 41.636719 26.542969 40.921875 26.84375 C 40.855469 26.621094 40.785156 26.402344 40.703125 26.1875 C 40.703125 26.179688 40.699219 26.175781 40.695312 26.167969 L 40.695312 26.164062 L 40.683594 26.128906 C 40.671875 26.101562 40.660156 26.074219 40.644531 26.046875 L 40.636719 26.027344 L 40.582031 25.910156 L 40.527344 25.796875 L 40.472656 25.6875 L 40.460938 25.667969 L 40.410156 25.558594 L 40.359375 25.464844 L 40.316406 25.371094 L 40.261719 25.265625 L 40.207031 25.152344 L 40.195312 25.132812 L 40.136719 25.015625 L 40.070312 24.886719 L 40.003906 24.761719 L 39.933594 24.636719 L 39.785156 24.386719 L 39.714844 24.265625 L 39.492188 23.902344 L 39.421875 23.777344 L 39.351562 23.65625 L 39.28125 23.539062 L 39.214844 23.421875 L 39.152344 23.3125 L 39.089844 23.210938 L 38.980469 23.023438 L 38.929688 22.929688 L 38.820312 22.734375 L 38.761719 22.628906 L 38.636719 22.417969 L 38.570312 22.3125 L 38.515625 22.234375 C 38.847656 22.105469 39.160156 21.945312 39.457031 21.746094 Z M 39.191406 21.503906 C 38.910156 21.671875 38.617188 21.8125 38.308594 21.929688 L 38.207031 21.78125 L 38.152344 21.703125 L 38.097656 21.621094 L 38.042969 21.542969 L 37.925781 21.378906 L 37.816406 21.230469 L 37.761719 21.164062 L 37.667969 21.03125 L 37.621094 20.96875 L 37.574219 20.902344 L 37.523438 20.835938 L 37.472656 20.761719 L 37.421875 20.691406 L 37.367188 20.613281 L 37.308594 20.53125 L 37.25 20.445312 L 37.109375 20.265625 L 37.09375 20.25 L 37.019531 20.164062 L 36.9375 20.082031 L 36.855469 20.003906 L 36.839844 19.992188 L 36.757812 19.925781 L 36.675781 19.867188 L 36.65625 19.855469 L 36.574219 19.800781 L 36.496094 19.753906 L 36.453125 19.726562 C 37.464844 20.164062 38.378906 20.757812 39.191406 21.503906 Z M 34.03125 19.050781 C 34.621094 19.140625 35.203125 19.277344 35.769531 19.464844 L 35.769531 19.496094 L 35.773438 19.503906 L 35.777344 19.519531 L 35.78125 19.53125 L 35.785156 19.546875 L 35.792969 19.558594 L 35.808594 19.589844 L 35.820312 19.605469 L 35.835938 19.625 L 35.847656 19.636719 L 35.867188 19.660156 L 35.902344 19.691406 L 35.914062 19.703125 L 35.957031 19.738281 L 36.003906 19.777344 L 36.058594 19.820312 L 36.121094 19.867188 L 36.183594 19.910156 L 36.253906 19.957031 L 36.269531 19.96875 L 36.34375 20.019531 L 36.414062 20.0625 L 36.484375 20.113281 L 36.566406 20.171875 L 36.636719 20.230469 L 36.714844 20.304688 L 36.785156 20.382812 L 36.851562 20.464844 L 36.921875 20.554688 L 36.988281 20.648438 L 37.046875 20.734375 L 37.101562 20.816406 L 37.15625 20.894531 L 37.207031 20.96875 L 37.253906 21.042969 L 37.304688 21.109375 L 37.398438 21.242188 L 37.445312 21.304688 L 37.492188 21.371094 L 37.542969 21.441406 L 37.652344 21.589844 L 37.710938 21.671875 L 37.765625 21.753906 L 37.808594 21.816406 L 37.859375 21.898438 L 37.914062 21.976562 L 37.964844 22.050781 C 37.59375 22.171875 37.21875 22.269531 36.839844 22.351562 C 36.289062 22.5 35.730469 22.601562 35.171875 22.695312 C 35.097656 22.488281 35.023438 22.28125 34.953125 22.074219 C 34.59375 21.121094 34.234375 20.144531 33.628906 19.316406 C 33.507812 19.160156 33.398438 18.992188 33.296875 18.816406 C 33.542969 18.886719 33.789062 18.960938 34.03125 19.050781 Z M 30.996094 18.464844 C 31.636719 18.496094 32.273438 18.582031 32.902344 18.71875 C 33.003906 19.035156 33.59375 19.71875 33.675781 19.929688 C 34.128906 20.765625 34.449219 21.660156 34.773438 22.554688 C 34.792969 22.621094 34.816406 22.683594 34.835938 22.75 L 34.515625 22.800781 C 33.253906 22.960938 31.988281 23.035156 30.71875 23.027344 C 30.804688 21.507812 30.90625 19.984375 30.996094 18.464844 Z M 29.253906 18.527344 C 29.285156 18.5 29.324219 18.476562 29.355469 18.453125 C 29.8125 18.433594 30.269531 18.433594 30.726562 18.449219 C 30.613281 19.277344 30.609375 20.128906 30.523438 20.964844 C 30.480469 21.648438 30.441406 22.335938 30.402344 23.019531 C 29.992188 23.007812 29.582031 22.980469 29.171875 22.9375 C 28.757812 22.867188 28.335938 22.847656 27.921875 22.785156 C 27.554688 22.703125 27.191406 22.605469 26.816406 22.550781 C 26.773438 22.542969 26.730469 22.53125 26.6875 22.523438 C 26.734375 22.441406 26.785156 22.363281 26.835938 22.28125 C 27.496094 21.195312 28.109375 20.074219 28.835938 19.027344 C 28.957031 18.84375 29.097656 18.679688 29.253906 18.527344 Z M 27.359375 18.707031 C 27.441406 18.671875 27.570312 18.664062 27.609375 18.589844 C 27.84375 18.566406 28.082031 18.546875 28.316406 18.507812 C 28.511719 18.496094 28.707031 18.480469 28.902344 18.472656 C 28.527344 18.84375 28.253906 19.390625 27.96875 19.796875 C 27.441406 20.6875 26.882812 21.558594 26.351562 22.449219 C 25.496094 22.253906 24.660156 21.992188 23.839844 21.675781 C 23.746094 21.644531 23.652344 21.613281 23.558594 21.585938 C 24.5 20.667969 25.519531 19.847656 26.621094 19.125 C 26.851562 18.960938 27.097656 18.824219 27.359375 18.707031 Z M 25.496094 19.222656 C 25.84375 19.097656 26.183594 18.953125 26.53125 18.828125 C 26.1875 19.046875 25.867188 19.285156 25.722656 19.363281 C 24.855469 20.015625 24.027344 20.71875 23.238281 21.46875 C 23 21.378906 22.765625 21.28125 22.539062 21.171875 C 22.433594 21.125 22.335938 21.066406 22.246094 21 C 23.222656 20.210938 24.304688 19.617188 25.496094 19.222656 Z M 18.089844 24.859375 C 19.195312 23.441406 20.5625 22.257812 21.996094 21.1875 C 22.1875 21.355469 22.609375 21.546875 23.003906 21.707031 C 22.882812 21.832031 22.761719 21.957031 22.644531 22.085938 C 21.761719 23.039062 20.984375 24.066406 20.308594 25.175781 C 20.007812 25.773438 19.675781 26.363281 19.386719 26.96875 C 19.175781 26.859375 18.964844 26.742188 18.757812 26.621094 C 18.300781 26.382812 17.882812 26.085938 17.5 25.734375 C 17.683594 25.4375 17.882812 25.144531 18.089844 24.859375 Z M 17.355469 25.976562 C 17.671875 26.277344 18.019531 26.539062 18.394531 26.757812 C 18.679688 26.929688 18.964844 27.09375 19.257812 27.246094 C 19.152344 27.480469 19.054688 27.71875 18.96875 27.960938 C 18.507812 29.269531 18.214844 30.613281 18.089844 31.992188 C 17.839844 31.894531 17.59375 31.789062 17.351562 31.675781 C 16.726562 31.4375 16.160156 31.050781 15.621094 30.683594 C 15.921875 29.011719 16.5 27.441406 17.355469 25.976562 Z M 15.515625 31.359375 C 15.535156 31.238281 15.550781 31.117188 15.570312 30.996094 C 15.789062 31.167969 16.121094 31.347656 16.234375 31.441406 C 16.8125 31.8125 17.421875 32.117188 18.0625 32.359375 C 17.964844 33.804688 18.03125 35.238281 18.261719 36.667969 C 18.285156 36.804688 18.308594 36.941406 18.335938 37.078125 C 17.691406 36.765625 17.035156 36.480469 16.40625 36.136719 C 16.242188 36.035156 16.074219 35.9375 15.917969 35.828125 C 15.828125 35.761719 15.746094 35.664062 15.625 35.65625 C 15.421875 34.226562 15.382812 32.796875 15.515625 31.359375 Z M 17.648438 41.167969 C 17.644531 41.167969 17.640625 41.164062 17.640625 41.164062 C 17.105469 40.324219 16.667969 39.4375 16.316406 38.507812 C 16.046875 37.722656 15.839844 36.921875 15.695312 36.105469 C 16.371094 36.601562 17.167969 36.894531 17.914062 37.273438 C 18.082031 37.363281 18.25 37.449219 18.421875 37.53125 C 18.753906 39.195312 19.21875 40.851562 19.917969 42.394531 C 19.6875 42.300781 19.460938 42.203125 19.234375 42.105469 C 18.707031 41.800781 18.082031 41.609375 17.648438 41.167969 Z M 21.511719 45.3125 C 20.566406 44.730469 19.773438 43.914062 19.089844 43.039062 C 18.734375 42.660156 18.40625 42.257812 18.101562 41.839844 C 18.746094 42.210938 19.414062 42.53125 20.105469 42.800781 C 20.398438 43.402344 20.726562 43.976562 21.097656 44.53125 C 21.292969 44.816406 21.480469 45.121094 21.683594 45.414062 C 21.625 45.378906 21.570312 45.347656 21.511719 45.3125 Z M 24.234375 46.746094 C 23.660156 46.460938 23.082031 46.175781 22.515625 45.875 C 22.332031 45.679688 22.160156 45.472656 22.003906 45.253906 C 21.496094 44.546875 21.035156 43.816406 20.617188 43.050781 C 20.609375 43.03125 20.597656 43.007812 20.589844 42.988281 C 21.414062 43.296875 22.265625 43.535156 23.113281 43.777344 C 23.824219 43.929688 24.542969 44.050781 25.261719 44.15625 C 25.4375 44.625 25.632812 45.082031 25.855469 45.53125 C 26.074219 46.035156 26.324219 46.523438 26.605469 46.996094 C 26.738281 47.175781 26.847656 47.394531 26.992188 47.578125 C 26.054688 47.363281 25.144531 47.039062 24.234375 46.746094 Z M 30.664062 48.054688 C 29.691406 48.027344 28.71875 47.871094 27.765625 47.722656 C 27.671875 47.710938 27.574219 47.695312 27.480469 47.675781 C 27.488281 47.589844 27.457031 47.527344 27.382812 47.488281 C 27.148438 47.1875 26.9375 46.871094 26.753906 46.535156 C 26.355469 45.828125 26.050781 45.074219 25.710938 44.335938 C 25.695312 44.296875 25.679688 44.253906 25.664062 44.214844 C 26.351562 44.308594 27.042969 44.386719 27.738281 44.453125 C 28.683594 44.523438 29.628906 44.542969 30.578125 44.542969 C 30.601562 45.238281 30.621094 45.933594 30.625 46.628906 C 30.613281 47.011719 30.671875 47.390625 30.667969 47.773438 C 30.675781 47.851562 30.660156 47.960938 30.664062 48.054688 Z M 30.601562 37.0625 C 30.617188 36.257812 30.585938 35.457031 30.550781 34.65625 C 30.980469 34.648438 31.414062 34.625 31.84375 34.585938 C 33.429688 34.457031 34.996094 34.207031 36.542969 33.828125 C 36.542969 35.53125 36.4375 37.226562 36.234375 38.917969 C 35.421875 39.113281 34.597656 39.253906 33.773438 39.410156 C 32.933594 39.484375 32.101562 39.621094 31.253906 39.613281 C 31.0625 39.628906 30.871094 39.636719 30.679688 39.644531 C 30.660156 38.78125 30.648438 37.921875 30.601562 37.058594 Z M 30.722656 40.71875 C 30.710938 40.464844 30.699219 40.214844 30.691406 39.964844 C 31.050781 39.945312 31.40625 39.921875 31.765625 39.921875 C 33.257812 39.84375 34.6875 39.5625 36.148438 39.265625 L 36.191406 39.253906 C 36.125 39.757812 36.054688 40.261719 35.972656 40.761719 C 35.757812 41.828125 35.515625 42.890625 35.226562 43.941406 C 33.957031 44.160156 32.664062 44.191406 31.378906 44.199219 C 31.226562 44.199219 31.074219 44.203125 30.921875 44.203125 C 30.886719 43.039062 30.804688 41.878906 30.722656 40.71875 Z M 33.761719 47.554688 C 33.3125 47.691406 32.859375 47.820312 32.40625 47.945312 C 31.953125 48.023438 31.492188 48.0625 31.03125 48.058594 C 31.054688 47.886719 31 47.65625 31.019531 47.507812 C 30.957031 46.558594 30.984375 45.605469 30.9375 44.65625 C 30.933594 44.617188 30.933594 44.578125 30.933594 44.542969 C 31.777344 44.539062 32.625 44.519531 33.46875 44.507812 C 34.023438 44.460938 34.574219 44.394531 35.125 44.308594 C 35.011719 44.703125 34.886719 45.09375 34.757812 45.484375 C 34.546875 46.015625 34.265625 46.515625 34.046875 47.046875 C 34.007812 47.183594 33.828125 47.382812 33.761719 47.554688 Z M 37.472656 46.15625 C 37.042969 46.375 36.601562 46.578125 36.160156 46.773438 C 35.539062 46.996094 34.910156 47.203125 34.277344 47.398438 C 34.460938 47.039062 34.628906 46.5625 34.71875 46.40625 C 35.101562 45.734375 35.308594 44.980469 35.507812 44.242188 C 36.683594 44.035156 37.835938 43.734375 38.964844 43.347656 C 38.789062 43.71875 38.605469 44.089844 38.417969 44.457031 C 38.164062 44.871094 38.007812 45.332031 37.746094 45.738281 C 37.683594 45.867188 37.488281 46.011719 37.472656 46.15625 Z M 41.722656 42.542969 C 41.171875 43.25 40.523438 43.871094 39.921875 44.53125 C 39.367188 45.019531 38.769531 45.445312 38.125 45.804688 C 38.398438 45.324219 38.664062 44.671875 38.800781 44.5 C 39.015625 44.0625 39.226562 43.621094 39.4375 43.179688 C 39.511719 43.152344 39.585938 43.125 39.65625 43.097656 C 40.457031 42.78125 41.304688 42.503906 42.035156 42.046875 C 41.929688 42.210938 41.824219 42.378906 41.722656 42.542969 Z M 43.285156 39.648438 C 43.09375 40.21875 42.839844 40.757812 42.519531 41.269531 C 42.511719 41.273438 42.5 41.277344 42.492188 41.28125 C 42.269531 41.457031 42.035156 41.621094 41.789062 41.765625 C 41.34375 42.046875 40.871094 42.269531 40.375 42.433594 C 40.132812 42.53125 39.894531 42.625 39.652344 42.714844 C 39.933594 42.097656 40.199219 41.472656 40.429688 40.835938 C 40.769531 39.753906 41.136719 38.671875 41.4375 37.570312 C 41.746094 37.429688 42.054688 37.292969 42.351562 37.132812 C 42.714844 36.886719 43.121094 36.71875 43.492188 36.480469 C 43.867188 36.183594 44.28125 35.929688 44.660156 35.632812 C 44.453125 37.054688 43.859375 38.347656 43.285156 39.648438 Z M 44.753906 35.125 C 44.738281 35.152344 44.730469 35.183594 44.734375 35.214844 C 44.234375 35.613281 43.703125 35.972656 43.179688 36.339844 C 42.632812 36.625 42.09375 36.921875 41.539062 37.191406 C 41.625 36.867188 41.699219 36.539062 41.769531 36.210938 C 41.96875 35.210938 41.945312 34.1875 41.957031 33.171875 C 41.953125 32.847656 41.945312 32.523438 41.929688 32.199219 C 42.507812 31.980469 43.074219 31.742188 43.628906 31.472656 C 43.757812 31.398438 44.382812 31.140625 44.660156 30.890625 C 44.714844 31.136719 44.773438 31.386719 44.835938 31.632812 C 45 32.800781 44.972656 33.964844 44.753906 35.125 Z M 44.753906 35.125 " fill-opacity="1" fill-rule="nonzero"/></g><path fill="#eef0ed" d="M 41.777344 20.167969 C 41.984375 20.335938 42.15625 20.53125 42.296875 20.757812 C 42.585938 21.316406 42.738281 21.9375 42.882812 22.546875 C 42.972656 22.808594 42.886719 23.507812 43.097656 23.632812 C 43.5 23.824219 43.503906 22.609375 43.695312 22.363281 C 43.84375 22.023438 44.085938 21.738281 44.289062 21.433594 C 44.574219 20.976562 44.902344 20.539062 45.371094 20.257812 C 45.820312 19.949219 45.183594 19.707031 45 19.476562 C 44.730469 19.144531 44.4375 18.804688 44.34375 18.375 C 44.132812 17.78125 43.984375 17.175781 43.890625 16.554688 C 43.875 16.425781 43.878906 16.300781 43.894531 16.175781 C 43.890625 16.113281 43.859375 16.070312 43.804688 16.046875 C 43.75 16.019531 43.699219 16.027344 43.648438 16.066406 C 43.605469 16.109375 43.582031 16.160156 43.578125 16.222656 C 43.507812 16.542969 43.453125 16.867188 43.363281 17.1875 C 43.042969 18.164062 42.597656 19.222656 41.644531 19.722656 C 41.566406 19.71875 41.507812 19.75 41.472656 19.816406 C 41.4375 19.882812 41.441406 19.949219 41.488281 20.011719 C 41.554688 20.105469 41.679688 20.125 41.777344 20.167969 Z M 43.660156 17.214844 C 43.769531 17.832031 43.953125 18.425781 44.207031 19 C 44.460938 19.371094 44.703125 19.769531 45.089844 20.019531 C 44.679688 20.296875 44.351562 20.644531 44.105469 21.066406 C 43.792969 21.546875 43.398438 21.984375 43.246094 22.550781 C 43.019531 21.59375 42.8125 20.511719 41.992188 19.882812 C 41.976562 19.871094 41.960938 19.863281 41.945312 19.851562 C 42.886719 19.304688 43.335938 18.207031 43.660156 17.214844 Z M 43.660156 17.214844 " fill-opacity="1" fill-rule="nonzero"/><path fill="#eef0ed" d="M 46.871094 23.882812 C 45.613281 23.144531 46.023438 22.003906 45.640625 21.820312 C 45.375 21.785156 45.480469 22.09375 45.410156 22.25 C 45.269531 22.777344 45.089844 23.289062 44.875 23.789062 C 44.789062 23.941406 44.679688 24.078125 44.550781 24.199219 C 44.425781 24.328125 44.226562 24.410156 44.179688 24.59375 C 44.164062 24.878906 44.441406 24.8125 44.628906 24.789062 C 45.027344 24.925781 45.292969 25.351562 45.390625 25.746094 C 45.464844 25.980469 45.4375 26.265625 45.578125 26.472656 C 45.636719 26.519531 45.699219 26.53125 45.769531 26.503906 C 45.835938 26.480469 45.875 26.429688 45.886719 26.355469 C 45.917969 26.101562 45.925781 25.84375 45.964844 25.589844 C 46.046875 25.199219 46.164062 24.78125 46.46875 24.503906 C 46.617188 24.332031 47.097656 24.164062 46.871094 23.882812 Z M 45.644531 25.367188 C 45.488281 24.996094 45.238281 24.707031 44.886719 24.503906 C 44.828125 24.472656 44.765625 24.453125 44.699219 24.441406 C 45.222656 24.023438 45.351562 23.339844 45.582031 22.746094 C 45.722656 23.285156 46.015625 23.71875 46.464844 24.046875 C 46.003906 24.339844 45.769531 24.847656 45.644531 25.367188 Z M 45.644531 25.367188 " fill-opacity="1" fill-rule="nonzero"/><g clip-path="url(#951d65d23e)"><path fill="#eef0ed" d="M 16.441406 43.105469 C 16.246094 42.800781 16.082031 42.476562 15.953125 42.136719 C 15.742188 41.65625 15.566406 41.160156 15.425781 40.652344 C 15.378906 40.453125 15.34375 40.25 15.320312 40.042969 C 15.3125 39.855469 15.261719 39.460938 14.988281 39.625 C 14.929688 39.691406 14.894531 39.773438 14.890625 39.863281 C 14.804688 40.332031 14.738281 40.800781 14.621094 41.261719 C 14.425781 41.835938 14.234375 42.417969 14.003906 42.980469 C 13.804688 43.429688 13.492188 43.78125 13.070312 44.035156 C 13.003906 44.039062 12.957031 44.074219 12.925781 44.132812 C 12.894531 44.191406 12.894531 44.25 12.929688 44.308594 C 13.03125 44.425781 13.214844 44.433594 13.347656 44.511719 C 13.582031 44.648438 13.796875 44.816406 13.984375 45.011719 C 14.167969 45.234375 14.316406 45.480469 14.425781 45.75 C 14.601562 46.078125 14.734375 46.425781 14.824219 46.789062 C 14.902344 46.988281 14.875 47.476562 15.113281 47.542969 C 15.433594 47.570312 15.3125 47.109375 15.414062 46.914062 C 15.578125 46.222656 15.835938 45.566406 16.1875 44.949219 C 16.375 44.578125 16.734375 44.375 17.054688 44.136719 C 17.4375 43.820312 16.609375 43.359375 16.441406 43.105469 Z M 15.691406 45.117188 C 15.445312 45.585938 15.261719 46.074219 15.136719 46.589844 C 15.011719 46.085938 14.769531 45.625 14.535156 45.164062 C 14.285156 44.761719 13.953125 44.445312 13.542969 44.210938 C 13.492188 44.1875 13.445312 44.167969 13.394531 44.144531 C 14.117188 43.691406 14.417969 42.863281 14.695312 42.097656 C 14.878906 41.671875 15.007812 41.230469 15.089844 40.777344 C 15.34375 41.632812 15.644531 42.480469 16.109375 43.246094 C 16.277344 43.511719 16.558594 43.675781 16.75 43.921875 C 16.265625 44.203125 15.914062 44.601562 15.691406 45.117188 Z M 15.691406 45.117188 " fill-opacity="1" fill-rule="nonzero"/></g><path fill="#eef0ed" d="M 19.3125 47.21875 C 19.078125 46.640625 19.078125 45.992188 19.042969 45.378906 C 19.050781 45.332031 19.035156 45.289062 19.003906 45.25 C 18.96875 45.210938 18.925781 45.195312 18.878906 45.195312 C 18.757812 45.199219 18.710938 45.320312 18.71875 45.425781 C 18.679688 45.582031 18.640625 45.738281 18.597656 45.894531 C 18.339844 46.6875 17.898438 47.5625 17.261719 48.109375 C 17.136719 48.191406 17.234375 48.410156 17.363281 48.4375 C 17.484375 48.472656 17.589844 48.535156 17.679688 48.621094 C 18.089844 49.019531 18.179688 49.613281 18.246094 50.15625 C 18.265625 50.257812 18.324219 50.304688 18.429688 50.300781 C 18.582031 50.296875 18.609375 50.140625 18.609375 50.015625 C 18.652344 49.648438 18.746094 49.269531 18.980469 48.972656 C 19.128906 48.78125 19.296875 48.613281 19.488281 48.460938 C 19.617188 48.34375 19.871094 48.292969 19.867188 48.082031 C 19.863281 47.980469 19.777344 47.910156 19.714844 47.839844 C 19.558594 47.644531 19.425781 47.4375 19.3125 47.21875 Z M 18.433594 49.222656 C 18.410156 49.148438 18.382812 49.078125 18.355469 49.007812 C 18.328125 48.933594 18.292969 48.859375 18.25 48.789062 C 18.105469 48.515625 17.898438 48.304688 17.628906 48.15625 C 18.117188 47.625 18.492188 47.027344 18.757812 46.363281 C 18.789062 47.007812 19.015625 47.574219 19.4375 48.0625 C 18.984375 48.347656 18.648438 48.734375 18.433594 49.222656 Z M 18.433594 49.222656 " fill-opacity="1" fill-rule="nonzero"/><g clip-path="url(#c20224f65d)"><path fill="#eef0ed" d="M 15.503906 50.019531 C 15.003906 49.628906 14.867188 48.964844 14.726562 48.378906 C 14.710938 48.304688 14.695312 48.226562 14.679688 48.152344 C 14.652344 48.070312 14.597656 48.035156 14.515625 48.046875 C 14.429688 48.054688 14.382812 48.101562 14.375 48.183594 C 14.300781 48.703125 14.035156 49.207031 13.730469 49.628906 C 13.625 49.757812 13.507812 49.867188 13.371094 49.960938 C 13.199219 50.046875 12.988281 50.210938 13.214844 50.375 C 13.671875 50.574219 13.96875 51.046875 14.089844 51.519531 C 14.125 51.679688 14.152344 51.847656 14.175781 52.011719 C 14.179688 52.09375 14.207031 52.164062 14.257812 52.230469 C 14.355469 52.320312 14.445312 52.3125 14.523438 52.203125 C 14.582031 52.117188 14.558594 52.003906 14.585938 51.910156 C 14.625 51.703125 14.683594 51.503906 14.769531 51.308594 C 14.925781 50.800781 15.078125 50.660156 15.578125 50.496094 C 15.847656 50.363281 15.699219 50.128906 15.503906 50.019531 Z M 14.398438 51.289062 C 14.265625 50.878906 14.039062 50.535156 13.714844 50.25 C 13.667969 50.214844 13.617188 50.183594 13.5625 50.15625 C 14.015625 49.851562 14.273438 49.34375 14.488281 48.859375 C 14.613281 49.371094 14.804688 49.90625 15.226562 50.25 C 14.726562 50.402344 14.546875 50.835938 14.398438 51.289062 Z M 14.398438 51.289062 " fill-opacity="1" fill-rule="nonzero"/></g></svg>