<svg xmlns="http://www.w3.org/2000/svg" xmlns:xlink="http://www.w3.org/1999/xlink" width="80" zoomAndPan="magnify" viewBox="0 0 60 60" height="80" preserveAspectRatio="xMidYMid meet" version="1.0"><defs><clipPath id="d3e7b5815b"><path d="M 7.4375 14.769531 L 52.4375 14.769531 L 52.4375 45.519531 L 7.4375 45.519531 Z M 7.4375 14.769531 " clip-rule="nonzero"/></clipPath></defs><g clip-path="url(#d3e7b5815b)"><path fill="#eef0ed" d="M 10.539062 45.226562 L 49.449219 45.226562 C 51.152344 45.226562 52.539062 43.84375 52.539062 42.140625 L 52.539062 21.925781 C 52.539062 20.222656 51.152344 18.839844 49.449219 18.839844 L 46.535156 18.839844 L 45.847656 16.851562 C 45.699219 16.429688 45.316406 16.15625 44.867188 16.15625 C 44.417969 16.15625 44.035156 16.429688 43.886719 16.851562 L 43.199219 18.839844 L 37.9375 18.839844 L 37.03125 16.179688 C 36.746094 15.335938 35.953125 14.769531 35.0625 14.769531 L 24.925781 14.769531 C 24.035156 14.769531 23.242188 15.335938 22.957031 16.179688 L 22.054688 18.839844 L 16.210938 18.839844 L 16.210938 17.535156 C 16.210938 16.792969 15.605469 16.1875 14.859375 16.1875 L 12.03125 16.1875 C 11.289062 16.1875 10.683594 16.792969 10.683594 17.535156 L 10.683594 18.839844 L 10.539062 18.839844 C 8.835938 18.839844 7.453125 20.222656 7.453125 21.925781 L 7.453125 42.140625 C 7.453125 43.84375 8.835938 45.226562 10.539062 45.226562 Z M 51.851562 39.792969 L 38.214844 39.792969 C 40.128906 37.765625 41.304688 35.035156 41.304688 32.035156 C 41.304688 29.09375 40.175781 26.414062 38.332031 24.402344 L 43.285156 24.402344 L 43.886719 26.136719 C 44.035156 26.558594 44.417969 26.835938 44.867188 26.835938 C 45.316406 26.835938 45.699219 26.558594 45.847656 26.136719 L 46.449219 24.402344 L 51.851562 24.402344 Z M 29.996094 42.65625 C 24.136719 42.65625 19.371094 37.890625 19.371094 32.035156 C 19.371094 26.175781 24.136719 21.410156 29.996094 21.410156 C 35.851562 21.410156 40.617188 26.175781 40.617188 32.035156 C 40.617188 37.890625 35.851562 42.65625 29.996094 42.65625 Z M 49.449219 19.523438 C 50.773438 19.523438 51.851562 20.601562 51.851562 21.925781 L 51.851562 23.714844 L 46.6875 23.714844 L 46.820312 23.332031 L 48.660156 22.425781 C 49.015625 22.25 49.238281 21.890625 49.238281 21.496094 C 49.238281 21.097656 49.015625 20.742188 48.660156 20.5625 L 46.820312 19.65625 L 46.773438 19.523438 Z M 43.34375 20.207031 C 43.425781 20.167969 43.488281 20.097656 43.515625 20.011719 L 44.535156 17.078125 C 44.609375 16.855469 44.808594 16.839844 44.867188 16.839844 C 44.925781 16.839844 45.125 16.855469 45.199219 17.078125 L 46.21875 20.011719 C 46.246094 20.097656 46.308594 20.167969 46.390625 20.207031 L 48.355469 21.179688 C 48.480469 21.238281 48.554688 21.359375 48.554688 21.496094 C 48.554688 21.632812 48.480469 21.75 48.355469 21.808594 L 46.390625 22.78125 C 46.308594 22.820312 46.246094 22.890625 46.21875 22.976562 L 45.199219 25.914062 C 45.125 26.132812 44.925781 26.148438 44.867188 26.148438 C 44.808594 26.148438 44.609375 26.132812 44.535156 25.914062 L 43.515625 22.976562 C 43.488281 22.890625 43.425781 22.820312 43.34375 22.78125 L 41.378906 21.808594 C 41.253906 21.75 41.179688 21.632812 41.179688 21.496094 C 41.179688 21.359375 41.253906 21.238281 41.378906 21.179688 Z M 23.605469 16.398438 C 23.796875 15.835938 24.328125 15.453125 24.925781 15.453125 L 35.0625 15.453125 C 35.660156 15.453125 36.191406 15.835938 36.382812 16.398438 L 37.210938 18.839844 L 22.777344 18.839844 Z M 11.367188 17.535156 C 11.367188 17.167969 11.667969 16.871094 12.03125 16.871094 L 14.859375 16.871094 C 15.226562 16.871094 15.527344 17.167969 15.527344 17.535156 L 15.527344 18.839844 L 11.367188 18.839844 Z M 8.136719 21.925781 C 8.136719 20.601562 9.214844 19.523438 10.539062 19.523438 L 42.960938 19.523438 L 42.914062 19.65625 L 41.074219 20.5625 C 40.71875 20.742188 40.496094 21.097656 40.496094 21.496094 C 40.496094 21.890625 40.71875 22.25 41.074219 22.425781 L 42.914062 23.332031 L 43.046875 23.714844 L 37.648438 23.714844 C 35.632812 21.859375 32.945312 20.722656 29.996094 20.722656 C 27.046875 20.722656 24.355469 21.859375 22.339844 23.714844 L 8.136719 23.714844 Z M 8.136719 24.402344 L 21.65625 24.402344 C 19.8125 26.414062 18.683594 29.09375 18.683594 32.035156 C 18.683594 35.035156 19.859375 37.765625 21.773438 39.792969 L 8.136719 39.792969 Z M 8.136719 40.476562 L 22.480469 40.476562 C 24.480469 42.257812 27.113281 43.34375 29.996094 43.34375 C 32.875 43.34375 35.507812 42.257812 37.507812 40.476562 L 51.851562 40.476562 L 51.851562 42.140625 C 51.851562 43.464844 50.773438 44.542969 49.449219 44.542969 L 10.539062 44.542969 C 9.214844 44.542969 8.136719 43.464844 8.136719 42.140625 Z M 8.136719 40.476562 " fill-opacity="1" fill-rule="nonzero"/></g><path fill="#eef0ed" d="M 29.996094 23.355469 C 25.207031 23.355469 21.316406 27.246094 21.316406 32.035156 C 21.316406 36.820312 25.207031 40.710938 29.996094 40.710938 C 34.78125 40.710938 38.671875 36.820312 38.671875 32.035156 C 38.671875 27.246094 34.78125 23.355469 29.996094 23.355469 Z M 29.996094 40.027344 C 25.585938 40.027344 22 36.441406 22 32.035156 C 22 27.625 25.585938 24.039062 29.996094 24.039062 C 34.402344 24.039062 37.988281 27.625 37.988281 32.035156 C 37.988281 36.441406 34.402344 40.027344 29.996094 40.027344 Z M 29.996094 40.027344 " fill-opacity="1" fill-rule="nonzero"/><path fill="#eef0ed" d="M 32.667969 28.195312 C 32.039062 28.164062 31.390625 28.386719 30.789062 28.839844 C 30.402344 29.132812 30.058594 29.476562 29.792969 29.839844 C 29.527344 29.476562 29.183594 29.132812 28.796875 28.839844 C 28.195312 28.386719 27.546875 28.164062 26.917969 28.195312 C 25.519531 28.257812 24.355469 29.390625 24.210938 30.828125 C 23.976562 33.175781 25.78125 35.03125 27.332031 36.171875 C 27.691406 36.4375 28.070312 36.679688 28.460938 36.890625 C 28.792969 37.078125 29.066406 37.214844 29.351562 37.332031 C 29.492188 37.394531 29.640625 37.421875 29.792969 37.421875 C 29.796875 37.421875 29.804688 37.421875 29.808594 37.421875 C 29.957031 37.421875 30.101562 37.390625 30.238281 37.332031 C 30.519531 37.214844 30.792969 37.078125 31.125 36.894531 C 31.515625 36.679688 31.894531 36.4375 32.253906 36.171875 C 33.804688 35.03125 35.609375 33.175781 35.375 30.828125 C 35.230469 29.390625 34.066406 28.257812 32.667969 28.195312 Z M 31.847656 35.621094 C 31.515625 35.867188 31.160156 36.09375 30.792969 36.292969 C 30.480469 36.46875 30.230469 36.59375 29.972656 36.699219 C 29.914062 36.722656 29.859375 36.734375 29.800781 36.738281 C 29.738281 36.738281 29.675781 36.726562 29.617188 36.703125 C 29.359375 36.59375 29.105469 36.46875 28.792969 36.292969 C 28.425781 36.09375 28.070312 35.867188 27.738281 35.621094 C 26.328125 34.585938 24.691406 32.925781 24.894531 30.898438 C 25.003906 29.8125 25.90625 28.925781 26.949219 28.878906 C 26.972656 28.878906 27 28.875 27.027344 28.875 C 27.582031 28.875 28.070312 29.152344 28.386719 29.390625 C 28.734375 29.652344 29.042969 29.960938 29.273438 30.289062 C 29.390625 30.457031 29.585938 30.558594 29.796875 30.554688 C 30.003906 30.554688 30.195312 30.453125 30.316406 30.285156 C 30.542969 29.960938 30.851562 29.652344 31.199219 29.390625 C 31.53125 29.140625 32.046875 28.851562 32.636719 28.878906 C 33.679688 28.925781 34.582031 29.8125 34.691406 30.898438 C 34.894531 32.925781 33.257812 34.585938 31.847656 35.621094 Z M 31.847656 35.621094 " fill-opacity="1" fill-rule="nonzero"/></svg>