<svg xmlns="http://www.w3.org/2000/svg" xmlns:xlink="http://www.w3.org/1999/xlink" width="80" zoomAndPan="magnify" viewBox="0 0 60 60" height="80" preserveAspectRatio="xMidYMid meet" version="1.0"><defs><clipPath id="7ed8b0233e"><path d="M 11 10 L 44 10 L 44 51.6875 L 11 51.6875 Z M 11 10 " clip-rule="nonzero"/></clipPath></defs><g clip-path="url(#7ed8b0233e)"><path fill="#eef0ed" d="M 43.777344 20.78125 C 43.738281 20.757812 43.695312 20.742188 43.652344 20.738281 C 43.074219 20.660156 37.636719 20.625 31.804688 20.625 C 32.347656 16.734375 30.484375 13.75 28.332031 12.484375 C 21.308594 8.363281 16.066406 11.269531 13.5 15.363281 C 10.632812 19.945312 10.546875 26.84375 14.996094 29.816406 L 15.085938 29.875 C 16.570312 30.886719 18.28125 31.390625 20.199219 31.390625 C 21.289062 31.390625 22.449219 31.226562 23.667969 30.898438 C 25.054688 32.320312 27.6875 34.96875 29.730469 35.582031 C 29.777344 37.351562 30.140625 46.515625 30.210938 48.332031 C 28.871094 48.519531 27.84375 48.933594 27.203125 49.265625 C 26.792969 49.472656 26.5 49.667969 26.320312 49.792969 C 25.972656 50.042969 25.894531 50.136719 25.894531 50.304688 C 25.894531 50.359375 25.910156 50.417969 25.9375 50.46875 C 26.199219 50.9375 27.214844 51.261719 27.796875 51.410156 C 28.707031 51.648438 29.832031 51.804688 31.035156 51.804688 C 32.949219 51.804688 35.0625 51.40625 36.847656 50.304688 C 36.890625 50.277344 36.929688 50.238281 36.957031 50.191406 C 37.023438 50.078125 37.023438 49.941406 36.957031 49.820312 C 36.722656 49.394531 34.769531 48.359375 32.144531 48.246094 L 31.386719 35.566406 C 33.527344 34.816406 36.914062 31.0625 38.792969 28.824219 C 41.226562 25.929688 43.832031 22.328125 43.988281 21.304688 C 44.039062 20.972656 43.859375 20.828125 43.777344 20.78125 Z M 15.46875 29.316406 L 15.375 29.253906 C 11.25 26.5 11.375 20.035156 14.074219 15.722656 C 15.238281 13.867188 19.675781 8.191406 27.988281 13.070312 C 29.960938 14.226562 31.660156 16.996094 31.117188 20.625 L 30.441406 20.625 C 30.824219 17.253906 29.253906 14.675781 27.46875 13.589844 C 24.71875 11.914062 21.996094 11.414062 19.589844 12.140625 C 17.234375 12.851562 15.257812 14.6875 14.03125 17.3125 C 14.023438 17.320312 14.019531 17.332031 14.015625 17.339844 C 12.320312 20.988281 12.277344 26.066406 15.46875 28.726562 C 15.472656 28.730469 15.472656 28.730469 15.476562 28.734375 C 15.480469 28.738281 15.484375 28.738281 15.484375 28.742188 C 15.609375 28.847656 15.746094 28.949219 15.890625 29.050781 C 15.921875 29.074219 15.953125 29.097656 15.992188 29.125 C 16.539062 29.523438 17.914062 30.515625 20.230469 30.515625 C 21.015625 30.515625 21.90625 30.402344 22.910156 30.113281 C 22.980469 30.1875 23.054688 30.261719 23.128906 30.339844 C 20.117188 31.070312 17.542969 30.726562 15.46875 29.316406 Z M 28.316406 20.628906 C 28.886719 20.484375 29.382812 20.386719 29.792969 20.328125 C 29.785156 20.425781 29.773438 20.527344 29.761719 20.628906 Z M 23.554688 20.648438 C 25.011719 19.1875 28.113281 16.183594 28.667969 15.683594 C 29.359375 16.695312 29.828125 18.050781 29.824219 19.640625 C 28.890625 19.757812 27.5625 20.097656 25.875 20.648438 Z M 16.734375 21.273438 C 17.066406 21.839844 17.359375 22.347656 17.628906 22.808594 C 17.027344 22.988281 14.566406 23.726562 13.667969 24.046875 C 13.339844 22.058594 13.679688 19.867188 14.464844 18.003906 C 14.976562 18.410156 17.621094 20.402344 18.042969 20.722656 C 17.570312 20.734375 17.214844 20.75 17.003906 20.761719 C 16.886719 20.769531 16.78125 20.839844 16.726562 20.941406 C 16.671875 21.046875 16.675781 21.171875 16.734375 21.273438 Z M 22.386719 29.554688 C 21.574219 29.757812 20.847656 29.839844 20.203125 29.835938 C 20.285156 29.1875 20.4375 28.363281 20.625 27.539062 C 21.09375 28.128906 21.648438 28.761719 22.386719 29.554688 Z M 19.527344 29.800781 C 17.84375 29.628906 16.828125 28.894531 16.390625 28.574219 L 16.226562 28.457031 C 17.367188 27.484375 18.308594 26.507812 18.890625 25.902344 C 19.019531 25.769531 19.136719 25.648438 19.238281 25.546875 C 19.519531 26.007812 19.796875 26.421875 20.09375 26.835938 C 19.839844 27.878906 19.628906 28.976562 19.527344 29.800781 Z M 18.875 24.953125 C 18.757812 25.066406 18.605469 25.222656 18.402344 25.433594 C 17.816406 26.042969 16.851562 27.042969 15.695312 28.023438 C 14.726562 27.136719 14.117188 25.984375 13.800781 24.714844 C 14.492188 24.460938 17.558594 23.527344 17.945312 23.421875 C 17.957031 23.417969 17.964844 23.414062 17.972656 23.410156 C 18.3125 23.996094 18.605469 24.5 18.875 24.953125 Z M 22.597656 20.660156 L 22.53125 20.660156 C 22.394531 20.582031 22.25 20.515625 22.101562 20.460938 C 22.851562 17.9375 23.339844 15.523438 23.664062 12.699219 C 24.777344 12.957031 25.933594 13.445312 27.117188 14.167969 C 27.515625 14.410156 27.90625 14.742188 28.257812 15.148438 C 28.015625 15.355469 27.40625 15.929688 25.714844 17.578125 C 24.539062 18.722656 23.160156 20.082031 22.597656 20.660156 Z M 21.449219 20.277344 C 21.28125 20.25 21.117188 20.234375 20.953125 20.234375 C 20.910156 20.234375 20.863281 20.238281 20.820312 20.238281 C 20.292969 18.878906 19.730469 17.632812 19.183594 16.425781 C 18.78125 15.53125 18.363281 14.609375 17.960938 13.640625 C 18.535156 13.269531 19.144531 12.980469 19.785156 12.789062 C 20.8125 12.476562 21.886719 12.40625 22.996094 12.574219 C 22.675781 15.378906 22.195312 17.777344 21.449219 20.277344 Z M 17.394531 14.042969 C 17.785156 14.96875 18.179688 15.851562 18.566406 16.703125 C 19.117188 17.917969 19.636719 19.074219 20.140625 20.363281 C 19.898438 20.441406 19.671875 20.550781 19.46875 20.695312 L 19.121094 20.703125 C 18.609375 20.300781 15.242188 17.761719 14.757812 17.371094 C 15.4375 15.996094 16.335938 14.867188 17.394531 14.042969 Z M 38.378906 28.265625 C 35.132812 32.148438 32.359375 34.660156 30.957031 34.988281 C 30.796875 35.027344 30.6875 35.175781 30.695312 35.339844 L 31.488281 48.59375 C 31.5 48.769531 31.644531 48.910156 31.820312 48.910156 C 33.90625 48.945312 35.453125 49.585938 36.089844 49.960938 C 33.492188 51.363281 30.214844 51.300781 28.117188 50.792969 C 27.441406 50.628906 27.007812 50.449219 26.761719 50.3125 C 27.300781 49.941406 28.609375 49.179688 30.597656 48.96875 C 30.777344 48.949219 30.910156 48.796875 30.902344 48.617188 C 30.777344 45.542969 30.386719 35.726562 30.402344 35.339844 C 30.40625 35.171875 30.296875 35.023438 30.136719 34.988281 C 28.191406 34.566406 25.265625 31.566406 24.015625 30.285156 C 24.015625 30.28125 23.253906 29.492188 23.253906 29.492188 C 22.09375 28.265625 21.367188 27.421875 20.757812 26.59375 C 20.742188 26.570312 20.726562 26.550781 20.710938 26.53125 C 20.199219 25.832031 19.769531 25.140625 19.234375 24.226562 C 22.078125 24.632812 27.5 24.894531 33.082031 24.894531 C 33.375 24.894531 33.667969 24.894531 33.964844 24.890625 C 36.914062 24.878906 39.542969 24.613281 41.421875 24.351562 C 40.617188 25.480469 39.582031 26.824219 38.378906 28.265625 Z M 41.953125 23.589844 C 40.082031 23.871094 37.21875 24.199219 33.960938 24.214844 C 27.71875 24.246094 21.535156 23.941406 18.792969 23.476562 C 18.695312 23.304688 17.933594 21.980469 17.601562 21.414062 C 19.019531 21.367188 22.234375 21.332031 25.933594 21.316406 C 25.933594 21.316406 31.417969 21.300781 31.4375 21.300781 C 36.808594 21.296875 41.917969 21.324219 43.269531 21.386719 C 43.121094 21.769531 42.664062 22.550781 41.953125 23.589844 Z M 34.929688 27.199219 C 34.917969 27.191406 34.902344 27.1875 34.878906 27.179688 C 34.199219 26.953125 33.46875 27.15625 32.96875 27.542969 C 32.789062 27.148438 32.488281 26.835938 32.089844 26.636719 C 32.015625 26.597656 31.941406 26.570312 31.863281 26.542969 C 31.742188 25.867188 31.304688 25.414062 30.582031 25.226562 C 30.195312 25.125 29.824219 25.125 29.476562 25.207031 C 29.460938 25.210938 29.445312 25.214844 29.429688 25.21875 C 29.425781 25.21875 29.421875 25.21875 29.417969 25.222656 C 28.636719 25.445312 28.164062 26.09375 27.980469 26.699219 C 27.585938 26.457031 27.128906 26.359375 26.65625 26.421875 C 25.765625 26.550781 25.023438 27.246094 24.898438 28.085938 C 24.828125 28.554688 24.871094 29.746094 26.804688 30.65625 C 26.808594 30.660156 26.816406 30.660156 26.824219 30.664062 C 26.832031 30.667969 26.839844 30.671875 26.851562 30.675781 C 26.855469 30.679688 26.859375 30.679688 26.859375 30.683594 C 27.285156 30.875 27.773438 31.046875 28.3125 31.1875 C 28.34375 31.195312 28.386719 31.207031 28.429688 31.21875 C 28.703125 31.292969 29.078125 31.398438 29.421875 31.398438 C 29.695312 31.398438 29.953125 31.332031 30.121094 31.128906 C 30.15625 31.085938 30.253906 30.949219 30.390625 30.746094 C 30.519531 30.914062 30.652344 31.082031 30.800781 31.253906 C 30.820312 31.277344 30.847656 31.308594 30.875 31.339844 C 31.152344 31.675781 31.597656 32.210938 32.082031 32.210938 C 32.140625 32.210938 32.199219 32.203125 32.261719 32.1875 C 32.386719 32.148438 33.527344 31.734375 34.546875 31.085938 C 34.609375 31.046875 34.671875 31.007812 34.730469 30.964844 C 34.734375 30.960938 34.742188 30.957031 34.746094 30.957031 C 34.746094 30.953125 34.75 30.953125 34.753906 30.949219 C 35.644531 30.339844 36.136719 29.714844 36.21875 29.085938 C 36.277344 28.640625 36.136719 28.210938 35.792969 27.8125 C 35.542969 27.523438 35.253906 27.316406 34.929688 27.199219 Z M 29.601562 30.691406 C 29.546875 30.734375 29.347656 30.769531 28.613281 30.566406 C 28.5625 30.550781 28.515625 30.539062 28.480469 30.53125 C 27.984375 30.402344 27.535156 30.246094 27.148438 30.066406 C 27.125 30.058594 27.105469 30.046875 27.085938 30.039062 C 26.007812 29.5625 25.464844 28.859375 25.566406 28.1875 C 25.648438 27.648438 26.160156 27.175781 26.75 27.09375 C 27.210938 27.03125 27.644531 27.203125 27.980469 27.582031 C 28.078125 27.691406 28.234375 27.726562 28.371094 27.667969 C 28.503906 27.609375 28.585938 27.472656 28.574219 27.328125 C 28.527344 26.855469 28.898438 26.074219 29.605469 25.871094 L 29.617188 25.867188 C 29.625 25.867188 29.628906 25.867188 29.636719 25.863281 C 29.871094 25.800781 30.132812 25.808594 30.410156 25.882812 C 30.773438 25.976562 31.003906 26.152344 31.125 26.425781 C 30.625 26.4375 30.144531 26.632812 29.808594 26.988281 C 29.5 27.320312 28.886719 28.277344 29.914062 30.035156 L 29.941406 30.082031 C 29.953125 30.101562 29.964844 30.117188 29.976562 30.136719 C 29.777344 30.457031 29.628906 30.660156 29.601562 30.691406 Z M 35.550781 28.996094 C 35.492188 29.421875 35.085938 29.902344 34.371094 30.390625 C 34.367188 30.394531 34.363281 30.394531 34.359375 30.398438 C 34.355469 30.402344 34.351562 30.402344 34.351562 30.40625 C 34.292969 30.441406 34.238281 30.480469 34.179688 30.515625 C 33.246094 31.113281 32.183594 31.503906 32.085938 31.53125 C 32.019531 31.53125 31.84375 31.449219 31.394531 30.90625 C 31.363281 30.871094 31.335938 30.839844 31.3125 30.8125 C 30.992188 30.441406 30.726562 30.078125 30.523438 29.734375 L 30.496094 29.691406 C 29.9375 28.730469 29.867188 27.917969 30.304688 27.453125 C 30.519531 27.222656 30.847656 27.101562 31.183594 27.101562 C 31.386719 27.101562 31.597656 27.148438 31.789062 27.242188 C 32.058594 27.378906 32.398438 27.667969 32.472656 28.265625 C 32.492188 28.410156 32.601562 28.53125 32.742188 28.558594 C 32.886719 28.585938 33.035156 28.519531 33.105469 28.390625 C 33.320312 28.007812 34.015625 27.605469 34.660156 27.820312 L 34.675781 27.824219 C 34.683594 27.828125 34.6875 27.832031 34.695312 27.832031 C 34.90625 27.910156 35.105469 28.050781 35.277344 28.253906 C 35.492188 28.503906 35.582031 28.746094 35.550781 28.996094 Z M 35.550781 28.996094 " fill-opacity="1" fill-rule="nonzero"/></g></svg>